<svg xmlns="http://www.w3.org/2000/svg" xmlns:xlink="http://www.w3.org/1999/xlink" viewBox="0 0 2792.22 2772.4"><defs><style>.cls-1{fill:none;}.cls-2{isolation:isolate;}.cls-3{fill:url(#linear-gradient);}.cls-4{fill:#bdd0fb;}.cls-5{fill:#91b3fa;}.cls-6,.cls-9{fill:#fff;}.cls-6{mix-blend-mode:soft-light;}.cls-7{fill:#7d97f4;}.cls-8{fill:url(#linear-gradient-2);}.cls-10{fill:url(#linear-gradient-3);}.cls-11{clip-path:url(#clip-path);}.cls-12{fill:url(#linear-gradient-4);}.cls-13{fill:url(#linear-gradient-5);}.cls-14{fill:url(#linear-gradient-6);}.cls-15{fill:url(#linear-gradient-7);}.cls-16{fill:url(#linear-gradient-8);}.cls-17{fill:url(#linear-gradient-9);}.cls-18{fill:url(#linear-gradient-10);}.cls-19{fill:url(#linear-gradient-11);}.cls-20{fill:url(#linear-gradient-12);}.cls-21{clip-path:url(#clip-path-2);}.cls-22{fill:url(#linear-gradient-13);}.cls-23{fill:url(#linear-gradient-14);}.cls-24{fill:url(#linear-gradient-15);}.cls-25{fill:url(#linear-gradient-16);}.cls-26{fill:url(#linear-gradient-17);}.cls-27{fill:url(#linear-gradient-18);}.cls-28{fill:url(#linear-gradient-19);}.cls-29{fill:url(#linear-gradient-20);}.cls-30{fill:url(#linear-gradient-21);}.cls-31{fill:url(#linear-gradient-22);}.cls-32{fill:url(#linear-gradient-23);}.cls-33{clip-path:url(#clip-path-3);}.cls-34{fill:url(#linear-gradient-24);}.cls-35{fill:url(#linear-gradient-25);}.cls-36{fill:url(#linear-gradient-26);}.cls-37{fill:url(#linear-gradient-27);}.cls-38{fill:url(#linear-gradient-28);}.cls-39{fill:url(#linear-gradient-29);}.cls-40{fill:url(#linear-gradient-30);}.cls-41{fill:url(#linear-gradient-31);}.cls-42{fill:url(#linear-gradient-32);}.cls-43{fill:url(#linear-gradient-33);}</style><linearGradient id="linear-gradient" x1="1717.09" y1="916.2" x2="1038.17" y2="2132.87" gradientUnits="userSpaceOnUse"><stop offset="0" stop-color="#dae3fe"/><stop offset="1" stop-color="#e9effd"/></linearGradient><linearGradient id="linear-gradient-2" x1="644.6" y1="1314.68" x2="2148.19" y2="1314.68" gradientUnits="userSpaceOnUse"><stop offset="0" stop-color="#ff928e"/><stop offset="1" stop-color="#fe7062"/></linearGradient><linearGradient id="linear-gradient-3" x1="2535.83" y1="1379.95" x2="1635.09" y2="2657.12" gradientUnits="userSpaceOnUse"><stop offset="0" stop-color="#e1473d"/><stop offset="1" stop-color="#e9605a"/></linearGradient><clipPath id="clip-path"><path class="cls-1" d="M2244.46,2358.79c-184.42,39.1-380.36-40.69-490-179-44.61-56.28-227.25-252.71-243.16-327.73-55-259.44,307.45-439,566.88-494s549.43,122.59,604.44,382c24.55,115.75-80.35,351.41-132.41,448C2485.57,2308,2388.14,2328.31,2244.46,2358.79Z"/></clipPath><linearGradient id="linear-gradient-4" x1="-3341.8" y1="1543.37" x2="-3804.46" y2="2112.15" gradientTransform="matrix(-1, 0, 0, 1, -1772.78, 0)" gradientUnits="userSpaceOnUse"><stop offset="0" stop-color="#febbba"/><stop offset="1" stop-color="#ff928e"/></linearGradient><linearGradient id="linear-gradient-5" x1="3062.71" y1="810.23" x2="2759.31" y2="1170.75" gradientTransform="translate(-266.02 69.99) rotate(9.06)" gradientUnits="userSpaceOnUse"><stop offset="0" stop-color="#09005d"/><stop offset="1" stop-color="#1a0f91"/></linearGradient><linearGradient id="linear-gradient-6" x1="2279" y1="1898.4" x2="2021.9" y2="2503.35" gradientUnits="userSpaceOnUse"><stop offset="0" stop-color="#4f52ff"/><stop offset="1" stop-color="#4042e2"/></linearGradient><linearGradient id="linear-gradient-7" x1="2623.36" y1="1445.85" x2="2648.08" y2="1270.34" gradientTransform="translate(-266.02 69.99) rotate(9.06)" xlink:href="#linear-gradient-4"/><linearGradient id="linear-gradient-8" x1="2510.04" y1="1069.79" x2="2741.16" y2="1335.52" gradientTransform="translate(-266.02 69.99) rotate(9.06)" xlink:href="#linear-gradient-4"/><linearGradient id="linear-gradient-9" x1="2917.4" y1="687.94" x2="2613.99" y2="1048.46" xlink:href="#linear-gradient-5"/><linearGradient id="linear-gradient-10" x1="2567.78" y1="1019.56" x2="2798.91" y2="1285.29" gradientTransform="translate(-266.02 69.99) rotate(9.06)" xlink:href="#linear-gradient-4"/><linearGradient id="linear-gradient-11" x1="-4285.94" y1="2365.1" x2="-3371.23" y2="1318.81" xlink:href="#linear-gradient-4"/><linearGradient id="linear-gradient-12" x1="-997.78" y1="722.06" x2="2249.95" y2="3599.39" gradientTransform="matrix(-0.97, -0.25, -0.25, 0.97, 1889.09, 216.59)" xlink:href="#linear-gradient-2"/><clipPath id="clip-path-2"><path class="cls-1" d="M929.42,2552.56c-190.65,40.43-393.2-42.06-506.58-185.08C376.72,2309.31,234,2116.8,217.52,2039.25c-56.88-268.2,271.71-464.23,539.91-521.1s568,126.57,624.92,394.76c25.38,119.67-19.37,367.58-73.18,467.45C1242.37,2504.31,1078,2521.06,929.42,2552.56Z"/></clipPath><linearGradient id="linear-gradient-13" x1="-3494.39" y1="2417.81" x2="-3242.4" y2="2417.81" gradientTransform="matrix(-1, 0, 0, 1, -2269.43, 0)" gradientUnits="userSpaceOnUse"><stop offset="0" stop-color="#a22b25"/><stop offset="1" stop-color="#c0423c"/></linearGradient><linearGradient id="linear-gradient-14" x1="1291.61" y1="1829.72" x2="1187.42" y2="2048.18" xlink:href="#linear-gradient-6"/><linearGradient id="linear-gradient-15" x1="723.42" y1="2487.05" x2="1348.62" y2="1226.56" xlink:href="#linear-gradient-6"/><linearGradient id="linear-gradient-16" x1="2974.82" y1="1900.52" x2="2971.04" y2="1643.25" gradientTransform="translate(-2090.22)" xlink:href="#linear-gradient-13"/><linearGradient id="linear-gradient-17" x1="-1155.46" y1="-19985.87" x2="-980.69" y2="-19730.44" gradientTransform="matrix(0.93, -0.36, 0.36, 0.93, -13729.55, 4313.21)" xlink:href="#linear-gradient-13"/><linearGradient id="linear-gradient-18" x1="14432.12" y1="2785.34" x2="14635.71" y2="3047.47" gradientTransform="matrix(0.93, -0.36, 0.36, 0.93, -13729.55, 4313.21)" xlink:href="#linear-gradient-5"/><linearGradient id="linear-gradient-19" x1="-1220.38" y1="-19941.45" x2="-1045.61" y2="-19686.02" gradientTransform="matrix(0.93, -0.36, 0.36, 0.93, -13729.55, 4313.21)" xlink:href="#linear-gradient-13"/><linearGradient id="linear-gradient-20" x1="558.07" y1="2405.03" x2="1183.27" y2="1144.55" xlink:href="#linear-gradient-6"/><linearGradient id="linear-gradient-21" x1="2729.87" y1="2345.54" x2="2873.64" y2="2723.88" gradientTransform="translate(-2090.22)" xlink:href="#linear-gradient-13"/><linearGradient id="linear-gradient-22" x1="2900.62" y1="2269.26" x2="3054.3" y2="2673.66" gradientTransform="translate(-2090.22)" xlink:href="#linear-gradient-13"/><linearGradient id="linear-gradient-23" x1="-3527.49" y1="2346.41" x2="-3451.21" y2="2346.41" xlink:href="#linear-gradient-13"/><clipPath id="clip-path-3"><path class="cls-1" d="M1229.69,1047.23c176.79,34.43,909.75,36.53,1016.57-98.21,43.45-54.81-306.07-197.13-290.57-270.19,53.59-252.7-104.4-452-357.09-505.59s-514.75,54.57-568.34,307.27c-23.91,112.75-50.7,320.26,0,414.36C1093.2,1011.65,1089.27,1019.88,1229.69,1047.23Z"/></clipPath><linearGradient id="linear-gradient-24" x1="2034.63" y1="585.31" x2="1436.38" y2="975.18" xlink:href="#linear-gradient-2"/><linearGradient id="linear-gradient-25" x1="5129.95" y1="1413.93" x2="5348.91" y2="1413.93" gradientTransform="translate(-3253.55 -2.72) rotate(-5.16)" xlink:href="#linear-gradient-4"/><linearGradient id="linear-gradient-26" x1="1932.16" y1="428.07" x2="1333.91" y2="817.94" xlink:href="#linear-gradient-2"/><linearGradient id="linear-gradient-27" x1="-5114.25" y1="441.92" x2="-4930.41" y2="441.92" gradientTransform="matrix(-1, 0, 0, 1, -3639.43, 0)" xlink:href="#linear-gradient-4"/><linearGradient id="linear-gradient-28" x1="-5117.84" y1="971.67" x2="-4749.06" y2="971.67" gradientTransform="matrix(-1, 0, 0, 1, -3639.43, 0)" xlink:href="#linear-gradient-4"/><linearGradient id="linear-gradient-29" x1="1851.23" y1="303.89" x2="1252.98" y2="693.77" xlink:href="#linear-gradient-2"/><linearGradient id="linear-gradient-30" x1="-4937.31" y1="774.27" x2="-4452.4" y2="909.2" gradientTransform="matrix(-1, 0, 0, 1, -3639.43, 0)" xlink:href="#linear-gradient-3"/><linearGradient id="linear-gradient-31" x1="16735.45" y1="266.94" x2="16494.32" y2="585.94" gradientTransform="translate(-15189.39)" xlink:href="#linear-gradient-4"/><linearGradient id="linear-gradient-32" x1="-5107.04" y1="100.24" x2="-5240.97" y2="757.37" gradientTransform="matrix(-1, 0, 0, 1, -3639.43, 0)" xlink:href="#linear-gradient-5"/><linearGradient id="linear-gradient-33" x1="16392.02" y1="516.03" x2="16579.6" y2="323.58" gradientTransform="translate(-15189.39)" xlink:href="#linear-gradient-4"/></defs><g class="cls-2"><g id="Layer_2" data-name="Layer 2"><g id="Illustration"><path class="cls-3" d="M2456.81,2382.71c-72.56,74.8-137.49,118.76-187.2,152-484.81,323.71-1039,230.41-1210.34,198.52C782.83,2681.74,549.48,2645.44,349,2464.3c-455.57-411.6-433.42-1270.22-85.3-1802.1C305,599.14,652.55,83.9,1207.94,11.3c13.58-1.78,23.72-2.79,32.6-3.73,85.92-9.1,618.33-57.11,1052.46,306.61,62.15,52.06,162.15,146,254.89,289.2C2887,1127.09,2888.06,1938.2,2456.81,2382.71Z"/><rect class="cls-4" x="2281.83" y="1343.12" width="223.24" height="26.89" transform="translate(189.46 3003.17) rotate(-66.31)"/><path class="cls-5" d="M2230,1059.57l5.59,32.73a26.08,26.08,0,0,0,21.47,21.35l26,4.28a21.76,21.76,0,0,1,16.08,12.16,233.46,233.46,0,0,0,28.3,44.93,21.79,21.79,0,0,1,4,19.78l-7.4,25.33a26.07,26.07,0,0,0,10,28.59l27.1,19.2a26.08,26.08,0,0,0,30.27-.09l21.45-15.39a21.81,21.81,0,0,1,20-2.76,233.43,233.43,0,0,0,51.77,11.8,21.81,21.81,0,0,1,16.81,11.14l12.66,23.12a26.08,26.08,0,0,0,27.26,13.18l32.73-5.59a26.05,26.05,0,0,0,21.34-21.47l4.28-26a21.81,21.81,0,0,1,12.16-16.08,232.85,232.85,0,0,0,44.93-28.3,21.82,21.82,0,0,1,19.79-4l25.33,7.4a26.09,26.09,0,0,0,28.59-9.95l19.2-27.1a26.08,26.08,0,0,0-.09-30.27l-15.39-21.45a21.82,21.82,0,0,1-2.76-20,233.39,233.39,0,0,0,11.8-51.78,21.82,21.82,0,0,1,11.13-16.8l23.13-12.66a26.08,26.08,0,0,0,13.18-27.26l-5.59-32.73a26.08,26.08,0,0,0-21.47-21.35l-26-4.28a21.78,21.78,0,0,1-16.07-12.15,233.23,233.23,0,0,0-28.3-44.94,21.79,21.79,0,0,1-4-19.78l7.4-25.33a26.08,26.08,0,0,0-9.95-28.59l-27.1-19.2a26.08,26.08,0,0,0-30.27.09l-21.45,15.39a21.82,21.82,0,0,1-20,2.76,233.51,233.51,0,0,0-51.78-11.8,21.82,21.82,0,0,1-16.8-11.13l-12.66-23.13a26.08,26.08,0,0,0-27.26-13.18l-32.74,5.59a26.08,26.08,0,0,0-21.34,21.47l-4.28,26a21.76,21.76,0,0,1-12.16,16.08,233.46,233.46,0,0,0-44.93,28.3,21.79,21.79,0,0,1-19.78,4l-25.33-7.4a26.08,26.08,0,0,0-28.59,10l-19.2,27.1a26.08,26.08,0,0,0,.09,30.27l15.39,21.45a21.82,21.82,0,0,1,2.76,20,232.83,232.83,0,0,0-11.8,51.78,21.81,21.81,0,0,1-11.14,16.8l-23.12,12.66A26.08,26.08,0,0,0,2230,1059.57Zm87.53-17.85c-7.26-106.49,73.18-198.69,179.67-206S2695.9,909,2703.16,1015.44s-73.19,198.7-179.67,206S2324.79,1148.21,2317.54,1041.72Z"/><rect class="cls-4" x="2368.05" y="440.75" width="26.89" height="364.89" transform="translate(-78.44 530.47) rotate(-12.51)"/><rect class="cls-4" x="1918.47" y="331.81" width="262.95" height="26.89" transform="translate(-25.58 228.32) rotate(-6.34)"/><path class="cls-5" d="M2141.39,287.62l4.13,24.19a19.29,19.29,0,0,0,15.87,15.78l19.23,3.16a16.12,16.12,0,0,1,11.88,9A172.48,172.48,0,0,0,2213.42,373a16.13,16.13,0,0,1,3,14.62l-5.47,18.72a19.26,19.26,0,0,0,7.36,21.13l20,14.19a19.27,19.27,0,0,0,22.38-.07l15.85-11.37a16.15,16.15,0,0,1,14.78-2,172.06,172.06,0,0,0,38.26,8.72,16.12,16.12,0,0,1,12.42,8.23l9.36,17.09a19.26,19.26,0,0,0,20.14,9.74l24.2-4.13a19.26,19.26,0,0,0,15.77-15.86l3.17-19.23a16.12,16.12,0,0,1,9-11.89,171.34,171.34,0,0,0,33.21-20.91,16.11,16.11,0,0,1,14.62-3l18.73,5.47A19.28,19.28,0,0,0,2511.3,395l14.19-20a19.27,19.27,0,0,0-.07-22.37l-11.37-15.85a16.12,16.12,0,0,1-2-14.78,172.18,172.18,0,0,0,8.72-38.26,16.1,16.1,0,0,1,8.23-12.42l17.09-9.36a19.28,19.28,0,0,0,9.74-20.15l-4.13-24.19a19.27,19.27,0,0,0-15.87-15.78l-19.22-3.16a16.14,16.14,0,0,1-11.89-9,172,172,0,0,0-20.92-33.21,16.13,16.13,0,0,1-3-14.62l5.48-18.72a19.28,19.28,0,0,0-7.36-21.13l-20-14.19a19.26,19.26,0,0,0-22.37.07l-15.85,11.37a16.15,16.15,0,0,1-14.78,2,172.14,172.14,0,0,0-38.27-8.72,16.12,16.12,0,0,1-12.42-8.23l-9.36-17.09a19.26,19.26,0,0,0-20.14-9.74l-24.2,4.13a19.26,19.26,0,0,0-15.77,15.86l-3.16,19.23a16.14,16.14,0,0,1-9,11.89,172.43,172.43,0,0,0-33.21,20.91,16.08,16.08,0,0,1-14.62,3L2207,127a19.28,19.28,0,0,0-21.13,7.36l-14.19,20a19.26,19.26,0,0,0,.06,22.37l11.37,15.85a16.13,16.13,0,0,1,2,14.78,172.18,172.18,0,0,0-8.72,38.26,16.12,16.12,0,0,1-8.23,12.42l-17.1,9.36A19.28,19.28,0,0,0,2141.39,287.62Zm64.69-13.19A142.84,142.84,0,1,1,2358.3,407.22,142.84,142.84,0,0,1,2206.08,274.43Z"/><rect class="cls-4" x="866.14" y="285.66" width="26.89" height="340.05" transform="translate(189.94 1166.83) rotate(-73.27)"/><path class="cls-4" d="M116.11,221.8l-11.37,39a31.9,31.9,0,0,0,12.2,35l26.34,18.63a26.7,26.7,0,0,1,11.19,22A284.92,284.92,0,0,0,161.56,401a26.67,26.67,0,0,1-6.16,23.92l-21.7,23.91a31.9,31.9,0,0,0-4.35,36.79l19.55,35.63a31.9,31.9,0,0,0,33.36,16.1l31.83-5.45a26.68,26.68,0,0,1,23.48,7.65,285,285,0,0,0,50.66,40.69,26.7,26.7,0,0,1,12.53,21.25l1.56,32.23a31.9,31.9,0,0,0,22.94,29.08l39,11.38a31.93,31.93,0,0,0,35-12.21l18.63-26.34a26.67,26.67,0,0,1,22-11.18,284.93,284.93,0,0,0,64.59-7.1,26.71,26.71,0,0,1,23.92,6.16l23.91,21.7a31.9,31.9,0,0,0,36.79,4.35L624.71,630a31.92,31.92,0,0,0,16.1-33.37l-5.46-31.83A26.73,26.73,0,0,1,643,541.34a284.61,284.61,0,0,0,40.69-50.66A26.69,26.69,0,0,1,705,478.15l32.23-1.56a31.9,31.9,0,0,0,29.08-22.94l11.37-39a31.91,31.91,0,0,0-12.2-35L739.09,361a26.7,26.7,0,0,1-11.19-22,284.2,284.2,0,0,0-7.09-64.58A26.69,26.69,0,0,1,727,250.54l21.7-23.92A31.9,31.9,0,0,0,753,189.83l-19.54-35.62a31.91,31.91,0,0,0-33.37-16.1l-31.83,5.45a26.73,26.73,0,0,1-23.48-7.66,284.61,284.61,0,0,0-50.66-40.69A26.67,26.67,0,0,1,581.61,74l-1.56-32.22a31.91,31.91,0,0,0-22.94-29.09l-39-11.37a31.91,31.91,0,0,0-35,12.2L464.49,39.82A26.7,26.7,0,0,1,442.5,51a284.92,284.92,0,0,0-64.59,7.09A26.65,26.65,0,0,1,354,51.94l-23.92-21.7a31.92,31.92,0,0,0-36.79-4.35L257.66,45.44a31.9,31.9,0,0,0-16.1,33.36L247,110.63a26.72,26.72,0,0,1-7.66,23.48,285,285,0,0,0-40.69,50.66,26.67,26.67,0,0,1-21.25,12.53l-32.22,1.56A31.91,31.91,0,0,0,116.11,221.8ZM222,249C271,127.94,408.84,69.52,529.91,118.52S709.4,305.39,660.39,426.45,473.53,605.94,352.46,556.94,173,370.07,222,249Z"/><path class="cls-5" d="M436.94,421.84c-3.89-15.19,14.24-26.32,26.19-16.17,121.35,103,416.15,415,375.27,988.06-51.28,719,110.65,972.29,303.91,1122.06,0,0-258.22-62.05-431.58-318.63C285.11,1567.21,505.94,691.9,436.94,421.84Z"/><path class="cls-6" d="M536.32,640.63c18.48,78.83,35.4,158,49.4,237.64q21.63,119.34,35.9,239.76c9.18,80.26,16.86,160.68,21.1,241.31,4.61,80.6,5.75,161.31,6.61,242.34,1.31,81,2.18,162.58,11.4,244.34,9.12,81.59,28.13,163.4,61.53,239.31,8.34,18.92,17.06,37.76,26.81,55.9,9.41,18.32,19.64,36.24,30.18,54a883.07,883.07,0,0,0,71,101.44c52.31,64.06,114.33,120.1,181.9,166.78a15.65,15.65,0,0,0,18.17-25.49l0,0c-16.11-11.82-32.07-23.81-47.44-36.47-7.79-6.2-15.28-12.74-22.9-19.14-7.36-6.67-15-13.07-22.14-20a825.4,825.4,0,0,1-81-87.17c-49.92-61.61-90.88-131-122.91-203.47a788.82,788.82,0,0,1-38.48-112.31,893.11,893.11,0,0,1-21.72-117.23c-9.56-79.32-11.08-160.07-13-241.05s-4.57-162.35-10.48-243.49q-4.26-60.86-10.72-121.52c-2-20.23-4.45-40.41-6.84-60.6q-3.87-30.24-8.13-60.42Q627.17,994.37,602.4,875c-16.92-79.43-35.93-158.39-58-236.48a4.19,4.19,0,0,0-8.12,2.1Z"/><path class="cls-7" d="M693.37,2516.7c-6.62,28.12-39.81,40.33-63.3,23.52-129.61-92.76-472.35-388.15-506-937.33C95.58,1139.14,36.08,890.37,1.24,779.32c-7.36-23.49,19.53-42.73,39.41-28.21C259.91,911.3,933.5,1498,693.37,2516.7Z"/><path class="cls-6" d="M654.55,2521.46a12.1,12.1,0,0,1-1.79,1.24,11.29,11.29,0,0,1-15.35-4.36c-3.44-6.16-344.83-623.92-413.52-1266.95a11.28,11.28,0,1,1,22.43-2.4c68.19,638.36,407.37,1252.24,410.79,1258.36A11.3,11.3,0,0,1,654.55,2521.46Z"/><path class="cls-8" d="M644.6,2172.08,1595.46,457.27,2148.19,1967ZM1586.67,570.14,731.29,2112.77,2083.91,1928.3Z"/><circle class="cls-9" cx="2165.73" cy="1926.42" r="502"/><path class="cls-10" d="M1511.27,1852l-4.74,75.38a59.32,59.32,0,0,0,36.38,58.46l55.35,23.06a49.58,49.58,0,0,1,29.24,35.31,529.61,529.61,0,0,0,39.17,114.24,49.6,49.6,0,0,1-1.43,45.89l-29.62,52.2a59.32,59.32,0,0,0,7.1,68.49l50,56.65a59.32,59.32,0,0,0,67.06,15.61l55.5-22.85a49.61,49.61,0,0,1,45.7,4.32A529.78,529.78,0,0,0,1969.37,2432a49.61,49.61,0,0,1,31.38,33.43l16,57.81a59.3,59.3,0,0,0,53.44,43.4l75.38,4.74A59.32,59.32,0,0,0,2204,2535L2227,2479.6a49.61,49.61,0,0,1,35.32-29.24,529.53,529.53,0,0,0,114.23-39.17,49.63,49.63,0,0,1,45.89,1.43l52.21,29.62a59.28,59.28,0,0,0,68.48-7.1l56.65-49.95a59.3,59.3,0,0,0,15.62-67.06l-22.86-55.5a49.61,49.61,0,0,1,4.33-45.7,530.29,530.29,0,0,0,53.16-108.44,49.59,49.59,0,0,1,33.43-31.38l57.8-16a59.28,59.28,0,0,0,43.4-53.44l4.74-75.39a59.29,59.29,0,0,0-36.37-58.45l-55.36-23.06a49.64,49.64,0,0,1-29.24-35.32,528.72,528.72,0,0,0-39.17-114.24,49.64,49.64,0,0,1,1.43-45.88l29.62-52.21a59.29,59.29,0,0,0-7.09-68.48l-50-56.65a59.29,59.29,0,0,0-67.06-15.61l-55.51,22.85A49.61,49.61,0,0,1,2435,1481a529.28,529.28,0,0,0-108.44-53.16,49.58,49.58,0,0,1-31.37-33.43l-16-57.8a59.28,59.28,0,0,0-53.44-43.4l-75.38-4.74a59.3,59.3,0,0,0-58.46,36.37l-23.06,55.36a49.62,49.62,0,0,1-35.31,29.24,529.26,529.26,0,0,0-114.24,39.17,49.66,49.66,0,0,1-45.89-1.43l-52.2-29.62a59.31,59.31,0,0,0-68.49,7.09l-56.65,50a59.3,59.3,0,0,0-15.61,67l22.85,55.51a49.61,49.61,0,0,1-4.32,45.7,529.28,529.28,0,0,0-53.16,108.44,49.58,49.58,0,0,1-33.43,31.37l-57.8,16A59.3,59.3,0,0,0,1511.27,1852Zm203.06,6.21c39.56-239.5,265.78-401.58,505.29-362s401.58,265.78,362,505.28-265.78,401.59-505.28,362S1674.77,2097.74,1714.33,1858.24Z"/><g class="cls-11"><path class="cls-12" d="M1632.83,1697.68a7.18,7.18,0,0,1,13.35-.26c9.28,22.19,29.78,60.38,64,70.55,1.73.51,3.37,1,5,1.58a16.61,16.61,0,0,0-3.9-14.66c-12-14.15,3.53-37.5,3.53-37.5s3.54,18.4,19.1,28.3c13.41,8.53,22,30.18,16.07,49.58-9,70.42-24,163.94,86.77,217s231-155.39,231-155.39l-43.06,236s-100.26,95.44-243.22-3.07-78.73-276.09-78.73-276.09S1599.74,1786.44,1632.83,1697.68Z"/><path class="cls-13" d="M2043.78,1521.1s-46.41-129.38,110.5-113.32c0,0,72.5-21.4,85,48,0,0,51.67,25.44,24.34,90.29,0,0,134.9-72.59,212.31,43.92s29.21,192-28.08,217.34c0,0,51.28,18.15,35.32,75.71s-126.73,110.63-203.38,52.72c0,0-191.11,50.11-204.48-87.65,0,0-97.73-47-17-172.38S2043.78,1521.1,2043.78,1521.1Z"/><path class="cls-14" d="M2074.2,1830.71c29.49-13,116.57-41.22,211.27,26.43a53,53,0,0,1,21.73,50.46c-12.25,86.78-41.21,342.25,25,442.89,0,0-80,114.11-191.79,44.3,0,0-70.41-192.52-140.93-272.05-48.68-54.91,37.22-233.86,59.2-277.25A31.85,31.85,0,0,1,2074.2,1830.71Z"/><path class="cls-15" d="M2137.84,1653.36s61.43,122.48,71.95,178.6c0,0-47.22,29.07-99.24-3.44,0,0-21.05-127.4-31.09-149.43Z"/><path class="cls-16" d="M2052.93,1486.51s-97.68,180.77-20.77,220,146.46-89.21,146.46-89.21,16.09-94.25-16.54-121.43S2052.93,1486.51,2052.93,1486.51Z"/><path class="cls-17" d="M2102.8,1440s-52.82,19.75-57.36,45.34,83.19,37.78,107.1,35.91l31.66,97s44.86-100.64,15.64-151.83S2102.8,1440,2102.8,1440Z"/><path class="cls-18" d="M2154.11,1608s39.42-59.23,62.15-26.7-33.86,66.2-56.74,51.7Z"/><path class="cls-19" d="M2299.72,1872.36s159.89,102.1,216.49,262-188.68,208.47-188.68,208.47-38.31-33.29-76.51-14.9-11.32-65.08,35.37-70.74,29.71,33.95,92-4.25c60.64-37.21,89.06-132.3-92.18-248.23a75,75,0,0,1-25.38-26.78C2218.84,1901.68,2237.51,1845.91,2299.72,1872.36Z"/></g><circle class="cls-9" cx="829.69" cy="2100.41" r="537.53"/><path class="cls-20" d="M171.47,2028.69l-4.9,77.92A61.29,61.29,0,0,0,204.18,2167l57.22,23.85a51.25,51.25,0,0,1,30.22,36.5,547.41,547.41,0,0,0,40.5,118.1,51.3,51.3,0,0,1-1.48,47.43l-30.62,54a61.32,61.32,0,0,0,7.33,70.8L359,2576.25a61.3,61.3,0,0,0,69.32,16.14l57.38-23.62a51.28,51.28,0,0,1,47.25,4.47,547.82,547.82,0,0,0,112.1,55,51.23,51.23,0,0,1,32.43,34.55l16.5,59.76a61.3,61.3,0,0,0,55.25,44.87l77.92,4.89a61.3,61.3,0,0,0,60.43-37.6l23.84-57.22a51.32,51.32,0,0,1,36.51-30.23A546.57,546.57,0,0,0,1066,2606.73a51.29,51.29,0,0,1,47.44,1.48l54,30.62a61.3,61.3,0,0,0,70.8-7.34l58.56-51.64a61.29,61.29,0,0,0,16.14-69.32l-23.62-57.38a51.26,51.26,0,0,1,4.47-47.24,547.78,547.78,0,0,0,55-112.1,51.26,51.26,0,0,1,34.56-32.44l59.76-16.49a61.3,61.3,0,0,0,44.86-55.25l4.9-77.93a61.3,61.3,0,0,0-37.6-60.43L1398,2027.43a51.25,51.25,0,0,1-30.23-36.5,547.38,547.38,0,0,0-40.49-118.1,51.29,51.29,0,0,1,1.48-47.44l30.62-54a61.32,61.32,0,0,0-7.34-70.8l-51.64-58.56a61.3,61.3,0,0,0-69.32-16.14l-57.38,23.62a51.31,51.31,0,0,1-47.25-4.47,547.06,547.06,0,0,0-112.1-55,51.26,51.26,0,0,1-32.43-34.56l-16.49-59.75a61.31,61.31,0,0,0-55.25-44.87l-77.93-4.9a61.3,61.3,0,0,0-60.43,37.6L748,1540.87a51.3,51.3,0,0,1-36.51,30.23,546.94,546.94,0,0,0-118.09,40.49,51.29,51.29,0,0,1-47.44-1.48l-54-30.62a61.29,61.29,0,0,0-70.79,7.34l-58.57,51.64a61.32,61.32,0,0,0-16.14,69.32l23.63,57.37a51.31,51.31,0,0,1-4.47,47.25,547.31,547.31,0,0,0-55,112.1A51.28,51.28,0,0,1,276.09,1957l-59.75,16.49A61.31,61.31,0,0,0,171.47,2028.69Zm209.92,6.42c40.89-247.59,274.75-415.15,522.35-374.25s415.14,274.76,374.25,522.35-274.76,415.14-522.35,374.25S340.49,2282.7,381.39,2035.11Z"/><g class="cls-21"><path class="cls-22" d="M1112.71,2347.27c26.44,21.3,58.21,29.44,95.37,10.21l16.88,38.25s-17,84.58-101.81,92.24a102.4,102.4,0,0,1-25-.93C1058.84,2425.69,1088,2374.89,1112.71,2347.27Z"/><path class="cls-23" d="M973,2402.47l40.52-241.37c1.6,2.51,34.41,134,99.22,186.17-24.67,27.62-53.87,78.42-14.52,139.77C1029.56,2476.39,973,2402.47,973,2402.47Z"/><path class="cls-24" d="M659.26,2039.06s149.28-49.77,341.94-22.18c20.12,2.88,72.15,111.37,64.4,186.75-13.11,127.67-82.78,341.94-85.27,342.6-80.34,21.34-345,3.34-345,3.34Z"/><path class="cls-25" d="M806.39,1882.3l8.32,129.33c.78,12,8.56,22.23,19.48,25.46,25.15,7.45,72.64,16.42,119.19-2.33,8.51-3.43,12.89-13.52,10-22.73l-61.57-197.77Z"/><path class="cls-26" d="M892.3,1683.55s69.37,70,89,113.23,40.29,68.24-7.37,97-100.6,20-141-15c0,0-62.9-53.66-65.49-84.63S892.3,1683.55,892.3,1683.55Z"/><path class="cls-27" d="M838.07,1840.36l6.47-2.51s-47.84-44.27-28.17-62.95,105-73.56,112.22-114.2c7-39.19-26.13-73.46-56.29-74.93a3.69,3.69,0,0,0-3.75,3.32L868,1594a3.73,3.73,0,0,1-6.66,1.83,3.7,3.7,0,0,0-6.59,1.46c-2.3,12.21-12.66,34.64-53.93,60.1-58.54,36.13-90.32,77.84-74.42,121.83a3.73,3.73,0,0,1-4.27,4.93c-5.76-1-13.73.53-20.43,12.77-11.67,21.29,10.09,56.31,60.12,72.64a3.71,3.71,0,0,1,2,5.63c-5.14,7.15-11.26,21.79,20.84,25.68,32.84,4,48.32-3.86,53.79-7.77a3.72,3.72,0,0,0,1.23-4.61l-17.38-37.7a3.72,3.72,0,0,1,2-5Z"/><path class="cls-28" d="M842.8,1847.82s-34.88-48.36-53.14-23.91,35.92,55.42,56.1,49.9Z"/><path class="cls-29" d="M660.39,2410.93c-8.08-57,51-140.87,75.42-172.69a52.84,52.84,0,0,0,11-31.7c.72-80.77-33.2-132.65-87.54-167.48,0,0-197.23,229.78-147,406.52a148.9,148.9,0,0,0,24.46,49.55C544.63,2428.53,621.6,2414,660.39,2410.93Z"/><path class="cls-7" d="M664.07,2388.87l-7.52-.86c6.37-55.93,55.45-125,76.26-152.07l6,4.61C718.39,2267.14,670.23,2334.82,664.07,2388.87Z"/><path class="cls-30" d="M661.94,2418.83a65.68,65.68,0,0,1-1.55-7.9c-38.79,3.07-115.76,17.6-123.68,84.2,88,116.4,330.62,74.41,330.62,74.41v-45.3S681,2489.62,661.94,2418.83Z"/><path class="cls-31" d="M844,2569.33s13.19-90.47,98.94-54.55c64.45,27,58.16,49.61,58.16,49.61Z"/><path class="cls-5" d="M1255.07,2166.6l-43.15,263.11a12,12,0,0,1-8.52,9.61c-16.44,4.62-58.05,13.51-98.87-.49a16.37,16.37,0,0,1-10.73-12.77l-45.71-265.15Z"/><path class="cls-7" d="M1255.07,2148.89l-9.85-22a6.43,6.43,0,0,0-5.31-3.79c-19.18-1.65-107.42-8.51-165.24-.51a9.89,9.89,0,0,0-7.78,6l-7.68,18.44Z"/><path class="cls-5" d="M1262.85,2149.46l1.84,18.13a7.89,7.89,0,0,1-7.25,8.7C1224,2178.58,1096,2186,1044,2169.4a7.45,7.45,0,0,1-4.87-9l2.43-9.32a11.74,11.74,0,0,1,11.37-8.82l202.74.65A7.25,7.25,0,0,1,1262.85,2149.46Z"/><path class="cls-7" d="M1244.47,2231.26s-118.47,19-184.25,0l-1-5.81-3.5,3.69a7.66,7.66,0,0,0-2,6.7l19.26,105s83,20,157.85,1.27l18.7-106.26a10.34,10.34,0,0,0-1.9-8.33l-2.1-2.76Z"/><path class="cls-6" d="M1167.54,2346.33a2.25,2.25,0,0,1-2.21-2.29l1.78-96a2.22,2.22,0,0,1,2.29-2.21,2.25,2.25,0,0,1,2.21,2.29l-1.78,96a2.25,2.25,0,0,1-2.25,2.21Zm-22.7-.28a2.25,2.25,0,0,1-2.21-2.29l1.76-95a2.25,2.25,0,0,1,4.5.08l-1.76,95a2.26,2.26,0,0,1-2.25,2.21Zm45.42-1a2.26,2.26,0,0,1-2.21-2.29l1.78-96.24a2.12,2.12,0,0,1,2.29-2.21,2.25,2.25,0,0,1,2.21,2.29l-1.78,96.24a2.26,2.26,0,0,1-2.25,2.21Zm-72.39-.64a2.25,2.25,0,0,1-2.21-2.29l1.73-93.5a2.43,2.43,0,0,1,2.29-2.21,2.25,2.25,0,0,1,2.21,2.29l-1.73,93.5a2.25,2.25,0,0,1-2.25,2.21Zm90.24-1.51a2.26,2.26,0,0,1-2.2-2.3l2.12-95.79a2.19,2.19,0,0,1,2.3-2.2,2.25,2.25,0,0,1,2.2,2.3l-2.12,95.79a2.26,2.26,0,0,1-2.25,2.2ZM1091.87,2339l-6.79-92.84a2.25,2.25,0,0,1,2.08-2.4,2.2,2.2,0,0,1,2.41,2.08l6.79,92.84a2.24,2.24,0,0,1-2.08,2.4h-.17A2.26,2.26,0,0,1,1091.87,2339Zm129.57,1.46a2.25,2.25,0,0,1-2-2.43l8.14-95.79a2.25,2.25,0,1,1,4.48.38l-8.14,95.78a2.25,2.25,0,0,1-2.24,2.07Zm-147.22-4.56L1062.53,2242a2.24,2.24,0,0,1,2-2.51,2.22,2.22,0,0,1,2.51,2l11.7,93.88a2.25,2.25,0,0,1-2,2.51l-.28,0A2.25,2.25,0,0,1,1074.22,2335.88Z"/><path class="cls-32" d="M1249.74,2292.9s-36.53-22.47-60.67-5.46c-23,16.2,14.51,113.95,28,123.49S1276.74,2344.64,1249.74,2292.9Z"/></g><circle class="cls-9" cx="1482.03" cy="641.59" r="502"/><path class="cls-7" d="M2059.92,511.47l-56.3-15.54a48.25,48.25,0,0,1-32.56-30.56,516.12,516.12,0,0,0-51.78-105.62,48.29,48.29,0,0,1-4.21-44.51l22.26-54.06a57.78,57.78,0,0,0-15.21-65.32l-55.18-48.65a57.76,57.76,0,0,0-66.71-6.91l-50.84,28.85a48.37,48.37,0,0,1-44.7,1.39,515.37,515.37,0,0,0-111.27-38.15A48.31,48.31,0,0,1,1559,103.91L1536.56,50a57.76,57.76,0,0,0-56.93-35.43l-73.42,4.62a57.75,57.75,0,0,0-52.06,42.27l-15.54,56.3a48.29,48.29,0,0,1-30.56,32.57,515.61,515.61,0,0,0-105.62,51.78,48.35,48.35,0,0,1-44.51,4.21l-54.06-22.26a57.76,57.76,0,0,0-65.32,15.21l-48.65,55.17A57.77,57.77,0,0,0,983,321.14L1011.83,372a48.35,48.35,0,0,1,1.39,44.69A515.37,515.37,0,0,0,975.07,528a48.29,48.29,0,0,1-28.48,34.39l-53.92,22.47a57.75,57.75,0,0,0-35.42,56.93l4.61,73.43a57.76,57.76,0,0,0,42.28,52.05l56.3,15.54A48.31,48.31,0,0,1,993,813.32a515.36,515.36,0,0,0,51.78,105.62,48.35,48.35,0,0,1,4.21,44.51l-22.26,54.06a57.76,57.76,0,0,0,15.21,65.32l55.18,48.65a57.75,57.75,0,0,0,66.7,6.92l50.85-28.85a48.32,48.32,0,0,1,44.69-1.4,515.93,515.93,0,0,0,111.27,38.16,48.26,48.26,0,0,1,34.39,28.47l22.47,53.92a57.78,57.78,0,0,0,56.94,35.43l73.42-4.62a57.75,57.75,0,0,0,52.05-42.27l15.54-56.3a48.3,48.3,0,0,1,30.56-32.56,515.87,515.87,0,0,0,105.62-51.78,48.32,48.32,0,0,1,44.51-4.22l54.07,22.27a57.77,57.77,0,0,0,65.31-15.21l48.65-55.18a57.77,57.77,0,0,0,6.92-66.71l-28.85-50.84a48.34,48.34,0,0,1-1.4-44.7A515.93,515.93,0,0,0,1989,750.74a48.29,48.29,0,0,1,28.48-34.39l53.91-22.47A57.76,57.76,0,0,0,2106.81,637l-4.61-73.42A57.78,57.78,0,0,0,2059.92,511.47Zm-508.13,550.26c-233.27,38.53-453.62-119.34-492.15-352.62S1179,255.49,1412.26,217s453.62,119.34,492.15,352.62S1785.07,1023.2,1551.79,1061.73Z"/><g class="cls-33"><path class="cls-34" d="M1539.5,557.39s185,334.58,450.11,358.79L2003.74,956s-365.29,71.34-552.41-229.59Z"/><path class="cls-35" d="M1984.3,939.38c-8.23-16.69,3.39-36.84,22-37.13.92,0,1.86,0,2.84,0,31.19,1.16,62.81-3.64,74.49-11.64,3.88-2.65,9.38-1.91,11.85,2.08,3.23,5.22.67,14.07-28.88,27,0,0,65.4,25.49,118.08.45,51.34-24.4-22.83,104.8-179,42.8a34.21,34.21,0,0,1-18-16.71Z"/><path class="cls-36" d="M1478.41,1102.52s171.53-469.91,36.49-576.64c0,0-202.38-32.65-349.54,23.15L1182.15,980S1290.14,1169.8,1478.41,1102.52Z"/><path class="cls-37" d="M1474.82,426.53s-26.29,63.86-33,114.06a33.73,33.73,0,0,1-28,28.78c-31.42,5.22-83.5,8.13-115.2-20.79a23.69,23.69,0,0,1-6.22-25.46c13.06-36.54,80.92-188.68,117.89-212Z"/><path class="cls-38" d="M1207.18,896.11c0,.27,0,.56,0,.83-.56,79.47,106.91,87.07,106.91,87.07s30.74-51.1,70.18-52.77,94.16,62.58,94.16,62.58l-87.51,14S1224,1107.94,1109.63,989C1129.85,915,1178,898.77,1207.18,896.11Z"/><path class="cls-39" d="M1165.36,549c108.43,38.45,92.74,123.61,92.74,123.61s-50,143.83-50.92,223.47c-29.14,2.66-77.33,18.85-97.55,92.9-2.71-2.82-5.41-5.72-8.06-8.79C964.86,821.81,1165.36,549,1165.36,549Z"/><path class="cls-40" d="M1207.18,900.33a4.23,4.23,0,0,0,4.22-4.17c.68-62,31.56-163.65,44.81-204.48a4.22,4.22,0,0,0-8-2.6c-13.36,41.2-44.51,143.85-45.22,207a4.23,4.23,0,0,0,4.17,4.27Z"/><path class="cls-41" d="M1593.38,265.55c0,3.18-71,201-71,201l-112.1-42.95,39.45-197.5S1593.38,212.33,1593.38,265.55Z"/><path class="cls-42" d="M1469.38,274.23l-28.91,102.34a14.63,14.63,0,0,0-.56,4c0,8.35,2.06,37.07,31.32,33.16,26.54-3.54,50.82-6.38,66.26.89a14.84,14.84,0,0,1,7.66,18.45c-6.46,18-21.75,58.21-40.38,91.13a14.81,14.81,0,0,1-19,6.1c-21-9.58-64.89-31-96.12-56.53a14.86,14.86,0,0,1-5.25-14.27c4.91-26.18,19.54-105.8,20.19-128.62.6-21.42-23.43-37.77-34-43.92a14.61,14.61,0,0,1-6.88-9.23c-3.32-13.79-6.14-45,33.66-51.87a14.87,14.87,0,0,0,12.07-17.69c-3.37-16.49-2.29-40.75,29-49.69,31.82-9.08,51.85,10.08,62,24.77a14.88,14.88,0,0,0,18.43,4.91c3.75-1.68,8.29-1.75,13.17,2.36,6.57,5.54,16.57,3.86,21.4-3.25,9.28-13.66,26.14-27.3,54.68-18.06,50.65,16.38,48.22,74.77,29.66,106.52s-72.46,10.85-98-10.18c-19.4-16-48.93-6.43-62-.92A14.72,14.72,0,0,0,1469.38,274.23Z"/><path class="cls-43" d="M1400,369s24.32-57.42,4.5-75.23-47.47-11.69-46.57,32.65C1359.09,381.54,1400,369,1400,369Z"/></g></g></g></g></svg>