<svg xmlns="http://www.w3.org/2000/svg" xmlns:xlink="http://www.w3.org/1999/xlink" viewBox="0 0 151.2 92.7"><defs><style>.cls-1{fill:#fda8a1;}.cls-2{fill:#b3e3ef;}.cls-3{fill:#d2f7ff;}.cls-4{fill:#f2d18f;}.cls-5{fill:#1958db;}.cls-6{fill:#ff645f;}.cls-7{fill:#823024;}.cls-8{fill:#f7958d;}.cls-9{clip-path:url(#clip-path);}.cls-10{fill:#e8c079;}.cls-11{fill:#112256;}.cls-12{fill:#0e97cd;}.cls-13{fill:#2a2873;}.cls-14{clip-path:url(#clip-path-2);}.cls-15{fill:#c62222;}.cls-16{fill:#da3f3a;}.cls-17{fill:#ea4949;}.cls-18{fill:#d4e4e8;}.cls-19{fill:#0c5a9a;}.cls-20{fill:#adc3c9;}.cls-21{fill:#29266b;}</style><clipPath id="clip-path"><path class="cls-1" d="M130.35,35.65c.71,2.42,2.74,2.05,5.16,1.34a4.58,4.58,0,0,0-2.59-8.78C130.5,28.93,129.63,33.23,130.35,35.65Z"/></clipPath><clipPath id="clip-path-2"><rect class="cls-2" x="10.12" y="3.59" width="68.21" height="65.6" rx="3.1"/></clipPath></defs><g id="Layer_2" data-name="Layer 2"><g id="Layer_1-2" data-name="Layer 1"><path class="cls-3" d="M109,28.71c0,1.19-2.16,6.93-2.16,6.93s-2.16-5.74-2.16-6.93a2.16,2.16,0,1,1,4.32,0Z"/><path class="cls-3" d="M97.22,30.72c.6,1,1.6,7.09,1.6,7.09s-4.74-3.89-5.34-4.92a2.16,2.16,0,1,1,3.74-2.17Z"/><path class="cls-3" d="M88.08,38.34c1,.59,4.92,5.34,4.92,5.34s-6-1-7.08-1.6a2.16,2.16,0,1,1,2.16-3.74Z"/><path class="cls-4" d="M84,49.5c1.2,0,6.94,2.16,6.94,2.16S85.16,53.82,84,53.82a2.16,2.16,0,1,1,0-4.32Z"/><path class="cls-3" d="M86,61.23c1-.6,7.09-1.6,7.09-1.6s-3.9,4.74-4.93,5.34A2.16,2.16,0,0,1,86,61.23Z"/><path class="cls-3" d="M93.59,70.37c.6-1,5.34-4.93,5.34-4.93s-1,6.06-1.6,7.09a2.16,2.16,0,1,1-3.74-2.16Z"/><path class="cls-3" d="M104.76,74.49c0-1.2,2.16-6.94,2.16-6.94s2.16,5.74,2.16,6.94a2.16,2.16,0,0,1-4.32,0Z"/><path class="cls-3" d="M116.48,72.47c-.6-1-1.6-7.09-1.6-7.09s4.75,3.89,5.34,4.93a2.16,2.16,0,1,1-3.74,2.16Z"/><path class="cls-3" d="M125.63,64.86c-1-.6-4.93-5.34-4.93-5.34s6.06,1,7.09,1.6a2.16,2.16,0,1,1-2.16,3.74Z"/><path class="cls-3" d="M127.72,42c-1,.59-7.08,1.59-7.08,1.59s3.89-4.74,4.92-5.34A2.16,2.16,0,1,1,127.72,42Z"/><path class="cls-3" d="M120.11,32.82c-.59,1-5.34,4.93-5.34,4.93s1-6.06,1.6-7.09a2.16,2.16,0,1,1,3.74,2.16Z"/><path class="cls-5" d="M143.7,35.06h-.36V30.91c0-1.38-.12-2.41-1.77-3.07l.13-.33c1.86.74,2,1.93,2,3.4Z"/><path class="cls-1" d="M111.41,56a3,3,0,0,1-2.76-3.37c.36-2,3.12.84,3.12.84Z"/><path class="cls-6" d="M141.27,60.61H127.21l.38,30h2.68s2-15.11,2.8-23.46h1.86l.56,23.46h2.68s3.17-23.56,3.09-28.1A17.89,17.89,0,0,0,141.27,60.61Z"/><path class="cls-7" d="M141.27,60.61H127.21l-1.75-18.68c-.16-1.52,1.31-2.83,3.18-2.83h11.2c1.87,0,3.34,1.31,3.18,2.83Z"/><path class="cls-8" d="M134.17,41.08c2.49,0,2.48-1.69,2.48-2.1V36.23c0-.63-.93-.58-1.49-.58h-1.78c-.55,0-1.48.51-1.48,1.13V39A2.12,2.12,0,0,0,134.17,41.08Z"/><path class="cls-1" d="M130.35,35.65c.71,2.42,2.74,2.05,5.16,1.34a4.58,4.58,0,0,0-2.59-8.78C130.5,28.93,129.63,33.23,130.35,35.65Z"/><g class="cls-9"><path class="cls-10" d="M135.39,30.47s0,1.62.22,1.62a1.56,1.56,0,0,1,1.67.44c.61.78-.06,1.56-.78,1.73s-.22,2.06,1.5,1.73,2.34-4.4,1.45-6-3.73-3.29-4.73-3.18-7.62,3.67-7.62,3.67Z"/></g><path class="cls-7" d="M141.87,39.72s6.5,6.93,8.79,9.11c1.26,1.21,0,2.11-.72,3-2,2.51-8.5,7-8.5,7L141.8,55l3.92-4.58s-5.51-4.25-5.69-4.56c-.5-.84-.09-4.51-.09-4.51Z"/><path class="cls-11" d="M135.57,90.6h2.73v2.1h-5.54c-.36,0-.49-.83-.17-1Z"/><path class="cls-1" d="M140.36,58.65a1.24,1.24,0,0,1-1-1.43l.22-2.21c0-.43.7-.3,1.12-.27l1.14.3-.36,3.79S140.63,58.68,140.36,58.65Z"/><path class="cls-7" d="M125.83,40.47c-1.2,2.06-4.51,10.73-5.06,11.27s-8.48,1.2-9.24,1.2-.45,2.57-.12,3,11.17,1,12.61-.37c.79-.72,4.75-7.26,5.4-10.2S125.83,40.47,125.83,40.47Z"/><polygon class="cls-12" points="108.2 63.15 106.87 62.22 105.51 63.15 105.51 53.36 108.2 53.36 108.2 63.15"/><path class="cls-1" d="M90.56,50.26c1-1,5.88-5.06,6.85-3.76S95,49,95.29,51.07s2.78,1.15,5.39,1.15,5.22.49,3.59,3.1-13.38,1.47-13.38,1.47Z"/><rect class="cls-13" x="39.49" y="70.82" width="8.16" height="16.64"/><path class="cls-13" d="M3.42,72.78H74.58A3.35,3.35,0,0,0,78,69.51V3.26A3.34,3.34,0,0,0,74.58,0H3.42A3.34,3.34,0,0,0,0,3.26V69.51A3.35,3.35,0,0,0,3.42,72.78Z"/><path class="cls-11" d="M127.55,90.6h2.73v2.1h-5.54c-.36,0-.49-.83-.17-1Z"/><path class="cls-5" d="M7.34,72.78H78.49a3.35,3.35,0,0,0,3.42-3.27V3.26A3.34,3.34,0,0,0,78.49,0H7.34A3.34,3.34,0,0,0,3.92,3.26V69.51A3.35,3.35,0,0,0,7.34,72.78Z"/><rect class="cls-2" x="10.12" y="3.59" width="68.21" height="65.6" rx="3.1"/><g class="cls-14"><path class="cls-15" d="M57.93,41.94c2,.16,8.81.49,9.79,11.91s1,23.49,1,23.49l-13.06,2Z"/><rect class="cls-16" x="24.8" y="40.79" width="39.65" height="43.24" rx="10.93"/></g><path class="cls-5" d="M37.7,86.16h16a2.57,2.57,0,0,1,2.78,2.31v1.91a2.58,2.58,0,0,1-2.78,2.32h-16a2.58,2.58,0,0,1-2.78-2.32V88.47A2.57,2.57,0,0,1,37.7,86.16Z"/><rect class="cls-5" x="42.1" y="70.82" width="8.16" height="16.64"/><path class="cls-8" d="M51.14,42.26s-.77,2.12-4.43,2a8.33,8.33,0,0,1-5-2V30.51h9.43Z"/><path class="cls-1" d="M43.57,37.3c5.55,4,9.24-.2,13.2-5.76A12.35,12.35,0,1,0,36.65,17.21C32.69,22.77,38,33.34,43.57,37.3Z"/><path class="cls-6" d="M40.14,15c0,2.61,13.38,11.1,18.93,7.18s4.24-12.07-6.2-13S40.14,15,40.14,15Z"/><path class="cls-6" d="M37.86,29.7c-1.31-.33-7.84-8.49-2.29-14S44.06,12.4,45,16,41,18.6,38.18,22.35C36.39,24.77,37.86,29.7,37.86,29.7Z"/><path class="cls-17" d="M29.54,47c1.42-2.64,4.4-4.4,10.44-1.63s20.39,6.2,22.52,6.37,28.22-4.08,29-3.1,1.47,9.46.33,9.62-25.29,5.06-31.5,4.57S42.75,59.72,35.25,56,28.39,49.12,29.54,47Z"/><rect class="cls-18" x="94.48" y="47.65" width="20.56" height="5.71" rx="1.47"/><rect class="cls-19" x="105.51" y="47.65" width="2.69" height="5.74"/><path class="cls-20" d="M115.2,52.22A1.16,1.16,0,0,1,114,53.38h0a1.16,1.16,0,0,1-1.17-1.16V48.81A1.16,1.16,0,0,1,114,47.65h0a1.16,1.16,0,0,1,1.16,1.16Z"/><polygon class="cls-21" points="140.28 27.4 131.01 24.97 131.44 29.13 138.57 30.82 140.28 27.4"/><polygon class="cls-5" points="135.2 28.98 129.16 24.75 136.82 23.31 142.76 28.08 135.2 28.98"/><polygon class="cls-21" points="142.41 36.7 143.52 34.22 144.64 36.7 142.41 36.7"/></g></g></svg>