<svg xmlns="http://www.w3.org/2000/svg" xmlns:xlink="http://www.w3.org/1999/xlink" viewBox="0 0 2802.95 2800"><defs><style>.cls-1{fill:url(#linear-gradient);}.cls-2{fill:#91b3fa;}.cls-3{fill:#bdd0fb;}.cls-4{fill:url(#linear-gradient-2);}.cls-5{fill:url(#linear-gradient-3);}.cls-6{fill:url(#linear-gradient-4);}.cls-7{fill:url(#linear-gradient-5);}.cls-8{fill:url(#linear-gradient-6);}.cls-9{fill:url(#linear-gradient-7);}.cls-10{fill:url(#linear-gradient-8);}.cls-11{fill:url(#linear-gradient-9);}.cls-12{fill:#fff;}.cls-13{fill:url(#linear-gradient-10);}.cls-14{fill:url(#linear-gradient-11);}.cls-15{fill:url(#linear-gradient-12);}.cls-16{fill:url(#linear-gradient-13);}.cls-17{fill:url(#linear-gradient-14);}.cls-18{fill:url(#linear-gradient-15);}.cls-19{fill:url(#linear-gradient-16);}.cls-20{fill:url(#linear-gradient-17);}.cls-21{fill:url(#linear-gradient-18);}.cls-22{fill:url(#linear-gradient-19);}.cls-23{fill:url(#linear-gradient-20);}.cls-24{fill:url(#linear-gradient-21);}.cls-25{fill:url(#linear-gradient-22);}.cls-26{fill:url(#linear-gradient-23);}.cls-27{fill:url(#linear-gradient-24);}.cls-28{fill:url(#linear-gradient-25);}.cls-29{fill:url(#linear-gradient-26);}.cls-30{fill:url(#linear-gradient-27);}.cls-31{fill:#7d97f4;}.cls-32{fill:url(#linear-gradient-28);}.cls-33{fill:url(#linear-gradient-29);}.cls-34{fill:url(#linear-gradient-30);}.cls-35{fill:url(#linear-gradient-31);}.cls-36{fill:url(#linear-gradient-32);}.cls-37{fill:url(#linear-gradient-33);}.cls-38{fill:url(#linear-gradient-34);}.cls-39{fill:url(#linear-gradient-35);}.cls-40{fill:url(#linear-gradient-36);}.cls-41{fill:url(#linear-gradient-37);}.cls-42{fill:url(#linear-gradient-38);}.cls-43{fill:url(#linear-gradient-39);}.cls-44{fill:url(#linear-gradient-40);}.cls-45{fill:url(#linear-gradient-41);}.cls-46{fill:url(#linear-gradient-42);}.cls-47{fill:url(#linear-gradient-43);}.cls-48{fill:url(#linear-gradient-44);}.cls-49{fill:url(#linear-gradient-45);}.cls-50{fill:url(#linear-gradient-46);}.cls-51{fill:url(#linear-gradient-47);}.cls-52{fill:url(#linear-gradient-48);}.cls-53{fill:url(#linear-gradient-49);}.cls-54{fill:url(#linear-gradient-50);}.cls-55{fill:url(#linear-gradient-51);}.cls-56{fill:url(#linear-gradient-52);}.cls-57{fill:url(#linear-gradient-53);}.cls-58{fill:url(#linear-gradient-54);}.cls-59{fill:url(#linear-gradient-55);}.cls-60{fill:url(#linear-gradient-56);}.cls-61{fill:url(#linear-gradient-57);}.cls-62{fill:url(#linear-gradient-58);}.cls-63{fill:url(#linear-gradient-59);}.cls-64{fill:url(#linear-gradient-60);}.cls-65{fill:url(#linear-gradient-61);}.cls-66{fill:url(#linear-gradient-62);}.cls-67{fill:url(#linear-gradient-63);}.cls-68{fill:url(#linear-gradient-64);}.cls-69{fill:url(#linear-gradient-65);}.cls-70{fill:url(#linear-gradient-66);}.cls-71{fill:url(#linear-gradient-67);}.cls-72{fill:url(#linear-gradient-68);}.cls-73{fill:url(#linear-gradient-69);}.cls-74{fill:url(#linear-gradient-70);}.cls-75{fill:url(#linear-gradient-71);}.cls-76{fill:url(#linear-gradient-72);}.cls-77{fill:url(#linear-gradient-73);}.cls-78{fill:url(#linear-gradient-74);}.cls-79{fill:url(#linear-gradient-75);}</style><linearGradient id="linear-gradient" x1="3140.56" y1="3616.3" x2="656.03" y2="530.67" gradientUnits="userSpaceOnUse"><stop offset="0" stop-color="#dae3fe"/><stop offset="1" stop-color="#e9effd"/></linearGradient><linearGradient id="linear-gradient-2" x1="1684.2" y1="1006.08" x2="1649.96" y2="1232.08" gradientUnits="userSpaceOnUse"><stop offset="0" stop-color="#09005d"/><stop offset="1" stop-color="#1a0f91"/></linearGradient><linearGradient id="linear-gradient-3" x1="1691.77" y1="912.38" x2="1632.64" y2="1564.53" gradientUnits="userSpaceOnUse"><stop offset="0" stop-color="#53d8ff"/><stop offset="1" stop-color="#3840f7"/></linearGradient><linearGradient id="linear-gradient-4" x1="1693.49" y1="912.53" x2="1634.36" y2="1564.69" xlink:href="#linear-gradient-3"/><linearGradient id="linear-gradient-5" x1="1690.23" y1="912.24" x2="1631.09" y2="1564.39" xlink:href="#linear-gradient-3"/><linearGradient id="linear-gradient-6" x1="1691.98" y1="912.4" x2="1632.85" y2="1564.55" xlink:href="#linear-gradient-3"/><linearGradient id="linear-gradient-7" x1="1709.94" y1="448.62" x2="1618.71" y2="1066.96" gradientUnits="userSpaceOnUse"><stop offset="0" stop-color="#ff928e"/><stop offset="1" stop-color="#fe7062"/></linearGradient><linearGradient id="linear-gradient-8" x1="2550.8" y1="-294.75" x2="2140.27" y2="277.97" gradientUnits="userSpaceOnUse"><stop offset="0" stop-color="#e1473d"/><stop offset="1" stop-color="#e9605a"/></linearGradient><linearGradient id="linear-gradient-9" x1="2493.8" y1="-335.61" x2="2083.27" y2="237.11" xlink:href="#linear-gradient-8"/><linearGradient id="linear-gradient-10" x1="6199.31" y1="2569" x2="5595.94" y2="3225.3" gradientTransform="translate(-4978.27 -59.17) rotate(0.54)" xlink:href="#linear-gradient-2"/><linearGradient id="linear-gradient-11" x1="6003.47" y1="2617.73" x2="6057.06" y2="2617.73" gradientTransform="translate(-4978.27 -59.17) rotate(0.54)" gradientUnits="userSpaceOnUse"><stop offset="0" stop-color="#febbba"/><stop offset="1" stop-color="#ff928e"/></linearGradient><linearGradient id="linear-gradient-12" x1="6246.86" y1="1826.74" x2="5733.41" y2="2522.65" gradientTransform="translate(-4978.27 -59.17) rotate(0.54)" xlink:href="#linear-gradient-2"/><linearGradient id="linear-gradient-13" x1="6063.96" y1="2444.53" x2="5460.56" y2="3100.86" gradientTransform="translate(-4978.27 -59.17) rotate(0.54)" xlink:href="#linear-gradient-2"/><linearGradient id="linear-gradient-14" x1="5810.31" y1="2614.98" x2="5856.58" y2="2614.98" xlink:href="#linear-gradient-11"/><linearGradient id="linear-gradient-15" x1="6155.35" y1="1759.22" x2="5641.9" y2="2455.13" gradientTransform="translate(-4978.27 -59.17) rotate(0.54)" xlink:href="#linear-gradient-2"/><linearGradient id="linear-gradient-16" x1="7748.77" y1="-2079.03" x2="7275.7" y2="-1259.05" gradientTransform="matrix(-1, 0, 0, 1, 6662.61, 0)" xlink:href="#linear-gradient-7"/><linearGradient id="linear-gradient-17" x1="6224.07" y1="1219.48" x2="6497.9" y2="1219.48" xlink:href="#linear-gradient-11"/><linearGradient id="linear-gradient-18" x1="3102.78" y1="1172.65" x2="3286.52" y2="1590.7" gradientTransform="matrix(-1, -0.01, -0.01, 1, 4561.4, 32.39)" xlink:href="#linear-gradient-11"/><linearGradient id="linear-gradient-19" x1="6496.58" y1="1034.36" x2="6573.25" y2="916.49" xlink:href="#linear-gradient-11"/><linearGradient id="linear-gradient-20" x1="7909.87" y1="-1986.1" x2="7436.81" y2="-1166.12" gradientTransform="matrix(-1, 0, 0, 1, 6662.61, 0)" xlink:href="#linear-gradient-7"/><linearGradient id="linear-gradient-21" x1="5624.89" y1="1607.3" x2="5971.41" y2="1607.3" xlink:href="#linear-gradient-11"/><linearGradient id="linear-gradient-22" x1="5890.98" y1="1236.87" x2="6027.99" y2="1236.87" xlink:href="#linear-gradient-11"/><linearGradient id="linear-gradient-23" x1="-1021.45" y1="2266.16" x2="-1072.65" y2="2097.3" gradientTransform="matrix(0.75, -0.66, 0.66, 0.75, 346.87, -1229.64)" xlink:href="#linear-gradient-11"/><linearGradient id="linear-gradient-24" x1="-1067.64" y1="1971.95" x2="-1024.81" y2="2216.21" gradientTransform="matrix(0.75, -0.66, 0.66, 0.75, 346.87, -1229.64)" xlink:href="#linear-gradient-2"/><linearGradient id="linear-gradient-25" x1="-1073.78" y1="2265.37" x2="-1119.85" y2="2113.45" gradientTransform="matrix(0.75, -0.66, 0.66, 0.75, 346.87, -1229.64)" xlink:href="#linear-gradient-11"/><linearGradient id="linear-gradient-26" x1="5776.44" y1="1381.4" x2="5967.65" y2="2178.09" gradientTransform="translate(-4705.66)" xlink:href="#linear-gradient-2"/><linearGradient id="linear-gradient-27" x1="5645.42" y1="1592.17" x2="5753.76" y2="1592.17" gradientTransform="translate(-4705.66)" xlink:href="#linear-gradient-11"/><linearGradient id="linear-gradient-28" x1="614.33" y1="2119.64" x2="636.86" y2="2671.55" gradientUnits="userSpaceOnUse"><stop offset="0" stop-color="#4f52ff"/><stop offset="1" stop-color="#4042e2"/></linearGradient><linearGradient id="linear-gradient-29" x1="543.18" y1="2638.89" x2="600.32" y2="2638.89" gradientTransform="matrix(1, 0, 0, 1, 0, 0)" xlink:href="#linear-gradient-11"/><linearGradient id="linear-gradient-30" x1="916.02" y1="2107.33" x2="938.54" y2="2659.24" xlink:href="#linear-gradient-28"/><linearGradient id="linear-gradient-31" x1="227.2" y1="2381.05" x2="679.56" y2="2381.05" xlink:href="#linear-gradient-2"/><linearGradient id="linear-gradient-32" x1="813.83" y1="2643.7" x2="882.05" y2="2643.7" gradientTransform="matrix(1, 0, 0, 1, 0, 0)" xlink:href="#linear-gradient-11"/><linearGradient id="linear-gradient-33" x1="638.1" y1="2192.58" x2="141.49" y2="2755.63" xlink:href="#linear-gradient-2"/><linearGradient id="linear-gradient-34" x1="434.89" y1="1682.36" x2="468.52" y2="1597.55" gradientTransform="matrix(1, 0, 0, 1, 0, 0)" xlink:href="#linear-gradient-11"/><linearGradient id="linear-gradient-35" x1="1343.38" y1="608.47" x2="311.48" y2="2180.89" xlink:href="#linear-gradient-28"/><linearGradient id="linear-gradient-36" x1="456.71" y1="1821.8" x2="1110.52" y2="732.12" xlink:href="#linear-gradient-2"/><linearGradient id="linear-gradient-37" x1="722.24" y1="2012.22" x2="879.82" y2="2012.22" gradientTransform="matrix(1, 0, 0, 1, 0, 0)" xlink:href="#linear-gradient-11"/><linearGradient id="linear-gradient-38" x1="2444.72" y1="1970.63" x2="2275.84" y2="2099.84" gradientTransform="translate(-2143.48 -124.53) rotate(-7.5)" xlink:href="#linear-gradient-11"/><linearGradient id="linear-gradient-39" x1="2326.08" y1="1868.63" x2="2478.99" y2="2065.51" gradientTransform="translate(-2143.48 -124.53) rotate(-7.5)" xlink:href="#linear-gradient-2"/><linearGradient id="linear-gradient-40" x1="2423.77" y1="1943.25" x2="2254.9" y2="2072.47" gradientTransform="translate(-2143.48 -124.53) rotate(-7.5)" xlink:href="#linear-gradient-11"/><linearGradient id="linear-gradient-41" x1="20773.66" y1="-23230.14" x2="20352.22" y2="-22822.69" gradientTransform="matrix(-1.39, -0.07, -0.07, 1.39, -5804.36, -426.33)" xlink:href="#linear-gradient-2"/><linearGradient id="linear-gradient-42" x1="17741.52" y1="-23212.1" x2="17320.09" y2="-22804.66" gradientTransform="matrix(0.65, -1.23, -1.23, -0.65, 8057.64, -6778.97)" xlink:href="#linear-gradient-2"/><linearGradient id="linear-gradient-43" x1="1299.58" y1="3774.5" x2="1720.76" y2="2089.76" gradientTransform="matrix(1, 0, 0, 1, 0, 0)" xlink:href="#linear-gradient-11"/><linearGradient id="linear-gradient-44" x1="2252.61" y1="1710.52" x2="1852.21" y2="2384.6" xlink:href="#linear-gradient-2"/><linearGradient id="linear-gradient-45" x1="1504.24" y1="2708.94" x2="1588.48" y2="1452.41" gradientTransform="matrix(1, 0, 0, 1, 0, 0)" xlink:href="#linear-gradient-11"/><linearGradient id="linear-gradient-46" x1="1577.61" y1="2158.31" x2="2135.79" y2="2158.31" xlink:href="#linear-gradient-2"/><linearGradient id="linear-gradient-47" x1="2023.9" y1="1574.67" x2="1623.56" y2="2248.67" xlink:href="#linear-gradient-2"/><linearGradient id="linear-gradient-48" x1="1970.79" y1="1226.02" x2="1888.6" y2="1657.82" xlink:href="#linear-gradient-2"/><linearGradient id="linear-gradient-49" x1="1580.61" y1="2624" x2="1894.84" y2="1919.5" xlink:href="#linear-gradient-28"/><linearGradient id="linear-gradient-50" x1="1834.77" y1="1766.25" x2="1801.14" y2="1550.44" gradientTransform="matrix(1, 0, 0, 1, 0, 0)" xlink:href="#linear-gradient-11"/><linearGradient id="linear-gradient-51" x1="-685.45" y1="5472.43" x2="-465.31" y2="5621.96" gradientTransform="translate(-2294.37 -2315.13) rotate(-52.83)" xlink:href="#linear-gradient-11"/><linearGradient id="linear-gradient-52" x1="-538.6" y1="5293.58" x2="-620.79" y2="5725.37" gradientTransform="translate(-2294.37 -2315.13) rotate(-52.83)" xlink:href="#linear-gradient-2"/><linearGradient id="linear-gradient-53" x1="-672.26" y1="5453" x2="-452.11" y2="5602.53" gradientTransform="translate(-2294.37 -2315.13) rotate(-52.83)" xlink:href="#linear-gradient-11"/><linearGradient id="linear-gradient-54" x1="1972.88" y1="2011.29" x2="2440.93" y2="2011.29" gradientTransform="matrix(1, 0, 0, 1, 0, 0)" xlink:href="#linear-gradient-11"/><linearGradient id="linear-gradient-55" x1="1898" y1="2137.39" x2="1603.36" y2="2218.15" gradientTransform="translate(-19.54 -77.98) rotate(-2.83)" xlink:href="#linear-gradient-2"/><linearGradient id="linear-gradient-56" x1="1583" y1="1772.75" x2="1373.94" y2="1993.71" xlink:href="#linear-gradient-2"/><linearGradient id="linear-gradient-57" x1="-9863.7" y1="3053.62" x2="-9860.61" y2="3380.84" gradientTransform="matrix(-1, 0, 0, 1, -7626.33, 0)" xlink:href="#linear-gradient-2"/><linearGradient id="linear-gradient-58" x1="-9942.57" y1="2688.2" x2="-9959.55" y2="2555.46" gradientTransform="matrix(-1, 0, 0, 1, -7626.33, 0)" xlink:href="#linear-gradient-11"/><linearGradient id="linear-gradient-59" x1="-10305.79" y1="3057.79" x2="-10302.7" y2="3385.01" gradientTransform="matrix(-1, 0, 0, 1, -7626.33, 0)" xlink:href="#linear-gradient-2"/><linearGradient id="linear-gradient-60" x1="-10313.66" y1="2733.69" x2="-10330.2" y2="2604.34" gradientTransform="matrix(-1, 0, 0, 1, -7626.33, 0)" xlink:href="#linear-gradient-11"/><linearGradient id="linear-gradient-61" x1="2426.95" y1="1689.38" x2="2580.13" y2="2435.03" xlink:href="#linear-gradient-2"/><linearGradient id="linear-gradient-62" x1="-10323.65" y1="2164.05" x2="-10305.13" y2="2127" gradientTransform="matrix(-1, 0, 0, 1, -7626.33, 0)" xlink:href="#linear-gradient-28"/><linearGradient id="linear-gradient-63" x1="-10018.86" y1="1385.94" x2="-10336.81" y2="2330.55" gradientTransform="matrix(-1, 0, 0, 1, -7626.33, 0)" xlink:href="#linear-gradient-28"/><linearGradient id="linear-gradient-64" x1="-10188.61" y1="1884.13" x2="-9956.72" y2="1884.13" gradientTransform="matrix(-1, 0, 0, 1, -7626.33, 0)" xlink:href="#linear-gradient-11"/><linearGradient id="linear-gradient-65" x1="-9974.92" y1="1593.45" x2="-9541.88" y2="1593.45" gradientTransform="matrix(-1, 0, 0, 1, -7626.33, 0)" xlink:href="#linear-gradient-11"/><linearGradient id="linear-gradient-66" x1="-10130.82" y1="1350.57" x2="-9980.11" y2="1195.95" gradientTransform="matrix(-1, 0, 0, 1, -7626.33, 0)" xlink:href="#linear-gradient-11"/><linearGradient id="linear-gradient-67" x1="-9912.26" y1="1098.53" x2="-10100.15" y2="1347.1" gradientTransform="matrix(-1, 0, 0, 1, -7626.33, 0)" xlink:href="#linear-gradient-11"/><linearGradient id="linear-gradient-68" x1="2572.35" y1="391.6" x2="2374.11" y2="966.04" xlink:href="#linear-gradient-8"/><linearGradient id="linear-gradient-69" x1="-10187.45" y1="1295.37" x2="-10036.74" y2="1140.75" gradientTransform="matrix(-1, 0, 0, 1, -7626.33, 0)" xlink:href="#linear-gradient-11"/><linearGradient id="linear-gradient-70" x1="143" y1="4149.4" x2="701.12" y2="2159.11" xlink:href="#linear-gradient-28"/><linearGradient id="linear-gradient-71" x1="172.14" y1="4157.57" x2="730.26" y2="2167.28" xlink:href="#linear-gradient-28"/><linearGradient id="linear-gradient-72" x1="1706.47" y1="4587.84" x2="2264.6" y2="2597.55" xlink:href="#linear-gradient-28"/><linearGradient id="linear-gradient-73" x1="1735.61" y1="4596.01" x2="2293.74" y2="2605.71" xlink:href="#linear-gradient-28"/><linearGradient id="linear-gradient-74" x1="2493.85" y1="1414.33" x2="2404.18" y2="1790.97" xlink:href="#linear-gradient-2"/><linearGradient id="linear-gradient-75" x1="830.55" y1="4342.2" x2="1388.67" y2="2351.91" xlink:href="#linear-gradient-28"/></defs><g id="Layer_2" data-name="Layer 2"><g id="Illustration"><path class="cls-1" d="M2457.05,2399.44c-57.07,60.08-111.07,98.82-153.73,129.43-501.49,359.83-1094.89,254.94-1221,229.33-186.23-37.83-546.21-110.94-806.47-417-393.74-463-332.43-1192.55-27-1674.1,55.86-88.09,351-577,950.75-655.38,363-47.45,786.11,48.25,1092.52,305C2935.3,855.55,2889.51,1944.15,2457.05,2399.44Z"/><path class="cls-2" d="M49.39,947.58a8,8,0,0,1-4.66-7.16c0-10.4.14-21,.53-31.44a7.7,7.7,0,0,1,8.2-7.35c10.58.51,7,10.85,7.08,39a7.68,7.68,0,0,1-7.88,7.68A8,8,0,0,1,49.39,947.58Z"/><path class="cls-2" d="M55.31,811.64c3.34-19.71,7.52-39.52,12.42-58.89a7.77,7.77,0,0,1,9.58-5.51c11.53,3.09,3.44,9.14-6.4,67.22a7.75,7.75,0,0,1-9.1,6.25A8,8,0,0,1,55.31,811.64ZM97.7,659.81c7.37-18.67,15.62-37.39,24.25-55,4.62-9.47,18.71-2.11,14.26,7-8.59,17.56-16.55,35.62-23.76,53.9a7.94,7.94,0,0,1-14.75-5.87Zm72.73-139.72c11-16.64,22.85-33.05,35.19-48.78,6.36-8.1,18.9,1.59,12.57,9.66-12.08,15.41-23.68,31.49-34.47,47.78C178,537.33,164.77,528.63,170.43,520.09ZM271,409.43a7.7,7.7,0,0,1-.07-11c14.29-14,29.34-27.63,44.74-40.49,7.92-6.6,18.26,5.35,10.35,12-15.09,12.6-29.84,25.94-43.84,39.66A8,8,0,0,1,271,409.43Zm121.7-98.68A7.64,7.64,0,0,1,394.89,300c16.95-10.81,34.55-21.07,52.3-30.52,9.14-4.84,16.84,8.87,7.7,13.74-17.4,9.26-34.64,19.31-51.25,29.9A8,8,0,0,1,392.68,310.75Zm144-67.64a8,8,0,0,1-4.09-4.27A7.63,7.63,0,0,1,537,228.78c18.88-7.16,38.28-13.66,57.65-19.34a8.07,8.07,0,0,1,9.92,5.26,7.64,7.64,0,0,1-5.17,9.68c-19,5.56-38,11.94-56.5,19A8.06,8.06,0,0,1,536.66,243.11Zm152.67-40.72a8,8,0,0,1-4.54-5.8,7.65,7.65,0,0,1,6.38-8.94c20-3.2,40.4-5.67,60.62-7.32a8,8,0,0,1,8.66,7.12,7.66,7.66,0,0,1-7.08,8.4c-19.82,1.62-39.8,4-59.4,7.18A7.93,7.93,0,0,1,689.33,202.39ZM843.1,185.91a7.69,7.69,0,0,1,8.12-7.43c20.3.9,40.86,2.61,61.1,5.08,10.43,1.31,8.7,16.73-1.68,15.46-19.83-2.42-40-4.09-59.86-5A8,8,0,0,1,843.1,185.91ZM1337,390.3c-44.73-39.46-55.41-39.63-48.23-49A8,8,0,0,1,1299.8,340c16.29,12.27,32.3,25.33,47.59,38.82C1355.24,385.69,1344.84,397.24,1337,390.3ZM1000.85,207.44a7.78,7.78,0,0,1,9.52-5.61c19.75,5,39.6,10.77,59,17.24,10,3.33,5.1,18.07-4.84,14.75-19-6.34-38.43-12-57.79-16.9A7.92,7.92,0,0,1,1000.85,207.44Zm207.83,91c-51.69-29.66-62.3-27.74-57.21-38.39,3.22-6.75,11.46-3.56,10.51-3.58,18.48,8.8,36.81,18.41,54.47,28.54a7.81,7.81,0,0,1,3,10.66A7.89,7.89,0,0,1,1208.68,298.4Z"/><path class="cls-2" d="M1426.47,483.56c-16.76-20.65-27.55-28-19.48-34.86a8,8,0,0,1,11.15.89c18.2,20.65,27.46,29,19.45,35.3C1435.19,486.77,1429.22,486.93,1426.47,483.56Z"/><path class="cls-2" d="M1597.61,1064.14a7.93,7.93,0,0,1-4.6-8.14c1.27-10.15,2.34-20.45,3.19-30.6a7.71,7.71,0,0,1,8.52-7,8,8,0,0,1,7.24,8.53c-.87,10.36-2,20.86-3.25,31.23a7.74,7.74,0,0,1-8.82,6.63A8.13,8.13,0,0,1,1597.61,1064.14Z"/><path class="cls-2" d="M486.73,1640.5c-19.72-9.74-39.27-20.42-58.1-31.74a7.8,7.8,0,0,1-2.76-10.72c6.28-10.31,10,0,67.75,28.56a7.84,7.84,0,0,1,3.67,10.47C494,1643.78,485.78,1640.47,486.73,1640.5ZM581,1671.78c3.81-11.43,10.09-2,72.14,13.51a7.91,7.91,0,0,1,5.87,9.47,7.76,7.76,0,0,1-9.51,5.62c-21.24-5.32-42.59-11.61-63.45-18.69A7.89,7.89,0,0,1,581,1671.78ZM340.45,1547.33c-17.11-13.73-33.87-28.35-49.8-43.46a7.72,7.72,0,0,1-.31-11c8.46-8.66,9.8,2.22,60,42.46a7.75,7.75,0,0,1,1.25,11A8,8,0,0,1,340.45,1547.33Zm412.19,171.44a7.94,7.94,0,0,1-4.62-7.93,7.71,7.71,0,0,1,8.62-6.86c21.39,2.38,43.09,3.9,64.5,4.5a8,8,0,0,1,7.82,8,7.7,7.7,0,0,1-8,7.57c-21.86-.61-44-2.16-65.84-4.59A8.28,8.28,0,0,1,752.64,1718.77Zm170.92.34a8,8,0,0,1-4.6-6.21,7.66,7.66,0,0,1,6.85-8.59c21.26-2.29,42.68-5.51,63.68-9.57a8.06,8.06,0,0,1,9.38,6.16,7.63,7.63,0,0,1-6.08,9.13c-21.43,4.15-43.29,7.43-65,9.77A8.07,8.07,0,0,1,923.56,1719.11Zm166.23-36.63a8,8,0,0,1-4.19-4.52,7.63,7.63,0,0,1,4.75-9.89c20.17-6.83,40.29-14.59,59.8-23.07a8.07,8.07,0,0,1,10.48,4,7.63,7.63,0,0,1-3.89,10.26c-19.9,8.65-40.43,16.57-61,23.54A8,8,0,0,1,1089.79,1682.48Zm153.55-71.59a8.13,8.13,0,0,1-3.43-3,7.66,7.66,0,0,1,2.44-10.71c18.11-11,36-22.94,53.05-35.43a8,8,0,0,1,11.08,1.68,7.66,7.66,0,0,1-1.52,10.88c-17.44,12.76-35.65,24.92-54.13,36.17A8,8,0,0,1,1243.34,1610.89Zm131.12-104.78c-8.69-8.7,2.33-9.54,43.65-57.2,6.73-7.77,18.84,2.47,12.1,10.24-14.1,16.26-29.09,32.12-44.57,47.13A8,8,0,0,1,1374.46,1506.11Zm108-128.89c-10.4-6.62.06-9.76,29.6-65.46,4.79-9,18.86-1.68,14,7.4-10.08,19-21.09,37.78-32.74,55.81A7.91,7.91,0,0,1,1482.51,1377.22Zm75.6-149.79a7.86,7.86,0,0,1-4.19-9.79c7.23-19.87,13.68-40.22,19.16-60.46a7.79,7.79,0,0,1,9.67-5.37,7.92,7.92,0,0,1,5.61,9.62c-5.59,20.66-12.16,41.42-19.55,61.7a7.81,7.81,0,0,1-10.1,4.55C1558.5,1227.6,1558.3,1227.52,1558.11,1227.43Z"/><path class="cls-2" d="M217.72,1424.64c-17.24-21.48-26.09-30.24-17.78-36.13,8.63-6.12,12.47,4.6,30.12,26.6a7.68,7.68,0,0,1-1.23,10.93A8,8,0,0,1,217.72,1424.64Z"/><path class="cls-2" d="M317.93,1234.57l113.19-6a503.62,503.62,0,0,0,114.33,112.43c-3.28,108.5-11.2,115.88.09,120.55l126.27,52.23a9.31,9.31,0,0,0,10.52-2.32l74.32-83.09a501.71,501.71,0,0,0,160.14,1.1l76.08,84.25a9.5,9.5,0,0,0,10.57,2.47l125.22-50.4a9,9,0,0,0,5.65-9l-8-111.64a478.3,478.3,0,0,0,112.15-110.7l113.25,7.59a9.15,9.15,0,0,0,9.12-5.59L1411.64,1113a9.2,9.2,0,0,0-2.54-10.41l-85.65-74.68a479.84,479.84,0,0,0-1.66-157.78c80.7-73.52,91.26-72.84,86.53-83.87-54.46-121-50.19-130.64-62.58-130l-113.19,6a503.62,503.62,0,0,0-114.33-112.43c3.28-108.44,11.2-115.88-.09-120.55-126.35-49.74-128.8-58.85-136.79-49.92L907,462.41a501.71,501.71,0,0,0-160.14-1.11c-75.1-79.81-75.35-91.26-86.64-86.72C537.2,426.64,528.5,421.93,529.36,434l8,111.64a478.25,478.25,0,0,0-112.14,110.7c-108.26-5-117.74-13.29-122.37-2-48.09,123.08-57.55,125.83-48.29,133.92l85.65,74.68a480.11,480.11,0,0,0,1.65,157.78c-80.42,73.26-91.27,72.78-86.52,83.87C309.81,1225.55,305.54,1235.22,317.93,1234.57Z"/><path class="cls-3" d="M700.33,925.51c9.88-71.26,76.91-120.31,149.42-109.33s123.46,77.88,113.59,149.14-76.91,120.3-149.42,109.33h0C741.39,1063.68,690.45,996.75,700.33,925.51ZM815.52,1063.1l.07,0Zm31-223.82c-58.86-8.92-114.48,30.38-122.72,89.79-8.11,58.52,33.73,113.49,93.29,122.48s114.6-31.26,122.71-89.79S906,848.26,846.55,839.28Z"/><path class="cls-3" d="M694.52,1247.32h0a350.46,350.46,0,0,1-51.17-29,11.72,11.72,0,0,1-4.18-14.53,11.46,11.46,0,0,1,1-1.75,11.89,11.89,0,0,1,16.46-2.84,329.14,329.14,0,0,0,59.54,32.18h0c157.9,65.31,337.52-3.77,406.8-154.12,1.77-3.83,3.46-7.73,5.09-11.67,65.57-159.37-13.81-341.83-175.47-408.75-161.44-66.79-346.4,6.86-411.88,165.79-38.93,94.61-15.5,161.61-20,171.31-4.84,10.49-20.7,8.1-22.53-3.34a328.26,328.26,0,0,1,26-189.63c121.35-263.31,507.52-252.54,623.27,17.13,35.62,83,36.55,174.11,2.6,256.59q-2.62,6.4-5.51,12.66c-35.18,76.36-97.5,135.52-176.79,167.44-83.63,33.66-176.12,33-260.44-1.89Q700.87,1250.25,694.52,1247.32Z"/><path class="cls-2" d="M1680.12,752.47a275.91,275.91,0,0,0,68.07,57.92l1.27,63.27c.14,7,6.14,4.3,75.9,28.16,6.45,2.08,5.74-4,43.75-52.43a276,276,0,0,0,89.08-7.24L2003.86,886c5.07,4.87,7.38-1.3,73.58-33.75a5.23,5.23,0,0,0,2.78-5.37l-8.93-62.69a275.91,275.91,0,0,0,57.92-68.07c60.44-2.47,66,1.7,68.12-4.87,21.83-72,27-73.95,21.49-78l-50.61-38a275.75,275.75,0,0,0-7.24-89.08l43.87-45.66c4.87-5.07-1.3-7.39-33.75-73.58-3.08-6-6.59-1.31-68.06,6.14A275.86,275.86,0,0,0,2035,335.12l-1.28-63.27c-.14-7-6.14-4.3-75.89-28.16-6.42-2.07-5.55,3.7-43.76,52.43a275.75,275.75,0,0,0-89.08,7.24l-45.66-43.87a5.21,5.21,0,0,0-6-.88l-67.6,34.63a5.21,5.21,0,0,0-2.78,5.37l8.92,62.69a276.12,276.12,0,0,0-57.92,68.07c-60.44,2.47-66-1.7-68.11,4.87-21.82,72-27,73.94-21.49,78l50.61,38a276,276,0,0,0,7.23,89.08c-41,44.48-47.91,45.47-44.75,51.64l34.64,67.6C1615.16,764.66,1619,759.88,1680.12,752.47Z"/><path class="cls-3" d="M1812.48,567.63a79.26,79.26,0,1,1,74,84.22h0A79.36,79.36,0,0,1,1812.48,567.63Zm74.73,72.43.07,0Zm-51.15-70.91A55.72,55.72,0,0,0,1888,628.28h0c49.16,3.17,78-55.09,45.4-92.24C1900.9,499.07,1839.26,519.68,1836.06,569.15Z"/><path class="cls-2" d="M1493.76,691.32c-3-10.19-5.72-20.65-8-31.09a7.87,7.87,0,0,1,6-9.35c10.69-2.3,9.17,9.64,17,35.94a7.87,7.87,0,1,1-15.09,4.5Z"/><path class="cls-2" d="M1476.92,555.34a420.21,420.21,0,0,1,7.73-64.4c2-10.24,17.48-7.1,15.44,3.08-11.27,56.39-2.47,70.09-15.64,69.52A7.87,7.87,0,0,1,1476.92,555.34Zm45-153.65a7.87,7.87,0,0,1-3.64-10.52,415.14,415.14,0,0,1,32.88-55.94c6-8.53,18.88.48,12.91,9a398.78,398.78,0,0,0-31.63,53.8C1529.06,404.92,1520.92,401.67,1521.88,401.69Zm101.75-131.26a8,8,0,0,1-2.69-2,7.88,7.88,0,0,1,.87-11.11,417.82,417.82,0,0,1,52.41-38.2,7.87,7.87,0,0,1,8.26,13.4,402.52,402.52,0,0,0-50.43,36.77A7.9,7.9,0,0,1,1623.63,270.43Zm145.46-80a7.87,7.87,0,0,1,1-14.68,414.09,414.09,0,0,1,63.34-14.06,7.88,7.88,0,0,1,2.19,15.6,397.15,397.15,0,0,0-60.91,13.52A7.85,7.85,0,0,1,1769.09,190.39Zm160.82-23.16a7.89,7.89,0,0,1,8.71-6.95,417.36,417.36,0,0,1,63.7,12.29c10,2.71,5.89,18-4.19,15.19a399.75,399.75,0,0,0-61.28-11.82A7.87,7.87,0,0,1,1929.91,167.23Z"/><path class="cls-2" d="M2117.92,243.61c-23.79-16.39-34.27-18.08-28.93-27.28a7.8,7.8,0,0,1,10.76-2.86c9.18,5.32,18.3,11.1,27.11,17.17a7.88,7.88,0,0,1-8.94,13Z"/><path class="cls-2" d="M2287.77,521.76c-3.68-28.76-9.4-37.61,1-39.76a7.86,7.86,0,0,1,9.31,6.11c2.16,10.39,3.94,21,5.3,31.66a7.87,7.87,0,1,1-15.62,2Z"/><path class="cls-2" d="M1755.83,956.77c4.11-12.42,13.43.37,69.54,9.74,10.25,1.69,7.71,17.25-2.6,15.54a416.37,416.37,0,0,1-61.94-15.33A7.88,7.88,0,0,1,1755.83,956.77Zm161.85,22.4a7.87,7.87,0,0,1,7.2-8.49c57.18-4.7,67-16.69,70.09-3.93a7.87,7.87,0,0,1-5.81,9.5,413.29,413.29,0,0,1-63,10.13A7.88,7.88,0,0,1,1917.68,979.17Zm157.59-42.89c-6.15-11.58,9.4-9.36,55.1-43.49,8.35-6.22,17.78,6.39,9.43,12.62a417.65,417.65,0,0,1-53.89,34.14A7.87,7.87,0,0,1,2075.27,936.28Zm128.07-101.42c-10.22-8.28,5-12.31,33.69-61.6,5.23-9,18.86-1.09,13.61,7.92a415.29,415.29,0,0,1-36.23,52.52A7.87,7.87,0,0,1,2203.34,834.86Zm72.56-153.27c15.58-55.17,7.79-68.64,20.85-67.05a7.88,7.88,0,0,1,6.87,8.77,417,417,0,0,1-12.56,62.56,7.88,7.88,0,0,1-15.16-4.28Z"/><path class="cls-2" d="M1667.1,921.88c-9-5.78-17.81-12-26.29-18.41a7.88,7.88,0,0,1-1.5-11c6.62-8.71,13.21,1.32,36.32,16.21a7.87,7.87,0,0,1-8.53,13.24Z"/><path class="cls-3" d="M1795.51,741a11.82,11.82,0,1,1,11.43-20.69,171.75,171.75,0,0,0,164.19,4.24c135.33-69.34,119.33-269.11-25.55-315.81C1862.23,381.83,1773,422.4,1737.25,500c-36,78.2,4.69,118.89-20.23,124.65a11.8,11.8,0,0,1-14.18-8.83A194.86,194.86,0,0,1,1707.27,512c32.94-102.21,143-158.86,245.56-125.8,110.34,35.58,166.65,160.32,117.17,267.7-39.9,86.61-140.27,134.84-236.93,103.66h0A196.68,196.68,0,0,1,1795.51,741Z"/><path class="cls-4" d="M1763.21,1023.39c-.3-3.69-4.07-6.89-10.45-9.45,6.94-3.82,10.77-7.92,10.45-11.94-1-12.17-39.51-19-86.06-15.24s-83.48,16.66-82.5,28.83c.3,3.69,4.06,6.88,10.45,9.44-6.94,3.83-10.78,7.93-10.45,12,.3,3.69,4.06,6.88,10.45,9.44-6.94,3.83-10.78,7.93-10.45,11.95.3,3.69,4.06,6.88,10.45,9.44-6.94,3.83-10.78,7.93-10.45,12,.43,5.38,8.22,9.71,20.79,12.55a106.73,106.73,0,0,0,.32,13.15c1.82,22.42,27,40,60.39,40s62.22-24,62.54-46.45a113.42,113.42,0,0,0-.65-14.68c16-5.33,25.68-11.84,25.17-18.15-.3-3.69-4.07-6.89-10.45-9.45,6.94-3.82,10.77-7.92,10.45-11.94-.3-3.69-4.07-6.89-10.45-9.45C1759.7,1031.51,1763.53,1027.41,1763.21,1023.39Z"/><path class="cls-5" d="M1655.61,1097.15a201.25,201.25,0,0,1-36.92-3,1.11,1.11,0,1,1,.42-2.19c16.35,3.13,38.2,3.82,61.5,1.94,19.08-1.54,36.91-4.61,51.59-8.9a1.12,1.12,0,0,1,.62,2.15c-14.81,4.32-32.8,7.43-52,9C1672.14,1096.81,1663.68,1097.15,1655.61,1097.15Z"/><path class="cls-6" d="M1655.85,1075.74c-18,0-34-1.69-45.34-4.91a1.12,1.12,0,1,1,.62-2.15c16.13,4.59,42.11,6,69.48,3.81,27.09-2.18,52.35-7.68,67.57-14.7a1.12,1.12,0,1,1,.94,2c-15.45,7.12-41,12.69-68.33,14.9C1672.27,1075.41,1663.86,1075.74,1655.85,1075.74Z"/><path class="cls-7" d="M1655.62,1054.37c-19.4,0-36.37-2-47.79-5.75a1.12,1.12,0,0,1,.7-2.13c15.9,5.24,42.84,7,72.08,4.61,27.09-2.18,52.34-7.68,67.57-14.7a1.12,1.12,0,0,1,1.49.54,1.14,1.14,0,0,1-.55,1.49c-15.45,7.12-41,12.69-68.33,14.9C1672.13,1054,1663.67,1054.37,1655.62,1054.37Z"/><path class="cls-8" d="M1655.77,1033c-15.39,0-29.38-1.25-40.26-3.66a1.12,1.12,0,1,1,.49-2.19c16.36,3.64,39.91,4.58,64.61,2.59,26.84-2.17,52-7.6,67.23-14.54a1.12,1.12,0,0,1,1.48.55,1.13,1.13,0,0,1-.56,1.48c-15.47,7-40.88,12.55-68,14.74C1672.24,1032.63,1663.81,1033,1655.77,1033Z"/><path class="cls-9" d="M1563.41,915.41a157.57,157.57,0,0,0-28.19-55c-27.71-34.92-72.92-106-78.48-202.88-8.1-141,117-211.59,231.06-202S1914.5,550,1902.18,681.21c-7.59,80.71-52.76,141.93-86.4,177.08a186.92,186.92,0,0,0-44.84,79.45c-10.09,36.44-34.11,81.86-91.21,84.63C1605.85,1026,1575.17,957.08,1563.41,915.41Z"/><path class="cls-10" d="M1698.61,994.25l39.92-259.69c.83-5.36,3.47-9,5.9-8s3.73,6,2.91,11.38c0,.14,0,.32-.08.46l-45.48,257.27c-.34,1.93-1.32,3.16-2.19,2.73S1698.32,996.12,1698.61,994.25Z"/><path class="cls-11" d="M1657.16,996.31l-39.92-259.68c-.83-5.37-3.47-9-5.9-8s-3.74,6-2.91,11.38l.07.46L1654,997.69c.35,1.94,1.33,3.16,2.2,2.73S1657.45,998.18,1657.16,996.31Z"/><path class="cls-12" d="M1738.25,712.27a4.19,4.19,0,0,0-5.24-1.36l-22.24,10.38-7.71-22a4.71,4.71,0,0,0-2.71-2.72,5.48,5.48,0,0,0-6.83,2.1l0,.07L1675.2,732.1l-17-47.46,0-.08a5.44,5.44,0,0,0-2.56-2.89,6.68,6.68,0,0,0-8.4,1.65l-25.56,35.19a3.08,3.08,0,0,0,.9,4.44,4.29,4.29,0,0,0,5.44-.59l22.5-25.1,20.27,45.14v0a3.55,3.55,0,0,0,1.79,1.75,4.23,4.23,0,0,0,5.3-1.37l19.55-31.38,7.36,15.87.07.15a2.68,2.68,0,0,0,.18.33,4.18,4.18,0,0,0,5.24,1.36l26.39-12.33A3.14,3.14,0,0,0,1738.25,712.27Z"/><path class="cls-12" d="M1816.65,824.82a5.07,5.07,0,0,1-4.06-8.09,294.21,294.21,0,0,0,18.52-28.14,5.07,5.07,0,0,1,8.78,5.07,305,305,0,0,1-19.16,29.11A5.08,5.08,0,0,1,1816.65,824.82Z"/><path class="cls-12" d="M1849.5,768.45a5.19,5.19,0,0,1-2-.42,5.08,5.08,0,0,1-2.63-6.67c42.19-97.16,5.81-178.72,5.44-179.53a5.07,5.07,0,1,1,9.21-4.22c1.6,3.48,38.63,86.51-5.35,187.79A5.06,5.06,0,0,1,1849.5,768.45Z"/><path class="cls-13" d="M1005.44,2615.79s-6.58,35.32-10,70.31a24.12,24.12,0,0,0,22.83,26.36c46.62,2.39,146.33,7.12,182.14,5.86a7.84,7.84,0,0,0,7-10.69h0a17.51,17.51,0,0,0-8.89-9.55l-164.06-77.3Z"/><path class="cls-14" d="M1000.52,2595l4.62,42.36s28.74,13.71,48.59-1.23l-11.5-47.27Z"/><path class="cls-15" d="M1011.89,1799.47c-2.28,11-16.91,551.32,38.55,794a8.23,8.23,0,0,1-4.92,9.52,143.21,143.21,0,0,1-47.13,9.11,14.17,14.17,0,0,1-13.95-10.29c-16-56.35-92.41-338.61-100.16-607.62-8.67-300.6.1-10.23.1-10.23l8.53-185.68Z"/><path class="cls-16" d="M815.72,2632.44s-10.11,17.77-20.2,65.13a14.72,14.72,0,0,0,12.79,17.75c15.38,1.66,39.07,3.84,58.06,3.89A14.69,14.69,0,0,0,881.06,2703c-1.94-17.34-8.22-45.82-28.26-68.16Z"/><path class="cls-17" d="M807.51,2577.93,818.63,2642s11.51,8.73,34.52,2.7l-4.94-68.91Z"/><path class="cls-18" d="M783.1,1813.87c-50,284.66,3.53,704.77,22.13,787.07a12.82,12.82,0,0,0,10.25,9.83c8.64,1.51,22.88,2.82,37-1.13a11.72,11.72,0,0,0,8.54-10.72c3.24-66.37,2.45-474,48-634.64a36.59,36.59,0,0,1,14.31-20l86-59.92,7.49-98.12Z"/><path class="cls-19" d="M1089.28,1276.51c-141.55-3.69-298.14,34.33-298.14,34.33C746.59,1556.68,778.7,1841,778.7,1841c109.33,29.78,233.41-15.35,233.41-15.35,19.2-102.75,107-391.6,107-391.6,69.26-7.92,126.43-27.34,173.61-53.28-35.4-41.83-51.77-94.79-58.8-126.06C1183.67,1269.82,1132.94,1277.65,1089.28,1276.51Z"/><path class="cls-20" d="M1509.46,1072c-13.74-16.93-31.42-9.15-31.42-9.15-21.68,87.8-131.6,158.12-244.16,191.93,7,31.27,23.4,84.23,58.8,126.06C1479.94,1277.87,1509.46,1072,1509.46,1072Z"/><path class="cls-21" d="M1506.05,1076.21c1.41,4.64-15.51,11.52-25.25-7.49-.26-9.08-5.41-48,.08-55.31,29.24-39.07,85.66-87.86,85.66-87.86,9.37,9.42,1.49,18.51,1.49,18.51l-27.41,28c5.58,10.31,12.42,19,15.55,31.48a38.13,38.13,0,0,1-4.06,28c-4.85,8.54-11.46,19.63-17.69,28.3C1522.63,1076.24,1506.05,1076.21,1506.05,1076.21Z"/><path class="cls-22" d="M1528.57,990.31l-24.94,20.74-8,20.8,21.82,24.67s7.81-41.35,13.41-50.26S1533.68,993,1528.57,990.31Z"/><path class="cls-23" d="M844.13,1448.45l-53-137.61S658,1399.43,635.21,1513.15c25,2.08,70.37,9,114.66,31.91C760.17,1491.36,844.13,1448.45,844.13,1448.45Z"/><path class="cls-24" d="M958.47,1578.55S809.19,1661,759.78,1588.91c-10.26-15-12.6-29.78-9.91-43.85-44.29-22.9-89.69-29.83-114.66-31.91-6.89,34.28-3.77,70.84,16.06,107.95,86.22,161.36,326.5-5.76,326.5-5.76Z"/><path class="cls-25" d="M947,1160.21l-46.3,129.84a4.7,4.7,0,0,0,2.09,5.67c12.22,6.91,56.27,27,109.9-6.34a22.07,22.07,0,0,0,10.33-15.69l15.67-112.61Z"/><path class="cls-26" d="M1046.14,1040.5s48.58,93.59,41.88,131.15-68,34.26-121.22,3.2L930.35,1074Z"/><path class="cls-27" d="M969.64,1125.5a3.83,3.83,0,0,0,1.72-5.6c-3.9-6.09-11.21-18.52-13.48-29.35,0,0-8.84-5.78,22.76-13s78.72-18.51,88.86-45.25c9.89-26.07-14.8-92.11-55.69-40.07a3.84,3.84,0,0,1-6.08,0c-6.54-8.68-23.77-26.73-48-16.12C937,986,934.27,1002.55,934.5,1010.9a3.82,3.82,0,0,1-4.56,3.87c-11.41-2.29-38.83-4.43-51.91,23.6-10.76,23.08-4,36.27,2.15,42.75a3.82,3.82,0,0,1-1.7,6.33c-7.54,2.23-17.3,8.51-16.5,26.13,1.11,24.35,28.35,22.46,36.1,21.43a3.84,3.84,0,0,1,3.4,1.24c6.57,7.41,36.21,38.91,68.56,43a3.86,3.86,0,0,0,4.11-5.07l-13.63-40.89a3.87,3.87,0,0,1,2.13-4.76Z"/><path class="cls-28" d="M975.22,1131.34s-35-24.5-37.76-4.18,31.43,29.78,48.49,22.36Z"/><path class="cls-29" d="M928,1708.92l81.31-284a8.3,8.3,0,0,1,7-6c14.73-1.71,57.42-6.54,106.71-10.71,59.37-5,128.32-9.09,169.52-5.63a8.31,8.31,0,0,1,6.79,12c-23.42,47.4-119.8,240.21-168.06,303.38a8.35,8.35,0,0,1-6.7,3.29l-188.67-1.76A8.3,8.3,0,0,1,928,1708.92Z"/><path class="cls-30" d="M947.61,1640.31s-11.33-46.58-6.76-63.1,13.42-37.77,42.93-33,64.31,17.15,64.31,17.15-1.75,21.53-24.18,14.58l13.91,10.76s-2,17.24-20.93,8l12.93,14.27s-8.13,14.15-22.07,5.08S987.13,1645.92,947.61,1640.31Z"/><path class="cls-2" d="M1117.57,1493a23.87,23.87,0,1,0,23.87-23.87A23.87,23.87,0,0,0,1117.57,1493Z"/><path class="cls-2" d="M1018.48,1508.78l-6.09-1.8,16.55-56.16a25.61,25.61,0,0,1,19.27-17.93c52.48-11,190.69-13.18,196.54-13.28l.1,6.35c-1.43,0-143.46,2.32-195.35,13.14a19.26,19.26,0,0,0-14.47,13.52Z"/><path class="cls-31" d="M56.13,2303.48C47.46,2316.31,13,2606.71,7.62,2714a12.68,12.68,0,0,0,12.7,13.3h0a12.7,12.7,0,0,0,12.55-10.75l63-403.8Z"/><path class="cls-31" d="M333.11,2303.48c8.66,12.83,43.12,303.23,48.51,410.49a12.69,12.69,0,0,1-12.7,13.3h0a12.7,12.7,0,0,1-12.56-10.75l-63-403.8Z"/><path class="cls-31" d="M4,2280.82,4,2284c-.2,22.79,19.42,41.48,44,41.89l291.25,5c24.23.41,44.42-17.09,45.59-39.52l.15-2.9c1.23-23.39-18.63-43.1-43.89-43.55L49.7,2239.63C24.76,2239.19,4.22,2257.7,4,2280.82Z"/><path class="cls-2" d="M617.55,2703.42c-51.77,0-74.68-4.44-84.92-8.49a19.64,19.64,0,0,0,19.13,15.21H734.92a8.91,8.91,0,0,0,8.59-11.25C722.63,2700.57,678.29,2703.42,617.55,2703.42Z"/><path class="cls-32" d="M743.51,2698.89a8.67,8.67,0,0,0-1.5-3.11c-14-17.82-42-45.79-80.11-45.25-55.85.78-75.32,6.84-118.72.34l-10.24,33.93a19.44,19.44,0,0,0-.31,10.13c10.24,4.05,33.15,8.49,84.92,8.49C678.29,2703.42,722.63,2700.57,743.51,2698.89Z"/><path class="cls-33" d="M555.75,2614.29,543.18,2657s27.84,12.67,52.33,2.5l4.81-37Z"/><path class="cls-2" d="M935.37,2676.5c-40.36,32.43-61,43.33-71.49,46.61a19.63,19.63,0,0,0,24.4-.18l142.78-114.73a8.87,8.87,0,0,0-.32-14.1C1015.51,2608.48,982.72,2638.46,935.37,2676.5Z"/><path class="cls-34" d="M1030.74,2594.1a8.54,8.54,0,0,0-3.11-1.48c-22-5.08-61.27-9.23-90.66,15.06-43.05,35.6-54.45,52.49-92.34,74.63l13.18,32.75a19.29,19.29,0,0,0,6.07,8.05c10.5-3.28,31.13-14.18,71.49-46.61C982.72,2638.46,1015.51,2608.48,1030.74,2594.1Z"/><path class="cls-35" d="M286.88,2127.27s310,25.31,373.57,55.25S608.55,2632,608.55,2632s-17.31,8.33-55.83-3.64c0,0,39.5-309.61,10.11-376.75l-335.63-54.9Z"/><path class="cls-36" d="M813.83,2623.38c2.88,2.62,30.8,58.93,30.8,58.93s31.08-6.72,37.42-26.39l-28-50.83Z"/><path class="cls-37" d="M100.18,2124.68s-10.1,24.31-9.68,56.61c.57,44.67,36.48,80.92,81.1,83.14L538,2281.14a17.58,17.58,0,0,1,16.22,13.21c8.61,33.31,50.7,135.59,256.45,339.69a16.6,16.6,0,0,0,20.52,2.24l29.29-18.5a6.76,6.76,0,0,0,2.21-9.12L649.37,2244.32a82.51,82.51,0,0,0-50.17-37.21l-312.32-79.84Z"/><path class="cls-38" d="M461.31,1555.54s-39.26,69.41-79.28,103l82.73,46.16s18.64-73.48,61.23-95Z"/><path class="cls-39" d="M93.53,2127.27s98.92,24.11,193.35,0c0,0,132.13-177.61,183.25-226,0,0,81.53,128.67,263,146.9l10.12-22.62s-144.48-66.6-189-168.94S492,1710.67,451.5,1684c-25.2-16.63-40.29-28-48.09-34.19a13,13,0,0,0-14.82-1C345.64,1675,143.57,1813.4,93.53,2127.27Z"/><path class="cls-40" d="M464.76,1898.81a6.37,6.37,0,0,1-5-2.48c-31.5-41.08-49.05-86.36-49.78-88.26a6.35,6.35,0,0,1,11.85-4.55c.17.45,17.66,45.51,48,85.08a6.34,6.34,0,0,1-5,10.21Z"/><path class="cls-41" d="M722.24,2013.78l20.42-5.45,62-14.36a28.76,28.76,0,0,1,21.8,3.68l53.33,33.55L732.54,2031Z"/><path class="cls-42" d="M523.64,1451.47s38.15,63.41,44.77,98.46,17.24,57-22.65,69.45-77-3.31-100.23-36c0,0-36.34-50.35-32.71-73.41S523.64,1451.47,523.64,1451.47Z"/><path class="cls-43" d="M456.15,1556.22l5.16-.68s-27-40.82-9.34-50.94,89.71-35,102.22-63.34c12.06-27.35-6-58.25-27.73-64.69a2.77,2.77,0,0,0-3.33,1.75l-1.27,3.44a2.8,2.8,0,0,1-5.19.15h0a2.78,2.78,0,0,0-5.07-.1c-3.85,8.49-15.41,23-50.05,34.24-49.15,15.93-79.77,40.71-76,75.63a2.8,2.8,0,0,1-4,2.84c-4-1.77-10.11-2-17.18,5.68-12.3,13.46-2.67,42.88,30.92,63.71a2.78,2.78,0,0,1,.46,4.46c-5,4.3-12.1,13.9,10.63,22.45,23.25,8.75,35.94,5.79,40.63,3.91a2.8,2.8,0,0,0,1.72-3.15l-6-30.6a2.8,2.8,0,0,1,2.38-3.31Z"/><path class="cls-44" d="M458.27,1562.51s-16.84-41.5-34.52-26.91,16.35,46.83,32.05,46.4Z"/><path class="cls-45" d="M665.34,2060.09l.72,0,314.63-.32a14.06,14.06,0,1,0,0-28.11L666,2032a14.05,14.05,0,0,0-.69,28.09Z"/><path class="cls-46" d="M1102.53,1752c-.11.22-.22.43-.32.65L969.83,2038a14.06,14.06,0,1,0,25.5,11.83l132.39-285.42a14.06,14.06,0,0,0-25.19-12.48Z"/><rect class="cls-31" x="1893.2" y="2346.93" width="33.21" height="359.11"/><path class="cls-31" d="M2055.23,2713H1764.38a21.61,21.61,0,0,1,21.62-21.61h247.61a21.61,21.61,0,0,1,21.62,21.61Z"/><rect class="cls-31" x="1732.71" y="2266.47" width="365.68" height="103.71" rx="35.71"/><path class="cls-47" d="M1664.66,2107.49s-49.35,7.65-104.83,44.73a27.66,27.66,0,0,0-12.2,26.44c6.64,52.62,33.95,222.93,124,389.28a41.87,41.87,0,0,1,4,28.74L1660,2669.5l-29,27.21h74.74L1755.52,2562l-21.28-6.73a40.27,40.27,0,0,1-28.12-37.7l-2.5-144.47c2.13-64.37-39.47-108.78-39.47-108.78l119.38-5.8Z"/><path class="cls-48" d="M1601.82,2709.85c-6.81,8.91,73.26,20.66,113.72,1.18,0,0,56.08-97.57,56.08-147.81,0,0-4.45-10.24-37.38-7.92,0,0-18.83,115.53-38.71,128.47s-55.63,1.31-55.63,1.31S1611.86,2696.7,1601.82,2709.85Z"/><path class="cls-49" d="M1768.42,2266.47c-.63-1.1-128.52-15.38-128.52-15.38s4.19,38.89-8.89,92.41-200.85,285.44-200.85,285.44l19.69,62.42c-60.88,21.2-120.75,24.59-179.67,10.8l122-73.22s114.19-389.13,184.13-458.56L1704.51,2126Z"/><path class="cls-50" d="M2055.23,2040s73.68,109.6,79.73,159.59-20.19,70.3-97.5,73.65-283.7,3.3-283.7,3.3L1577.61,2126s128.37-45.8,161.75-58.75S2055.23,2040,2055.23,2040Z"/><path class="cls-51" d="M1442.41,2670.34s21.19,20.53,6.87,43.37c0,0-167.9,29.76-213.49,16.26,0,0,9.46-21.61,60.8-46.2l-3.79,2.91a6.13,6.13,0,0,0,4,11C1330.68,2695.75,1400.68,2689.55,1442.41,2670.34Z"/><path class="cls-52" d="M1736.06,1345c150.62-25.61,221.53,97.23,216.35,123a4.72,4.72,0,0,0,5.91,5.42c17.29-4.66,55.49-10.53,79.17,19.15,20.91,26.19,5.28,50.92-7.45,64.49a4.75,4.75,0,0,0,4,8c31.8-4,100.88-5,112.18,59.74,10.54,60.35-31.46,77.36-56.37,82.16a4.72,4.72,0,0,0-1.58,8.65c12.43,7.88,26.83,24.18,21,56.33-9.12,50.39-107.92,46.27-119.47,45.61a4.58,4.58,0,0,1-2.06-.62l-158.25-90.25a4.75,4.75,0,0,1-2.33-3.32l-32-184.51a4.78,4.78,0,0,1,1.26-4.11l-103.16-145.59C1655.83,1383.74,1734.29,1345.33,1736.06,1345Z"/><path class="cls-53" d="M1856,2025.54s-85.8-81.7-128-135.82a114.84,114.84,0,0,1-19.45-103.33c19.29-65,53.55-132.25,56.68-142.72,4.79-16.06,101-15.39,101-15.39s189.31,122.87,263.7,331l-83.54,26s-49.43-82.93-98.27-135.66c0,0,84.51,111.64,87.49,157.35Z"/><path class="cls-54" d="M1753.53,1554c1,3.33,26.11,86.58,28.07,88.3s55.07,4.59,80.07-12.49l-62-121.28Z"/><path class="cls-55" d="M1652.86,1447s-12.14,47.69,21.44,111.83,71.58,64.07,92.36,43.54S1813.06,1547,1807,1485,1670.39,1386.33,1652.86,1447Z"/><path class="cls-56" d="M1760.53,1488.35s-55.7-85.16-107.94-18.13l-.95,24.37s-61.18-7.26-50.47-63.36,63.58-91.16,131.67-66.86,107.11,49.22,111.51,98-34.43,38.1-34.43,38.1-12.66-34.36-30.67-37.93-13.32,23.22-13.32,23.22Z"/><path class="cls-57" d="M1774.79,1487.21s-28.89-43.61.72-50.11,25,42.49,21.81,60.61Z"/><path class="cls-58" d="M1681.16,2031.6l63-60.76,87.21,36.84s86.81,13.45,136.49,0l49.68-13.45,112.28-35,17.63,49.83a30,30,0,0,1-11,34.47c-9.72,6.91-21.1,14.49-28.36,17.67-14.78,6.47-364.47-4.48-364.47-4.48Z"/><path class="cls-59" d="M1919.73,2060.25l-.84,0-365.69-.4a16.37,16.37,0,0,1,0-32.74l365.69.4a16.37,16.37,0,0,1,.8,32.72Z"/><path class="cls-60" d="M1224.46,1728.23H1529a58,58,0,0,1,52.5,33.28l140.79,298.54H1343.83a35.28,35.28,0,0,1-32.81-22.31l-109.17-276.25A24.32,24.32,0,0,1,1224.46,1728.23Z"/><path class="cls-31" d="M1439,1881.3c6.6,20.5,1.73,40.41-10.89,44.47s-28.19-9.27-34.79-29.77-1.72-40.42,10.89-44.48S1432.42,1860.79,1439,1881.3Z"/><path class="cls-61" d="M2336.64,2667.71a444.93,444.93,0,0,1,5.36,46.61,20.09,20.09,0,0,1-18.1,21.19c-37.43,3.63-122.63,10.33-177,2.48a9.13,9.13,0,0,1-5-15.71c22.43-20.9,76.6-61.55,165.77-70.44Z"/><path class="cls-62" d="M2355.25,2619.67l-18.92,46.38a15.47,15.47,0,0,1-15.87,9.6,84.57,84.57,0,0,1-15.46-3,20.31,20.31,0,0,1-13.51-25.25l14.28-47.78Z"/><path class="cls-63" d="M2678.8,2704.65s-37.9,31.71-52.66,72.38c-4.06,11.19,4.52,23,16.42,23h78a18.39,18.39,0,0,0,18.18-21.51C2733.75,2750.41,2719.43,2704.77,2678.8,2704.65Z"/><path class="cls-64" d="M2725.74,2663.39s-7.65,33.88-13.54,56.27a7.16,7.16,0,0,1-9.36,4.88c-11.8-4.22-21.4-6.09-28.38-5.15a5.52,5.52,0,0,1-6.09-5.51l-.74-56.27Z"/><path class="cls-65" d="M2524.2,1901l-230.5,703.2s44.21,28.95,65.27,27.75l273.78-565.14s47.91,348.22,24.7,598.21l78.42,6s127.51-638.87,30.93-857.68Z"/><path class="cls-66" d="M2631.27,2060.75l.28,0a2.23,2.23,0,0,0,1.94-2.49l-8.95-71a2.23,2.23,0,0,0-4.43.55l8.95,71A2.23,2.23,0,0,0,2631.27,2060.75Z"/><path class="cls-67" d="M2481,1282.23s186.75,16.58,160.34,149.64c0,0,103.23,194.27,151.49,423.12a13.45,13.45,0,0,1-10.92,16l-311,53.25a16.75,16.75,0,0,1-19-12.31l-74.3-287.18-29,133.52-92-24L2334,1341.93S2344.84,1284.69,2481,1282.23Z"/><path class="cls-2" d="M2376,1611.89a2.12,2.12,0,0,0,.5-.05,2.32,2.32,0,0,0,1.77-2.76l-25.92-119a2.32,2.32,0,0,0-4.53,1l25.92,119A2.32,2.32,0,0,0,2376,1611.89Z"/><path class="cls-68" d="M2394.74,1966.11a44.37,44.37,0,0,1,32.11-4.18l21.64,5.39a7.84,7.84,0,0,0,9.68-6.74l22.4-199.3c28,13.3,68.39,11.71,81.71,10.73l-51.54,235H2330.39Z"/><path class="cls-69" d="M1915.55,1533.79l5.45-18.11a35.83,35.83,0,0,1,21-22.92l98.59-39.65s1.49-12.65-20.83-21.24-17.1-33.59-17.1-33.59,30.49,13.91,75.13,36c25.53,12.62,39.85,34.9,47.45,51.66l223.4,272.35-26.23,18a70,70,0,0,1-101.53-24.91l-121-232.08C2039.05,1537.55,1977.56,1541,1915.55,1533.79Z"/><path class="cls-70" d="M2420.48,1155.18l57.44,160.75s-50.86,39.77-88,26.32L2361,1250.1S2383.1,1137.48,2420.48,1155.18Z"/><path class="cls-71" d="M2249.05,1097.44c0,2.48,55.33,156.63,55.33,156.63l87.35-33.46L2361,1066.71S2249.05,1056,2249.05,1097.44Z"/><path class="cls-72" d="M2345.68,1104.21,2368.2,1184a11.41,11.41,0,0,1,.44,3.12c0,6.5-1.6,28.88-24.4,25.84-20.69-2.76-39.61-5-51.64.69a11.56,11.56,0,0,0-6,14.38c5,14,16.95,45.35,31.47,71a11.52,11.52,0,0,0,14.84,4.75c16.41-7.46,50.57-24.17,74.9-44a11.58,11.58,0,0,0,4.1-11.11c-3.83-20.41-15.24-82.45-15.74-100.23-.47-16.69,18.26-29.43,26.5-34.22a11.39,11.39,0,0,0,5.36-7.2c2.59-10.74,4.78-35-26.23-40.41a11.59,11.59,0,0,1-9.4-13.79c2.62-12.85,1.78-31.75-22.61-38.72-24.8-7.07-40.41,7.85-48.34,19.3a11.58,11.58,0,0,1-14.36,3.83c-2.92-1.31-6.46-1.36-10.26,1.84a11.4,11.4,0,0,1-16.68-2.54c-7.23-10.64-20.37-21.26-42.61-14.07-39.46,12.77-37.57,58.27-23.11,83s56.47,8.46,76.35-7.93c15.11-12.46,38.13-5,48.3-.72A11.48,11.48,0,0,1,2345.68,1104.21Z"/><path class="cls-73" d="M2404.11,1177.47s-23.35-44.19-7.91-58.06,41.61-11.6,40.91,22.95C2436.23,1185.33,2404.11,1177.47,2404.11,1177.47Z"/><path class="cls-2" d="M2544.16,1775a224.35,224.35,0,0,0,22.82-1.07l1.66-.19,68-317a2.32,2.32,0,0,0-4.53-1l-67.29,313.76c-10.12.89-64.16,4.48-92.69-15.73L2531,1478.29l-12.3-23.17a2.32,2.32,0,0,0-4.09,2.17l11.51,21.69L2467,1755.7l1.18.88C2488.77,1772.07,2522,1775,2544.16,1775Z"/><path class="cls-74" d="M505.54,2741.64a11,11,0,0,1-4.67-1c-6-2.83-8.79-10.43-6.2-17l248.48-630.5c2.59-6.56,9.55-9.59,15.57-6.77s8.79,10.43,6.2,17l-248.49,630.5A11.85,11.85,0,0,1,505.54,2741.64Z"/><path class="cls-75" d="M785.48,2741.64a11.87,11.87,0,0,1-10.89-7.82L526.1,2103.32c-2.59-6.56.19-14.16,6.2-17s13,.21,15.57,6.77l248.48,630.5c2.59,6.56-.19,14.16-6.2,17A11,11,0,0,1,785.48,2741.64Z"/><path class="cls-76" d="M2192,2741.64a11.09,11.09,0,0,1-4.68-1c-6-2.83-8.79-10.43-6.2-17l248.49-630.5c2.58-6.56,9.55-9.59,15.56-6.77s8.79,10.43,6.21,17l-248.49,630.5A11.87,11.87,0,0,1,2192,2741.64Z"/><path class="cls-77" d="M2471.9,2741.64a11.87,11.87,0,0,1-10.89-7.82l-248.49-630.5c-2.59-6.56.19-14.16,6.2-17s13,.21,15.57,6.77l248.49,630.5c2.58,6.56-.19,14.16-6.2,17A11.09,11.09,0,0,1,2471.9,2741.64Z"/><path class="cls-2" d="M2155.91,2048.57h359.9v-37.14h-359.9C2163.62,2011.43,2163.62,2048.57,2155.91,2048.57Z"/><path class="cls-78" d="M2512.43,2048.57a3.39,3.39,0,0,0,3.38-3.38v-30.38a3.39,3.39,0,0,0-3.38-3.38H2148.32a3.39,3.39,0,0,1-3.38-3.38v-1.64a3.39,3.39,0,0,1,3.38-3.38h388.1a15.54,15.54,0,0,1,15.54,15.54v23.74a14.65,14.65,0,0,1-14.65,14.66h-389a3.39,3.39,0,0,1-3.38-3.38V2052a3.39,3.39,0,0,1,3.38-3.38Z"/><path class="cls-79" d="M2568,2073.61c1.21-4.15-.44-8.44-4.49-11.69s-10.08-5.15-16.45-5.15H390.56c-8.37,0-16.17,2.83-20.68,7.51s-5.11,10.56-1.6,15.6l23.37,33.55c5.35,7.68,16.94,12.6,29.7,12.6H2532.24c11.87,0,22.08-5.58,24.33-13.31Z"/></g></g></svg>