<svg xmlns="http://www.w3.org/2000/svg" xmlns:xlink="http://www.w3.org/1999/xlink" viewBox="0 0 2173.96 1417.67"><defs><style>.cls-1{fill:url(#linear-gradient);}.cls-2{fill:#91b3fa;}.cls-3{fill:#bdd0fb;}.cls-4{fill:url(#linear-gradient-2);}.cls-5{fill:url(#linear-gradient-3);}.cls-6{fill:#eac4f9;}.cls-7{fill:url(#linear-gradient-4);}.cls-37,.cls-48,.cls-8,.cls-9{fill:#fff;}.cls-9{opacity:0.5;}.cls-10{fill:url(#linear-gradient-5);}.cls-11{fill:url(#linear-gradient-6);}.cls-12{fill:#7d97f4;}.cls-13{fill:url(#linear-gradient-7);}.cls-14{fill:url(#linear-gradient-8);}.cls-15{fill:url(#linear-gradient-9);}.cls-16{fill:url(#linear-gradient-10);}.cls-17{fill:url(#linear-gradient-11);}.cls-18{fill:url(#linear-gradient-12);}.cls-19{fill:url(#linear-gradient-13);}.cls-20{fill:url(#linear-gradient-14);}.cls-21{fill:url(#linear-gradient-15);}.cls-22{fill:url(#linear-gradient-16);}.cls-23{fill:url(#linear-gradient-17);}.cls-24{fill:url(#linear-gradient-18);}.cls-25{fill:url(#linear-gradient-19);}.cls-26{fill:url(#linear-gradient-20);}.cls-27{fill:url(#linear-gradient-21);}.cls-28{fill:url(#linear-gradient-22);}.cls-29{fill:url(#linear-gradient-23);}.cls-30{fill:url(#linear-gradient-24);}.cls-31{fill:url(#linear-gradient-25);}.cls-32{fill:url(#linear-gradient-26);}.cls-33{fill:url(#linear-gradient-27);}.cls-34{fill:url(#linear-gradient-28);}.cls-35{fill:url(#linear-gradient-29);}.cls-36{fill:url(#linear-gradient-30);}.cls-37{opacity:0.21;}.cls-38{fill:url(#linear-gradient-31);}.cls-39{fill:url(#linear-gradient-32);}.cls-40{fill:url(#linear-gradient-33);}.cls-41{fill:url(#linear-gradient-34);}.cls-42{fill:url(#linear-gradient-35);}.cls-43{fill:url(#linear-gradient-36);}.cls-44{fill:url(#linear-gradient-37);}.cls-45{fill:url(#linear-gradient-38);}.cls-46{fill:url(#linear-gradient-39);}.cls-47,.cls-48{opacity:0.58;}.cls-49{fill:url(#linear-gradient-40);}.cls-50{fill:url(#linear-gradient-41);}.cls-51{fill:url(#linear-gradient-42);}.cls-52{fill:url(#linear-gradient-43);}</style><linearGradient id="linear-gradient" x1="90.58" y1="697.92" x2="2055.4" y2="697.92" gradientUnits="userSpaceOnUse"><stop offset="0" stop-color="#dae3fe"/><stop offset="1" stop-color="#e9effd"/></linearGradient><linearGradient id="linear-gradient-2" x1="251.18" y1="607.69" x2="322.92" y2="607.69" xlink:href="#linear-gradient"/><linearGradient id="linear-gradient-3" x1="194.43" y1="607.95" x2="382.74" y2="607.95" xlink:href="#linear-gradient"/><linearGradient id="linear-gradient-4" x1="10152.22" y1="3866.39" x2="10331.19" y2="3866.39" gradientTransform="matrix(0.99, 0.14, -0.14, 0.99, -9062.89, -4611.7)" gradientUnits="userSpaceOnUse"><stop offset="0" stop-color="#b37cff"/><stop offset="1" stop-color="#f895e7"/></linearGradient><linearGradient id="linear-gradient-5" x1="1316.94" y1="225.39" x2="564.94" y2="1861.39" gradientUnits="userSpaceOnUse"><stop offset="0" stop-color="#09005d"/><stop offset="1" stop-color="#1a0f91"/></linearGradient><linearGradient id="linear-gradient-6" x1="1305.95" y1="399.9" x2="-516.35" y2="2731.08" gradientUnits="userSpaceOnUse"><stop offset="0" stop-color="#4042e2"/><stop offset="1" stop-color="#4f52ff"/></linearGradient><linearGradient id="linear-gradient-7" x1="214.64" y1="448.79" x2="550.49" y2="448.79" xlink:href="#linear-gradient"/><linearGradient id="linear-gradient-8" x1="214.64" y1="527.76" x2="459.21" y2="527.76" xlink:href="#linear-gradient"/><linearGradient id="linear-gradient-9" x1="214.64" y1="491.4" x2="550.49" y2="491.4" xlink:href="#linear-gradient"/><linearGradient id="linear-gradient-10" x1="90.15" y1="209" x2="416.01" y2="209" xlink:href="#linear-gradient"/><linearGradient id="linear-gradient-11" x1="93.77" y1="277.41" x2="351.73" y2="277.41" xlink:href="#linear-gradient"/><linearGradient id="linear-gradient-12" x1="96.83" y1="337.54" x2="218.55" y2="337.54" xlink:href="#linear-gradient"/><linearGradient id="linear-gradient-13" x1="503" y1="366.48" x2="1020.09" y2="366.48" xlink:href="#linear-gradient"/><linearGradient id="linear-gradient-14" x1="1078.47" y1="391.73" x2="1583.78" y2="391.73" xlink:href="#linear-gradient"/><linearGradient id="linear-gradient-15" x1="1086.89" y1="1072.81" x2="1554.6" y2="1072.81" xlink:href="#linear-gradient"/><linearGradient id="linear-gradient-16" x1="1340.81" y1="635.27" x2="1615.34" y2="635.27" xlink:href="#linear-gradient"/><linearGradient id="linear-gradient-17" x1="2905.27" y1="1325.97" x2="2905.27" y2="716.91" gradientTransform="translate(-2333)" xlink:href="#linear-gradient-6"/><linearGradient id="linear-gradient-18" x1="2857.86" y1="1385.08" x2="2950" y2="1385.08" gradientTransform="translate(-2333)" xlink:href="#linear-gradient-5"/><linearGradient id="linear-gradient-19" x1="2866.62" y1="1359.13" x2="2893.33" y2="1359.13" gradientTransform="translate(-2333)" gradientUnits="userSpaceOnUse"><stop offset="0" stop-color="#ff928e"/><stop offset="1" stop-color="#feb3b1"/></linearGradient><linearGradient id="linear-gradient-20" x1="2687.02" y1="1325.97" x2="2687.02" y2="716.92" gradientTransform="translate(-2333)" xlink:href="#linear-gradient-6"/><linearGradient id="linear-gradient-21" x1="2669.12" y1="1373.64" x2="2722.45" y2="1373.64" gradientTransform="translate(-2333)" xlink:href="#linear-gradient-5"/><linearGradient id="linear-gradient-22" x1="2696.84" y1="1336.87" x2="2728.76" y2="1336.87" xlink:href="#linear-gradient-19"/><linearGradient id="linear-gradient-23" x1="433.64" y1="1387.59" x2="223.64" y2="1885.59" xlink:href="#linear-gradient-6"/><linearGradient id="linear-gradient-24" x1="1925.63" y1="1983.98" x2="1573.63" y2="2395.98" gradientTransform="translate(-2333)" gradientUnits="userSpaceOnUse"><stop offset="0" stop-color="#fe7062"/><stop offset="1" stop-color="#ff928e"/></linearGradient><linearGradient id="linear-gradient-25" x1="2843.07" y1="871.65" x2="2729.45" y2="972.26" xlink:href="#linear-gradient-19"/><linearGradient id="linear-gradient-26" x1="1855.3" y1="1923.89" x2="1503.3" y2="2335.89" xlink:href="#linear-gradient-24"/><linearGradient id="linear-gradient-27" x1="2001.64" y1="2048.92" x2="1649.64" y2="2460.92" xlink:href="#linear-gradient-24"/><linearGradient id="linear-gradient-28" x1="3056.05" y1="881.16" x2="3145.53" y2="881.16" xlink:href="#linear-gradient-19"/><linearGradient id="linear-gradient-29" x1="2969.08" y1="642.04" x2="2968.1" y2="809.14" xlink:href="#linear-gradient-19"/><linearGradient id="linear-gradient-30" x1="2720.37" y1="946.71" x2="3188.93" y2="946.71" gradientTransform="translate(-2333)" xlink:href="#linear-gradient-5"/><linearGradient id="linear-gradient-31" x1="3138.91" y1="738.94" x2="3617.48" y2="738.94" gradientTransform="translate(-2333)" xlink:href="#linear-gradient-5"/><linearGradient id="linear-gradient-32" x1="2887.93" y1="922.31" x2="2774.32" y2="1022.93" xlink:href="#linear-gradient-19"/><linearGradient id="linear-gradient-33" x1="888.08" y1="767.15" x2="855.08" y2="818.15" gradientTransform="matrix(1, 0, 0, 1, 0, 0)" xlink:href="#linear-gradient-19"/><linearGradient id="linear-gradient-34" x1="636.29" y1="576.28" x2="659.29" y2="661.28" gradientTransform="matrix(1, 0, 0, 1, 0, 0)" xlink:href="#linear-gradient-19"/><linearGradient id="linear-gradient-35" x1="751.02" y1="492.3" x2="707.02" y2="537.3" xlink:href="#linear-gradient-5"/><linearGradient id="linear-gradient-36" x1="610.11" y1="583.36" x2="633.11" y2="668.36" gradientTransform="matrix(1, 0, 0, 1, 0, 0)" xlink:href="#linear-gradient-19"/><linearGradient id="linear-gradient-37" x1="1061.3" y1="702.14" x2="797.3" y2="1274.14" gradientTransform="matrix(1, 0, 0, 1, 0, 0)" xlink:href="#linear-gradient-24"/><linearGradient id="linear-gradient-38" x1="1571.22" y1="1146.76" x2="2112.18" y2="1146.76" gradientTransform="matrix(1, 0, 0, 1, 0, 0)" xlink:href="#linear-gradient-24"/><linearGradient id="linear-gradient-39" x1="1587.27" y1="1151.18" x2="2085.58" y2="1151.18" gradientTransform="matrix(1, 0, 0, 1, 0, 0)" xlink:href="#linear-gradient-19"/><linearGradient id="linear-gradient-40" x1="1942.26" y1="448.68" x2="1740.83" y2="661.81" xlink:href="#linear-gradient-6"/><linearGradient id="linear-gradient-41" x1="1885.92" y1="642.19" x2="2036.02" y2="844.28" xlink:href="#linear-gradient-6"/><linearGradient id="linear-gradient-42" x1="1832.55" y1="583.56" x2="1664.92" y2="758.99" xlink:href="#linear-gradient-6"/><linearGradient id="linear-gradient-43" x1="86.36" y1="1184.17" x2="1376.95" y2="1184.17" xlink:href="#linear-gradient"/></defs><g id="Layer_2" data-name="Layer 2"><g id="Illustration"><path class="cls-1" d="M896.47,131.16S706.87-49,558.12,13s-77.84,223.6-170.75,274.77S219,264.39,124.77,419.66,154.13,686.24,219.14,778c68.9,97.22,126.27,135.37,12.3,196s-146.06,304.22,48.54,361,773.63,57.25,884.7,60.1,544.48,12,754.76-233.21S2061.31,833,1946.86,738.94s-55.5-249.17,0-411.42S1875.5,1.63,1671.89,67.8,1146.55,303.89,896.47,131.16Z"/><path class="cls-2" d="M130.13,452.18a1,1,0,0,1-.71-.3,1,1,0,0,1,0-1.41c.95-.94,1.91-1.87,2.88-2.8a1,1,0,1,1,1.38,1.45c-1,.91-1.91,1.84-2.85,2.77A1,1,0,0,1,130.13,452.18Z"/><path class="cls-2" d="M506.27,617.27h0a1,1,0,0,1-1-1c.1-2.63.15-5.3.15-7.94a1,1,0,0,1,1-1h0a1,1,0,0,1,1,1c0,2.66-.05,5.36-.15,8A1,1,0,0,1,506.27,617.27ZM506,596.35a1,1,0,0,1-1-.94c-.15-2.63-.36-5.29-.61-7.91a1,1,0,1,1,2-.19c.25,2.64.46,5.33.62,8a1,1,0,0,1-.94,1.05Zm-2.23-20.8a1,1,0,0,1-1-.85c-.41-2.6-.87-5.23-1.37-7.82a1,1,0,0,1,2-.38c.5,2.62,1,5.27,1.37,7.9a1,1,0,0,1-.83,1.14Zm-4.19-20.5a1,1,0,0,1-1-.75c-.65-2.55-1.36-5.13-2.1-7.66a1,1,0,0,1,.67-1.24,1,1,0,0,1,1.25.68c.75,2.55,1.46,5.15,2.12,7.72a1,1,0,0,1-.73,1.22Zm-6.13-20a1,1,0,0,1-.94-.66c-.88-2.46-1.83-5-2.81-7.42a1,1,0,1,1,1.85-.75c1,2.49,2,5,2.84,7.5a1,1,0,0,1-.6,1.27A1,1,0,0,1,493.49,535Zm-8-19.34a1,1,0,0,1-.9-.58c-1.12-2.39-2.3-4.79-3.49-7.13a1,1,0,0,1,.43-1.34,1,1,0,0,1,1.35.43c1.2,2.36,2.39,4.78,3.52,7.19a1,1,0,0,1-.48,1.33A1.12,1.12,0,0,1,485.51,515.7Zm-9.74-18.51a1,1,0,0,1-.86-.5c-1.34-2.28-2.73-4.55-4.14-6.76a1,1,0,0,1,.3-1.39,1,1,0,0,1,1.38.31c1.43,2.23,2.83,4.53,4.19,6.83a1,1,0,0,1-.36,1.37A1,1,0,0,1,475.77,497.19Zm-11.44-17.51a1,1,0,0,1-.81-.42c-1.54-2.13-3.15-4.27-4.77-6.34a1,1,0,0,1,1.58-1.23c1.63,2.09,3.25,4.25,4.81,6.4a1,1,0,0,1-.22,1.4A1.09,1.09,0,0,1,464.33,479.68Zm-13.05-16.34a1,1,0,0,1-.75-.34c-1.73-2-3.53-3.94-5.34-5.85a1,1,0,0,1,1.46-1.37c1.82,1.92,3.63,3.91,5.39,5.9a1,1,0,0,1-.76,1.66Zm-14.53-15a1,1,0,0,1-.68-.27c-1.93-1.81-3.91-3.6-5.88-5.31a1,1,0,1,1,1.32-1.51c2,1.73,4,3.54,5.92,5.36a1,1,0,0,1-.68,1.73Zm-294.11-7.59a1,1,0,0,1-.76-.35A1,1,0,0,1,142,439c2-1.73,4.12-3.43,6.2-5.06a1,1,0,1,1,1.24,1.57c-2.07,1.62-4.14,3.31-6.15,5A1,1,0,0,1,142.64,440.74Zm278.21-6a1,1,0,0,1-.61-.21c-2.09-1.62-4.23-3.21-6.36-4.74a1,1,0,0,1-.23-1.39,1,1,0,0,1,1.4-.23c2.14,1.54,4.3,3.15,6.41,4.78a1,1,0,0,1-.61,1.79ZM159.24,428a1,1,0,0,1-.82-.43,1,1,0,0,1,.25-1.39c2.19-1.52,4.43-3,6.66-4.45a1,1,0,0,1,1.38.3,1,1,0,0,1-.3,1.38c-2.21,1.42-4.43,2.9-6.6,4.41A1,1,0,0,1,159.24,428Zm244.49-5.24a1,1,0,0,1-.54-.15c-2.22-1.41-4.5-2.8-6.77-4.12a1,1,0,0,1,1-1.73c2.3,1.34,4.6,2.74,6.84,4.15a1,1,0,0,1,.31,1.38A1,1,0,0,1,403.73,422.77ZM177,416.91a1,1,0,0,1-.49-1.87c2.31-1.3,4.69-2.58,7.05-3.8a1,1,0,0,1,.92,1.78c-2.35,1.2-4.7,2.47-7,3.76A1,1,0,0,1,177,416.91Zm208.58-4.47a1,1,0,0,1-.45-.11c-2.35-1.19-4.75-2.36-7.14-3.46a1,1,0,1,1,.84-1.82c2.41,1.12,4.83,2.29,7.2,3.5a1,1,0,0,1-.45,1.89Zm-189.88-4.92a1,1,0,0,1-.41-1.91c2.44-1.09,4.92-2.14,7.38-3.13a1,1,0,0,1,.75,1.86c-2.44,1-4.9,2-7.31,3.1A1.15,1.15,0,0,1,195.67,407.52Zm170.8-3.66a.92.92,0,0,1-.36-.07c-2.46-1-5-1.9-7.44-2.78a1,1,0,1,1,.67-1.88c2.5.88,5,1.83,7.5,2.8a1,1,0,0,1-.37,1.93Zm-151.3-3.94a1,1,0,0,1-.32-1.95c2.52-.85,5.09-1.66,7.64-2.42a1,1,0,0,1,.57,1.92c-2.52.75-5.07,1.55-7.57,2.4A1.25,1.25,0,0,1,215.17,399.92Zm131.5-2.81a1,1,0,0,1-.28,0c-2.53-.73-5.11-1.42-7.66-2.06a1,1,0,0,1-.73-1.22,1,1,0,0,1,1.21-.72c2.58.64,5.18,1.34,7.74,2.08a1,1,0,0,1-.28,2Zm-111.38-2.92a1,1,0,0,1-.23-2c2.59-.6,5.23-1.17,7.84-1.68a1,1,0,1,1,.38,2c-2.58.51-5.2,1.07-7.76,1.67A.91.91,0,0,1,235.29,394.19Zm91-1.93-.19,0c-2.59-.49-5.22-.94-7.82-1.33a1,1,0,1,1,.3-2c2.62.4,5.28.85,7.89,1.35a1,1,0,0,1,.8,1.16A1,1,0,0,1,326.32,392.26Zm-70.45-1.87a1,1,0,0,1-.13-2c2.63-.36,5.31-.67,7.95-.93a1,1,0,1,1,.2,2c-2.62.26-5.28.57-7.89.92Zm49.73-1h-.1c-2.62-.24-5.29-.44-7.92-.59a1,1,0,0,1,.11-2c2.66.15,5.35.35,8,.59a1,1,0,0,1-.09,2Zm-28.89-.77a1,1,0,0,1-1-1,1,1,0,0,1,1-1c2.66-.11,5.36-.16,8-.17h0a1,1,0,0,1,0,2c-2.63,0-5.3.06-7.94.17Z"/><path class="cls-2" d="M505,634.28h-.11a1,1,0,0,1-.88-1.11c.15-1.31.29-2.63.42-3.95a1,1,0,1,1,2,.19q-.2,2-.42,4A1,1,0,0,1,505,634.28Z"/><path class="cls-2" d="M423.81,781.69a1,1,0,0,1-.78-.38,1,1,0,0,1,.15-1.4c1-.83,2.07-1.67,3.08-2.52a1,1,0,1,1,1.28,1.54c-1,.85-2.06,1.7-3.11,2.54A1,1,0,0,1,423.81,781.69Z"/><path class="cls-2" d="M290.74,830.31a1,1,0,0,1,0-2c2.59-.06,5.22-.17,7.8-.32a1,1,0,1,1,.12,2c-2.61.16-5.26.27-7.87.33ZM278,830.24h0c-2.61-.09-5.27-.23-7.88-.41a1,1,0,0,1,.14-2c2.59.18,5.22.32,7.81.41a1,1,0,0,1,0,2Zm33.29-1.38a1,1,0,0,1-.11-2c2.57-.31,5.18-.66,7.74-1.06a1,1,0,0,1,1.14.84,1,1,0,0,1-.84,1.14c-2.58.4-5.21.76-7.81,1.06Zm-53.83-.29h-.13c-2.59-.33-5.22-.72-7.8-1.14a1,1,0,0,1-.82-1.15,1,1,0,0,1,1.14-.83c2.57.42,5.17.81,7.74,1.14a1,1,0,0,1-.13,2Zm74.15-3.08a1,1,0,0,1-.21-2c2.54-.54,5.1-1.14,7.61-1.78a1,1,0,0,1,.49,1.94c-2.54.64-5.12,1.25-7.68,1.8Zm-94.43-.5-.22,0c-2.56-.58-5.14-1.2-7.66-1.87a1,1,0,1,1,.5-1.93c2.51.66,5.06,1.28,7.6,1.85a1,1,0,0,1,.75,1.19A1,1,0,0,1,237.17,825Zm114.34-4.76a1,1,0,0,1-.95-.7,1,1,0,0,1,.65-1.26c2.47-.77,5-1.61,7.41-2.47a1,1,0,1,1,.67,1.88c-2.47.88-5,1.72-7.48,2.5A1,1,0,0,1,351.51,820.23Zm-134.2-.68a1.06,1.06,0,0,1-.31,0c-2.49-.8-5-1.67-7.46-2.56a1,1,0,0,1,.69-1.88c2.44.88,4.92,1.74,7.38,2.54a1,1,0,0,1-.3,1.95Zm153.54-6.41a1,1,0,0,1-.39-1.92c1.87-.79,3.76-1.61,5.63-2.45l1.52-.7a1,1,0,1,1,.84,1.82l-1.54.7c-1.88.85-3.79,1.68-5.67,2.47A.91.91,0,0,1,370.85,813.14ZM198,812.3a.93.93,0,0,1-.4-.09c-2.4-1-4.82-2.12-7.18-3.24a1,1,0,0,1-.48-1.33,1,1,0,0,1,1.34-.48c2.34,1.11,4.73,2.19,7.11,3.22a1,1,0,0,1,.53,1.31A1,1,0,0,1,198,812.3Zm191.41-8a1,1,0,0,1-.47-1.88c2.29-1.22,4.59-2.5,6.83-3.8a1,1,0,1,1,1,1.74c-2.26,1.3-4.58,2.59-6.89,3.82A1,1,0,0,1,389.45,804.31Zm-209.93-1a1,1,0,0,1-.47-.12c-2.3-1.25-4.6-2.56-6.85-3.9a1,1,0,0,1,1-1.72c2.23,1.32,4.51,2.62,6.78,3.86a1,1,0,0,1-.48,1.88Zm227.64-9.49a1,1,0,0,1-.55-1.83c2.17-1.43,4.34-2.92,6.45-4.41a1,1,0,0,1,1.39.23,1,1,0,0,1-.24,1.4c-2.12,1.51-4.31,3-6.5,4.45A1,1,0,0,1,407.16,793.8Zm-245.23-1.19a1.07,1.07,0,0,1-.56-.17c-2.17-1.47-4.34-3-6.45-4.51a1,1,0,0,1-.22-1.4,1,1,0,0,1,1.39-.22c2.09,1.51,4.25,3,6.4,4.47a1,1,0,0,1,.27,1.39A1,1,0,0,1,161.93,792.61Zm-16.52-12.27a1,1,0,0,1-.63-.23c-2-1.65-4-3.36-6-5.09a1,1,0,0,1-.09-1.41,1,1,0,0,1,1.41-.09c1.94,1.71,3.94,3.41,6,5a1,1,0,0,1,.14,1.41A1,1,0,0,1,145.41,780.34Zm-15.29-13.75a1,1,0,0,1-.71-.29c-1.85-1.84-3.7-3.73-5.49-5.63a1,1,0,1,1,1.45-1.37c1.78,1.88,3.61,3.76,5.45,5.57a1,1,0,0,1,0,1.42A1,1,0,0,1,130.12,766.59Zm-13.94-15.12a1,1,0,0,1-.76-.36c-1.68-2-3.35-4.06-5-6.13a1,1,0,0,1,1.58-1.23c1.59,2,3.25,4.09,4.91,6.07a1,1,0,0,1-.77,1.65Zm-12.47-16.38a1,1,0,0,1-.82-.43c-1.5-2.17-3-4.38-4.36-6.57a1,1,0,0,1,1.68-1.08c1.39,2.18,2.84,4.37,4.32,6.51a1,1,0,0,1-.25,1.39A1,1,0,0,1,103.71,735.09ZM92.82,717.62a1,1,0,0,1-.87-.51c-1.28-2.28-2.53-4.62-3.73-7a1,1,0,0,1,1.78-.91c1.18,2.3,2.43,4.62,3.69,6.88a1,1,0,0,1-.38,1.36A1,1,0,0,1,92.82,717.62Zm-9.23-18.41a1,1,0,0,1-.91-.6c-1.07-2.4-2.11-4.84-3.08-7.25a1,1,0,1,1,1.86-.75c1,2.39,2,4.81,3.05,7.19a1,1,0,0,1-.51,1.32A1,1,0,0,1,83.59,699.21ZM76.09,680a1,1,0,0,1-1-.68c-.83-2.47-1.64-5-2.39-7.51a1,1,0,0,1,.67-1.25,1,1,0,0,1,1.24.67c.75,2.5,1.55,5,2.38,7.45a1,1,0,0,1-.63,1.26A.87.87,0,0,1,76.09,680Zm-5.69-19.8a1,1,0,0,1-1-.77c-.61-2.55-1.18-5.15-1.69-7.7a1,1,0,0,1,2-.39c.51,2.53,1.07,5.1,1.67,7.63a1,1,0,0,1-.74,1.21ZM66.58,640a1,1,0,0,1-1-.87c-.36-2.58-.68-5.21-1-7.82a1,1,0,1,1,2-.21c.27,2.58.58,5.19.94,7.76a1,1,0,0,1-.85,1.13Zm-1.9-20.51a1,1,0,0,1-1-1c-.12-2.64-.19-5.29-.21-7.89a1,1,0,0,1,1-1h0a1,1,0,0,1,1,1c0,2.57.09,5.19.21,7.8a1,1,0,0,1-1,1Zm0-20.59h0a1,1,0,0,1-1-1c.13-2.63.31-5.27.53-7.87a1,1,0,0,1,2,.17c-.22,2.57-.39,5.19-.52,7.8A1,1,0,0,1,64.71,598.9Z"/><path class="cls-2" d="M66.68,578.31h-.14a1,1,0,0,1-.85-1.13c.19-1.33.39-2.65.6-4a1,1,0,0,1,2,.32q-.31,2-.6,3.93A1,1,0,0,1,66.68,578.31Z"/><path class="cls-3" d="M122.59,560.57a2.65,2.65,0,0,0,.7,3L147.45,585a140.64,140.64,0,0,0,0,45.55L123.31,651.9a2.63,2.63,0,0,0-.69,3l14.82,35.76a2.65,2.65,0,0,0,2.61,1.63l32.19-2a140.41,140.41,0,0,0,32.23,32.18l-1.95,32.22a2.65,2.65,0,0,0,1.63,2.61l35.77,14.8a2.63,2.63,0,0,0,3-.69l21.39-24.17a140.64,140.64,0,0,0,45.55,0l21.38,24.14a2.65,2.65,0,0,0,3,.69L370,757.3a2.67,2.67,0,0,0,1.64-2.61l-2-32.2a140.61,140.61,0,0,0,32.19-32.22l32.22,2a2.67,2.67,0,0,0,2.61-1.63l14.8-35.77a2.65,2.65,0,0,0-.69-3l-24.17-21.39a140.64,140.64,0,0,0,0-45.55l24.14-21.39a2.67,2.67,0,0,0,.69-3l-14.82-35.76A2.67,2.67,0,0,0,434,523.1l-32.2,2a140.56,140.56,0,0,0-32.22-32.18l1.95-32.22a2.66,2.66,0,0,0-1.64-2.61l-35.76-14.8a2.63,2.63,0,0,0-3,.69L309.78,468.1a140.92,140.92,0,0,0-45.55,0L242.84,444a2.63,2.63,0,0,0-3-.69l-35.76,14.82a2.65,2.65,0,0,0-1.63,2.61l2,32.19a140.85,140.85,0,0,0-32.19,32.23l-32.21-2a2.65,2.65,0,0,0-2.61,1.63Z"/><path class="cls-4" d="M287.12,643.57a36,36,0,0,1-5.27-.38,35.65,35.65,0,0,1-23.58-14.07h0a35.88,35.88,0,1,1,50.2,7.34A35.55,35.55,0,0,1,287.12,643.57Zm-26.44-16.24a32.87,32.87,0,1,0,6.73-46,32.65,32.65,0,0,0-6.73,46Z"/><path class="cls-5" d="M288,702.85a95.05,95.05,0,0,1-87.8-58.56h0a96.5,96.5,0,0,1-5.39-17.64l-.09-.47c-.09-.42-.17-.85-.24-1.27l2.95-.54a92.23,92.23,0,0,0,5.54,18.77c.84,2,1.75,4,2.71,5.94a91.85,91.85,0,0,0,116.85,44l.54-.22A91.91,91.91,0,1,0,214,553.14l-2.41-1.78A94.92,94.92,0,1,1,288,702.85Z"/><path class="cls-6" d="M433.91,604.63a1,1,0,0,1-.71-.29,1,1,0,0,1,0-1.42c1-.94,1.94-1.88,2.92-2.78a1,1,0,0,1,1.35,1.47c-1,.89-1.92,1.81-2.86,2.74A1,1,0,0,1,433.91,604.63Z"/><path class="cls-6" d="M632.39,684a1,1,0,0,1-1-1c-.07-2.58-.24-5.18-.49-7.73a1,1,0,0,1,.9-1.09,1,1,0,0,1,1.09.9c.25,2.59.42,5.24.5,7.86a1,1,0,0,1-1,1ZM630,663.67a1,1,0,0,1-1-.79c-.53-2.51-1.16-5-1.85-7.52a1,1,0,0,1,1.92-.54c.71,2.52,1.34,5.09,1.88,7.65a1,1,0,0,1-.77,1.18A.75.75,0,0,1,630,663.67Zm-6-19.58a1,1,0,0,1-.93-.62c-.6-1.5-1.25-3-1.93-4.52-.39-.86-.79-1.72-1.19-2.56a1,1,0,1,1,1.8-.87c.41.86.82,1.73,1.22,2.61.68,1.52,1.34,3.06,2,4.59a1,1,0,0,1-.55,1.3A1,1,0,0,1,624,644.09Zm-9.26-18.25a1,1,0,0,1-.85-.47c-1.36-2.18-2.81-4.34-4.31-6.43a1,1,0,0,1,.23-1.39,1,1,0,0,1,1.4.23c1.52,2.11,3,4.31,4.38,6.53a1,1,0,0,1-.32,1.38A1,1,0,0,1,614.74,625.84Zm-12.31-16.35a1,1,0,0,1-.74-.33c-1.72-1.91-3.53-3.78-5.37-5.57a1,1,0,0,1,1.39-1.43c1.88,1.81,3.72,3.72,5.47,5.66a1,1,0,0,1-.08,1.42A1,1,0,0,1,602.43,609.49Zm-15-13.92a1,1,0,0,1-.61-.21c-2-1.57-4.14-3.1-6.27-4.54a1,1,0,0,1,1.12-1.66c2.17,1.47,4.31,3,6.37,4.62a1,1,0,0,1-.61,1.79ZM446.58,593.8A1,1,0,0,1,446,592c2.1-1.55,4.28-3,6.49-4.46a1,1,0,0,1,1.07,1.69c-2.16,1.38-4.31,2.86-6.37,4.38A1,1,0,0,1,446.58,593.8Zm123.67-9.32a.92.92,0,0,1-.46-.11c-2.28-1.2-4.62-2.33-7-3.38a1,1,0,1,1,.81-1.83c2.39,1.07,4.78,2.22,7.09,3.44a1,1,0,0,1-.47,1.88Zm-106.19-1.32a1,1,0,0,1-.9-.56,1,1,0,0,1,.46-1.34c1.24-.62,2.51-1.22,3.78-1.79s2.25-1,3.38-1.47a1,1,0,1,1,.77,1.85q-1.67.69-3.33,1.44c-1.24.56-2.49,1.16-3.72,1.76A1,1,0,0,1,464.06,583.16Zm87.32-6.6a1,1,0,0,1-.3,0c-2.45-.79-5-1.5-7.45-2.12a1,1,0,0,1,.48-1.94c2.54.63,5.09,1.35,7.58,2.15a1,1,0,0,1,.64,1.26A1,1,0,0,1,551.38,576.56Zm-68.26-.87a1,1,0,0,1-.28-2c2.51-.73,5.07-1.39,7.62-2a1,1,0,0,1,1.2.76,1,1,0,0,1-.76,1.19c-2.51.56-5,1.21-7.5,1.93A.9.9,0,0,1,483.12,575.69Zm48.3-3.64h-.13c-2.55-.35-5.14-.61-7.7-.79a1,1,0,1,1,.13-2c2.61.18,5.24.44,7.84.8a1,1,0,0,1,.85,1.12A1,1,0,0,1,531.42,572.05Zm-28.23-.37a1,1,0,0,1-1-.89,1,1,0,0,1,.88-1.11c2.6-.28,5.24-.48,7.85-.59a1,1,0,0,1,1,1,1,1,0,0,1-1,1c-2.56.11-5.16.3-7.71.58Z"/><path class="cls-6" d="M631.69,700.71h-.11a1,1,0,0,1-.88-1.11c.15-1.32.28-2.65.38-4a1,1,0,0,1,1.08-.91,1,1,0,0,1,.92,1.07c-.11,1.32-.24,2.67-.39,4A1,1,0,0,1,631.69,700.71Z"/><path class="cls-6" d="M587.38,779.66a1,1,0,0,1-.62-1.79c1-.81,2.08-1.65,3.09-2.49a1,1,0,0,1,1.28,1.54c-1,.86-2.08,1.71-3.14,2.53A1,1,0,0,1,587.38,779.66Z"/><path class="cls-6" d="M514.07,804.16h0c-2.77,0-5.58-.19-8.35-.43a1,1,0,0,1-.91-1.09,1,1,0,0,1,1.08-.9c2.72.23,5.49.38,8.21.42a1,1,0,0,1,0,2Zm13.46-.57a1,1,0,0,1-.1-2c2.71-.28,5.45-.65,8.14-1.12a1,1,0,1,1,.34,2c-2.73.47-5.52.86-8.28,1.14Zm-35.06-1.81a.71.71,0,0,1-.2,0c-2.72-.55-5.45-1.22-8.12-2a1,1,0,1,1,.54-1.92c2.63.73,5.31,1.39,8,1.93a1,1,0,0,1,.78,1.19A1,1,0,0,1,492.47,801.78Zm56.38-2.39a1,1,0,0,1-1-.71,1,1,0,0,1,.67-1.25c2.61-.77,5.23-1.65,7.79-2.61a1,1,0,0,1,1.29.58,1,1,0,0,1-.58,1.29c-2.61,1-5.28,1.87-7.93,2.66A1,1,0,0,1,548.85,799.39Zm-77.17-3.94a1,1,0,0,1-.37-.07c-2.58-1-5.14-2.21-7.62-3.44a1,1,0,1,1,.88-1.79c2.45,1.21,5,2.34,7.49,3.38a1,1,0,0,1-.38,1.92ZM569,791.31a1,1,0,0,1-.89-.54,1,1,0,0,1,.44-1.35c2.42-1.24,4.84-2.59,7.18-4a1,1,0,0,1,1.37.34,1,1,0,0,1-.34,1.37c-2.38,1.44-4.83,2.81-7.3,4.07A1.07,1.07,0,0,1,569,791.31Zm-116.61-5.92a1,1,0,0,1-.54-.16c-2.33-1.51-4.64-3.12-6.85-4.78a1,1,0,0,1-.2-1.41,1,1,0,0,1,1.4-.19c2.18,1.64,4.45,3.22,6.74,4.7a1,1,0,0,1-.55,1.84Zm-17.05-13.45a1,1,0,0,1-.69-.28c-2-1.91-4-3.92-5.84-6a1,1,0,0,1,1.48-1.34c1.83,2,3.76,4,5.74,5.88a1,1,0,0,1,0,1.41A1,1,0,0,1,435.37,771.94Zm-14.25-16.4a1,1,0,0,1-.81-.42c-1.62-2.26-3.17-4.6-4.62-7a1,1,0,0,1,1.7-1c1.43,2.32,3,4.63,4.54,6.85a1,1,0,0,1-.23,1.39A1,1,0,0,1,421.12,755.54Zm-10.94-18.77a1,1,0,0,1-.91-.58c-.18-.38-.35-.77-.53-1.15-1-2.15-1.89-4.36-2.73-6.55a1,1,0,1,1,1.87-.71c.82,2.15,1.73,4.32,2.68,6.43.17.38.35.76.52,1.13a1,1,0,0,1-.48,1.33A.92.92,0,0,1,410.18,736.77Zm-7.32-20.47a1,1,0,0,1-1-.75c-.68-2.69-1.28-5.44-1.78-8.17a1,1,0,1,1,2-.36c.49,2.69,1.08,5.39,1.75,8a1,1,0,0,1-.72,1.22A1.07,1.07,0,0,1,402.86,716.3Zm-3.38-21.47a1,1,0,0,1-1-.94c-.15-2.4-.23-4.84-.23-7.24v-1.11a1,1,0,0,1,1-1h0a1,1,0,0,1,1,1v1.1c0,2.36.07,4.75.22,7.12a1,1,0,0,1-.93,1.06Z"/><path class="cls-6" d="M400.18,673.05h-.12a1,1,0,0,1-.87-1.12c.17-1.35.36-2.69.57-4a1,1,0,1,1,2,.32c-.21,1.28-.4,2.6-.57,3.92A1,1,0,0,1,400.18,673.05Z"/><path class="cls-7" d="M429.93,661.35a1.4,1.4,0,0,0,.37,1.58l12.75,11.29a74,74,0,0,0,0,24l-12.74,11.29a1.38,1.38,0,0,0-.36,1.58L437.77,730a1.41,1.41,0,0,0,1.37.86l17-1a74,74,0,0,0,17,17l-1,17a1.4,1.4,0,0,0,.87,1.38L491.84,773a1.39,1.39,0,0,0,1.58-.37l11.29-12.75a74.23,74.23,0,0,0,24,0L540,772.6a1.39,1.39,0,0,0,1.58.37l18.87-7.82a1.4,1.4,0,0,0,.86-1.38l-1-17a74.24,74.24,0,0,0,17-17l17,1a1.39,1.39,0,0,0,1.37-.86l7.81-18.87a1.4,1.4,0,0,0-.36-1.59l-12.75-11.28a74.23,74.23,0,0,0,0-24l12.74-11.29a1.4,1.4,0,0,0,.36-1.58l-7.82-18.87a1.41,1.41,0,0,0-1.38-.86l-17,1a74.28,74.28,0,0,0-17-17l1-17a1.38,1.38,0,0,0-.86-1.38l-18.87-7.81a1.4,1.4,0,0,0-1.58.36l-11.29,12.76a74.23,74.23,0,0,0-24,0l-11.28-12.73a1.39,1.39,0,0,0-1.58-.37l-18.87,7.82a1.4,1.4,0,0,0-.86,1.38l1,17a74.48,74.48,0,0,0-17,17l-17-1a1.38,1.38,0,0,0-1.37.86Z"/><path class="cls-8" d="M516.74,705.85a20,20,0,0,1-2.88-.21,19.57,19.57,0,1,1,2.88.21Zm-.07-36.27a16.63,16.63,0,0,0-13.31,26.57h0a16.65,16.65,0,0,0,23.28,3.41,16.65,16.65,0,0,0-7.53-29.81A16.87,16.87,0,0,0,516.67,669.58Z"/><path class="cls-8" d="M517.11,737.16a50.9,50.9,0,0,1-46.91-31.37h0c-.46-1.11-.89-2.25-1.27-3.39v0h0l0-.06v-.07h0l0-.08h0c-.41-1.24-.77-2.5-1.08-3.77l0-.08c0-.1-.05-.19-.07-.29l-.06-.24-.08-.36v0l0-.13c-.13-.61-.25-1.21-.36-1.82l2.95-.53a48,48,0,0,0,2.88,9.75A47.45,47.45,0,0,0,497.65,730l1.19.51a47.77,47.77,0,1,0-20.1-72.64l-2.41-1.79a50.77,50.77,0,1,1,40.78,81.09Z"/><path class="cls-2" d="M711.16,1380.41S699.55,788.86,489.72,422.12c-14.1-24.65-49.84-24.06-63,1.13C339,591.69,127.51,1114.43,711.16,1380.41Z"/><path class="cls-9" d="M662.94,1332a1.56,1.56,0,0,1-2.48,1.89c-47.69-54.56-222.5-309.76-214.12-741.17a1.09,1.09,0,0,1,2.18-.09C455.36,694.54,491.64,1072.68,662.94,1332Z"/><path class="cls-3" d="M1.63,766.87a3.37,3.37,0,0,1,2.11-6.23c57.2,6.19,265.13,41.43,421.15,233.4C567.65,1169.67,639,1316.28,663.39,1371.9a15.7,15.7,0,0,1-15.93,21.92c-70.81-7-268-37.16-350.52-157.54C198.35,1092.43,148,857.25,1.63,766.87Z"/><path class="cls-9" d="M169.61,866.21s186.22,70.27,478.88,507.43C648.49,1373.64,331.1,949.88,169.61,866.21Z"/><path class="cls-2" d="M1823.6,223C1710.34,328.84,1224,827,1485.66,1358.5a15.41,15.41,0,0,0,26.19,2.43c73.23-98.24,388-557.36,337.59-1127.95A15.4,15.4,0,0,0,1823.6,223Z"/><path class="cls-9" d="M1762,390.83a2.09,2.09,0,0,0-3.54-2.2c-68.57,101.53-260.24,428.94-253.87,908.17C1504.62,1296.8,1521.48,822.69,1762,390.83Z"/><path class="cls-10" d="M642.52,136.6c-5.33,215.07-22.62,956.94-14.37,1219.84a52.79,52.79,0,0,0,51.06,51.11c137.74,4.51,534,15.94,759.32,6.48a88.89,88.89,0,0,0,85.22-86.94c4.68-225.74,15-860.68-9.54-1151.55a72.56,72.56,0,0,0-65.1-66.09c-150-15-548.45-51.69-743.1-39A68,68,0,0,0,642.52,136.6Z"/><path class="cls-11" d="M698.49,203.43c-7.52,176.14-31.25,762.13-23.72,978.81a61.31,61.31,0,0,0,57.7,59.13c130.26,7.63,464.36,24.44,655.42,9.14a68.91,68.91,0,0,0,63.25-65c9.68-179.71,37.48-725.34,30.26-939.6a67.73,67.73,0,0,0-61.69-65.15c-140.92-12.66-502.84-42.76-665.2-33.9A59.24,59.24,0,0,0,698.49,203.43Z"/><path class="cls-12" d="M983,108h0a12.38,12.38,0,0,0,11.74,12.38c32.53,1.71,124.18,6.53,165.14,8.91a12.41,12.41,0,0,0,12.89-14.74l-.26-1.35a12.41,12.41,0,0,0-11-10c-27.69-2.53-111.23-9.57-166.59-7.59A12.36,12.36,0,0,0,983,108Z"/><path class="cls-3" d="M1496.87,1383.11S1468,957,1962.78,630.06A16,16,0,0,1,1987.65,643C1990.29,761.63,1969.19,1222.06,1496.87,1383.11Z"/><path class="cls-9" d="M1520,1345.05c33.2-63.68,162.88-306.66,310.18-505.44a1.82,1.82,0,0,1,3,2C1775.93,939.06,1582,1267.25,1523.11,1347A1.81,1.81,0,0,1,1520,1345.05Z"/><path class="cls-12" d="M1625.18,182.56l12,244.06a30.47,30.47,0,0,0,27.85,28.86l364.87,31.09a30.47,30.47,0,0,0,32.32-23.67c12.12-53.75,37.44-179.31,30.38-262.36a30.59,30.59,0,0,0-25.53-27.65c-145.47-23.56-284.51-33.21-414-22.21A30.49,30.49,0,0,0,1625.18,182.56Z"/><path class="cls-3" d="M1647.69,196.3l11.08,224.82a28.08,28.08,0,0,0,25.66,26.59l336.11,28.64a28.08,28.08,0,0,0,29.77-21.81c11.16-49.51,34.48-165.17,28-241.68a28.18,28.18,0,0,0-23.52-25.47c-134-21.7-262.09-30.59-381.4-20.46A28.09,28.09,0,0,0,1647.69,196.3Z"/><path class="cls-12" d="M1676.83,882.41l25.42,333.29c1.58,20.81,14.77,36.89,30.85,37.63l386.14,17.82c16.06.74,30.07-14,32.82-34.6,10-74.41,30.09-248,18.31-361.23-2-19.07-13.62-34-28.34-36.12-154.53-22.39-301.57-26.17-437.49-2.33C1687.37,839.88,1675.12,860,1676.83,882.41Z"/><path class="cls-2" d="M1701.26,899.69l23.42,307c1.46,19.17,13.61,34,28.42,34.66l355.7,16.41c14.8.69,27.7-12.92,30.24-31.87,9.17-68.54,27.71-228.46,16.86-332.75-1.82-17.56-12.55-31.31-26.11-33.27-142.34-20.63-277.79-24.11-403-2.15C1711,860.51,1699.69,879.06,1701.26,899.69Z"/><path class="cls-2" d="M143.58,355.45l22.87,190.26c1.43,11.87,13.3,21,27.78,21.48l347.52,10.16c14.46.43,27.06-8,29.54-19.74,9-42.48,27.08-141.58,16.48-206.21-1.78-10.88-12.26-19.4-25.51-20.62C423.19,318,290.85,315.84,168.52,329.45,153.07,331.17,142,342.66,143.58,355.45Z"/><path class="cls-3" d="M165.57,365.31l21.07,175.26c1.32,10.94,12.25,19.4,25.59,19.79l320.13,9.37c13.31.39,24.92-7.38,27.21-18.2,8.26-39.12,24.94-130.41,15.18-189.95-1.65-10-11.3-17.87-23.5-19-128.11-11.77-250-13.76-362.7-1.23C174.31,343,164.16,353.53,165.57,365.31Z"/><path class="cls-13" d="M546,461.27a3.66,3.66,0,0,1-.8-.07c-107.08-19.36-323.79-15.63-326-15.59a4.5,4.5,0,1,1-.16-9c2.18,0,219.78-3.78,327.73,15.74a4.5,4.5,0,0,1-.8,8.92Z"/><path class="cls-14" d="M454.71,540.28a4.61,4.61,0,0,1-1.1-.14c-76.89-19.29-232.79-15.57-234.36-15.53a4.5,4.5,0,0,1-.23-9c6.45-.16,158.7-3.79,236.78,15.8a4.5,4.5,0,0,1-1.09,8.87Z"/><path class="cls-15" d="M546,503.89a4.4,4.4,0,0,1-.8-.07c-107.08-19.36-323.79-15.64-326-15.6a4.5,4.5,0,1,1-.16-9c2.18,0,219.78-3.79,327.73,15.73a4.5,4.5,0,0,1-.8,8.93Z"/><path class="cls-12" d="M3,159.8,28.44,416.36a32.16,32.16,0,0,0,30.86,29L445.43,459a32.15,32.15,0,0,0,32.83-26.63c10-57.28,30.08-190.92,18.31-278.07a32.26,32.26,0,0,0-28.35-27.8c-154.52-17.24-301.56-20.15-437.48-1.8A32.18,32.18,0,0,0,3,159.8Z"/><path class="cls-3" d="M27.46,173.1,50.87,409.44A29.61,29.61,0,0,0,79.3,436.12L435,448.76a29.63,29.63,0,0,0,30.24-24.54c9.18-52.76,27.71-175.86,16.87-256.15A29.72,29.72,0,0,0,456,142.46c-142.35-15.88-277.8-18.56-403-1.65A29.63,29.63,0,0,0,27.46,173.1Z"/><path class="cls-16" d="M96.64,222.79a6.5,6.5,0,0,1-.5-13c10.61-.83,260.35-20.2,314.23-13a6.5,6.5,0,1,1-1.73,12.89c-52.52-7-308.9,12.87-311.48,13.07Z"/><path class="cls-17" d="M100.26,289.07a6.5,6.5,0,0,1-.26-13l245-10.32a6.5,6.5,0,0,1,.55,13l-245,10.32Z"/><path class="cls-18" d="M103.33,345.22a6.5,6.5,0,0,1-.14-13l108.72-2.35a6.5,6.5,0,1,1,.28,13l-108.72,2.36Z"/><path class="cls-19" d="M1018.09,477.94a2,2,0,0,1-2-1.9l-.14-3a2,2,0,0,1,4-.19l.15,3a2,2,0,0,1-1.91,2.09Zm-.48-10a2,2,0,0,1-2-1.9l-.15-3a2,2,0,0,1,4-.19l.14,3a2,2,0,0,1-1.9,2.09Zm-.47-10a2,2,0,0,1-2-1.91l-.14-3a2,2,0,0,1,4-.18l.14,3a2,2,0,0,1-1.9,2.09Zm-.47-10a2,2,0,0,1-2-1.91l-.14-3a2,2,0,1,1,4-.18l.15,3a2,2,0,0,1-1.91,2.09Zm-.48-10a2,2,0,0,1-2-1.91l-.15-3a2,2,0,1,1,4-.19l.14,3a2,2,0,0,1-1.9,2.1Zm-.47-10a2,2,0,0,1-2-1.9l-.14-3a2,2,0,0,1,1.9-2.09,2,2,0,0,1,2.1,1.9l.14,3a2,2,0,0,1-1.9,2.1Zm-.48-10a2,2,0,0,1-2-1.9l-.14-3a2,2,0,0,1,4-.19l.14,3a2,2,0,0,1-1.9,2.1Zm-.47-10a2,2,0,0,1-2-1.9l-.14-3a2,2,0,0,1,4-.19l.14,3a2,2,0,0,1-1.9,2.09Zm-.47-10a2,2,0,0,1-2-1.9l-.14-3a2,2,0,0,1,4-.19l.14,3a2,2,0,0,1-1.9,2.09Zm-.48-10a2,2,0,0,1-2-1.9l-.14-3a2,2,0,0,1,4-.19l.14,3a2,2,0,0,1-1.9,2.09Zm-.47-10a2,2,0,0,1-2-1.91l-.14-3a2,2,0,1,1,4-.18l.14,3a2,2,0,0,1-1.9,2.09Zm-.47-10a2,2,0,0,1-2-1.91l-.14-3a2,2,0,0,1,1.9-2.09,2,2,0,0,1,2.1,1.91l.14,3a2,2,0,0,1-1.91,2.09Zm-.48-10a2,2,0,0,1-2-1.91l-.14-3a2,2,0,1,1,4-.19l.14,3a2,2,0,0,1-1.9,2.1Zm-.47-10a2,2,0,0,1-2-1.91l-.14-3a2,2,0,1,1,4-.19l.14,3a2,2,0,0,1-1.9,2.09Zm-.47-10a2,2,0,0,1-2-1.9c-.05-1-.1-2-.16-3a2,2,0,1,1,4-.23c.06,1,.12,2,.17,3a2,2,0,0,1-1.91,2.1Zm-.68-10a2,2,0,0,1-2-1.81c-.1-1-.2-2-.32-2.94a2,2,0,0,1,4-.47c.12,1,.22,2,.32,3a2,2,0,0,1-1.8,2.18Zm-1.39-9.9a2,2,0,0,1-2-1.62c-.18-1-.39-1.9-.61-2.85a2,2,0,1,1,3.89-.93c.23,1,.45,2,.65,3a2,2,0,0,1-1.58,2.34A1.69,1.69,0,0,1,1009.39,318.22Zm-2.67-9.62a2,2,0,0,1-1.87-1.3c-.34-.91-.71-1.8-1.1-2.65a2,2,0,1,1,3.65-1.65c.42.93.82,1.9,1.19,2.89a2,2,0,0,1-1.17,2.58A2.16,2.16,0,0,1,1006.72,308.6Zm-4.57-8.86a2,2,0,0,1-1.64-.86c-.54-.78-1.12-1.54-1.71-2.25a2,2,0,1,1,3.07-2.56c.67.8,1.32,1.65,1.92,2.53a2,2,0,0,1-.5,2.78A2,2,0,0,1,1002.15,299.74Zm-6.82-7.26a2,2,0,0,1-1.24-.43c-.73-.57-1.5-1.12-2.29-1.64a2,2,0,0,1,2.19-3.35c.89.58,1.75,1.2,2.57,1.85a2,2,0,0,1-1.23,3.57Zm-8.61-5a2,2,0,0,1-.78-.16c-.86-.37-1.77-.72-2.68-1a2,2,0,1,1,1.34-3.77c1,.35,2,.73,2.91,1.13a2,2,0,0,1-.79,3.84Zm-9.51-3a1.85,1.85,0,0,1-.46-.05c-.94-.22-1.9-.41-2.86-.6a2,2,0,0,1,.75-3.93c1,.2,2,.41,3,.63a2,2,0,0,1-.44,3.95Zm-9.86-1.67h-.25q-1.47-.18-2.94-.33a2,2,0,1,1,.41-4c1,.1,2,.21,3,.34a2,2,0,0,1-.24,4Zm-10-.93h-.15l-3-.22a2,2,0,1,1,.29-4l3,.22a2,2,0,0,1-.15,4Zm-10-.72h-.15l-3-.21a2,2,0,0,1,.29-4l3,.21a2,2,0,0,1-.14,4Zm-10-.72h-.14l-3-.22a2,2,0,0,1,.28-4l3,.22a2,2,0,0,1-.14,4Zm-10-.7h-.14l-3-.21a2,2,0,1,1,.27-4l3,.21a2,2,0,0,1-.14,4Zm-10-.7h-.14l-3-.21a2,2,0,1,1,.28-4l3,.21a2,2,0,0,1-.14,4Zm-10-.68h-.14l-3-.2a2,2,0,1,1,.27-4l3,.2a2,2,0,0,1-.13,4Zm-10-.68h-.14l-3-.21a2,2,0,0,1,.27-4l3,.2a2,2,0,0,1-.13,4Zm-10-.67h-.13l-3-.2a2,2,0,1,1,.26-4l3,.2a2,2,0,0,1-.13,4Zm-10-.65h-.13l-3-.2a2,2,0,1,1,.26-4l3,.19a2,2,0,0,1-.13,4Zm-10-.65h-.13l-3-.19a2,2,0,1,1,.26-4l3,.19a2,2,0,0,1-.13,4Zm-10-.63h-.13l-3-.19a2,2,0,0,1,.25-4l3,.19a2,2,0,0,1-.12,4Zm-10-.63h-.12l-3-.19a2,2,0,1,1,.25-4l3,.19a2,2,0,0,1-.13,4Zm-10-.61h-.12l-3-.18a2,2,0,1,1,.24-4l3,.18a2,2,0,0,1-.12,4Zm-10-.61h-.12l-3-.18a2,2,0,1,1,.23-4l3,.18a2,2,0,0,1-.12,4Zm-10-.59h-.12l-3-.17a2,2,0,1,1,.23-4l3,.17a2,2,0,0,1-.12,4Zm-10-.59h-.12l-3-.17a2,2,0,0,1,.23-4l3,.18a2,2,0,0,1-.11,4Zm-10-.57h-.11l-3-.17a2,2,0,1,1,.23-4l3,.17a2,2,0,0,1-.12,4Zm-10-.57h-.12l-3-.17a2,2,0,1,1,.22-4l3,.17a2,2,0,0,1-.11,4Zm-10-.55h-.11l-3-.16a2,2,0,1,1,.22-4l3,.16a2,2,0,0,1-.11,4Zm-10-.55h-.11l-3-.16a2,2,0,0,1,.22-4l3,.17a2,2,0,0,1-.11,4Zm-10-.53h-.1l-3-.15a2,2,0,0,1,.21-4l3,.16a2,2,0,0,1-.11,4Zm-10-.53h-.11l-3-.16a2,2,0,1,1,.2-4l3,.16a2,2,0,0,1-.1,4Zm-10-.51h-.1l-3-.16a2,2,0,0,1,.2-4l3,.15a2,2,0,0,1-.1,4Zm-10-.51h-.1l-3-.15a2,2,0,0,1-1.9-2.1,2,2,0,0,1,2.09-1.89l3,.15a2,2,0,0,1-.1,4Zm-10-.49h-.1l-3-.15a2,2,0,0,1,.19-4l3,.15a2,2,0,0,1-.1,4Zm-10-.49h-.1l-3-.14a2,2,0,0,1-1.9-2.1,2,2,0,0,1,2.09-1.9l3,.15a2,2,0,0,1-.09,4Zm-10-.47h-.1l-3-.14a2,2,0,1,1,.18-4l3,.14a2,2,0,0,1-.09,4Zm-10-.47h-.09l-3-.14a2,2,0,1,1,.18-4l3,.14a2,2,0,0,1-.09,4Zm-10-.45h-.09l-3-.14a2,2,0,1,1,.18-4l3,.13a2,2,0,0,1-.09,4Zm-10-.45h-.09l-3-.13a2,2,0,0,1,.18-4l3,.14a2,2,0,0,1-.09,4Zm-10-.43h-.09l-3-.13a2,2,0,0,1,.09-4H655l3,.13a2,2,0,0,1-.08,4Zm-10-.43h-.09l-3-.12a2,2,0,1,1,.16-4l3,.13a2,2,0,0,1-.08,4Zm-10-.41h-.09l-3-.13a2,2,0,1,1,.16-4l3,.12a2,2,0,0,1-.08,4Zm-10-.41h-.08l-3-.12a2,2,0,0,1-1.92-2.07,2,2,0,0,1,2.07-1.92l3,.12a2,2,0,0,1-.08,4Zm-10-.39h-.08l-3-.12a2,2,0,0,1-1.92-2.07,2,2,0,0,1,2.07-1.93l3,.12a2,2,0,0,1-.08,4Zm-10-.39h-.08l-3-.11a2,2,0,1,1,.15-4l3,.12a2,2,0,0,1-.07,4ZM598,262h-.08l-3-.11a2,2,0,0,1-1.92-2.07,2,2,0,0,1,2.07-1.93l3,.11a2,2,0,0,1-.07,4Zm-10-.36h-.07l-3-.1a2,2,0,1,1,.15-4l3,.11a2,2,0,0,1-.07,4Zm-10-.36h-.07l-3-.1a2,2,0,0,1,.14-4l3,.1a2,2,0,0,1-.07,4ZM568,261h-.06l-3-.11a2,2,0,0,1,.13-4l3,.1a2,2,0,0,1-.07,4Zm-10-.34h-.07l-3-.1a2,2,0,0,1,.06-4h.07l3,.1a2,2,0,0,1-.06,4Zm-10-.32h-.07l-3-.1a2,2,0,0,1-1.93-2.06,2,2,0,0,1,2.06-1.94l3,.1a2,2,0,0,1-.06,4ZM538,260h-.06l-3-.09a2,2,0,0,1,.06-4h.06l3,.09a2,2,0,0,1-.06,4Zm-10-.3h-.07l-3-.09a2,2,0,0,1-1.94-2.06,2,2,0,0,1,2-1.94l3,.09a2,2,0,0,1,0,4Zm-10-.3h-.06l-3-.08a2,2,0,0,1,.12-4l3,.08a2,2,0,0,1-.06,4Zm-10-.28H508l-3-.08a2,2,0,1,1,.11-4l3,.08a2,2,0,0,1-.06,4Z"/><path class="cls-20" d="M1084.12,473l-.28,0a2.5,2.5,0,0,1-2.2-2.77c.11-1,.21-1.94.29-2.91a2.5,2.5,0,1,1,5,.43c-.09,1-.19,2-.31,3.05A2.49,2.49,0,0,1,1084.12,473Zm.71-10h-.08a2.5,2.5,0,0,1-2.42-2.57c0-1,.05-2,.06-2.95a2.49,2.49,0,0,1,2.5-2.47h0a2.49,2.49,0,0,1,2.47,2.52c0,1,0,2-.06,3.05A2.5,2.5,0,0,1,1084.83,463.07Zm0-10a2.51,2.51,0,0,1-2.5-2.42c0-1-.07-2-.12-3a2.5,2.5,0,1,1,5-.24c0,1,.09,2,.12,3a2.5,2.5,0,0,1-2.42,2.58Zm-.56-10a2.5,2.5,0,0,1-2.49-2.31c-.07-1-.15-2-.23-3a2.5,2.5,0,1,1,5-.41c.09,1,.16,2,.24,3a2.5,2.5,0,0,1-2.31,2.68Zm-.86-10a2.51,2.51,0,0,1-2.49-2.26l-.28-2.95,5-.52.29,3a2.5,2.5,0,0,1-2.25,2.72Zm-1-9.95a2.5,2.5,0,0,1-2.49-2.26c-.09-1-.19-2-.28-3a2.5,2.5,0,1,1,5-.45c.09,1,.18,2,.28,3a2.5,2.5,0,0,1-2.25,2.73Zm-.86-10a2.51,2.51,0,0,1-2.49-2.32c-.07-1-.14-2-.2-3a2.5,2.5,0,0,1,5-.31c.06,1,.13,2,.2,3a2.5,2.5,0,0,1-2.31,2.68Zm-.53-10a2.5,2.5,0,0,1-2.5-2.42v-.39c0-.86,0-1.76,0-2.66a2.5,2.5,0,0,1,2.48-2.53h0a2.5,2.5,0,0,1,2.5,2.48c0,.87,0,1.74,0,2.6v.34a2.49,2.49,0,0,1-2.41,2.58Zm0-10H1081a2.5,2.5,0,0,1-2.39-2.6c.05-1,.1-2,.17-3.06a2.5,2.5,0,0,1,5,.33c-.07,1-.12,2-.16,2.94A2.51,2.51,0,0,1,1081.08,393.22Zm.83-10-.32,0a2.49,2.49,0,0,1-2.16-2.8c.13-1,.27-2,.43-3a2.5,2.5,0,0,1,4.94.77c-.15,1-.29,1.93-.41,2.9A2.5,2.5,0,0,1,1081.91,383.26Zm1.73-9.85a2.74,2.74,0,0,1-.56-.06,2.5,2.5,0,0,1-1.87-3c.23-1,.47-2,.74-3a2.5,2.5,0,1,1,4.83,1.29c-.25.94-.48,1.88-.7,2.83A2.51,2.51,0,0,1,1083.64,373.41Zm2.81-9.6a2.51,2.51,0,0,1-2.36-3.35c.36-1,.73-1.94,1.12-2.9a2.5,2.5,0,1,1,4.63,1.89c-.37.9-.71,1.8-1,2.71A2.5,2.5,0,0,1,1086.45,363.81Zm4-9.14a2.55,2.55,0,0,1-1.19-.29,2.5,2.5,0,0,1-1-3.39c.49-.92,1-1.83,1.54-2.71a2.5,2.5,0,0,1,4.29,2.58c-.5.81-1,1.65-1.43,2.5A2.49,2.49,0,0,1,1090.5,354.67Zm5.45-8.36a2.49,2.49,0,0,1-2-4c.65-.83,1.33-1.64,2-2.41a2.5,2.5,0,1,1,3.74,3.31c-.62.7-1.24,1.44-1.83,2.19A2.48,2.48,0,0,1,1096,346.31Zm6.91-7.2a2.5,2.5,0,0,1-1.63-4.4l.49-.42c.65-.54,1.3-1.06,2-1.56a2.5,2.5,0,1,1,3,4c-.6.46-1.2.93-1.78,1.42l-.44.38A2.53,2.53,0,0,1,1102.86,339.11Zm478.42-4.54H1581l-3-.3a2.5,2.5,0,1,1,.49-5l3,.29a2.5,2.5,0,0,1-.24,5Zm-10-1h-.24l-3-.3a2.5,2.5,0,1,1,.49-5l3,.29a2.5,2.5,0,0,1-.25,5ZM1111,333.37a2.5,2.5,0,0,1-1.25-4.67c.89-.51,1.82-1,2.75-1.48a2.5,2.5,0,0,1,2.26,4.46c-.86.44-1.71.9-2.53,1.36A2.39,2.39,0,0,1,1111,333.37Zm450.33-.76h-.25l-3-.29a2.5,2.5,0,1,1,.48-5l3,.29a2.5,2.5,0,0,1-.24,5Zm-9.95-1h-.25l-3-.29a2.5,2.5,0,0,1,.49-5l3,.29a2.5,2.5,0,0,1-.23,5Zm-10-1h-.24l-3-.29a2.5,2.5,0,1,1,.48-5l3,.28a2.5,2.5,0,0,1-.24,5Zm-10-.95h-.24l-3-.29a2.5,2.5,0,0,1,.47-5l3,.28a2.5,2.5,0,0,1-.24,5Zm-411.42-.59a2.5,2.5,0,0,1-.9-4.84c1-.36,1.94-.71,2.92-1a2.5,2.5,0,0,1,1.6,4.73c-.92.31-1.83.64-2.73,1A2.38,2.38,0,0,1,1120.08,329.13Zm401.47-.35-.24,0-3-.28a2.5,2.5,0,1,1,.46-5l3,.28a2.5,2.5,0,0,1-.23,5Zm-10-.93h-.23l-3-.28a2.5,2.5,0,1,1,.46-5l3,.28a2.5,2.5,0,0,1-.23,5Zm-10-.91-.23,0-3-.26a2.5,2.5,0,1,1,.44-5l3,.27a2.5,2.5,0,0,1-.22,5Zm-372-.8a2.5,2.5,0,0,1-.62-4.92c1-.26,2-.49,3-.72a2.5,2.5,0,0,1,1.1,4.88c-1,.21-1.91.44-2.85.68A2.7,2.7,0,0,1,1129.61,326.14Zm362.06-.1h-.22l-3-.26a2.5,2.5,0,0,1,.44-5l3,.26a2.5,2.5,0,0,1-.22,5Zm-10-.87h-.22l-3-.26a2.5,2.5,0,0,1,.43-5l3,.26a2.5,2.5,0,0,1-.21,5Zm-10-.85h-.21l-3-.25a2.5,2.5,0,1,1,.42-5l3,.25a2.5,2.5,0,0,1-.21,5Zm-332.35-.23a2.5,2.5,0,0,1-.42-5c1-.17,2-.33,3-.48a2.5,2.5,0,0,1,.76,4.94c-1,.15-2,.3-2.92.47A2.15,2.15,0,0,1,1139.39,324.09Zm322.39-.59h-.21l-3-.24a2.5,2.5,0,0,1,.41-5l3,.24a2.5,2.5,0,0,1-.2,5Zm-10-.8h-.2l-3-.23a2.5,2.5,0,0,1,.39-5l3,.24a2.5,2.5,0,0,1-.19,5Zm-302.52,0a2.5,2.5,0,0,1-.3-5l3-.35a2.5,2.5,0,0,1,.56,5l-3,.34Zm292.55-.73h-.19l-3-.22a2.5,2.5,0,0,1,.37-5l3,.23a2.5,2.5,0,0,1-.19,5Zm-282.61-.36a2.5,2.5,0,0,1-.25-5l3-.3a2.5,2.5,0,1,1,.5,5l-3,.31Zm272.64-.38h-.18l-3-.22a2.5,2.5,0,1,1,.35-5l3,.21a2.5,2.5,0,0,1-.18,5Zm-262.68-.6a2.5,2.5,0,0,1-.23-5l3-.28a2.5,2.5,0,1,1,.45,5l-3,.27Zm252.71-.1h-.18l-3-.21a2.48,2.48,0,0,1-2.32-2.66,2.52,2.52,0,0,1,2.66-2.33l3,.21a2.5,2.5,0,0,1-.16,5Zm-10-.67h-.17l-3-.19a2.5,2.5,0,0,1-2.33-2.66,2.47,2.47,0,0,1,2.65-2.33l3,.19a2.5,2.5,0,0,1-.16,5Zm-232.77-.11a2.5,2.5,0,0,1-.21-5l3-.25a2.5,2.5,0,0,1,.4,5l-3,.24Zm222.79-.51h-.16l-3-.18a2.5,2.5,0,0,1,.3-5l3,.18a2.5,2.5,0,0,1-.15,5Zm-212.82-.28a2.5,2.5,0,0,1-.19-5l3-.22a2.5,2.5,0,0,1,.36,5l-3,.22Zm202.84-.31h-.15l-3-.17a2.5,2.5,0,1,1,.28-5l3,.17a2.5,2.5,0,0,1-.14,5Zm-192.87-.4a2.5,2.5,0,0,1-.16-5l3-.2a2.5,2.5,0,0,1,.32,5l-3,.19Zm182.88-.15h-.13l-3-.16a2.5,2.5,0,0,1,.25-5l3,.15a2.5,2.5,0,0,1-.13,5Zm-172.9-.47a2.5,2.5,0,0,1-.14-5l3-.17a2.5,2.5,0,1,1,.28,5l-3,.17Zm162.92,0h-.13l-3-.14a2.5,2.5,0,0,1,.23-5l3,.14a2.5,2.5,0,0,1-.11,5Zm-10-.46h-.11l-3-.12a2.51,2.51,0,0,1-2.39-2.61,2.48,2.48,0,0,1,2.6-2.39l3,.13a2.5,2.5,0,0,1-.1,5Zm-142.94-.05a2.5,2.5,0,0,1-.12-5l3-.14a2.46,2.46,0,0,1,2.61,2.37,2.5,2.5,0,0,1-2.37,2.62l-3,.15Zm133-.35h-.1l-3-.11a2.5,2.5,0,0,1,.09-5h.09l3,.11a2.5,2.5,0,0,1-.09,5Zm-123-.11a2.5,2.5,0,0,1-.1-5l3-.12a2.5,2.5,0,0,1,.2,5l-3,.12Zm113-.25h-.09l-3-.09a2.5,2.5,0,0,1,.15-5l3,.1a2.5,2.5,0,0,1-.08,5Zm-103-.13a2.5,2.5,0,0,1-.08-5l3-.1h.08a2.5,2.5,0,0,1,.08,5l-3,.1Zm93-.17H1332l-3-.08a2.5,2.5,0,0,1,.06-5h.07l3,.07a2.5,2.5,0,0,1-.07,5Zm-83-.13a2.5,2.5,0,0,1-.07-5l3-.08a2.5,2.5,0,1,1,.12,5l-3,.08Zm73-.11H1322l-3-.06a2.5,2.5,0,0,1,0-5h0l3,.06a2.5,2.5,0,0,1,0,5Zm-63-.12a2.5,2.5,0,0,1,0-5l3-.06a2.53,2.53,0,0,1,2.55,2.46,2.5,2.5,0,0,1-2.46,2.54l-3,.06Zm53-.07h0l-3,0a2.5,2.5,0,0,1,0-5h0l3,0a2.5,2.5,0,0,1,0,5Zm-43-.09a2.5,2.5,0,0,1,0-5l3,0a2.5,2.5,0,0,1,0,5l-3,0Zm33,0h0l-3,0a2.5,2.5,0,0,1,0-5h0l3,0a2.5,2.5,0,0,1,0,5Zm-23-.05a2.5,2.5,0,0,1,0-5h3a2.5,2.5,0,0,1,0,5h-3Zm13,0h-3a2.5,2.5,0,0,1,0-5h3a2.5,2.5,0,0,1,0,5Z"/><path class="cls-21" d="M1473.06,1142.84h-.69a2,2,0,0,1,0-4h3a2,2,0,0,1,0,4Zm-7.69,0h-3a2,2,0,0,1,0-4h3a2,2,0,1,1,0,4Zm17,0a2,2,0,1,1,0-4h3a2,2,0,0,1,0,4Zm-27,0h-3a2,2,0,0,1,0-4h3a2,2,0,0,1,0,4Zm37,0a2,2,0,0,1,0-4h3a2,2,0,0,1,0,4h-3Zm-47,0h-3a2,2,0,1,1,0-4h3a2,2,0,0,1,0,4Zm57,0a2,2,0,0,1,0-4h3a2,2,0,0,1,0,4h-3Zm-67,0h-3a2,2,0,0,1,0-4h3a2,2,0,0,1,0,4Zm77,0a2,2,0,0,1,0-4l3,0h0a2,2,0,0,1,0,4l-3,0Zm-87,0h0l-3,0a2,2,0,0,1,0-4h0l3,0a2,2,0,0,1,0,4Zm97,0a2,2,0,0,1,0-4l3,0h0a2,2,0,0,1,0,4l-3,0Zm-107,0h0l-3,0a2,2,0,0,1,0-4h0l3,0a2,2,0,0,1,0,4Zm117,0a2,2,0,0,1,0-4l3,0h0a2,2,0,0,1,0,4l-3,0Zm-127-.07h0l-3,0a2,2,0,0,1,0-4h0l3,0a2,2,0,0,1,0,4Zm137,0a2,2,0,0,1,0-4l3,0h0a2,2,0,0,1,0,4l-3,0Zm-147-.07h0l-3,0a2,2,0,0,1,0-4h0l3,0a2,2,0,0,1,0,4Zm157,0a2,2,0,0,1,0-4h.23a2,2,0,1,1,0,4h-.25Zm-167-.08h0l-3,0a2,2,0,1,1,0-4l3,0a2,2,0,0,1,0,4Zm-10-.11h0l-3,0a2,2,0,1,1,.05-4l3,0a2,2,0,0,1,0,4Zm-10-.13h0l-3,0a2,2,0,0,1,0-4h0l3,0a2,2,0,0,1,0,4Zm-10-.13h0l-3,0a2,2,0,0,1-2-2,2,2,0,0,1,2-2l3,0a2,2,0,0,1,0,4Zm-10-.15h0l-3,0a2,2,0,0,1-2-2,2,2,0,0,1,2-2l3,0a2,2,0,0,1,0,4Zm-10-.16h0l-3,0a2,2,0,0,1,0-4h0l3,0a2,2,0,0,1,0,4Zm-10-.17h0l-3-.06a2,2,0,0,1,.08-4l3,.06a2,2,0,0,1,0,4Zm-10-.18h0l-3,0a2,2,0,1,1,.08-4l3,.06a2,2,0,0,1,0,4Zm-10-.2h0l-3-.06a2,2,0,1,1,.08-4l3,.06a2,2,0,0,1,0,4Zm-10-.21h0l-3-.06a2,2,0,0,1,0-4h0l3,.06a2,2,0,0,1,0,4Zm-10-.22h-.05l-3-.07a2,2,0,0,1,.09-4l3,.06a2,2,0,0,1,0,4Zm-10-.23h-.05l-3-.07a2,2,0,0,1,.05-4h0l3,.07a2,2,0,0,1,0,4Zm-10-.24h-.05l-3-.08a2,2,0,1,1,.1-4l3,.08a2,2,0,0,1,0,4Zm-10-.26h-.06l-3-.08a2,2,0,1,1,.11-4l3,.07a2,2,0,0,1,0,4Zm-10-.26h-.06l-3-.08a2,2,0,1,1,.11-4l3,.09a2,2,0,0,1,0,4Zm-10-.28h-.05l-3-.09a2,2,0,0,1,.11-4l3,.09a2,2,0,0,1-.06,4Zm-10-.29h-.06l-3-.09a2,2,0,1,1,.12-4l3,.09a2,2,0,0,1-.06,4Zm-10-.31h-.06l-3-.09a2,2,0,0,1,.13-4l3,.09a2,2,0,0,1-.06,4Zm-10-.31h-.07l-3-.1a2,2,0,0,1,.13-4l3,.1a2,2,0,0,1-.06,4Zm-10-.33h-.06l-3-.1a2,2,0,0,1-1.94-2.07,2,2,0,0,1,2.07-1.93l3,.1a2,2,0,0,1-.07,4Zm-10-.34h-.07l-3-.11a2,2,0,1,1,.14-4l3,.1a2,2,0,0,1-.07,4Zm-10-.35h-.08l-3-.11a2,2,0,0,1,.15-4l3,.11a2,2,0,0,1-.07,4Zm-10-.36h-.07l-3-.11a2,2,0,0,1,.07-4h.08l3,.11a2,2,0,0,1-.07,4Zm-10-.38h-.08l-3-.12a2,2,0,1,1,.18-4l3,.12a2,2,0,0,1-.07,4Zm-10-.51h-.14l-3-.24a2,2,0,1,1,.35-4c1,.09,2,.17,3,.24a2,2,0,0,1-.14,4Zm-9.94-1a1.51,1.51,0,0,1-.3,0c-1-.15-2-.31-3-.49a2,2,0,1,1,.71-3.94c1,.17,1.92.33,2.89.47a2,2,0,0,1-.28,4Zm-9.79-2a2,2,0,0,1-.54-.08c-1-.28-2-.58-3-.9a2,2,0,1,1,1.26-3.8c.89.3,1.83.58,2.78.85a2,2,0,0,1-.54,3.93Zm-9.35-3.51a2,2,0,0,1-.88-.2c-.94-.46-1.87-1-2.76-1.47a2,2,0,0,1,2-3.47c.82.47,1.67.92,2.53,1.34a2,2,0,0,1-.88,3.8Zm-8.41-5.37a2,2,0,0,1-1.26-.46c-.81-.66-1.6-1.36-2.36-2.08a2,2,0,0,1,2.76-2.9c.68.65,1.4,1.29,2.14,1.89a2,2,0,0,1-1.28,3.55Zm-6.9-7.2a2,2,0,0,1-1.59-.79c-.63-.82-1.24-1.68-1.81-2.54a2,2,0,1,1,3.33-2.22c.53.8,1.09,1.59,1.66,2.34a2,2,0,0,1-1.59,3.21Zm-5.19-8.52a2,2,0,0,1-1.8-1.13c-.44-.93-.87-1.88-1.28-2.84a2,2,0,0,1,3.69-1.54c.38.89.78,1.78,1.19,2.64a2,2,0,0,1-.93,2.67A2.08,2.08,0,0,1,1095.88,1108.61Zm-3.58-9.33a2,2,0,0,1-1.91-1.43c-.3-1-.57-2-.82-3a2,2,0,1,1,3.88-1c.23.95.49,1.89.77,2.82a2,2,0,0,1-1.35,2.48A1.88,1.88,0,0,1,1092.3,1099.28Zm-2.21-9.75a2,2,0,0,1-2-1.68c-.17-1-.31-2-.44-3a2,2,0,0,1,1.72-2.24,2,2,0,0,1,2.24,1.73c.13,1,.27,1.94.43,2.9a2,2,0,0,1-1.66,2.3A1.73,1.73,0,0,1,1090.09,1089.53Zm-1.08-9.94a2,2,0,0,1-2-1.89c-.06-1-.1-2-.13-3a2,2,0,1,1,4-.12c0,1,.08,2,.13,2.94a2,2,0,0,1-1.88,2.11Zm-.11-10h-.05a2,2,0,0,1-1.95-2v-.43c0-.88.07-1.75.12-2.63a2,2,0,0,1,4,.21c0,.85-.08,1.71-.11,2.56v.38A2,2,0,0,1,1088.9,1069.59Zm.6-10h-.17a2,2,0,0,1-1.83-2.15c.08-1,.17-2,.26-3a2,2,0,1,1,4,.36c-.09,1-.17,2-.25,3A2,2,0,0,1,1089.5,1059.61Zm.93-10h-.2a2,2,0,0,1-1.79-2.19l.31-3a2,2,0,1,1,4,.4l-.3,3A2,2,0,0,1,1090.43,1049.65Zm1-10h-.19a2,2,0,0,1-1.8-2.17c.09-1,.18-2,.26-3a2,2,0,1,1,4,.33c-.08,1-.17,2-.26,3A2,2,0,0,1,1091.42,1039.7Zm.75-10h-.11a2,2,0,0,1-1.89-2.11c0-1,.1-2,.14-3a2,2,0,0,1,4,.15c0,1-.08,2-.13,3A2,2,0,0,1,1092.17,1029.73Zm.22-10a2,2,0,0,1-2-2c0-1,0-2-.09-2.95a2,2,0,0,1,4-.17q.06,1.53.09,3.06a2,2,0,0,1-2,2Zm-.63-10a2,2,0,0,1-2-1.77c-.11-1-.24-1.94-.38-2.91a2,2,0,0,1,3.95-.59c.16,1,.29,2,.4,3a2,2,0,0,1-1.76,2.22Z"/><path class="cls-22" d="M1613.35,642.09h-.19l-.83-.08a2,2,0,0,1,.36-4l.84.08a2,2,0,0,1-.18,4Zm-7.81-.71h-.18l-3-.27a2,2,0,0,1,.34-4l3,.26a2,2,0,0,1-.18,4Zm-10-.86h-.17l-3-.25a2,2,0,1,1,.33-4l3,.25a2,2,0,0,1-.16,4Zm-10-.81h-.16l-3-.23a2,2,0,0,1,.32-4l3,.23a2,2,0,0,1-.16,4Zm-10-.77h-.15l-3-.22a2,2,0,1,1,.3-4l3,.22a2,2,0,0,1-.15,4Zm-10-.73h-.14l-3-.21a2,2,0,1,1,.27-4l3,.21a2,2,0,0,1-.14,4Zm-10-.69h-.13l-3-.2a2,2,0,1,1,.26-4l3,.19a2,2,0,0,1-.13,4Zm-10-.64h-.12l-3-.18a2,2,0,0,1,.25-4l3,.18a2,2,0,0,1-.13,4Zm-10-.6h-.12l-3-.18a2,2,0,0,1,.23-4l3,.17a2,2,0,0,1-.11,4Zm-10-.56h-.11l-3-.16a2,2,0,1,1,.2-4l3,.16a2,2,0,0,1-.1,4Zm-10-.51h-.1l-3-.15a2,2,0,0,1-1.91-2.09,2,2,0,0,1,2.1-1.9l3,.14a2,2,0,0,1-.1,4Zm-10-.47h-.09l-3-.13a2,2,0,0,1-1.91-2.09,2,2,0,0,1,2.09-1.91l3,.14a2,2,0,0,1-.09,4Zm-10-.42h-.08l-3-.12a2,2,0,1,1,.16-4l3,.12a2,2,0,0,1-.08,4Zm-10-.38h-.08l-3-.11a2,2,0,0,1-1.93-2.07,2,2,0,0,1,2.07-1.93l3,.11a2,2,0,0,1-.07,4Zm-10-.34h-.06l-3-.1a2,2,0,1,1,.12-4l3,.09a2,2,0,0,1-.06,4Zm-10-.3h-.06l-3-.08a2,2,0,0,1,.11-4l3,.08a2,2,0,0,1,0,4Zm-123-.06a2,2,0,0,1,0-4l3-.07a2,2,0,1,1,.1,4l-3,.07Zm113-.19h0l-3-.06a2,2,0,0,1-2-2,2,2,0,0,1,2-2l3,.06a2,2,0,0,1,0,4Zm-103,0a2,2,0,0,1,0-4l3-.06a2,2,0,1,1,.09,4l-3,.06Zm93-.15h0l-3-.06a2,2,0,0,1,0-4h0l3,.06a2,2,0,0,1,0,4Zm-83-.05a2,2,0,0,1,0-4l3,0h0a2,2,0,0,1,0,4l-3,0Zm73-.12h0l-3,0a2,2,0,0,1,0-4h0l3,0a2,2,0,0,1,0,4Zm-63,0a2,2,0,0,1,0-4l3,0h0a2,2,0,0,1,0,4l-3,0Zm53-.09h0l-3,0a2,2,0,0,1-2-2,2,2,0,0,1,2-2l3,0a2,2,0,0,1,0,4Zm-43,0a2,2,0,0,1,0-4l3,0a2,2,0,0,1,0,4l-3,0Zm33-.06h-3a2,2,0,0,1,0-4h3a2,2,0,0,1,0,4Zm-23,0a2,2,0,0,1,0-4h3a2,2,0,0,1,0,4h-3Zm13,0h-3a2,2,0,0,1,0-4h3a2,2,0,0,1,0,4Z"/><path class="cls-23" d="M617,1399.07c-16.24,1.41-44.43,3.69-66.65,4.67-13.36.58-21.05-.72-25.48-2.5,0,.5,0,1,0,1.41a4.6,4.6,0,0,0,4.37,4.34,780.12,780.12,0,0,0,87.27.09,3.27,3.27,0,0,0,2.67-4.92A27.74,27.74,0,0,0,617,1399.07Z"/><path class="cls-24" d="M550.35,1403.74c22.22-1,50.41-3.26,66.65-4.67-16-19.59-66.65-32.79-66.65-32.79H536c-9.84,14.19-11.27,27.7-11.16,35C529.3,1403,537,1404.32,550.35,1403.74Z"/><path class="cls-25" d="M533.62,1342.91l1.34,26.5a6.06,6.06,0,0,0,5.17,5.7,23.55,23.55,0,0,0,10.75-.89,7.17,7.17,0,0,0,4.82-5.51l4.63-25.8Z"/><path class="cls-26" d="M347.69,1403.54c-7.05-1-10.23-4.64-11.57-8.56l0,.11c-1,4.13,1.37,8.4,6.17,10.44a40.5,40.5,0,0,0,17.08,2.67c5.29-.22,10.14-2.41,12.81-5.91l0,0C366.88,1404.87,359.43,1405.17,347.69,1403.54Z"/><path class="cls-27" d="M380.9,1342.74H369.09c-18-.37-29.27,37.56-33,52.24,1.34,3.92,4.52,7.57,11.57,8.56,11.74,1.63,19.19,1.33,24.5-1.3,9.71-12.78,14.53-31.51,16.85-42.43C391.67,1347.38,380.9,1342.74,380.9,1342.74Z"/><path class="cls-28" d="M370.61,1318.13l-6.56,26.07a7.08,7.08,0,0,0,3.69,8c3.66,1.89,8.83,3.86,13.57,3.29a5.9,5.9,0,0,0,4.82-3.94l9.63-27.43Z"/><path class="cls-29" d="M362.79,1325.67c8.16,7.23,34.68,8.19,34.68,8.19,95.56-229.35,134.65-261.94,134.65-261.94-13.79,86.57-2.22,278.22-2.22,278.22,15.77,7,36.1,0,36.1,0a1476.92,1476.92,0,0,1,48.8-362.76c-64.59-1.45-98.94-23.55-110.15-32.42C450.81,1041.75,362.79,1325.67,362.79,1325.67Z"/><path class="cls-30" d="M521.05,691.2c-12.22,61-7.84,170.12-5,219.9.81,14-9,33.39-16.85,46.62a4.15,4.15,0,0,0,1.68,5.84c13.21,6.79,58,27.85,109.89,30.47a7.42,7.42,0,0,0,7.45-5.53c38.49-143.74,83.21-235.59,83.21-235.59C652.09,674.07,521.05,691.2,521.05,691.2Z"/><path class="cls-12" d="M538.64,1066.49a3,3,0,0,1-1.59-.45,3.06,3.06,0,0,1-1-4.2A96.16,96.16,0,0,1,573.92,1029a3.06,3.06,0,1,1,2.66,5.51A91.43,91.43,0,0,0,541.26,1065,3.08,3.08,0,0,1,538.64,1066.49Z"/><path class="cls-31" d="M444.37,866.21c3.93,28.4,15.53,59.39,38.74,92.3l8.82-7.19S481.75,910,487.54,863.1C473.22,860.31,456.31,863.19,444.37,866.21Z"/><path class="cls-32" d="M534.7,766.44,521.05,691.2s-91.23,69.74-76.68,175c11.94-3,28.85-5.9,43.17-3.11C491.71,829.32,504.16,792.65,534.7,766.44Z"/><path class="cls-33" d="M701.46,752.91l-35.22,75.84c5.7,45.78,30.29,65.58,56.81,73.18a161,161,0,0,1,11.83-49.39C701,817.55,701.46,752.91,701.46,752.91Z"/><path class="cls-34" d="M734.88,852.54a161,161,0,0,0-11.83,49.39c70.76,27.45,89.48-25.79,89.48-25.79l-13.07-2.31C769.92,876.94,749.3,867.42,734.88,852.54Z"/><path class="cls-35" d="M669,659.28l-17,62.49a12.16,12.16,0,0,1-16.26,8.09,245.17,245.17,0,0,1-24.5-11.19,16.39,16.39,0,0,1-5.78-23.55l35.35-52.7Z"/><path class="cls-36" d="M845,834.32,409.33,992.87A33.35,33.35,0,0,0,390.38,1038l1.32,2.91a31,31,0,0,0,41.24,15.3l423-195.68Z"/><ellipse class="cls-37" cx="1045.2" cy="738.94" rx="215.05" ry="211.17"/><path class="cls-38" d="M1045.2,504c-132.16,0-239.29,105.2-239.29,235s107.13,235,239.29,235,239.28-105.21,239.28-235S1177.35,504,1045.2,504Zm0,435.43c-112.75,0-204.14-89.75-204.14-200.46s91.39-200.45,204.14-200.45,204.13,89.74,204.13,200.45S1157.94,939.4,1045.2,939.4Z"/><path class="cls-3" d="M824.1,766.94a.51.51,0,0,1-.5-.43c-.7-5.53-1.2-11.17-1.48-16.77a.5.5,0,0,1,.48-.52.49.49,0,0,1,.52.47c.28,5.58.77,11.19,1.48,16.69a.51.51,0,0,1-.44.56Zm1.64-65.7h-.09a.5.5,0,0,1-.4-.58,215.18,215.18,0,0,1,12.84-43.95A219.94,219.94,0,0,1,918.92,558a226.88,226.88,0,0,1,246.21-4.12.5.5,0,1,1-.53.84,224.63,224.63,0,0,0-119.4-34.12c-91.08,0-172,53.57-206.18,136.46h0a214.7,214.7,0,0,0-12.79,43.75A.49.49,0,0,1,825.74,701.24Z"/><path class="cls-39" d="M488.29,950.07l41.18-3.36,17.84,16.44s-4.22,5.83-17.41,2.48-31.26-4.17-31.26-4.17-18.21,8.21-18.44-7.16Z"/><path class="cls-40" d="M807.29,885.88c3.56,2.78,15.76-3,23.23-7a8.6,8.6,0,0,0,4.15-10.16c-1.8-5.66-4.79-13-8.48-13.9C820.07,853.25,792.61,874.41,807.29,885.88Z"/><path class="cls-3" d="M417.93,1049a.51.51,0,0,1-.17,0c-13.19-4.56-20.1-12.07-20.55-22.34s6.06-19.93,16.2-23.89l52.3-20.39a.5.5,0,0,1,.65.28.51.51,0,0,1-.28.65l-52.31,20.4c-9.73,3.79-16,13-15.56,22.91s7.12,17,19.88,21.44a.5.5,0,0,1,.31.63A.5.5,0,0,1,417.93,1049Z"/><path class="cls-3" d="M482,977.06a.49.49,0,0,1-.46-.32.51.51,0,0,1,.28-.65l6.78-2.64a.5.5,0,1,1,.36.93L482.2,977A.43.43,0,0,1,482,977.06Z"/><path class="cls-41" d="M672.69,597.92s14.07,32.33,15,49.29,4.6,28-15,31.39-36.15-6.35-45.1-23.25c0,0-14-26-10.88-36.71S672.69,597.92,672.69,597.92Z"/><path class="cls-42" d="M634.29,643.2h2.48s-10.21-21-1.24-24.64,44.55-10.94,52.22-23.56c7.4-12.16.8-27.88-9.07-32.28a1.33,1.33,0,0,0-1.68.62l-.82,1.55a1.33,1.33,0,0,1-2.46-.25h0a1.32,1.32,0,0,0-2.38-.37c-2.35,3.78-8.71,9.91-25.77,13.06-24.21,4.47-40.21,14.27-40.6,31a1.34,1.34,0,0,1-2.07,1.1c-1.78-1.09-4.64-1.6-8.46,1.61-6.65,5.59-3.93,20.09,10.64,32a1.33,1.33,0,0,1-.06,2.14c-2.65,1.72-6.58,5.81,3.62,11.26,10.44,5.58,16.61,5,18.94,4.37a1.33,1.33,0,0,0,1-1.37l-.91-14.83A1.33,1.33,0,0,1,629,643.2Z"/><path class="cls-43" d="M634.9,646.3s-5.37-20.65-14.62-14.86,4.8,23.14,12.24,23.91Z"/><path class="cls-44" d="M1085.94,618c0,23-17,41.63-44.92,41.63-26.3,0-43.28-18.62-43.28-41.63,0-23.56,17.53-41.64,44.37-41.64S1085.39,594.48,1085.94,618ZM985.19,880.3l13.32-169.65a19.65,19.65,0,0,1,19.59-18.11h45.45a19.65,19.65,0,0,1,19.65,19.65V881.84a19.64,19.64,0,0,1-19.65,19.64h-58.77A19.64,19.64,0,0,1,985.19,880.3Z"/><circle class="cls-8" cx="1738.59" cy="241.32" r="22.44" transform="translate(1104.28 1877.95) rotate(-76.72)"/><path class="cls-8" d="M2031.57,261.52a4.53,4.53,0,0,1-1.09-.14c-64.75-16.15-138.57-21.25-225.67-15.57a4.5,4.5,0,0,1-.58-9c88-5.74,162.76-.56,228.43,15.82a4.5,4.5,0,0,1-1.09,8.87Z"/><path class="cls-8" d="M2022.44,314.11a4.59,4.59,0,0,1-1.45-.24c-87.38-29.76-214.62-13.81-215.89-13.64a4.5,4.5,0,0,1-1.16-8.93c1.3-.17,130.57-16.39,220,14.05a4.5,4.5,0,0,1-1.45,8.76Z"/><path class="cls-8" d="M2022.44,363.06a4.59,4.59,0,0,1-1.45-.24C1933.57,333,1806.37,349,1805.1,349.18a4.5,4.5,0,0,1-1.16-8.93c1.3-.17,130.58-16.39,220,14.05a4.5,4.5,0,0,1-1.45,8.76Z"/><path class="cls-45" d="M2112,982.1l-27.65,335.67c-1.73,21-16.07,37.15-33.57,37.9l-420,17.94c-17.47.75-32.71-14.12-35.71-34.84-10.83-74.94-32.72-249.78-19.91-363.81,2.15-19.2,14.82-34.23,30.83-36.38,168.09-22.55,328-26.36,475.9-2.35C2100.54,939.27,2113.86,959.54,2112,982.1Z"/><path class="cls-46" d="M2085.42,999.5,2060,1308.71c-1.59,19.31-14.81,34.23-30.93,34.91l-386.92,16.53c-16.1.69-30.14-13-32.9-32.09-10-69-30.14-230.1-18.34-335.14,2-17.68,13.65-31.52,28.4-33.5,154.84-20.78,302.18-24.29,438.38-2.17C2074.86,960.05,2087.14,978.72,2085.42,999.5Z"/><g class="cls-47"><path class="cls-8" d="M1818,1285.06a3.14,3.14,0,0,1-2.82-1.77l-5.58-11.47a62.19,62.19,0,0,1-17.35-4.85l-10.72,6.93a3.13,3.13,0,0,1-3.64-.16l-13.08-10.26a3.13,3.13,0,0,1-1-3.49l4.17-12.07a62.28,62.28,0,0,1-8.86-15.68l-12.47-2.68a3.14,3.14,0,0,1-2.46-2.69l-2-16.5a3.14,3.14,0,0,1,1.74-3.2l11.48-5.59a62.11,62.11,0,0,1,4.84-17.34l-6.93-10.72a3.13,3.13,0,0,1,.17-3.64l10.25-13.09a3.15,3.15,0,0,1,3.5-1l12.06,4.17a62,62,0,0,1,15.69-8.85l2.68-12.48a3.13,3.13,0,0,1,2.69-2.45l16.5-2a3.12,3.12,0,0,1,3.2,1.74l5.58,11.47a62.19,62.19,0,0,1,17.35,4.85l10.72-6.93a3.13,3.13,0,0,1,3.64.16l13.08,10.25a3.13,3.13,0,0,1,1,3.5l-4.16,12.07a62.55,62.55,0,0,1,8.85,15.68l12.47,2.68a3.14,3.14,0,0,1,2.46,2.69l2,16.5a3.14,3.14,0,0,1-1.74,3.2l-11.48,5.58a62.08,62.08,0,0,1-4.84,17.35l6.93,10.72a3.14,3.14,0,0,1-.16,3.64l-10.26,13.09a3.15,3.15,0,0,1-3.49,1l-12.07-4.17a62.3,62.3,0,0,1-15.69,8.85l-2.68,12.48a3.13,3.13,0,0,1-2.69,2.45l-16.5,2A2.34,2.34,0,0,1,1818,1285.06Zm-26.08-22.64,1,.47a58.17,58.17,0,0,0,18.21,5.08l1.1.12,6.27,12.9,15.28-1.85,3-14,1-.37a58.19,58.19,0,0,0,16.47-9.3l.86-.69,13.56,4.69,9.5-12.12-7.79-12,.46-1a58.33,58.33,0,0,0,5.09-18.21l.12-1.1,12.89-6.27-1.85-15.29-14-3-.38-1a58.41,58.41,0,0,0-9.29-16.47l-.69-.86,4.68-13.57-12.11-9.49-12,7.79-1-.47a58.3,58.3,0,0,0-18.22-5.08l-1.1-.12-6.27-12.9-15.28,1.85-3,14-1,.38a58.33,58.33,0,0,0-16.47,9.3l-.86.69-13.56-4.69-9.5,12.12,7.8,12.05-.47,1a58.6,58.6,0,0,0-5.09,18.21l-.12,1.1-12.89,6.27,1.85,15.29,14,3,.38,1a58.41,58.41,0,0,0,9.29,16.47l.69.86-4.68,13.56,12.12,9.5Zm95.83-68.89Zm-70.47,58a42.11,42.11,0,1,1,41.84-47.18,42.62,42.62,0,0,1,.13,9,2,2,0,1,1-4-.37,38.61,38.61,0,0,0-.13-8.11,38.1,38.1,0,1,0-14.47,34.7,2,2,0,0,1,2.46,3.16,42.24,42.24,0,0,1-25.85,8.84Z"/><path class="cls-8" d="M1817.55,1226.36a16.79,16.79,0,1,1,6-1.13A16.88,16.88,0,0,1,1817.55,1226.36Zm0-29.54a12.83,12.83,0,0,0-4.59.86,12.76,12.76,0,1,0,16.49,7.32h0a12.77,12.77,0,0,0-11.9-8.18Z"/><path class="cls-8" d="M1699.32,1178.12a1.91,1.91,0,0,1-.74-.14l-7.46-2.89a2,2,0,0,1-1.3-2l.22-5.85a30.33,30.33,0,0,1-6-5.69l-5.83.48a2,2,0,0,1-2-1.21l-3.23-7.32a2,2,0,0,1,.48-2.32l4.29-4a30.72,30.72,0,0,1-.18-8.24l-4.47-3.78a2,2,0,0,1-.58-2.3l2.89-7.45a2,2,0,0,1,2-1.31l5.85.22a30.33,30.33,0,0,1,5.69-6l-.49-5.82a2.07,2.07,0,0,1,1.22-2l7.31-3.22a2,2,0,0,1,2.33.48l4,4.29a30.25,30.25,0,0,1,8.23-.19l3.78-4.47a2.06,2.06,0,0,1,2.31-.58l7.45,2.89a2,2,0,0,1,1.31,2l-.22,5.84a30.58,30.58,0,0,1,5.95,5.69l5.83-.48a2.06,2.06,0,0,1,2,1.21l3.22,7.32a2,2,0,0,1-.48,2.33l-4.29,4a30.32,30.32,0,0,1,.19,8.24l4.46,3.78a2,2,0,0,1,.59,2.3l-2.89,7.45a2.05,2.05,0,0,1-2,1.31l-5.84-.22a30.67,30.67,0,0,1-5.7,6l.49,5.83a2,2,0,0,1-1.21,2l-7.32,3.23a2.05,2.05,0,0,1-2.32-.48l-4-4.29a30.73,30.73,0,0,1-8.24.18l-3.78,4.47A2,2,0,0,1,1699.32,1178.12Zm-6.48-5.58,6.19,2.4,4.4-5.2.82.11a27.24,27.24,0,0,0,8.92-.2l.81-.15,4.63,5,6.07-2.68-.56-6.79.66-.5a27.56,27.56,0,0,0,6.16-6.45l.47-.68,6.81.26,2.4-6.19-5.2-4.4.11-.82a27.52,27.52,0,0,0-.2-8.92l-.15-.81,5-4.63-2.68-6.08-6.78.57-.5-.66a27.56,27.56,0,0,0-6.45-6.16l-.68-.47.25-6.81-6.18-2.4-4.41,5.2-.82-.11a27.46,27.46,0,0,0-8.91.2l-.82.15-4.63-5-6.07,2.68.57,6.79-.66.5a27.4,27.4,0,0,0-6.17,6.45l-.46.68-6.81-.26-2.4,6.19,5.2,4.4-.12.82a27.52,27.52,0,0,0,.2,8.92l.16.82-5,4.63,2.68,6.07,6.79-.57.49.66a27.59,27.59,0,0,0,6.46,6.16l.68.47Zm48-21.7ZM1675.31,1134h0Zm65.14-1.47Zm.22-1.09h0Zm-3.45-6.23h0Zm-29.27,38a20.79,20.79,0,1,1,19-29.18,21.39,21.39,0,0,1,1.35,4.22,1.5,1.5,0,0,1-2.94.6,18.52,18.52,0,0,0-1.16-3.61,17.79,17.79,0,0,0-23.46-9.1,17.79,17.79,0,1,0,21.71,26.57,1.5,1.5,0,1,1,2.44,1.73,20.72,20.72,0,0,1-16.94,8.77Z"/></g><path class="cls-48" d="M2025,1017a5.12,5.12,0,0,1-.78-.06c-96-16.82-295.94-7.74-298-7.65a4.5,4.5,0,0,1-.42-9c2-.09,202.94-9.22,299.92,7.77a4.5,4.5,0,0,1-.77,8.93Z"/><path class="cls-48" d="M2025,1071.79a4.59,4.59,0,0,1-1.45-.24c-52.64-17.93-295-13-297.39-13a4.5,4.5,0,1,1-.19-9c10-.21,246.35-5,300.48,13.45a4.5,4.5,0,0,1-1.45,8.76Z"/><path class="cls-48" d="M2027.91,1124.42H1919.44a4.5,4.5,0,0,1,0-9h108.47a4.5,4.5,0,0,1,0,9Z"/><path class="cls-49" d="M1980.35,489.46l-10.24-2.33a8.69,8.69,0,0,1-6.1-5.23,92.59,92.59,0,0,0-10.17-18.55,8.69,8.69,0,0,1-1.11-8l3.55-9.89a10.39,10.39,0,0,0-3.26-11.61l-10.31-8.3a10.4,10.4,0,0,0-12-.69l-8.9,5.59a8.7,8.7,0,0,1-8,.62,92.28,92.28,0,0,0-20.3-6,8.68,8.68,0,0,1-6.41-4.84l-4.48-9.5A10.41,10.41,0,0,0,1872,404.9l-13.15,1.43a10.39,10.39,0,0,0-9,8l-2.33,10.24a8.71,8.71,0,0,1-5.23,6.1,92.94,92.94,0,0,0-18.56,10.17,8.67,8.67,0,0,1-8,1.11l-9.89-3.55a10.39,10.39,0,0,0-11.62,3.26L1786,452a10.38,10.38,0,0,0-.7,12l5.6,8.9a8.67,8.67,0,0,1,.61,8,92.8,92.8,0,0,0-5.94,20.3,8.7,8.7,0,0,1-4.84,6.41l-9.51,4.48a10.41,10.41,0,0,0-5.9,10.52l1.43,13.15a10.39,10.39,0,0,0,8,9l10.24,2.33a8.71,8.71,0,0,1,6.1,5.23,93.41,93.41,0,0,0,10.16,18.56,8.64,8.64,0,0,1,1.12,8l-3.56,9.89a10.38,10.38,0,0,0,3.27,11.61l10.31,8.3a10.38,10.38,0,0,0,12,.7l8.9-5.6a8.7,8.7,0,0,1,8-.62,92.12,92.12,0,0,0,20.3,6,8.7,8.7,0,0,1,6.41,4.84l4.48,9.5a10.41,10.41,0,0,0,10.52,5.91l13.15-1.43a10.4,10.4,0,0,0,9-8l2.33-10.24a8.69,8.69,0,0,1,5.23-6.1,93.05,93.05,0,0,0,18.55-10.16,8.66,8.66,0,0,1,8-1.12l9.89,3.56a10.38,10.38,0,0,0,11.61-3.27l8.29-10.31a10.38,10.38,0,0,0,.7-12l-5.59-8.9a8.7,8.7,0,0,1-.62-8,92.12,92.12,0,0,0,6-20.3,8.68,8.68,0,0,1,4.84-6.41l9.5-4.48a10.38,10.38,0,0,0,5.9-10.52l-1.42-13.15A10.4,10.4,0,0,0,1980.35,489.46Zm-86.82,103a77,77,0,1,1,59.35-91.29A77,77,0,0,1,1893.53,592.46Zm33.14-76.24a49.92,49.92,0,1,1-49.91-49.91A49.91,49.91,0,0,1,1926.67,516.22Z"/><path class="cls-50" d="M2003.79,680.28l-7.44-1.7a6.32,6.32,0,0,1-4.43-3.79,67.4,67.4,0,0,0-7.38-13.48,6.31,6.31,0,0,1-.81-5.78l2.58-7.19a7.54,7.54,0,0,0-2.37-8.43l-7.48-6a7.55,7.55,0,0,0-8.75-.51l-6.46,4.07a6.3,6.3,0,0,1-5.83.44,67.22,67.22,0,0,0-14.74-4.32,6.31,6.31,0,0,1-4.66-3.51l-3.25-6.9a7.53,7.53,0,0,0-7.64-4.29l-9.55,1a7.52,7.52,0,0,0-6.54,5.82l-1.7,7.44a6.29,6.29,0,0,1-3.79,4.43,67.4,67.4,0,0,0-13.48,7.38,6.31,6.31,0,0,1-5.78.81l-7.19-2.58a7.54,7.54,0,0,0-8.43,2.37l-6,7.48a7.55,7.55,0,0,0-.51,8.75l4.07,6.46a6.3,6.3,0,0,1,.44,5.83,67.61,67.61,0,0,0-4.32,14.74,6.31,6.31,0,0,1-3.51,4.66l-6.9,3.25a7.56,7.56,0,0,0-4.29,7.64l1,9.55a7.53,7.53,0,0,0,5.82,6.54l7.44,1.7a6.29,6.29,0,0,1,4.43,3.79,67.4,67.4,0,0,0,7.38,13.48,6.31,6.31,0,0,1,.81,5.78l-2.58,7.18a7.55,7.55,0,0,0,2.37,8.44l7.49,6a7.54,7.54,0,0,0,8.74.51l6.46-4.07a6.3,6.3,0,0,1,5.83-.44,67.77,67.77,0,0,0,14.74,4.32,6.31,6.31,0,0,1,4.66,3.51l3.25,6.9a7.56,7.56,0,0,0,7.64,4.29l9.55-1a7.53,7.53,0,0,0,6.54-5.82l1.7-7.44a6.32,6.32,0,0,1,3.79-4.43,67.4,67.4,0,0,0,13.48-7.38A6.31,6.31,0,0,1,1974,755l7.19,2.58a7.54,7.54,0,0,0,8.43-2.37l6-7.49a7.54,7.54,0,0,0,.51-8.74l-4.07-6.46a6.3,6.3,0,0,1-.44-5.83,67.77,67.77,0,0,0,4.32-14.74,6.29,6.29,0,0,1,3.51-4.66l6.9-3.25a7.55,7.55,0,0,0,4.29-7.64l-1-9.55A7.52,7.52,0,0,0,2003.79,680.28Zm-63,74.8a55.92,55.92,0,1,1,43.1-66.3A55.92,55.92,0,0,1,1940.74,755.08Zm28.43-57a40,40,0,1,1-40-40A40,40,0,0,1,1969.17,698.05Z"/><path class="cls-51" d="M1822.88,729.55l-6.39-7.64a8.23,8.23,0,0,1-1.61-7.44,87.53,87.53,0,0,0,3-19.83,8.24,8.24,0,0,1,3.72-6.66l8.36-5.42a9.87,9.87,0,0,0,4.2-10.64l-3-12.17a9.84,9.84,0,0,0-8.69-7.44l-9.93-.88a8.23,8.23,0,0,1-6.4-4.13,88,88,0,0,0-11.91-16.14,8.23,8.23,0,0,1-2.07-7.33l2.08-9.74a9.84,9.84,0,0,0-4.56-10.48l-10.74-6.47a9.85,9.85,0,0,0-11.4.88l-7.64,6.4a8.22,8.22,0,0,1-7.44,1.6,88.08,88.08,0,0,0-19.84-3,8.24,8.24,0,0,1-6.65-3.72L1720.5,591a9.85,9.85,0,0,0-10.64-4.2l-12.17,3a9.84,9.84,0,0,0-7.44,8.68l-.88,9.93a8.25,8.25,0,0,1-4.13,6.41,88,88,0,0,0-16.14,11.91,8.25,8.25,0,0,1-7.33,2.06l-9.74-2.07a9.82,9.82,0,0,0-10.48,4.55L1635.08,642a9.85,9.85,0,0,0,.88,11.4l6.4,7.64a8.25,8.25,0,0,1,1.6,7.44,88,88,0,0,0-3,19.83,8.21,8.21,0,0,1-3.72,6.65l-8.36,5.43a9.85,9.85,0,0,0-4.2,10.64l3,12.17a9.83,9.83,0,0,0,8.68,7.43l9.93.88a8.26,8.26,0,0,1,6.41,4.14,87.59,87.59,0,0,0,11.91,16.13,8.26,8.26,0,0,1,2.06,7.33l-2.07,9.74a9.84,9.84,0,0,0,4.55,10.49l10.75,6.47a9.85,9.85,0,0,0,11.4-.89l7.63-6.39a8.25,8.25,0,0,1,7.45-1.61,87.45,87.45,0,0,0,19.83,3,8.21,8.21,0,0,1,6.65,3.72l5.43,8.36a9.87,9.87,0,0,0,10.64,4.2l12.17-3a9.83,9.83,0,0,0,7.43-8.69l.88-9.93a8.24,8.24,0,0,1,4.14-6.4,87.59,87.59,0,0,0,16.13-11.91,8.24,8.24,0,0,1,7.33-2.07l9.74,2.08a9.86,9.86,0,0,0,10.49-4.56l6.47-10.74A9.85,9.85,0,0,0,1822.88,729.55Zm-124.6,28a73,73,0,1,1,97.16-34.87A73,73,0,0,1,1698.28,757.5Z"/><path class="cls-52" d="M238.53,1388.63h-1.29a1.5,1.5,0,0,1,0-3h3a1.5,1.5,0,0,1,0,3Zm-8.28-.18h-.06c-1,0-2-.09-3-.15a1.5,1.5,0,0,1-1.41-1.59,1.52,1.52,0,0,1,1.58-1.41c1,.06,2,.11,3,.15a1.5,1.5,0,0,1-.07,3Zm17,0a1.5,1.5,0,0,1-.07-3c1,0,2-.09,3-.16a1.5,1.5,0,0,1,.19,3l-3,.16Zm-27-.66h-.14c-1-.09-2-.2-3-.31a1.5,1.5,0,0,1,.33-3l3,.3a1.5,1.5,0,0,1-.14,3Zm37-.06a1.5,1.5,0,0,1-.14-3l3-.31a1.5,1.5,0,1,1,.34,3l-3,.32Zm-46.87-1.14-.22,0c-1-.14-2-.3-3-.46a1.5,1.5,0,1,1,.48-3l2.94.45a1.5,1.5,0,0,1-.21,3Zm56.79-.11a1.5,1.5,0,0,1-.23-3l2.94-.47a1.5,1.5,0,1,1,.51,3l-3,.49Zm-66.64-1.61-.3,0c-1-.19-2-.4-2.95-.62a1.5,1.5,0,0,1-1.15-1.78,1.51,1.51,0,0,1,1.79-1.15c1,.21,1.93.42,2.91.61a1.5,1.5,0,0,1-.3,3Zm76.48-.18a1.5,1.5,0,0,1-.3-3c1-.2,1.95-.41,2.92-.63a1.5,1.5,0,0,1,.65,2.93l-3,.64A1.55,1.55,0,0,1,277,1384.67Zm-86.22-2.05a1.57,1.57,0,0,1-.37,0c-1-.25-1.95-.51-2.92-.78a1.5,1.5,0,1,1,.8-2.89l2.87.77a1.5,1.5,0,0,1-.38,2.95Zm96-.2a1.5,1.5,0,0,1-.37-3l2.89-.74a1.49,1.49,0,0,1,1.84,1.06,1.52,1.52,0,0,1-1.07,1.84c-1,.25-1.94.51-2.92.75A1.64,1.64,0,0,1,286.74,1382.42Zm-105.57-2.56a1.83,1.83,0,0,1-.46-.07l-2.87-.94a1.5,1.5,0,0,1,1-2.85l2.82.93a1.5,1.5,0,0,1,1,1.88A1.52,1.52,0,0,1,181.17,1379.86Zm115.22-.08a1.5,1.5,0,0,1-.42-2.94l2.86-.86a1.5,1.5,0,0,1,.88,2.87c-1,.3-1.93.59-2.89.87A1.65,1.65,0,0,1,296.39,1379.78Zm9.54-3a1.5,1.5,0,0,1-.47-2.92l2.82-1a1.5,1.5,0,0,1,1,2.84c-.94.33-1.9.65-2.85,1A1.61,1.61,0,0,1,305.93,1376.78Zm-134.19-.22a1.39,1.39,0,0,1-.53-.1c-1-.36-1.88-.73-2.81-1.11a1.5,1.5,0,0,1,1.12-2.78l2.76,1.09a1.49,1.49,0,0,1,.86,1.93A1.51,1.51,0,0,1,171.74,1376.56Zm143.62-3.13a1.5,1.5,0,0,1-.53-2.9l2.79-1.06a1.5,1.5,0,0,1,1.08,2.8l-2.82,1.07A1.58,1.58,0,0,1,315.36,1373.43Zm-152.83-.72a1.5,1.5,0,0,1-.61-.14c-.92-.41-1.84-.84-2.74-1.27a1.5,1.5,0,1,1,1.29-2.71c.89.43,1.78.84,2.69,1.25a1.5,1.5,0,0,1-.63,2.87Zm162.13-2.94a1.5,1.5,0,0,1-.58-2.89c.92-.37,1.84-.76,2.76-1.15a1.5,1.5,0,0,1,1.17,2.77l-2.78,1.16A1.44,1.44,0,0,1,324.66,1369.77Zm-171.08-1.47a1.46,1.46,0,0,1-.7-.18c-.89-.48-1.78-1-2.65-1.45a1.5,1.5,0,0,1,1.46-2.62c.86.48,1.73,1,2.6,1.42a1.5,1.5,0,0,1-.71,2.83Zm180.26-2.48a1.5,1.5,0,0,1-.62-2.87l2.72-1.23a1.5,1.5,0,1,1,1.25,2.72l-2.74,1.25A1.49,1.49,0,0,1,333.84,1365.82Zm-188.9-2.51a1.42,1.42,0,0,1-.79-.23q-1.29-.8-2.55-1.62a1.5,1.5,0,1,1,1.64-2.52l2.5,1.6a1.5,1.5,0,0,1-.8,2.77Zm198-1.71a1.5,1.5,0,0,1-.65-2.85l2.68-1.31a1.5,1.5,0,0,1,1.33,2.69l-2.71,1.32A1.51,1.51,0,0,1,342.89,1361.6Zm-206.23-3.86a1.54,1.54,0,0,1-.88-.29l-2.43-1.8a1.52,1.52,0,0,1-.28-2.11,1.5,1.5,0,0,1,2.1-.28c.79.59,1.58,1.18,2.38,1.76a1.5,1.5,0,0,1-.89,2.72Zm215.17-.6a1.51,1.51,0,0,1-.69-2.84c.89-.45,1.77-.91,2.65-1.37a1.5,1.5,0,0,1,1.4,2.66l-2.67,1.38A1.44,1.44,0,0,1,351.83,1357.14Zm8.83-4.68a1.5,1.5,0,0,1-.72-2.82c.87-.48,1.75-1,2.62-1.44a1.5,1.5,0,1,1,1.45,2.63l-2.63,1.45A1.57,1.57,0,0,1,360.66,1352.46Zm-231.85-.89a1.51,1.51,0,0,1-1-.35c-.77-.66-1.53-1.32-2.28-2a1.5,1.5,0,1,1,2-2.24c.74.65,1.48,1.3,2.23,1.94a1.5,1.5,0,0,1-1,2.64Zm240.57-4a1.5,1.5,0,0,1-.75-2.8c.87-.49,1.73-1,2.59-1.49a1.5,1.5,0,0,1,1.51,2.59l-2.61,1.5A1.42,1.42,0,0,1,369.38,1347.58Zm-247.92-2.76a1.53,1.53,0,0,1-1.06-.44c-.71-.71-1.42-1.43-2.12-2.16a1.5,1.5,0,0,1,2.17-2.08c.68.72,1.37,1.42,2.07,2.12a1.5,1.5,0,0,1,0,2.12A1.53,1.53,0,0,1,121.46,1344.82ZM378,1342.53a1.5,1.5,0,0,1-.77-2.78l2.56-1.55a1.5,1.5,0,0,1,1.55,2.57l-2.57,1.55A1.44,1.44,0,0,1,378,1342.53Zm-263.32-5a1.5,1.5,0,0,1-1.14-.53c-.66-.77-1.3-1.55-1.94-2.34a1.5,1.5,0,0,1,2.34-1.88q.93,1.15,1.89,2.28a1.52,1.52,0,0,1-.18,2.12A1.47,1.47,0,0,1,114.68,1337.48Zm271.85-.15a1.5,1.5,0,0,1-.79-2.77l2.54-1.59a1.5,1.5,0,0,1,1.59,2.54l-2.55,1.59A1.42,1.42,0,0,1,386.53,1337.33ZM395,1332a1.5,1.5,0,0,1-.81-2.76l2.51-1.62a1.5,1.5,0,1,1,1.64,2.52l-2.53,1.63A1.49,1.49,0,0,1,395,1332Zm-286.43-2.4a1.49,1.49,0,0,1-1.22-.63c-.59-.83-1.17-1.66-1.73-2.51a1.5,1.5,0,0,1,2.49-1.67c.55.82,1.11,1.64,1.68,2.44a1.5,1.5,0,0,1-1.22,2.37Zm294.81-3a1.48,1.48,0,0,1-1.25-.67,1.5,1.5,0,0,1,.42-2.08l2.5-1.65a1.5,1.5,0,0,1,1.66,2.5l-2.5,1.65A1.49,1.49,0,0,1,403.36,1326.54Zm-300.23-5.36a1.51,1.51,0,0,1-1.3-.75c-.51-.88-1-1.76-1.49-2.66a1.5,1.5,0,1,1,2.63-1.43c.47.87,1,1.73,1.46,2.58a1.51,1.51,0,0,1-1.3,2.26Zm308.55-.19a1.5,1.5,0,0,1-.84-2.74l2.48-1.68a1.5,1.5,0,0,1,1.68,2.49l-2.49,1.68A1.47,1.47,0,0,1,411.68,1321Zm8.26-5.62a1.5,1.5,0,0,1-.85-2.74l2.47-1.7a1.5,1.5,0,0,1,1.71,2.47l-2.48,1.7A1.48,1.48,0,0,1,419.94,1315.37ZM98.5,1312.31a1.5,1.5,0,0,1-1.36-.87c-.43-.91-.84-1.84-1.24-2.77a1.5,1.5,0,1,1,2.75-1.19c.39.91.79,1.81,1.21,2.7a1.5,1.5,0,0,1-.73,2A1.41,1.41,0,0,1,98.5,1312.31Zm329.67-2.63a1.5,1.5,0,0,1-.86-2.73l2.46-1.72a1.5,1.5,0,0,1,1.72,2.46l-2.46,1.72A1.51,1.51,0,0,1,428.17,1309.68Zm8.2-5.74a1.49,1.49,0,0,1-1.23-.64,1.51,1.51,0,0,1,.37-2.09l2.45-1.72a1.5,1.5,0,1,1,1.73,2.45l-2.46,1.73A1.51,1.51,0,0,1,436.37,1303.94Zm-341.67-.87a1.49,1.49,0,0,1-1.41-1q-.53-1.44-1-2.88a1.5,1.5,0,0,1,2.85-.94c.31.94.63,1.87,1,2.8a1.51,1.51,0,0,1-.9,1.92A1.52,1.52,0,0,1,94.7,1303.07Zm349.85-4.89a1.53,1.53,0,0,1-1.23-.64,1.51,1.51,0,0,1,.36-2.09l2.46-1.73a1.5,1.5,0,1,1,1.73,2.45l-2.46,1.73A1.45,1.45,0,0,1,444.55,1298.18Zm-352.81-4.66a1.49,1.49,0,0,1-1.45-1.12c-.26-1-.5-2-.73-3a1.5,1.5,0,1,1,2.92-.68c.23,1,.46,1.92.71,2.87a1.5,1.5,0,0,1-1.07,1.83A1.24,1.24,0,0,1,91.74,1293.52Zm361-1.12a1.47,1.47,0,0,1-1.22-.64,1.5,1.5,0,0,1,.36-2.09l2.45-1.73a1.5,1.5,0,1,1,1.73,2.45l-2.45,1.73A1.48,1.48,0,0,1,452.72,1292.4Zm8.18-5.78a1.49,1.49,0,0,1-.86-2.72l2.45-1.73a1.5,1.5,0,0,1,1.72,2.46l-2.45,1.72A1.44,1.44,0,0,1,460.9,1286.62Zm-371.27-2.87a1.51,1.51,0,0,1-1.48-1.25c-.17-1-.33-2-.47-3a1.5,1.5,0,0,1,3-.43c.14,1,.29,2,.46,2.93a1.5,1.5,0,0,1-1.22,1.73Zm379.45-2.87a1.5,1.5,0,0,1-.86-2.73l2.46-1.72a1.5,1.5,0,0,1,1.72,2.46l-2.46,1.72A1.51,1.51,0,0,1,469.08,1280.88Zm8.21-5.71a1.5,1.5,0,0,1-.86-2.74l2.47-1.7a1.5,1.5,0,1,1,1.71,2.46l-2.47,1.71A1.5,1.5,0,0,1,477.29,1275.17Zm-388.94-1.33a1.5,1.5,0,0,1-1.49-1.37c-.09-1-.17-2-.23-3a1.5,1.5,0,0,1,3-.19c.06,1,.14,2,.23,3a1.5,1.5,0,0,1-1.37,1.63Zm397.17-4.35a1.5,1.5,0,0,1-.85-2.74l2.47-1.7a1.5,1.5,0,0,1,1.7,2.48l-2.47,1.69A1.5,1.5,0,0,1,485.52,1269.49Zm-397.65-5.64a1.5,1.5,0,0,1-1.5-1.49c0-.42,0-.85,0-1.27,0-.59,0-1.18,0-1.76a1.54,1.54,0,0,1,1.52-1.48,1.5,1.5,0,0,1,1.48,1.52c0,.57,0,1.14,0,1.72,0,.41,0,.83,0,1.25a1.5,1.5,0,0,1-1.49,1.51Zm405.9,0a1.5,1.5,0,0,1-.85-2.74l2.48-1.69a1.5,1.5,0,1,1,1.69,2.48l-2.48,1.69A1.46,1.46,0,0,1,493.77,1263.84Zm8.27-5.61a1.5,1.5,0,0,1-.84-2.75l2.49-1.67a1.49,1.49,0,0,1,2.08.4,1.5,1.5,0,0,1-.4,2.08l-2.49,1.68A1.54,1.54,0,0,1,502,1258.23Zm-413.89-4.37h-.1a1.49,1.49,0,0,1-1.4-1.59c.07-1,.14-2,.23-3a1.5,1.5,0,0,1,3,.26c-.09,1-.16,2-.23,3A1.5,1.5,0,0,1,88.15,1253.86Zm422.19-1.21a1.52,1.52,0,0,1-1.25-.67,1.5,1.5,0,0,1,.42-2.08l2.49-1.67a1.5,1.5,0,0,1,1.67,2.5l-2.5,1.66A1.41,1.41,0,0,1,510.34,1252.65Zm8.32-5.55a1.5,1.5,0,0,1-.83-2.75l2.51-1.65a1.5,1.5,0,0,1,1.65,2.5l-2.5,1.65A1.47,1.47,0,0,1,518.66,1247.1Zm-429.51-3.19-.21,0a1.5,1.5,0,0,1-1.28-1.69c.13-1,.28-2,.44-3a1.5,1.5,0,1,1,3,.47c-.15,1-.29,2-.43,2.94A1.5,1.5,0,0,1,89.15,1243.91ZM527,1241.6a1.5,1.5,0,0,1-.83-2.76l2.51-1.65a1.5,1.5,0,0,1,1.65,2.51l-2.51,1.65A1.46,1.46,0,0,1,527,1241.6Zm8.37-5.48a1.51,1.51,0,0,1-1.26-.68,1.49,1.49,0,0,1,.44-2.07l2.52-1.64a1.5,1.5,0,0,1,1.63,2.52l-2.52,1.63A1.5,1.5,0,0,1,535.38,1236.12Zm-444.56-2.07-.3,0a1.51,1.51,0,0,1-1.17-1.78c.21-1,.42-2,.64-3a1.5,1.5,0,0,1,2.93.66q-.33,1.45-.63,2.91A1.5,1.5,0,0,1,90.82,1234.05Zm453-3.36a1.52,1.52,0,0,1-1.26-.69,1.49,1.49,0,0,1,.45-2.07l2.52-1.63a1.5,1.5,0,0,1,1.62,2.53l-2.52,1.62A1.5,1.5,0,0,1,543.77,1230.69Zm8.42-5.4a1.5,1.5,0,0,1-.81-2.76l2.53-1.62a1.5,1.5,0,1,1,1.61,2.53l-2.52,1.61A1.5,1.5,0,0,1,552.19,1225.29Zm-459.05-1a1.74,1.74,0,0,1-.39,0,1.52,1.52,0,0,1-1.06-1.85c.27-1,.54-1.94.83-2.91a1.5,1.5,0,0,1,2.88.84c-.28,1-.55,1.91-.81,2.86A1.5,1.5,0,0,1,93.14,1224.32Zm467.49-4.39a1.5,1.5,0,0,1-.8-2.77l2.54-1.6a1.5,1.5,0,1,1,1.6,2.54l-2.54,1.6A1.46,1.46,0,0,1,560.63,1219.93Zm-464.56-5.17a1.67,1.67,0,0,1-.49-.08,1.5,1.5,0,0,1-.93-1.91c.32-1,.65-1.91,1-2.86a1.5,1.5,0,1,1,2.82,1c-.34.93-.66,1.87-1,2.81A1.52,1.52,0,0,1,96.07,1214.76Zm473-.15a1.5,1.5,0,0,1-.8-2.77l2.55-1.59a1.5,1.5,0,1,1,1.59,2.54l-2.55,1.59A1.42,1.42,0,0,1,569.1,1214.61Zm8.49-5.28a1.48,1.48,0,0,1-1.27-.71,1.5,1.5,0,0,1,.48-2.07l2.56-1.57a1.5,1.5,0,1,1,1.57,2.55l-2.55,1.57A1.45,1.45,0,0,1,577.59,1209.33Zm-478-3.94a1.65,1.65,0,0,1-.57-.11,1.51,1.51,0,0,1-.82-2q.57-1.39,1.17-2.79a1.5,1.5,0,1,1,2.75,1.18c-.39.91-.77,1.83-1.14,2.75A1.5,1.5,0,0,1,99.57,1205.39Zm486.54-1.3a1.5,1.5,0,0,1-.78-2.78l2.56-1.57a1.5,1.5,0,1,1,1.56,2.56l-2.56,1.57A1.46,1.46,0,0,1,586.11,1204.09Zm8.54-5.2a1.5,1.5,0,0,1-.77-2.78l2.56-1.56a1.5,1.5,0,1,1,1.55,2.57l-2.56,1.55A1.46,1.46,0,0,1,594.65,1198.89Zm-491-2.64a1.51,1.51,0,0,1-1.36-2.15c.44-.91.88-1.82,1.33-2.72a1.5,1.5,0,0,1,2.69,1.34c-.45.89-.88,1.78-1.31,2.68A1.52,1.52,0,0,1,103.62,1196.25Zm499.6-2.52a1.5,1.5,0,0,1-.77-2.79l2.58-1.54a1.5,1.5,0,0,1,1.53,2.58l-2.57,1.54A1.54,1.54,0,0,1,603.22,1193.73Zm8.59-5.11a1.5,1.5,0,0,1-.76-2.8l2.58-1.52a1.5,1.5,0,1,1,1.53,2.58l-2.58,1.53A1.54,1.54,0,0,1,611.81,1188.62Zm-503.62-1.26a1.46,1.46,0,0,1-.72-.19,1.5,1.5,0,0,1-.59-2c.49-.88,1-1.76,1.49-2.63a1.5,1.5,0,0,1,2.6,1.5c-.49.86-1,1.72-1.46,2.59A1.52,1.52,0,0,1,108.19,1187.36Zm512.25-3.82a1.5,1.5,0,0,1-.76-2.79l2.59-1.52a1.5,1.5,0,0,1,1.51,2.6l-2.59,1.51A1.48,1.48,0,0,1,620.44,1183.54Zm-507.16-4.79a1.46,1.46,0,0,1-.8-.23,1.49,1.49,0,0,1-.47-2.06q.8-1.29,1.62-2.55a1.5,1.5,0,0,1,2.52,1.63l-1.6,2.51A1.48,1.48,0,0,1,113.28,1178.75Zm515.8-.24a1.49,1.49,0,0,1-.75-2.79l2.6-1.51a1.5,1.5,0,0,1,1.5,2.6l-2.6,1.5A1.46,1.46,0,0,1,629.08,1178.51Zm8.67-5a1.48,1.48,0,0,1-1.3-.76,1.5,1.5,0,0,1,.56-2l2.6-1.49a1.5,1.5,0,0,1,1.49,2.61l-2.61,1.48A1.42,1.42,0,0,1,637.75,1173.53Zm-518.95-3.11a1.44,1.44,0,0,1-.86-.27,1.5,1.5,0,0,1-.37-2.09l1.75-2.46a1.5,1.5,0,1,1,2.43,1.76c-.58.8-1.15,1.61-1.72,2.42A1.49,1.49,0,0,1,118.8,1170.42Zm527.65-1.83a1.5,1.5,0,0,1-.74-2.8l2.62-1.48a1.5,1.5,0,0,1,1.47,2.62l-2.61,1.47A1.54,1.54,0,0,1,646.45,1168.59Zm8.72-4.89a1.5,1.5,0,0,1-.73-2.81l2.62-1.46a1.5,1.5,0,0,1,2,.58,1.49,1.49,0,0,1-.58,2l-2.62,1.46A1.47,1.47,0,0,1,655.17,1163.7Zm-530.45-1.33a1.5,1.5,0,0,1-1.19-2.42l1.86-2.38a1.51,1.51,0,0,1,2.36,1.87c-.62.78-1.23,1.56-1.84,2.35A1.51,1.51,0,0,1,124.72,1162.37Zm539.2-3.52a1.5,1.5,0,0,1-.72-2.81l2.63-1.45a1.5,1.5,0,1,1,1.44,2.63l-2.63,1.45A1.54,1.54,0,0,1,663.92,1158.85ZM131,1154.59a1.51,1.51,0,0,1-1-.35,1.5,1.5,0,0,1-.18-2.12c.65-.77,1.3-1.53,2-2.29a1.5,1.5,0,0,1,2.27,2c-.65.75-1.3,1.51-1.94,2.27A1.51,1.51,0,0,1,131,1154.59Zm541.7-.53a1.5,1.5,0,0,1-.72-2.82l2.64-1.43a1.5,1.5,0,1,1,1.43,2.63l-2.64,1.43A1.43,1.43,0,0,1,672.7,1154.06Zm8.8-4.75a1.5,1.5,0,0,1-.71-2.83l2.64-1.41a1.5,1.5,0,1,1,1.42,2.64l-2.64,1.42A1.53,1.53,0,0,1,681.5,1149.31Zm-543.89-2.23a1.49,1.49,0,0,1-1.1-2.51c.68-.74,1.36-1.48,2.05-2.21a1.5,1.5,0,0,1,2.19,2.05l-2,2.19A1.51,1.51,0,0,1,137.61,1147.08Zm552.72-2.47a1.5,1.5,0,0,1-.71-2.83l2.66-1.4a1.5,1.5,0,0,1,1.4,2.65l-2.65,1.4A1.52,1.52,0,0,1,690.33,1144.61Zm8.85-4.66a1.5,1.5,0,0,1-.7-2.83l2.67-1.38a1.5,1.5,0,1,1,1.38,2.66l-2.66,1.38A1.44,1.44,0,0,1,699.18,1140Zm-554.67-.1a1.51,1.51,0,0,1-1.06-2.56c.7-.71,1.42-1.43,2.13-2.13a1.5,1.5,0,0,1,2.11,2.13l-2.11,2.11A1.48,1.48,0,0,1,144.51,1139.85Zm563.55-4.5a1.48,1.48,0,0,1-1.33-.81,1.5,1.5,0,0,1,.64-2l2.67-1.37a1.5,1.5,0,0,1,1.37,2.67l-2.66,1.37A1.55,1.55,0,0,1,708.06,1135.35Zm-556.39-2.49a1.5,1.5,0,0,1-1-2.59l2.21-2.06a1.5,1.5,0,0,1,2,2.21l-2.18,2A1.47,1.47,0,0,1,151.67,1132.86Zm565.3-2a1.5,1.5,0,0,1-.68-2.84l2.68-1.36a1.5,1.5,0,0,1,1.35,2.68l-2.67,1.35A1.52,1.52,0,0,1,717,1130.81Zm8.93-4.5a1.5,1.5,0,0,1-.67-2.84l2.69-1.34a1.5,1.5,0,1,1,1.33,2.68l-2.68,1.34A1.47,1.47,0,0,1,725.9,1126.31Zm-566.84-.19a1.47,1.47,0,0,1-1.12-.51,1.49,1.49,0,0,1,.13-2.11c.75-.67,1.51-1.33,2.27-2a1.5,1.5,0,0,1,2,2.27l-2.25,2A1.45,1.45,0,0,1,159.06,1126.12Zm575.8-4.25a1.5,1.5,0,0,1-.66-2.85l2.69-1.32a1.5,1.5,0,1,1,1.32,2.69l-2.69,1.32A1.43,1.43,0,0,1,734.86,1121.87Zm-568.21-2.26a1.51,1.51,0,0,1-1-2.66L168,1115a1.5,1.5,0,1,1,1.91,2.32l-2.31,1.9A1.51,1.51,0,0,1,166.65,1119.61Zm577.2-2.13a1.5,1.5,0,0,1-.66-2.85l2.7-1.31a1.5,1.5,0,1,1,1.31,2.7l-2.7,1.31A1.51,1.51,0,0,1,743.85,1117.48Zm-569.43-4.17a1.53,1.53,0,0,1-1.18-.57,1.51,1.51,0,0,1,.25-2.11l2.37-1.86a1.5,1.5,0,0,1,1.84,2.37l-2.35,1.84A1.49,1.49,0,0,1,174.42,1113.31Zm578.44-.17a1.5,1.5,0,0,1-.65-2.85l2.71-1.29a1.5,1.5,0,0,1,1.29,2.71L753.5,1113A1.45,1.45,0,0,1,752.86,1113.14Zm9-4.28a1.5,1.5,0,0,1-.64-2.85l2.72-1.28a1.5,1.5,0,0,1,1.27,2.72l-2.72,1.27A1.41,1.41,0,0,1,761.9,1108.86Zm-579.56-1.66a1.49,1.49,0,0,1-.9-2.69l2.41-1.81a1.5,1.5,0,0,1,1.79,2.41l-2.4,1.79A1.44,1.44,0,0,1,182.34,1107.2ZM771,1104.64a1.5,1.5,0,0,1-.63-2.86l2.73-1.26a1.51,1.51,0,0,1,2,.74,1.49,1.49,0,0,1-.74,2l-2.72,1.25A1.41,1.41,0,0,1,771,1104.64Zm-580.56-3.36a1.5,1.5,0,0,1-.88-2.72l2.45-1.75a1.5,1.5,0,0,1,1.74,2.45l-2.44,1.74A1.48,1.48,0,0,1,190.4,1101.28Zm589.65-.81a1.5,1.5,0,0,1-.62-2.86l2.74-1.24a1.5,1.5,0,1,1,1.23,2.73l-2.73,1.24A1.5,1.5,0,0,1,780.05,1100.47Zm9.12-4.1a1.5,1.5,0,0,1-.61-2.87l2.74-1.23a1.5,1.5,0,0,1,1.22,2.75l-2.74,1.22A1.63,1.63,0,0,1,789.17,1096.37Zm-590.6-.85a1.52,1.52,0,0,1-1.24-.65,1.5,1.5,0,0,1,.39-2.09l2.47-1.7a1.5,1.5,0,1,1,1.7,2.48l-2.47,1.69A1.5,1.5,0,0,1,198.57,1095.52Zm599.75-3.2a1.5,1.5,0,0,1-.61-2.88l2.75-1.2a1.5,1.5,0,1,1,1.2,2.75l-2.74,1.2A1.44,1.44,0,0,1,798.32,1092.32Zm9.16-4a1.5,1.5,0,0,1-.59-2.88l2.76-1.19a1.5,1.5,0,1,1,1.18,2.76l-2.75,1.18A1.44,1.44,0,0,1,807.48,1088.33Zm9.2-3.93a1.5,1.5,0,0,1-.59-2.88l2.77-1.17a1.5,1.5,0,1,1,1.16,2.76l-2.76,1.17A1.51,1.51,0,0,1,816.68,1084.4Zm9.22-3.87a1.5,1.5,0,0,1-.58-2.88l2.78-1.15a1.49,1.49,0,0,1,2,.81,1.51,1.51,0,0,1-.82,2l-2.76,1.15A1.7,1.7,0,0,1,825.9,1080.53Zm9.25-3.81a1.5,1.5,0,0,1-.57-2.88l2.78-1.14a1.5,1.5,0,0,1,1.13,2.78l-2.78,1.13A1.4,1.4,0,0,1,835.15,1076.72Zm9.27-3.74a1.5,1.5,0,0,1-.56-2.89l2.79-1.11a1.5,1.5,0,1,1,1.11,2.78l-2.79,1.11A1.35,1.35,0,0,1,844.42,1073Zm9.29-3.68a1.5,1.5,0,0,1-.54-2.9l2.79-1.09a1.5,1.5,0,0,1,1.09,2.8l-2.79,1.09A1.49,1.49,0,0,1,853.71,1069.3Zm9.33-3.61a1.5,1.5,0,0,1-.54-2.9l2.8-1.08a1.5,1.5,0,1,1,1.07,2.81l-2.8,1.07A1.66,1.66,0,0,1,863,1065.69Zm9.34-3.55a1.51,1.51,0,0,1-.53-2.91l2.81-1a1.5,1.5,0,1,1,1.05,2.81l-2.8,1A1.42,1.42,0,0,1,872.38,1062.14Zm9.37-3.49a1.5,1.5,0,0,1-.52-2.9l2.82-1a1.5,1.5,0,1,1,1,2.82l-2.81,1A1.58,1.58,0,0,1,881.75,1058.65Zm9.4-3.41a1.51,1.51,0,0,1-.51-2.92l2.83-1a1.5,1.5,0,1,1,1,2.83l-2.82,1A1.52,1.52,0,0,1,891.15,1055.24Zm9.42-3.35a1.5,1.5,0,0,1-.5-2.92l2.84-1a1.5,1.5,0,1,1,1,2.83l-2.82,1A1.51,1.51,0,0,1,900.57,1051.89Zm9.44-3.28a1.5,1.5,0,0,1-.48-2.92l2.84-1a1.5,1.5,0,0,1,1,2.84l-2.84,1A1.62,1.62,0,0,1,910,1048.61Zm9.47-3.21a1.5,1.5,0,0,1-.47-2.92l2.84-1a1.5,1.5,0,1,1,.95,2.84l-2.84,1A1.61,1.61,0,0,1,919.48,1045.4Zm9.5-3.14a1.5,1.5,0,0,1-.47-2.93l2.86-.92a1.5,1.5,0,0,1,.92,2.85l-2.85.93A1.47,1.47,0,0,1,929,1042.26Zm9.51-3.07a1.5,1.5,0,0,1-.45-2.93l2.86-.9a1.5,1.5,0,0,1,.9,2.86l-2.85.9A1.47,1.47,0,0,1,938.49,1039.19Zm9.54-3a1.5,1.5,0,0,1-.44-2.93l2.87-.89a1.5,1.5,0,0,1,.88,2.87l-2.86.88A1.41,1.41,0,0,1,948,1036.2Zm9.57-2.92a1.5,1.5,0,0,1-.44-2.94l2.88-.86a1.5,1.5,0,1,1,.86,2.87l-2.87.87A1.65,1.65,0,0,1,957.6,1033.28Zm9.58-2.85a1.5,1.5,0,0,1-.42-2.94l2.88-.84a1.5,1.5,0,0,1,.84,2.88l-2.88.84A1.52,1.52,0,0,1,967.18,1030.43Zm9.61-2.77a1.5,1.5,0,0,1-.41-2.94l2.89-.82a1.49,1.49,0,0,1,1.85,1,1.51,1.51,0,0,1-1,1.85l-2.88.81A1.51,1.51,0,0,1,976.79,1027.66Zm9.63-2.7a1.5,1.5,0,0,1-.4-2.94l2.9-.8a1.5,1.5,0,1,1,.79,2.89l-2.89.8A1.9,1.9,0,0,1,986.42,1025Zm9.65-2.62a1.5,1.5,0,0,1-.39-3l2.9-.77a1.5,1.5,0,1,1,.77,2.9l-2.89.77A1.74,1.74,0,0,1,996.07,1022.34Zm9.67-2.54a1.51,1.51,0,0,1-.38-3l2.91-.75a1.5,1.5,0,0,1,.75,2.91l-2.9.75A1.73,1.73,0,0,1,1005.74,1019.8Zm9.69-2.47a1.5,1.5,0,0,1-.36-3l2.91-.72a1.5,1.5,0,1,1,.72,2.91l-2.91.72A1.49,1.49,0,0,1,1015.43,1017.33Zm9.71-2.39a1.5,1.5,0,0,1-.35-3l2.92-.7a1.5,1.5,0,1,1,.7,2.91l-2.92.7A1.34,1.34,0,0,1,1025.14,1014.94Zm9.73-2.32a1.5,1.5,0,0,1-.34-3l2.93-.68a1.5,1.5,0,1,1,.67,2.93l-2.92.68A2,2,0,0,1,1034.87,1012.62Zm9.75-2.23a1.5,1.5,0,0,1-.33-3l2.93-.66a1.5,1.5,0,1,1,.65,2.93l-2.92.66Zm9.77-2.15a1.5,1.5,0,0,1-1.47-1.18,1.51,1.51,0,0,1,1.15-1.79l2.94-.63a1.5,1.5,0,0,1,.62,2.94l-2.93.63A1.63,1.63,0,0,1,1054.39,1008.24Zm9.78-2.07a1.5,1.5,0,0,1-.3-3l2.94-.61a1.5,1.5,0,1,1,.6,2.94l-2.93.61Zm9.8-2a1.5,1.5,0,0,1-.29-3l3-.58a1.5,1.5,0,0,1,.58,2.94l-3,.58A1.36,1.36,0,0,1,1074,1004.18Zm9.82-1.91a1.5,1.5,0,0,1-.28-3l3-.56a1.51,1.51,0,0,1,1.75,1.2,1.49,1.49,0,0,1-1.19,1.75l-3,.56Zm9.83-1.82a1.5,1.5,0,0,1-.26-3l3-.53a1.5,1.5,0,1,1,.52,2.95l-2.95.53A1.24,1.24,0,0,1,1093.62,1000.45Zm9.85-1.74a1.5,1.5,0,0,1-.25-3l3-.51a1.52,1.52,0,0,1,1.73,1.23,1.5,1.5,0,0,1-1.23,1.73l-3,.51Zm9.87-1.65a1.51,1.51,0,0,1-.24-3l3-.48a1.5,1.5,0,0,1,.48,3l-3,.48Zm9.87-1.57a1.5,1.5,0,0,1-.22-3l3-.45a1.5,1.5,0,0,1,.45,3l-3,.45Zm9.89-1.49a1.5,1.5,0,0,1-.21-3l3-.43a1.5,1.5,0,0,1,.43,3l-3,.43Zm9.91-1.39a1.5,1.5,0,0,1-.2-3l3-.4a1.5,1.5,0,0,1,.39,3l-3,.4Zm9.91-1.31a1.5,1.5,0,0,1-.18-3l3-.37a1.49,1.49,0,0,1,1.67,1.3,1.51,1.51,0,0,1-1.3,1.68l-3,.37Zm9.93-1.22a1.5,1.5,0,0,1-.17-3l3-.34a1.5,1.5,0,1,1,.34,3l-3,.34Zm9.94-1.12a1.5,1.5,0,0,1-.16-3l3-.32a1.5,1.5,0,0,1,.31,3l-3,.32Zm10-1a1.5,1.5,0,0,1-.15-3l3-.3a1.5,1.5,0,0,1,.29,3l-3,.29Zm10-.95a1.5,1.5,0,0,1-.13-3l3-.27a1.5,1.5,0,0,1,.27,3l-3,.27Zm182.76-.18h-.14l-3-.27a1.5,1.5,0,1,1,.26-3l3,.28a1.5,1.5,0,0,1-.14,3Zm-172.79-.67a1.5,1.5,0,0,1-.12-3l3-.23a1.5,1.5,0,0,1,1.62,1.37,1.52,1.52,0,0,1-1.38,1.62l-3,.23Zm162.83-.2h-.13l-3-.24a1.5,1.5,0,1,1,.23-3l3,.24a1.5,1.5,0,0,1-.12,3Zm-152.86-.56a1.5,1.5,0,0,1-.1-3l3-.21a1.52,1.52,0,0,1,1.6,1.4,1.48,1.48,0,0,1-1.39,1.59l-3,.21Zm142.89-.2h-.11l-3-.21a1.5,1.5,0,0,1,.2-3l3,.21a1.5,1.5,0,0,1-.1,3Zm-132.91-.47a1.5,1.5,0,0,1-.09-3l3-.18a1.5,1.5,0,0,1,.18,3l-3,.18Zm122.93-.19h-.09l-3-.17a1.52,1.52,0,0,1-1.42-1.59,1.49,1.49,0,0,1,1.59-1.41l3,.18a1.5,1.5,0,0,1-.09,3Zm-112.94-.38a1.5,1.5,0,0,1-.08-3l3-.15a1.5,1.5,0,0,1,.15,3l-3,.16Zm103-.18h-.07l-3-.15a1.5,1.5,0,0,1-1.42-1.57,1.52,1.52,0,0,1,1.57-1.42l3,.14a1.51,1.51,0,0,1,1.42,1.58A1.5,1.5,0,0,1,1335.55,983.94Zm-93-.3a1.5,1.5,0,0,1-.07-3l3-.13a1.47,1.47,0,0,1,1.56,1.44,1.49,1.49,0,0,1-1.44,1.56l-3,.12Zm83-.15h-.06l-3-.12a1.49,1.49,0,0,1-1.44-1.55,1.47,1.47,0,0,1,1.55-1.44l3,.11a1.5,1.5,0,0,1-.06,3Zm-73-.23a1.5,1.5,0,0,1,0-3l3-.1a1.5,1.5,0,1,1,.09,3l-3,.09Zm63-.12h0l-3-.08a1.5,1.5,0,1,1,.08-3l3,.08a1.5,1.5,0,0,1,0,3Zm-53-.16a1.5,1.5,0,0,1,0-3l3-.06a1.5,1.5,0,0,1,.06,3l-3,.06Zm43-.08h0l-3-.06a1.5,1.5,0,0,1-1.48-1.52,1.54,1.54,0,0,1,1.53-1.48l3,.06a1.49,1.49,0,0,1,1.47,1.52A1.51,1.51,0,0,1,1305.57,982.9Zm-33-.1a1.5,1.5,0,0,1,0-3l3,0h0a1.5,1.5,0,0,1,0,3l-3,0Zm23,0h0l-3,0a1.5,1.5,0,0,1,0-3h0l3,0a1.5,1.5,0,0,1,0,3Zm-13,0a1.5,1.5,0,1,1,0-3h3a1.5,1.5,0,0,1,0,3h-3Z"/><polygon class="cls-12" points="1415.57 964.56 1406.98 991.06 1428.62 985.48 1415.57 964.56"/><path class="cls-2" d="M1539.65,988l-91.89,39.58a7.07,7.07,0,0,1-9.37-3.93l-36.26-93.76a2.83,2.83,0,0,1,3.82-3.59Z"/><polygon class="cls-12" points="1415.58 964.57 1539.65 987.96 1421.38 979.72 1418.69 986.96 1415.58 964.57"/><polygon class="cls-12" points="1424.89 988.67 1406.98 991.06 1421.38 979.72 1424.89 988.67"/></g></g></svg>