<svg xmlns="http://www.w3.org/2000/svg" viewBox="0 0 624.83 396.81"><defs><style>.cls-1{opacity:0.56;}.cls-2{fill:#9595e7;}.cls-3{fill:#d6d0c4;}.cls-4{fill:#ffd563;}.cls-5{fill:#e8e8e8;}.cls-6{fill:#090909;}.cls-7{fill:#fff;}.cls-8{fill:#766ccc;}.cls-9{fill:#5353b8;}.cls-10{fill:#f4f2ed;}.cls-11{fill:#29297f;}.cls-12{fill:#d96448;}.cls-13{fill:#bb432a;}.cls-14{fill:#0b1126;}.cls-15{fill:#ff9278;}.cls-16{fill:#ff6a48;}.cls-17{fill:#d3a739;}.cls-18{fill:#121936;}</style></defs><g id="Layer_2" data-name="Layer 2"><g id="BACKGROUND"><g class="cls-1"><path class="cls-2" d="M520.63,377.45H508.08a6.85,6.85,0,0,1-6.85-6.85V354.33a66.36,66.36,0,0,1-24.1-10l-11.51,11.51a6.86,6.86,0,0,1-9.69,0L447.06,347a6.84,6.84,0,0,1,0-9.69l11.51-11.51a66.29,66.29,0,0,1-10-24.1H432.31a6.85,6.85,0,0,1-6.85-6.85V282.28a6.85,6.85,0,0,1,6.85-6.85h16.27a66.29,66.29,0,0,1,10-24.1l-11.51-11.51a6.86,6.86,0,0,1,0-9.69l8.87-8.87a6.86,6.86,0,0,1,9.69,0l11.51,11.51a66.36,66.36,0,0,1,24.1-10V206.51a6.85,6.85,0,0,1,6.85-6.85h12.55a6.85,6.85,0,0,1,6.85,6.85v16.27a66.41,66.41,0,0,1,24.11,10l11.5-11.51a6.84,6.84,0,0,1,9.69,0l8.87,8.87a6.86,6.86,0,0,1,0,9.69l-11.51,11.51a66.12,66.12,0,0,1,10,24.1H596.4a6.85,6.85,0,0,1,6.85,6.85v12.55a6.85,6.85,0,0,1-6.85,6.85H580.13a66.12,66.12,0,0,1-10,24.1l11.51,11.51a6.86,6.86,0,0,1,0,9.69l-8.87,8.87a6.84,6.84,0,0,1-9.69,0l-11.5-11.51a66.41,66.41,0,0,1-24.11,10V370.6A6.85,6.85,0,0,1,520.63,377.45ZM477,342.05a1,1,0,0,1,.57.18,64.47,64.47,0,0,0,24.84,10.29,1,1,0,0,1,.82,1v17.1a4.85,4.85,0,0,0,4.85,4.85h12.55a4.85,4.85,0,0,0,4.85-4.85V353.5a1,1,0,0,1,.82-1,64.41,64.41,0,0,0,24.84-10.29,1,1,0,0,1,1.28.12l12.09,12.09a4.84,4.84,0,0,0,6.85,0l8.88-8.88a4.85,4.85,0,0,0,0-6.85l-12.09-12.1a1,1,0,0,1-.12-1.27,64.47,64.47,0,0,0,10.29-24.84,1,1,0,0,1,1-.82h17.1a4.85,4.85,0,0,0,4.85-4.85V282.28a4.85,4.85,0,0,0-4.85-4.85H579.3a1,1,0,0,1-1-.82A64.47,64.47,0,0,0,568,251.77a1,1,0,0,1,.12-1.27l12.09-12.1a4.85,4.85,0,0,0,0-6.85l-8.88-8.88a4.84,4.84,0,0,0-6.85,0l-12.09,12.09a1,1,0,0,1-1.28.12,64.41,64.41,0,0,0-24.84-10.29,1,1,0,0,1-.82-1v-17.1a4.85,4.85,0,0,0-4.85-4.85H508.08a4.85,4.85,0,0,0-4.85,4.85v17.1a1,1,0,0,1-.82,1,64.47,64.47,0,0,0-24.84,10.29,1,1,0,0,1-1.27-.12l-12.1-12.09a4.85,4.85,0,0,0-6.85,0l-8.88,8.88a4.85,4.85,0,0,0,0,6.85l12.09,12.1a1,1,0,0,1,.12,1.27,64.47,64.47,0,0,0-10.29,24.84,1,1,0,0,1-1,.82h-17.1a4.85,4.85,0,0,0-4.85,4.85v12.55a4.85,4.85,0,0,0,4.85,4.85h17.1a1,1,0,0,1,1,.82,64.47,64.47,0,0,0,10.29,24.84,1,1,0,0,1-.12,1.27l-12.09,12.1a4.84,4.84,0,0,0,0,6.85l8.88,8.88a4.85,4.85,0,0,0,6.85,0l12.1-12.09A1,1,0,0,1,477,342.05Zm37.35-18.55a34.95,34.95,0,1,1,34.95-34.94A35,35,0,0,1,514.35,323.5Zm0-67.89a32.95,32.95,0,1,0,32.95,32.95A33,33,0,0,0,514.35,255.61Z"/><path class="cls-2" d="M95.53,359.63H83a6.85,6.85,0,0,1-6.85-6.84V336.51a66.39,66.39,0,0,1-24.11-10L40.52,338a6.86,6.86,0,0,1-9.69,0L22,329.16a6.86,6.86,0,0,1,0-9.69L33.46,308a66.39,66.39,0,0,1-10-24.11H7.2A6.85,6.85,0,0,1,.36,277V264.46a6.86,6.86,0,0,1,6.84-6.85H23.48a66.34,66.34,0,0,1,10-24.1L22,222a6.84,6.84,0,0,1,0-9.69l8.87-8.87a6.86,6.86,0,0,1,9.69,0L52,215a66.22,66.22,0,0,1,24.11-10V188.69A6.85,6.85,0,0,1,83,181.84H95.53a6.85,6.85,0,0,1,6.85,6.85V205a66.17,66.17,0,0,1,24.1,10L138,203.44a6.84,6.84,0,0,1,9.69,0l8.87,8.87a6.84,6.84,0,0,1,0,9.69L145,233.51a66.17,66.17,0,0,1,10,24.1H171.3a6.86,6.86,0,0,1,6.85,6.85V277a6.85,6.85,0,0,1-6.85,6.85H155A66.14,66.14,0,0,1,145,308l11.51,11.5a6.86,6.86,0,0,1,0,9.69L147.68,338a6.84,6.84,0,0,1-9.69,0l-11.51-11.5a66.34,66.34,0,0,1-24.1,10v16.28A6.85,6.85,0,0,1,95.53,359.63ZM51.9,324.23a1,1,0,0,1,.57.18A64.41,64.41,0,0,0,77.31,334.7a1,1,0,0,1,.82,1v17.11A4.85,4.85,0,0,0,83,357.63H95.53a4.85,4.85,0,0,0,4.85-4.84V335.68a1,1,0,0,1,.81-1A64.51,64.51,0,0,0,126,324.41a1,1,0,0,1,1.27.12l12.1,12.09a4.84,4.84,0,0,0,6.85,0l8.88-8.88a4.85,4.85,0,0,0,0-6.85L143,308.8a1,1,0,0,1-.11-1.28,64.41,64.41,0,0,0,10.29-24.84,1,1,0,0,1,1-.82h17.1a4.85,4.85,0,0,0,4.85-4.85V264.46a4.85,4.85,0,0,0-4.85-4.85H154.2a1,1,0,0,1-1-.81A64.51,64.51,0,0,0,142.93,234a1,1,0,0,1,.11-1.27l12.1-12.1a4.84,4.84,0,0,0,0-6.85l-8.88-8.88a4.84,4.84,0,0,0-6.85,0L127.31,217a1,1,0,0,1-1.27.11,64.51,64.51,0,0,0-24.85-10.29,1,1,0,0,1-.81-1v-17.1a4.85,4.85,0,0,0-4.85-4.85H83a4.85,4.85,0,0,0-4.85,4.85v17.1a1,1,0,0,1-.82,1,64.41,64.41,0,0,0-24.84,10.29,1,1,0,0,1-1.28-.11L39.1,204.85a4.85,4.85,0,0,0-6.85,0l-8.88,8.88a4.84,4.84,0,0,0,0,6.85l12.09,12.1a1,1,0,0,1,.12,1.27A64.51,64.51,0,0,0,25.29,258.8a1,1,0,0,1-1,.81H7.2a4.85,4.85,0,0,0-4.84,4.85V277a4.85,4.85,0,0,0,4.84,4.85H24.31a1,1,0,0,1,1,.82,64.41,64.41,0,0,0,10.29,24.84,1,1,0,0,1-.12,1.28L23.37,320.89a4.85,4.85,0,0,0,0,6.85l8.88,8.88a4.85,4.85,0,0,0,6.85,0l12.09-12.09A1,1,0,0,1,51.9,324.23Zm37.35-18.55a34.95,34.95,0,1,1,35-34.94A35,35,0,0,1,89.25,305.68Zm0-67.89a32.95,32.95,0,1,0,33,33A33,33,0,0,0,89.25,237.79Z"/><path class="cls-3" d="M151.87,201a4.42,4.42,0,0,1-4.3-3.44l-2-8.91a38.66,38.66,0,0,1-14.44-2.52l-4.89,7.7a4.4,4.4,0,0,1-6.07,1.36L114,191.29a4.4,4.4,0,0,1-1.36-6.07l4.89-7.7a38.91,38.91,0,0,1-8.43-12l-8.9,2A4.39,4.39,0,0,1,95,164.18l-1.6-7.13a4.4,4.4,0,0,1,3.34-5.25l8.9-2a38.87,38.87,0,0,1,2.52-14.44l-7.7-4.89a4.39,4.39,0,0,1-1.36-6.07l3.91-6.17a4.41,4.41,0,0,1,6.08-1.35l7.7,4.89a39,39,0,0,1,12-8.43l-2-8.9a4.41,4.41,0,0,1,3.34-5.26l7.12-1.59a4.36,4.36,0,0,1,3.32.58,4.41,4.41,0,0,1,1.94,2.75l2,8.91a39,39,0,0,1,14.44,2.52l4.88-7.7a4.4,4.4,0,0,1,6.08-1.36l6.16,3.91a4.4,4.4,0,0,1,1.36,6.07L172.5,121a38.91,38.91,0,0,1,8.43,12l8.9-2a4.4,4.4,0,0,1,3.32.58,4.35,4.35,0,0,1,1.93,2.76l1.6,7.12a4.41,4.41,0,0,1-3.34,5.25l-8.9,2a39.07,39.07,0,0,1-2.52,14.44l7.7,4.89a4.4,4.4,0,0,1,1.36,6.07l-3.92,6.17a4.4,4.4,0,0,1-6.07,1.35l-7.7-4.88a39.13,39.13,0,0,1-12,8.42l2,8.91a4.39,4.39,0,0,1-3.33,5.25l-7.12,1.59A4.56,4.56,0,0,1,151.87,201Zm-5.49-14.37a1,1,0,0,1,1,.78l2.17,9.71a2.41,2.41,0,0,0,2.87,1.82l7.12-1.59a2.39,2.39,0,0,0,1.82-2.87l-2.17-9.7a1,1,0,0,1,.59-1.14,37,37,0,0,0,12.65-8.89,1,1,0,0,1,1.27-.16l8.39,5.33a2.42,2.42,0,0,0,3.32-.75l3.91-6.16a2.41,2.41,0,0,0-.74-3.31l-8.4-5.33a1,1,0,0,1-.39-1.22,37.07,37.07,0,0,0,2.66-15.23,1,1,0,0,1,.78-1l9.7-2.17a2.4,2.4,0,0,0,1.82-2.87l-1.59-7.12a2.4,2.4,0,0,0-2.86-1.82h0l-9.71,2.17a1,1,0,0,1-1.14-.58,37,37,0,0,0-8.89-12.65,1,1,0,0,1-.16-1.27l5.33-8.4a2.4,2.4,0,0,0-.74-3.31L168.8,105a2.36,2.36,0,0,0-1.81-.32,2.42,2.42,0,0,0-1.51,1.06l-5.33,8.39a1,1,0,0,1-1.21.4,37,37,0,0,0-15.24-2.66,1,1,0,0,1-1-.78l-2.17-9.71a2.4,2.4,0,0,0-2.86-1.82l-7.13,1.59a2.4,2.4,0,0,0-1.81,2.87l2.16,9.71a1,1,0,0,1-.58,1.13,37,37,0,0,0-12.65,8.89,1,1,0,0,1-1.27.16L108,118.58a2.37,2.37,0,0,0-1.81-.32,2.42,2.42,0,0,0-1.51,1.06l-3.91,6.16a2.41,2.41,0,0,0,.74,3.31l8.4,5.33a1,1,0,0,1,.39,1.22,37.07,37.07,0,0,0-2.66,15.23,1,1,0,0,1-.78,1l-9.71,2.17a2.42,2.42,0,0,0-1.82,2.87l1.6,7.12a2.4,2.4,0,0,0,2.86,1.82l9.71-2.17a1,1,0,0,1,1.14.58,37,37,0,0,0,8.89,12.66,1,1,0,0,1,.16,1.26l-5.33,8.4a2.4,2.4,0,0,0,.74,3.31l6.16,3.91a2.41,2.41,0,0,0,3.32-.74l5.32-8.39a1,1,0,0,1,1.22-.39,36.92,36.92,0,0,0,15.23,2.65ZM190.05,132h0Zm-45,38a20.74,20.74,0,1,1,4.53-.5h0A20.75,20.75,0,0,1,145,170Zm0-39.48a19.12,19.12,0,0,0-4.09.45,18.74,18.74,0,0,0,8.17,36.58h0a18.74,18.74,0,0,0-4.08-37Z"/><path class="cls-3" d="M483.27,201.09a4.4,4.4,0,0,1-4.29-3.44l-2-8.9a38.9,38.9,0,0,1-14.44-2.52l-4.89,7.7a4.4,4.4,0,0,1-6.07,1.36l-6.17-3.91a4.42,4.42,0,0,1-1.35-6.08l4.89-7.7a39,39,0,0,1-8.43-12l-8.91,2a4.41,4.41,0,0,1-5.25-3.34l-1.59-7.12a4.36,4.36,0,0,1,.58-3.32,4.41,4.41,0,0,1,2.75-1.94l8.91-2a39,39,0,0,1,2.52-14.45l-7.7-4.88a4.4,4.4,0,0,1-1.36-6.08l3.91-6.16a4.4,4.4,0,0,1,6.07-1.36l7.7,4.89a38.91,38.91,0,0,1,12-8.43l-2-8.9a4.4,4.4,0,0,1,3.34-5.25l7.12-1.6a4.41,4.41,0,0,1,5.25,3.34l2,8.9a38.73,38.73,0,0,1,14.44,2.52l4.89-7.7a4.4,4.4,0,0,1,6.07-1.35l6.17,3.91a4.4,4.4,0,0,1,1.35,6.07l-4.88,7.7a39.05,39.05,0,0,1,8.42,12l8.91-2h0a4.4,4.4,0,0,1,5.25,3.33l1.59,7.12a4.41,4.41,0,0,1-3.33,5.26l-8.91,2a38.94,38.94,0,0,1-2.52,14.44l7.7,4.89a4.4,4.4,0,0,1,1.36,6.07l-3.91,6.16a4.4,4.4,0,0,1-6.07,1.36l-7.7-4.89a38.91,38.91,0,0,1-12,8.43l2,8.9a4.36,4.36,0,0,1-.58,3.32,4.4,4.4,0,0,1-2.76,1.94L484.23,201A4.47,4.47,0,0,1,483.27,201.09Zm-5.48-14.36a1,1,0,0,1,1,.78l2.17,9.71A2.41,2.41,0,0,0,483.8,199l7.12-1.6a2.4,2.4,0,0,0,1.82-2.86l-2.17-9.71a1,1,0,0,1,.58-1.14,37.06,37.06,0,0,0,12.66-8.88,1,1,0,0,1,1.26-.17l8.4,5.33a2.4,2.4,0,0,0,3.31-.74l3.91-6.16a2.39,2.39,0,0,0-.74-3.31l-8.39-5.33a1,1,0,0,1-.39-1.22A37.09,37.09,0,0,0,513.82,148a1,1,0,0,1,.78-1l9.71-2.16a2.41,2.41,0,0,0,1.82-2.87l-1.59-7.12a2.4,2.4,0,0,0-2.87-1.82L512,135.2a1,1,0,0,1-1.14-.59A37,37,0,0,0,501.94,122a1,1,0,0,1-.16-1.27l5.32-8.39a2.4,2.4,0,0,0-.74-3.32l-6.16-3.91a2.41,2.41,0,0,0-3.31.74l-5.33,8.4a1,1,0,0,1-1.22.39,37,37,0,0,0-15.23-2.66,1,1,0,0,1-1-.78l-2.17-9.7a2.4,2.4,0,0,0-2.87-1.82l-7.12,1.59a2.4,2.4,0,0,0-1.82,2.86l2.17,9.71a1,1,0,0,1-.58,1.14,37,37,0,0,0-12.65,8.89,1,1,0,0,1-1.27.16l-8.4-5.33a2.41,2.41,0,0,0-3.31.74l-3.91,6.16a2.37,2.37,0,0,0-.32,1.81,2.42,2.42,0,0,0,1.06,1.51l8.39,5.33a1,1,0,0,1,.39,1.21A37.1,37.1,0,0,0,439,150.66a1,1,0,0,1-.78,1l-9.71,2.17a2.4,2.4,0,0,0-1.82,2.86l1.59,7.13a2.4,2.4,0,0,0,2.87,1.81l9.7-2.16a1,1,0,0,1,1.14.58,37,37,0,0,0,8.89,12.65,1,1,0,0,1,.17,1.27l-5.33,8.39a2.41,2.41,0,0,0,.74,3.32l6.16,3.91a2.4,2.4,0,0,0,3.31-.74l5.33-8.4a1,1,0,0,1,1.22-.39,37.07,37.07,0,0,0,15.23,2.66Zm-1.36-16.65a20.75,20.75,0,1,1,4.52-.5h0A21.22,21.22,0,0,1,476.43,170.08Zm0-39.48a18.5,18.5,0,0,0-4.09.45,18.74,18.74,0,1,0,8.18,36.57h0a18.74,18.74,0,0,0-4.09-37Z"/><circle class="cls-2" cx="541.82" cy="158.88" r="2.71"/><path class="cls-2" d="M624.83,127.81a1.36,1.36,0,1,1-1.36-1.36A1.36,1.36,0,0,1,624.83,127.81Z"/><path class="cls-2" d="M545.89,95.41a1.36,1.36,0,1,1-1.36-1.36A1.35,1.35,0,0,1,545.89,95.41Z"/><path class="cls-2" d="M527,386.29a1.36,1.36,0,1,1-1.36-1.35A1.36,1.36,0,0,1,527,386.29Z"/><path class="cls-2" d="M427.28,1.36A1.36,1.36,0,1,1,425.92,0,1.35,1.35,0,0,1,427.28,1.36Z"/><path class="cls-2" d="M311.69,201.66a1.36,1.36,0,1,1-1.35-1.36A1.35,1.35,0,0,1,311.69,201.66Z"/><path class="cls-2" d="M383.28,62.88a1.36,1.36,0,1,1-1.36-1.36A1.36,1.36,0,0,1,383.28,62.88Z"/><path class="cls-2" d="M138.05,69.26a1.36,1.36,0,1,1-1.36-1.36A1.35,1.35,0,0,1,138.05,69.26Z"/><path class="cls-4" d="M582.75,198a2.71,2.71,0,1,1-2.71-2.71A2.71,2.71,0,0,1,582.75,198Z"/><circle class="cls-4" cx="288.47" cy="5.43" r="2.71"/><circle class="cls-4" cx="344.59" cy="160.37" r="2.71"/><path class="cls-4" d="M558,337.78a2.71,2.71,0,1,1-2.71-2.71A2.71,2.71,0,0,1,558,337.78Z"/><circle class="cls-5" cx="325.25" cy="44.91" r="2.71"/><circle class="cls-5" cx="594.04" cy="94.94" r="2.11"/><circle class="cls-5" cx="567.38" cy="368.58" r="2.11"/><path class="cls-4" d="M427.11,50.72a2.11,2.11,0,1,1-2.1-2.11A2.1,2.1,0,0,1,427.11,50.72Z"/><circle class="cls-6" cx="588.32" cy="155.45" r="1.5"/><circle class="cls-2" cx="68.25" cy="149.06" r="2.71"/><path class="cls-2" d="M0,97.85a1.35,1.35,0,0,0,1.06,1.59,1.36,1.36,0,0,0,1.6-1.06,1.37,1.37,0,0,0-1.07-1.6A1.35,1.35,0,0,0,0,97.85Z"/><path class="cls-4" d="M19.54,179.48a2.71,2.71,0,1,0,3.19-2.12A2.71,2.71,0,0,0,19.54,179.48Z"/><path class="cls-5" d="M68.9,91.63A2.1,2.1,0,1,0,71.38,90,2.11,2.11,0,0,0,68.9,91.63Z"/><path class="cls-6" d="M24.83,125.23a1.5,1.5,0,1,0,1.77-1.17A1.51,1.51,0,0,0,24.83,125.23Z"/><path class="cls-6" d="M348.07,10.84a1.49,1.49,0,1,0,1.76-1.17A1.49,1.49,0,0,0,348.07,10.84Z"/><path class="cls-6" d="M343.12,209.45a1.5,1.5,0,0,0,2.94.6,1.52,1.52,0,0,0-1.18-1.77A1.49,1.49,0,0,0,343.12,209.45Z"/><path class="cls-6" d="M511.39,338.23a1.5,1.5,0,0,0,2.94.6,1.52,1.52,0,0,0-1.18-1.77A1.49,1.49,0,0,0,511.39,338.23Z"/></g></g><g id="OBJECTS"><path class="cls-2" d="M319.2,156.4a20.49,20.49,0,0,0-34.6-5.14l-7.35-1.13,3.9,7.06a20.49,20.49,0,1,0,38.05-.79Z"/><path class="cls-7" d="M310.22,172.39H290.73a.5.5,0,0,1-.5-.5.5.5,0,0,1,.5-.5h19.49a.5.5,0,0,1,.5.5A.5.5,0,0,1,310.22,172.39Z"/><path class="cls-7" d="M310.22,165.84H290.73a.5.5,0,0,1-.5-.5.5.5,0,0,1,.5-.5h19.49a.5.5,0,0,1,.5.5A.5.5,0,0,1,310.22,165.84Z"/><path class="cls-7" d="M310.22,158.74H290.73a.5.5,0,0,1,0-1h19.49a.5.5,0,0,1,0,1Z"/><path class="cls-8" d="M289.23,105.46A36.6,36.6,0,0,0,348,126.61l12.47,4.54-4.35-13.72a36.58,36.58,0,1,0-66.88-12Z"/><path class="cls-7" d="M323.68,119h-1.26a5.59,5.59,0,0,1,0-11.16h1.26a5.59,5.59,0,0,1,0,11.16Zm-1.26-10.16a4.59,4.59,0,0,0,0,9.16h1.26a4.59,4.59,0,0,0,0-9.16Zm2.05-3.4h-.08a7.08,7.08,0,0,1-2.87-.52c-1.95-.86-2.37-2.61-2.6-4.19L318.05,95a.53.53,0,0,1,.12-.4l.48-.54a.51.51,0,0,1,.34-.17c3.37-.27,5.75-.8,7.08-1.58a3.09,3.09,0,0,0,1.84-2.76,2.37,2.37,0,0,0-1-2c-2.11-1.58-4.39-.74-6.82.15a11.2,11.2,0,0,1-5.31,1,5.24,5.24,0,0,1-4.4-6.12A6.88,6.88,0,0,1,313.89,78c3.74-2.19,8.38-2.52,10.82-2.52a20.71,20.71,0,0,1,6.19.89A14.78,14.78,0,0,1,335.79,79,11.82,11.82,0,0,1,339,83.07a14.12,14.12,0,0,1,.22,10.67,11.28,11.28,0,0,1-2.57,3.7,13.78,13.78,0,0,1-3.81,2.51,21.13,21.13,0,0,1-4,1.14l-.87.19c0,.16,0,.34,0,.52,0,.36,0,.7,0,.77a2.58,2.58,0,0,1-1.14,2.34A4.61,4.61,0,0,1,324.47,105.45Zm-5.39-10.4.83,5.55c.26,1.71.67,2.82,2,3.41a6.26,6.26,0,0,0,2.48.44,3.79,3.79,0,0,0,1.94-.4c.45-.27.63-.67.66-1.52,0-.07,0-.37,0-.68-.06-1.22-.07-1.35.35-1.45l1.28-.29A21.21,21.21,0,0,0,332.43,99,13.1,13.1,0,0,0,336,96.71a10.13,10.13,0,0,0,2.33-3.36,11.71,11.71,0,0,0,.86-4.68,11.85,11.85,0,0,0-1.06-5.17,10.73,10.73,0,0,0-3-3.77,13.51,13.51,0,0,0-4.55-2.4,19.73,19.73,0,0,0-5.89-.84c-2.34,0-6.78.31-10.32,2.39a5.91,5.91,0,0,0-3,3.84,4.35,4.35,0,0,0,.73,3.23A4.3,4.3,0,0,0,315,87.67a10.32,10.32,0,0,0,4.82-1c2.56-.94,5.22-1.91,7.76,0a3.34,3.34,0,0,1,1.36,2.83,4.11,4.11,0,0,1-2.34,3.63c-1.45.85-3.84,1.4-7.3,1.69Z"/><path class="cls-9" d="M151.5,169.6,167,168.07l51,19.13,22.85-6.63c3,1,5.76,2,8.22,2.92,0-.26,15.17,5.21,16,5.58,11.38,4.93,22.21,11.59,31,20.37a64.71,64.71,0,0,1,19.17,39.26c1,10.21-.71,20.64-.9,30.91q-.33,17.34-.24,34.69.18,34.69,2,69.35a9,9,0,0,1-.53,4.56c-2.26,4.52-23.63,5.58-28.13,5.74-10.18.37-163.94,0-167,0l-4-119.3s-39.63-25-39.6-25.87.07-1.64.12-2.45C79.37,206,111.28,173.57,151.5,169.6Z"/><rect class="cls-10" x="189.02" y="201.85" width="53.43" height="192.25"/><path class="cls-11" d="M267.46,279.36a.5.5,0,0,1-.5-.5V246.69a.5.5,0,0,1,1,0v32.17A.5.5,0,0,1,267.46,279.36Z"/><path class="cls-12" d="M268.24,71.83c-3.35-10.68-14.3-9.32-20-7.81a29.27,29.27,0,0,0-3.45,1.14c-4.53-.54-16.6-8.44-22.57-12.5l-.57-.4c-1.76-1.2-2.87-2-2.87-2L217.2,80.78s-4.49,13.08-7.4,11.41a14.29,14.29,0,0,0-6.53-1.92l-12.15-.56-6.45-.29a14.44,14.44,0,0,0-3.74.32,14.63,14.63,0,0,0-11.44,13.52l-.05,1.16A15.9,15.9,0,0,0,184.54,121l2.82.13-16,48.76c-4.24,14.75,7.85,27.31,22.83,31.61l.62.18c15,4.3,30.71-4.25,34.94-19l5.74-20c17.8-1.51,31.91-16.8,32.13-35.62l.61-51.45Z"/><path class="cls-13" d="M235.19,163.26s-30.43-6.14-32.79-18.11h0s-7.14,21.1,27,38.71Z"/><polygon class="cls-14" points="182.77 135.1 195.26 121.11 187.36 121.11 182.77 135.1"/><path class="cls-14" d="M283.09,46.54a21.78,21.78,0,0,0-.75-5.13,15.53,15.53,0,0,0-3.95-7.06c-5.81-5.74-17.16-5.89-23.81-1.55-2.23,1.45-3.61,3.69-5.41,5.59.3-.18.16-1.94.14-2.27a8.46,8.46,0,0,0-.39-2.18,8.12,8.12,0,0,0-2.2-3.49A13.16,13.16,0,0,0,239,27.21c-7.21-.75-13.43,2.82-18.24,7.9-.34.36-.7.86-.5,1.31-1-2.15-4.68-2.56-6.72-2.62a17.44,17.44,0,0,0-8.31,2,34.53,34.53,0,0,0-9.81,7.86,32.77,32.77,0,0,0-6.2,10.1c-.05.14-.08.27-.13.41-5.12,2-9.86,7.43-12.74,13.15A16.84,16.84,0,0,0,174.8,79a28.34,28.34,0,0,0,6.13,10.71,14.44,14.44,0,0,1,3.74-.32l6.45.29,8.07.37a34.67,34.67,0,0,0,4.26,11.13l-.62,15.07a6,6,0,0,1-1.4,3.6h0a32,32,0,0,0,23.63,47l2.17.31a6.24,6.24,0,0,0,1.71.44l15.23,1.57a22.07,22.07,0,0,0,24.34-21.91l-.8-26.56L266.47,123a2.35,2.35,0,0,1-3.9.32,10.22,10.22,0,0,0-6.92-3.79l-15.35-1.59a17.51,17.51,0,0,0-9,1.46l-1.89,1.2a8.61,8.61,0,0,1-13.2-7.46c.07-3.56.58-14,.87-22.15,2.47-10.06,4.4-22.67,2.54-34.95A94.6,94.6,0,0,0,245.71,70.8c5.48,2,11.2,3.49,16.92,3a21.22,21.22,0,0,0,15.3-8.21C281.89,60.31,283.28,53.05,283.09,46.54Z"/><polyline class="cls-12" points="182.09 99.93 187.02 106.4 181.69 109.3"/><path class="cls-13" d="M181.69,110.3a1,1,0,0,1-.48-1.88l4.31-2.34-4.22-5.54a1,1,0,1,1,1.59-1.21l4.93,6.47a1,1,0,0,1-.32,1.48l-5.34,2.9A1,1,0,0,1,181.69,110.3Z"/><path class="cls-14" d="M227.24,86.28a10,10,0,0,0,4.16-.42c1.45-.35,2.91-.66,4.19-.88s2.76-.43,4.24-.6a10.15,10.15,0,0,0,4-1c1-.66,1.23-2.08-.36-3.49s-5-2.55-9.26-1.82-7.08,3-8,4.85S226,86,227.24,86.28Z"/><path class="cls-14" d="M258.83,83.46a7.06,7.06,0,0,1,3.21.66c1.09.4,2.2.78,3.18,1.06s2.12.57,3.25.82a7,7,0,0,1,3.06,1.18c.72.65.72,1.92-.68,3s-4.21,1.92-7.45,1-5.2-3.17-5.7-4.83S257.87,83.62,258.83,83.46Z"/><path class="cls-13" d="M250,132.16h-.06l-9.05-.6c-3.37-.22-6.14-3.13-6.59-6.92a1,1,0,0,1,2-.24c.34,2.84,2.33,5,4.73,5.17l9.05.59a1,1,0,0,1-.07,2Z"/><path class="cls-7" d="M245.3,99.81c-.28-3.27-1.81-8.18-8.25-9.48a10.26,10.26,0,0,0-3-.17c-4.35.37-7.44,3.54-9.32,6.29a3.56,3.56,0,0,0,2.07,5.45c.75.18,1.51.34,2.25.47a5.61,5.61,0,0,1-.32-2.17c.16-3.49,3.4-6.18,7.24-6s6.83,3.15,6.67,6.64a5.81,5.81,0,0,1-.6,2.3l1.17-.07a2.31,2.31,0,0,0,2.14-2.35Q245.34,100.29,245.3,99.81Z"/><path class="cls-14" d="M236,94.19c-3.84-.17-7.08,2.52-7.24,6a5.61,5.61,0,0,0,.32,2.17,56.94,56.94,0,0,0,13,.76,5.81,5.81,0,0,0,.6-2.3C242.81,97.34,239.82,94.37,236,94.19Z"/><path class="cls-7" d="M271.7,102.17c-.22-2.61-1.44-6.52-6.57-7.56a8.1,8.1,0,0,0-2.38-.13c-3.47.29-5.93,2.82-7.42,5a2.83,2.83,0,0,0,1.65,4.34c.62.15,1.25.28,1.87.39a4.76,4.76,0,0,1-.28-1.77,5.58,5.58,0,0,1,11.09.5,4.62,4.62,0,0,1-.49,1.85l.87,0a1.84,1.84,0,0,0,1.71-1.87C271.74,102.66,271.73,102.42,271.7,102.17Z"/><path class="cls-14" d="M264.34,97.66a5.32,5.32,0,0,0-5.77,4.79,4.76,4.76,0,0,0,.28,1.77,45.3,45.3,0,0,0,10.32.58,4.62,4.62,0,0,0,.49-1.85A5.33,5.33,0,0,0,264.34,97.66Z"/><path class="cls-12" d="M253.57,85.38l3.81,23.07a2,2,0,0,1-.32,1.44c-1.07,1.53-4.27,4.68-11.69,2.34"/><path class="cls-13" d="M250.27,114.06a17.37,17.37,0,0,1-5.2-.88,1,1,0,0,1-.65-1.25,1,1,0,0,1,1.26-.66c6.81,2.15,9.65-.65,10.56-2a1,1,0,0,0,.15-.71l-3.81-23.06a1,1,0,1,1,2-.33l3.81,23.06a2.94,2.94,0,0,1-.48,2.18A8.84,8.84,0,0,1,250.27,114.06Z"/><path class="cls-7" d="M236.14,174.14a3,3,0,0,0-4.22-.21L216.18,188l-39-31.09a4.34,4.34,0,0,0-5.64.2l-16.48,15.16a3.74,3.74,0,0,0-.2,5.29l36.46,39.05a2.64,2.64,0,0,0,4-.19l20.9-27.25,21.81,24.58a1.73,1.73,0,0,0,3-.82l5.31-27.61Z"/><path class="cls-14" d="M235,210.34l-11.61,17.94a4.45,4.45,0,0,1-6.89.73L199.1,211.56l17.16-22.38Z"/><path class="cls-12" d="M195.15,270.28l21-9.54a35.09,35.09,0,0,1,21.07-2.62l22.93,4.28c3.29.62,8.11,1.62,10.53,4.11L304.06,285a3.64,3.64,0,0,1,1.36,5.31l-.08.12a7.41,7.41,0,0,1-9.65,2.34l-17.06-9.26.7.67a7.67,7.67,0,0,1,1.94,7.48l-1.3,4.82.23,2.1a8,8,0,0,1-3.18,7.33l-21.81,15.3a2.56,2.56,0,0,1-3.82-1.09h0a9.06,9.06,0,0,1,2.44-10.9l6.92-5.4-19.95,5.91a19.54,19.54,0,0,1-10,.3l-10.67-2.49-17.46,13.12Z"/><path class="cls-13" d="M278.24,284.38a.46.46,0,0,1-.29-.1L266.51,276a.49.49,0,0,1-.11-.7.5.5,0,0,1,.69-.11l11.45,8.31a.5.5,0,0,1-.3.9Z"/><path class="cls-13" d="M279.51,296.72a.56.56,0,0,1-.27-.08l-14.52-9.2a.5.5,0,0,1-.15-.69.51.51,0,0,1,.69-.16l14.52,9.21a.5.5,0,0,1,.15.69A.48.48,0,0,1,279.51,296.72Z"/><path class="cls-13" d="M260.75,304.35a.51.51,0,0,1-.41-.21.5.5,0,0,1,.13-.7l4.2-2.93a.49.49,0,0,1,.69.12.5.5,0,0,1-.12.7l-4.2,2.93A.52.52,0,0,1,260.75,304.35Z"/><path class="cls-9" d="M80.77,235.64l59.7,4.82.17,22.31,68.75-10.21a3.62,3.62,0,0,1,4,3l13.55,62.67a5.38,5.38,0,0,1-4,6.56c-13,2.17-38.58,6.79-65.18,11.07-12.79,2.06-25.82,4-37.81,5.65a39.06,39.06,0,0,1-20-2.54C83,332.1,71,313.78,72,292.35c.32-6.89.7-13.11,1.14-17.71,1.23-13,4-26,5.22-39"/><path class="cls-11" d="M139.4,262.89h0a.5.5,0,0,1-.48-.52l1.68-42.66a.48.48,0,0,1,.52-.48.5.5,0,0,1,.48.52l-1.68,42.66A.5.5,0,0,1,139.4,262.89Z"/><path class="cls-11" d="M125.58,266.39a.49.49,0,0,1-.49-.41.5.5,0,0,1,.41-.58l63.43-10.52a.49.49,0,0,1,.58.41.5.5,0,0,1-.41.57l-63.44,10.53Z"/><path class="cls-11" d="M112.38,342.79a29.83,29.83,0,0,1-15.52-4.39.5.5,0,0,1,.52-.85,28.68,28.68,0,0,0,19.07,3.94l72.49-11.36a.5.5,0,0,1,.57.42.5.5,0,0,1-.42.57L116.6,342.48A28.44,28.44,0,0,1,112.38,342.79Z"/><path class="cls-14" d="M494.41,219.92a7.7,7.7,0,0,0,2.74-4c.27-.74.5-1.5.72-2.25a29,29,0,0,0,1.91-30,28.65,28.65,0,0,0-13.24-12.18c-.71-.33-1.43-.63-2.17-.89a28,28,0,0,0-6.81-1.59c-1.61-.17-3.14-.13-4.55-.42a12.77,12.77,0,0,1-2.31-2.09c-4.56-5.39-2.59-13.3-2.15-20.27A38.15,38.15,0,0,0,466.33,131a17.74,17.74,0,1,0-21.84-25.44,42,42,0,0,0-3.8-2.18c-20.93-10.55-52.85-4.65-65.68,16.15-4.43,7.19-5.2,16-5.5,24.44-.12,3.15-.21,6.43-1.66,9.23-2.38,4.58-6.58,7.48-8.33,12.49a23.4,23.4,0,0,0,.6,16.56c1.15,2.74,3,4.84,4.67,7.22.86,1.2,2.74,3.68,2.23,5.44l-.47.82v0h0a33.3,33.3,0,0,0-4.24,20.34c1.4,11.81,9.12,21.57,20,27.23,13.36,6.93,26.47,14.3,38,23.24,9.66,7.49,23.35,11.13,37.77,8.71,20.79-3.48,36.67-19.25,37.54-37.11a30,30,0,0,0-.75-8.55c-.59-2.45-2-4.78-1.87-7.38a7.71,7.71,0,0,1,.4-1.86A4.25,4.25,0,0,0,494.41,219.92Z"/><path class="cls-4" d="M325.63,308.65c-2.85-71.75,62.88-80.22,62.88-80.22v.3l18.08.06,24,11.25,23.26-14.91,21,4.46s47.13,11.35,45.46,69.47a2.46,2.46,0,0,1-2,2.34L498.9,320.93l-7.19,53.75c3.28,6.64,8.87,19.5,8.87,19.5H328.38Z"/><polyline class="cls-10" points="453.91 225.13 451.76 394.18 387.37 394.18 385.53 228.97"/><path class="cls-4" d="M418.88,258.24l.6,0c14.5-.34,28.37-8.61,28.07-22.53l-.44-7.28a6.51,6.51,0,0,0-5.06-6l-22.33-5.05-24,8.13a5.64,5.64,0,0,0-3.82,5.45l.06,2.57C392.27,247.46,404.38,258.58,418.88,258.24Z"/><path class="cls-4" d="M418.42,301.42a.5.5,0,0,1-.5-.5V260.28a.5.5,0,0,1,1,0v40.64A.5.5,0,0,1,418.42,301.42Z"/><path class="cls-4" d="M407.74,266.75a3,3,0,1,1,3-3A3,3,0,0,1,407.74,266.75Zm0-5a2,2,0,1,0,2,2A2,2,0,0,0,407.74,261.76Z"/><path class="cls-4" d="M407.43,282.72a3,3,0,1,1,3-3A3,3,0,0,1,407.43,282.72Zm0-5a2,2,0,1,0,2,2A2,2,0,0,0,407.43,277.73Z"/><path class="cls-15" d="M418,317.88l-17.34-9.16a29.93,29.93,0,0,0-17.76-3.3l-19.68,2.49c-2.83.35-7,1-9.16,2.95l-29.29,14a3.1,3.1,0,0,0-1.43,4.44l.06.11a6.31,6.31,0,0,0,8.08,2.47l15-7-.63.54a6.55,6.55,0,0,0-2,6.25l.86,4.15-.3,1.78a6.75,6.75,0,0,0,2.33,6.38l17.75,14.1a2.18,2.18,0,0,0,3.3-.73h0a7.71,7.71,0,0,0-1.52-9.38l-5.61-4.94,16.64,6a16.61,16.61,0,0,0,8.49.76l9.19-1.58,14.16,12Z"/><path class="cls-16" d="M346.79,325.73a.51.51,0,0,1-.43-.23.5.5,0,0,1,.16-.69l10.13-6.48a.51.51,0,0,1,.7.15.5.5,0,0,1-.16.69l-10.13,6.48A.56.56,0,0,1,346.79,325.73Z"/><path class="cls-16" d="M345.09,336.14a.49.49,0,0,1-.24-.93l12.79-7.08a.5.5,0,1,1,.49.87l-12.8,7.08A.53.53,0,0,1,345.09,336.14Z"/><path class="cls-16" d="M360.63,343.57a.5.5,0,0,1-.31-.1l-3.42-2.71a.5.5,0,0,1-.08-.7.5.5,0,0,1,.7-.08l3.42,2.7a.5.5,0,0,1,.08.7A.47.47,0,0,1,360.63,343.57Z"/><path class="cls-4" d="M516.92,294.24,466,295.31l-1.27,18.95-57.87-12.15a3.07,3.07,0,0,0-3.53,2.34L388.64,357a4.57,4.57,0,0,0,3.09,5.77c11,2.5,32.43,7.71,54.8,12.7,10.76,2.39,21.72,4.74,31.83,6.7a33.15,33.15,0,0,0,17.1-1.15c14.69-5,25.79-19.92,26-38.17.07-5.87.06-11.17-.07-15.1-.39-11.1-.6-23-1-34.09"/><path class="cls-17" d="M465.78,314.5h0a.5.5,0,0,1-.49-.51l.73-36.32a.5.5,0,0,1,.51-.49.51.51,0,0,1,.49.51L466.28,314A.51.51,0,0,1,465.78,314.5Z"/><path class="cls-17" d="M477.34,318.17h-.11L445.69,311a.49.49,0,0,1-.38-.59.5.5,0,0,1,.6-.38l31.54,7.18a.5.5,0,0,1,.38.6A.51.51,0,0,1,477.34,318.17Z"/><path class="cls-17" d="M486.14,383.75a24.6,24.6,0,0,1-5.05-.52l-32.57-6.78a.5.5,0,1,1,.2-1l32.57,6.78a24.35,24.35,0,0,0,16.34-2.38.5.5,0,0,1,.68.21.5.5,0,0,1-.21.67A25.45,25.45,0,0,1,486.14,383.75Z"/><path class="cls-15" d="M446.67,158.14l-11.18,1c-4.63-.69-9.29-7.17-12-15.92a25.55,25.55,0,0,1-12.43-7c-6.84,6.71-15.6,12.27-24.3,9.39a32.78,32.78,0,0,1-10.7-5.71c-.05,0-.09-.1-.14-.14s0,.1,0,.14l-3.17,44.4c-1.11,15.61,9,29.39,23.32,32.78l.24,11.32a22.7,22.7,0,0,0,23,22.37l.52,0c12.35-.29,24.16-7.75,23.89-20.34l-2.55-44.12,5.39,0A13.74,13.74,0,0,0,460,172.46v-.32A13.74,13.74,0,0,0,446.67,158.14Z"/><path class="cls-16" d="M448.1,177a1,1,0,0,1-.54-.15L443.09,174a1,1,0,0,1-.45-.68,1,1,0,0,1,.21-.8l4.54-5.54a1,1,0,1,1,1.55,1.27L445.11,173l3.52,2.22a1,1,0,0,1-.53,1.84Z"/><path class="cls-7" d="M448.85,192.8a5.48,5.48,0,0,1-3.48-1.27,5.78,5.78,0,0,1,3-10.16,5.4,5.4,0,0,1,4,1.25,5.77,5.77,0,0,1-3,10.15Zm0-10.45-.42,0a4.68,4.68,0,0,0-4.12,5.13,4.74,4.74,0,0,0,1.68,3.26,4.41,4.41,0,0,0,3.26,1,4.69,4.69,0,0,0,4.12-5.14h0a4.72,4.72,0,0,0-1.68-3.25A4.4,4.4,0,0,0,448.87,182.35Z"/><path class="cls-7" d="M392.34,167.76c-1.34-2.33-3.61-5.08-7.08-5.66a8.08,8.08,0,0,0-2.42-.06l-.2,0a5,5,0,0,1,2.32,4.31,5.38,5.38,0,0,1-5.79,4.91,5.92,5.92,0,0,1-3.68-1.43,1.86,1.86,0,0,0,1.57,2,45,45,0,0,0,13.26.13A2.87,2.87,0,0,0,392.34,167.76Z"/><path class="cls-14" d="M385,166.38a5,5,0,0,0-2.32-4.31c-5.09.7-6.61,4.48-7,7.05-.05.25-.08.5-.11.72v0a5.92,5.92,0,0,0,3.68,1.43A5.38,5.38,0,0,0,385,166.38Z"/><path class="cls-16" d="M392,201.28a.5.5,0,0,0,.36,0,4.51,4.51,0,0,1,5.07,1.24.52.52,0,0,0,.76.06.57.57,0,0,0,.06-.79c-2.52-3.06-6.25-1.57-6.29-1.55a.57.57,0,0,0-.3.72A.53.53,0,0,0,392,201.28Z"/><path class="cls-14" d="M421.16,154.37a7.47,7.47,0,0,1-3.27-.26c-1.14-.25-2.29-.48-3.3-.64s-2.18-.3-3.34-.41a7.5,7.5,0,0,1-3.19-.75c-.81-.52-1-1.66.22-2.83s3.88-2.17,7.23-1.65,5.61,2.34,6.34,3.78S422.1,154.13,421.16,154.37Z"/><path class="cls-14" d="M377,153a7.72,7.72,0,0,0,3.28,0c1.15-.16,2.32-.3,3.34-.38s2.19-.13,3.36-.15a7.53,7.53,0,0,0,3.23-.51c.85-.45,1.12-1.57,0-2.84s-3.72-2.46-7.09-2.2-5.76,1.9-6.6,3.29S376,152.72,377,153Z"/><path class="cls-7" d="M410.6,184.2a2.52,2.52,0,0,0-3.18.09,17.29,17.29,0,0,1-10.26,4,1.9,1.9,0,0,0-1.5,2.63c1,2.59,3.78,6.67,10.36,4C414,191.7,413,186.14,410.6,184.2Z"/><path class="cls-15" d="M398.65,179.7c-2.31.12-4.16.57-6.25-.9s-3.5-4.11-2.82-6.58a2.92,2.92,0,0,1,2.31-2.07l2.2-.37,1.08-10.35"/><path class="cls-16" d="M395.91,180.86a6.73,6.73,0,0,1-4.09-1.24c-2.22-1.55-4-4.68-3.2-7.66a3.9,3.9,0,0,1,3.1-2.79l1.45-.25,1-9.6a1,1,0,1,1,2,.21l-1.09,10.35a1,1,0,0,1-.82.88l-2.2.38a1.9,1.9,0,0,0-1.52,1.35c-.55,2,.8,4.36,2.43,5.49,1.46,1,2.74.93,4.52.8l1.11-.08a1,1,0,0,1,1,1,1,1,0,0,1-.95,1l-1.06.07C397.05,180.81,396.48,180.86,395.91,180.86Z"/><path class="cls-7" d="M422.62,167.19c-1.63-2.84-4.41-6.2-8.65-6.91a10.36,10.36,0,0,0-3-.07c-.34,0-.67.1-1,.16a6.32,6.32,0,0,1,4.53,6.09c-.12,3.44-3.29,6.13-7.07,6a7.1,7.1,0,0,1-5.43-2.73v0a2.28,2.28,0,0,0,1.91,2.48,55.25,55.25,0,0,0,16.2.16A3.51,3.51,0,0,0,422.62,167.19Z"/><path class="cls-14" d="M407.47,172.45c3.78.14,6.95-2.55,7.07-6a6.32,6.32,0,0,0-4.53-6.09c-5.61,1.11-7.34,5.48-7.85,8.5-.05.29-.09.58-.12.85A7.1,7.1,0,0,0,407.47,172.45Z"/><path class="cls-16" d="M396.09,217.1s26.39.65,30.6-9.17h0s1.52,14.8-30.11,23.29Z"/><path class="cls-14" d="M406.07,391.14a5.36,5.36,0,0,0-5.36-5.36H319.34l-40-99.09a9.52,9.52,0,0,0-8.83-6H137.87a6.21,6.21,0,0,0-5.79,8.43l40.63,106.15h0l147.85-.64.11,0h85.4Z"/><rect class="cls-7" x="328.38" y="389.32" width="9.8" height="2.45" rx="0.13"/><rect class="cls-7" x="345.28" y="389.32" width="9.8" height="2.45" rx="0.13"/><path class="cls-7" d="M221.3,347.21c-4.29,4.3-12.3,3.25-17.88-2.33s-6.63-13.59-2.34-17.89,12.3-3.25,17.89,2.34S225.6,342.92,221.3,347.21Z"/><path class="cls-18" d="M214.48,350.35a16.59,16.59,0,0,1-11.42-5.12,17.07,17.07,0,0,1-5-9.71A9.81,9.81,0,0,1,209.6,324a17.07,17.07,0,0,1,9.72,5c5.77,5.77,6.82,14.11,2.33,18.6h0A10,10,0,0,1,214.48,350.35Zm-6.57-25.5a9,9,0,0,0-6.48,2.5c-4.09,4.09-3,11.79,2.34,17.17S216.85,351,221,346.86s3-11.8-2.34-17.18A15.57,15.57,0,0,0,207.91,324.85Z"/><path class="cls-7" d="M215.84,354.08a21.37,21.37,0,0,1-14.7-6.6c-7.41-7.41-8.78-18.1-3.06-23.82s16.41-4.35,23.82,3.06,8.79,18.1,3.07,23.83A12.65,12.65,0,0,1,215.84,354.08Zm-8.63-33.46a12.15,12.15,0,0,0-8.78,3.39c-5.53,5.53-4.15,15.9,3.07,23.12s17.59,8.59,23.11,3.06,4.16-15.9-3.06-23.11A20.84,20.84,0,0,0,207.21,320.62Z"/><path class="cls-18" d="M567.08,396.81H43.71a1.5,1.5,0,1,1,0-3H567.08a1.5,1.5,0,0,1,0,3Z"/></g></g></svg>