<svg xmlns="http://www.w3.org/2000/svg" xmlns:xlink="http://www.w3.org/1999/xlink" viewBox="0 0 122.54 113.57"><defs><style>.cls-1{fill:#ff9f9f;}.cls-2{fill:none;}.cls-3{fill:#f7958d;}.cls-4{fill:#8fd5e5;}.cls-5{clip-path:url(#clip-path);}.cls-6{fill:#1958db;}.cls-7{fill:#29266b;}.cls-8{fill:#fca89e;}.cls-9{fill:#fff;}.cls-10{fill:#2b79e6;}.cls-11{clip-path:url(#clip-path-2);}.cls-12{fill:#112256;}.cls-13{fill:#b3e3ef;}.cls-14{fill:#ff645f;}.cls-15{clip-path:url(#clip-path-3);}.cls-16{fill:#823024;}.cls-17{fill:#4e687f;}.cls-18{fill:#bdf1ff;}.cls-19{fill:#da3f3a;}.cls-20{fill:#d2f7ff;}.cls-21{fill:#fcc4c0;}.cls-22{fill:#2eb3db;}</style><clipPath id="clip-path"><path class="cls-1" d="M108.84,63.78H13.72A2.62,2.62,0,0,1,11,61.22V7.38a2.62,2.62,0,0,1,2.68-2.55h95.12a2.62,2.62,0,0,1,2.68,2.55V61.22A2.62,2.62,0,0,1,108.84,63.78Z"/></clipPath><clipPath id="clip-path-2"><path class="cls-2" d="M114.31,87h-11.7l-1.46-17.33a2.66,2.66,0,0,1,2.66-2.88h9.31a2.66,2.66,0,0,1,2.65,2.88Z"/></clipPath><clipPath id="clip-path-3"><path class="cls-2" d="M8.24,87H19.93l1.46-17.33a2.66,2.66,0,0,0-2.65-2.88H9.43a2.66,2.66,0,0,0-2.65,2.88Z"/></clipPath></defs><g id="Layer_2" data-name="Layer 2"><g id="Layer_1-2" data-name="Layer 1"><path class="cls-3" d="M76,82.22c-.13.34-.27,1.35.15,1.48a54.24,54.24,0,0,0,5.64.12c.66,0,.73-.72-.58-1.12s-3-1.1-3-1.1Z"/><path class="cls-3" d="M52.34,81.06c-.13.34-.5,2.51-.09,2.64a54.5,54.5,0,0,0,5.65.12c.66,0,.73-.72-.58-1.12s-3-1.1-3-1.1Z"/><rect class="cls-4" x="5.64" width="111.28" height="68.61" rx="2.97"/><path class="cls-1" d="M108.84,63.78H13.72A2.62,2.62,0,0,1,11,61.22V7.38a2.62,2.62,0,0,1,2.68-2.55h95.12a2.62,2.62,0,0,1,2.68,2.55V61.22A2.62,2.62,0,0,1,108.84,63.78Z"/><g class="cls-5"><rect class="cls-6" x="34" y="45.47" width="54.56" height="52.22" rx="15.04"/></g><path class="cls-3" d="M68.39,46.55a6.78,6.78,0,0,1-6.48,3.51c-6-.23-7.32-4.38-7.32-4.38V36.94H68Z"/><path class="cls-7" d="M61.16,10.41c-1.32-.48-6.48-3.24-10.93-1.32s-4.56,4.32-4.68,7.21S42,21,40.39,24.7a11.62,11.62,0,0,0,2.76,12.36C46.63,40.43,46,44.15,46,47.15s7.87,6.18,8.56-1.47,1.77-15,2-16.9c.13-1,7.21-7.6,8.4-12.24C66,12.62,61.16,10.41,61.16,10.41Z"/><path class="cls-7" d="M61.16,10.41C62.48,9.93,68,7.17,72.41,9.09S77,13.41,77.09,16.3,80.7,21,82.26,24.7A11.62,11.62,0,0,1,79.5,37.06c-3.49,3.37-2.89,7.09-2.89,10.09s-7.86,6.18-8.55-1.47-2.82-15.1-3.06-17S61.16,10.41,61.16,10.41Z"/><path class="cls-8" d="M56.42,40.73c6.27,5,10.46,1.47,14.76-5.31,5.11-8.06,5.14-16-1.13-21a14.54,14.54,0,0,0-20.43,2.27C44.6,22.93,50.15,35.71,56.42,40.73Z"/><path class="cls-7" d="M46.75,27.7c.38.54,5-1.62,8.77-5.4,4.56-4.56,5.28-8,5.76-8s1.87,4,4.2,7.09c3.36,4.44,10.45,6.72,10.45,6.72a10,10,0,0,0-.48-7.8c-2-4.08-6.61-8.77-10.21-9.25a40.58,40.58,0,0,0-8.4-.24c-2.88.12-10.21,5.17-10.93,8.17S46.75,27.7,46.75,27.7Z"/><polygon class="cls-9" points="59.48 26.05 68.85 31.46 59.48 36.87 59.48 26.05"/><path class="cls-10" d="M122.08,77c0,9.21-6.11,16.67-13.65,16.67S94.78,86.19,94.78,77s6.11-16.67,13.65-16.67S122.08,67.78,122.08,77Z"/><path class="cls-10" d="M113,113.57c0-.11,0-.22,0-.34a4.54,4.54,0,1,0-9.08,0c0,.12,0,.23,0,.34Z"/><rect class="cls-10" x="107.81" y="84.05" width="0.79" height="29.52"/><rect class="cls-10" x="97.88" y="86.36" width="21.09" height="9.36" rx="2.46"/><path class="cls-7" d="M98.64,87.05h15.67v3.76c0,2-1.28,3-3.32,3H99c-2,0-4.06-.91-4.06-3v-.07A3.69,3.69,0,0,1,98.64,87.05Z"/><path class="cls-6" d="M114.31,87h-11.7l-1.46-17.33a2.66,2.66,0,0,1,2.66-2.88h9.31a2.66,2.66,0,0,1,2.65,2.88Z"/><path class="cls-7" d="M95.11,90.24l-1.86,21.2h2.84s4-12.72,4.43-17.27-2.28-5-2.28-5Z"/><path class="cls-7" d="M104.15,90l-1.93,21.48h2.84s4.17-13.79,4.63-18.33-2.48-4-2.48-4Z"/><polygon class="cls-6" points="101.42 68.39 97.22 76.33 102.9 75.88 101.42 68.39"/><path class="cls-6" d="M115.08,67.68l7.32,10.55a1.62,1.62,0,0,1-.68,2.13l-11.33,2.56-1.47-2.5,7.94-2.87-5.7-5.7Z"/><path class="cls-6" d="M93.3,111.44h2.79v2.13H90.44c-.37,0-.5-.83-.17-1Z"/><path class="cls-6" d="M102.22,111.44H105v2.13H99.36c-.38,0-.5-.83-.18-1Z"/><g class="cls-11"><polygon class="cls-12" points="108.71 80.54 108.63 80.31 115.7 77.88 115.78 78.11 108.71 80.54"/><polygon class="cls-12" points="109 82.87 108.98 82.62 117.53 81.71 117.55 81.95 109 82.87"/></g><rect class="cls-13" x="93.1" y="82.27" width="18.25" height="1.55"/><path class="cls-6" d="M.46,77c0,9.21,6.12,16.67,13.65,16.67S27.77,86.19,27.77,77,21.65,60.31,14.11,60.31.46,67.78.46,77Z"/><path class="cls-6" d="M9.56,113.57c0-.11,0-.22,0-.34a4.54,4.54,0,0,1,9.08,0c0,.12,0,.23,0,.34Z"/><rect class="cls-6" x="13.94" y="84.05" width="0.79" height="29.52"/><rect class="cls-6" x="3.57" y="86.36" width="21.09" height="9.36" rx="2.46"/><path class="cls-14" d="M23.91,87.05H8.24v3.76a3.69,3.69,0,0,0,3.68,3.69h12a3.69,3.69,0,0,0,3.68-3.69v-.07A3.69,3.69,0,0,0,23.91,87.05Z"/><path class="cls-7" d="M8.24,87H19.93l1.46-17.33a2.66,2.66,0,0,0-2.65-2.88H9.43a2.66,2.66,0,0,0-2.65,2.88Z"/><path class="cls-3" d="M13.34,67.87h1.82a1.08,1.08,0,0,0,1-1.15V64.48a1.09,1.09,0,0,0-1-1.15H13.34a1.1,1.1,0,0,0-1,1.15v2.24A1.09,1.09,0,0,0,13.34,67.87Z"/><path class="cls-8" d="M18.69,63.33c-.73,2.47-2.79,2.09-5.26,1.36a4.66,4.66,0,0,1,2.64-8.94C18.54,56.48,19.42,60.86,18.69,63.33Z"/><path class="cls-14" d="M27.37,90l1.93,21.48H26.46s-4.54-14-5-18.53,2.84-3.75,2.84-3.75Z"/><path class="cls-14" d="M18.4,90l1.93,21.48H17.49s-4.54-14-5-18.53,2.84-3.75,2.84-3.75Z"/><polygon class="cls-7" points="21.12 68.39 25.32 76.33 19.65 75.88 21.12 68.39"/><path class="cls-7" d="M7.47,67.68.15,78.23a1.62,1.62,0,0,0,.68,2.13l11.32,2.56,1.48-2.5-8-2.87,5.71-5.7Z"/><path class="cls-7" d="M29.24,111.44H26.46v2.13H32.1c.37,0,.5-.83.17-1Z"/><path class="cls-7" d="M20.33,111.44H17.55v2.13h5.64c.37,0,.5-.83.17-1Z"/><g class="cls-15"><polygon class="cls-14" points="13.84 80.54 6.76 78.11 6.84 77.88 13.92 80.31 13.84 80.54"/><rect class="cls-14" x="8.95" y="78.09" width="0.25" height="8.16" transform="translate(-73.56 84.37) rotate(-85.23)"/></g><rect class="cls-13" x="11.19" y="82.27" width="18.25" height="1.55"/><rect class="cls-16" x="12.12" y="83.75" width="98.31" height="1.24"/><rect class="cls-16" x="12.12" y="83.98" width="0.45" height="29.52"/><rect class="cls-16" x="109.98" y="83.98" width="0.45" height="29.52"/><path class="cls-3" d="M110.21,82.31h-4.66l-.34-2h3.51a1.34,1.34,0,0,1,1.33,1.12Z"/><polygon class="cls-13" points="107.77 82.33 93.12 82.33 91.11 73.25 105.76 73.25 107.77 82.33"/><path class="cls-17" d="M100.12,78a1,1,0,1,1-1-1A1,1,0,0,1,100.12,78Z"/><path class="cls-3" d="M108,67.58h1.81a1.08,1.08,0,0,0,1-1.15V64.19a1.09,1.09,0,0,0-1-1.15H108a1.1,1.1,0,0,0-1,1.15v2.24A1.09,1.09,0,0,0,108,67.58Z"/><path class="cls-8" d="M104.85,63c.73,2.47,2.8,2.09,5.27,1.36a4.66,4.66,0,0,0-2.64-8.94C105,56.19,104.12,60.57,104.85,63Z"/><path class="cls-14" d="M103.06,63.86a3.27,3.27,0,1,0,3.27-3.26A3.26,3.26,0,0,0,103.06,63.86Z"/><rect class="cls-8" x="105.16" y="61.81" width="2.38" height="1.24" rx="0.51"/><path class="cls-3" d="M12.34,82.31H17l.34-2H13.82a1.34,1.34,0,0,0-1.33,1.12Z"/><polygon class="cls-13" points="14.77 82.33 29.43 82.33 31.44 73.25 16.78 73.25 14.77 82.33"/><path class="cls-17" d="M22.43,78a1,1,0,1,0,1-1A1,1,0,0,0,22.43,78Z"/><path class="cls-18" d="M58.8,56.27c-1.6-.06-5.95,10.12-6.4,11.65s-.63,13.76-.18,13.81,2.89.34,2.94-.25.76-11.66.85-12.33S62.4,56.41,58.8,56.27Z"/><path class="cls-19" d="M54.4,77.15l14.12,3.68-.1,30.48H65.63s-2.23-16.59-3-25.26H60.44l-2.19,25.26H55.42s-1.24-27-1.2-29.17C54.15,81.79,54.4,77.15,54.4,77.15Z"/><path class="cls-20" d="M54.4,77.15l14.12,3.68,6.66-18.3c.55-1.49-.58-3.18-2.47-3.68L61.47,55.92c-1.88-.49-3.7.44-3.95,2Z"/><path class="cls-8" d="M66.3,59.1a2.5,2.5,0,0,1-1.6-2.46l.73-2.77c.16-.63,1.08-.33,1.64-.19l1.79.47c.56.14,1.36.9,1.19,1.52l-.57,2.21A2.78,2.78,0,0,1,66.3,59.1Z"/><path class="cls-21" d="M67.4,56.14c-2.62.17-3-1.93-3.17-4.55a4.75,4.75,0,0,1,9.48-.65C73.89,53.56,70,56,67.4,56.14Z"/><path class="cls-12" d="M68.46,111.27H65.62v2.18h5.75c.38,0,.51-.85.18-1Z"/><path class="cls-12" d="M58.25,111.27H55.42v2.18h5.75c.38,0,.51-.85.18-1Z"/><path class="cls-14" d="M104.86,58.79c-.61.21-1.74-.43-1.26-1.86.6-1.8,2.16-1.68,2.58-2.16s.36-2.34,2.22-2.52,2,1.5,2.7,1.86,2.22-1.08,3.78.54c1.38,1.43-.48,2.94,0,3.78s1.62,1.63,1.14,3.25a2.74,2.74,0,0,1-2.4,2.1c-.6,0-1.5-.36-1.5-.72s-1.2-2.46.24-4.21c.77-.93-.12-1.92-1.32-1.62-2.1.53-3.42-1-4-1S105.76,58.49,104.86,58.79Z"/><path class="cls-14" d="M10.44,62.4A5.76,5.76,0,0,1,10.2,58a4.72,4.72,0,0,1,3.42-2.64c1.51-.42,2.64-.66,3.06-1.38s.12-1.68.3-1.68,2.46,1.5,1.92,3.78a3.57,3.57,0,0,1-2.16,2.88c-1.07.62-3.36.36-3.6,1s.78,1.26,1,1.62a.63.63,0,0,1-.3.78c-.18.12-1.08-.66-2-.72A1.6,1.6,0,0,0,10.44,62.4Z"/><path class="cls-22" d="M66.2,47.51c-1.16,1-1.08,3.84-.72,5s.45,4.4,1.65,4.53c3.15.36,5.58.27,6.31-.81s2.34-8-2.17-9.48C67.59,45.6,67,46.79,66.2,47.51Z"/><path class="cls-18" d="M74.29,59.78c1.36.36,1.85,3.43,2,6.31s-.27,6.48,0,6.93,2.7,8.31,2.79,8.76-3,1.09-3.24.82-3.49-7.78-3.67-8.5a47.58,47.58,0,0,1-.75-9.68C71.63,61.58,72.58,59.33,74.29,59.78Z"/></g></g></svg>