<svg xmlns="http://www.w3.org/2000/svg" viewBox="0 0 472.52 451.77"><defs><style>.cls-1{fill:#fafafa;}.cls-2{fill:#ebebeb;}.cls-12,.cls-3{fill:#ba68c8;}.cls-4{opacity:0.15;}.cls-10,.cls-11,.cls-16,.cls-21,.cls-5,.cls-6,.cls-7,.cls-8,.cls-9{fill:#fff;}.cls-6{opacity:0.5;}.cls-7{opacity:0.65;}.cls-8{opacity:0.25;}.cls-9{opacity:0.4;}.cls-10{opacity:0.7;}.cls-11{opacity:0.8;}.cls-12,.cls-20,.cls-21{opacity:0.3;}.cls-13{fill:#f0f0f0;}.cls-14{fill:#e0e0e0;}.cls-15{fill:#455a64;}.cls-16{opacity:0.6;}.cls-17{fill:#263238;}.cls-18{fill:#b16668;}.cls-19{fill:#9a4a4d;}.cls-22{fill:#37474f;}.cls-23{fill:#ffa8a7;}.cls-24{fill:#f28f8f;}.cls-25,.cls-26{opacity:0.2;}.cls-27{fill:#e6e6e6;}.cls-28{opacity:0.1;}.cls-29{opacity:0.05;}</style></defs><g id="Layer_2" data-name="Layer 2"><g id="Floor"><path id="Floor-2" data-name="Floor" class="cls-1" d="M75,412.4c-90.94-52.5-90.94-137.63,0-190.13s238.37-52.5,329.3,0,90.94,137.63,0,190.13S166,464.9,75,412.4Z"/></g><g id="Shadows"><ellipse id="Shadow" class="cls-2" cx="388.41" cy="385.74" rx="59.4" ry="34.29"/><ellipse id="Shadow-2" data-name="Shadow" class="cls-2" cx="451.46" cy="393.71" rx="20.56" ry="11.87"/><path id="Shadow-3" data-name="Shadow" class="cls-2" d="M43.3,392.42l-27.2-15.7c-2.33-1.34-2.33-3.53,0-4.87L229.41,248.7a9.3,9.3,0,0,1,8.44,0l27.2,15.7c2.33,1.34,2.33,3.52,0,4.87L51.74,392.42A9.3,9.3,0,0,1,43.3,392.42Z"/><path id="Shadow-4" data-name="Shadow" class="cls-2" d="M166.05,413,87.38,367.58c-2.33-1.35-2.33-3.53,0-4.88l197.47-114a9.36,9.36,0,0,1,8.44,0L372,294.12c2.33,1.34,2.33,3.53,0,4.87L174.49,413A9.3,9.3,0,0,1,166.05,413Z"/></g><g id="Plants"><g id="Plants-2" data-name="Plants"><path class="cls-3" d="M42.47,372.45c5.26-25.3-2.1-42.8-8-53.65S15.79,296.91,6.8,298.29c-8.37,1.3-9.36,11.8-1,20.37s26.35,24.81,28.45,37.42l1.09,11.09Z"/><path class="cls-4" d="M42.47,372.45c5.26-25.3-2.1-42.8-8-53.65S15.79,296.91,6.8,298.29c-8.37,1.3-9.36,11.8-1,20.37s26.35,24.81,28.45,37.42l1.09,11.09Z"/><path class="cls-5" d="M38.89,360.89a.53.53,0,0,1-.42-.51c-1-25.82-18-49.37-29.42-55.79a.53.53,0,0,1-.21-.73.54.54,0,0,1,.74-.21c11.63,6.53,29,30.48,30,56.69a.56.56,0,0,1-.53.57Z"/><path class="cls-3" d="M43.56,376.42a6,6,0,0,1-9.12-2,39.69,39.69,0,0,0-8-10.6c-7.87-7.8-18.73-12.68-20.49-18-2.12-6.36,3.74-11,12.77-8.17,7.9,2.44,23,13.29,24.85,38.74Z"/><path class="cls-5" d="M40.36,378.88a.55.55,0,0,1-.4-.44C36.12,355.69,21.15,345.28,13.77,343a.54.54,0,0,1-.36-.68.54.54,0,0,1,.68-.36c8.16,2.58,23,13.13,26.94,36.35a.55.55,0,0,1-.44.63A.59.59,0,0,1,40.36,378.88Z"/></g><g id="Plants-3" data-name="Plants"><path class="cls-3" d="M328.66,273.69s-4.29-18.75,1.47-37.63c3.21-10.56,9.75-15.71,13.89-16.38,4.64-.75,9.59,3.42,5.81,10.47-3.6,6.69-11.06,9.72-14.63,26.89a69.12,69.12,0,0,0-1.46,19.58Z"/><path class="cls-6" d="M328.66,273.69s-4.29-18.75,1.47-37.63c3.21-10.56,9.75-15.71,13.89-16.38,4.64-.75,9.59,3.42,5.81,10.47-3.6,6.69-11.06,9.72-14.63,26.89a69.12,69.12,0,0,0-1.46,19.58Z"/><path class="cls-5" d="M331.23,268.76a.28.28,0,0,0,.24-.33c-3.09-20.61,6-38.44,13.41-44.53a.3.3,0,0,0,0-.41.29.29,0,0,0-.41,0c-7.54,6.17-16.74,24.24-13.62,45.07A.29.29,0,0,0,331.23,268.76Z"/><path class="cls-3" d="M333.74,276.62c.44-4.8,2.77-10.73,8.15-16.21s12.91-10.61,11.54-15.16-7.46-3.31-11.65-.58S328.36,258.3,331.1,275.1Z"/><path class="cls-7" d="M333.74,276.62c.44-4.8,2.77-10.73,8.15-16.21s12.91-10.61,11.54-15.16-7.46-3.31-11.65-.58S328.36,258.3,331.1,275.1Z"/><path class="cls-5" d="M332.23,270.44a.28.28,0,0,0,.25-.28c.32-10.11,11.32-23.27,16.58-25.46a.29.29,0,0,0-.22-.54c-5.52,2.29-16.62,15.47-16.94,26a.28.28,0,0,0,.28.3Z"/></g></g><g id="Envelope"><g id="Open_Envelope" data-name="Open Envelope"><path class="cls-3" d="M38.11,216.6,248,95.39l8.41,4.85a8.75,8.75,0,0,1,3.94,6.84V262a8.76,8.76,0,0,1-3.94,6.84L54.4,385.44a8.77,8.77,0,0,1-7.89,0l-4.45-2.57a8.76,8.76,0,0,1-4-6.84Z"/><path class="cls-8" d="M38.11,216.6,248,95.39l8.41,4.85a8.75,8.75,0,0,1,3.94,6.84V262a8.76,8.76,0,0,1-3.94,6.84L54.4,385.44a8.77,8.77,0,0,1-7.89,0l-4.45-2.57a8.76,8.76,0,0,1-4-6.84Z"/><path class="cls-3" d="M246.89,81.78l.85-.47-3.26-1.9h0a5.25,5.25,0,0,0-.86-.42l-92.4-34.24A6.37,6.37,0,0,0,144.13,47L40.77,198a17.87,17.87,0,0,0-2.67,8.61c0,4.32,0,10,0,10l3.2,1.86L248,95.39v-10A6.74,6.74,0,0,0,246.89,81.78Z"/><path class="cls-9" d="M148.41,47.75a5,5,0,0,0-1.07,1.14L44,199.81a16.27,16.27,0,0,0-1.92,4.32l-3.21-1.86a19.84,19.84,0,0,1,.84-2.28s0-.05,0-.07c.14-.31.28-.61.44-.91l.08-.14a7.07,7.07,0,0,1,.55-.91L144.12,47a5.45,5.45,0,0,1,.52-.63c.18-.18.37-.35.56-.51Z"/><path class="cls-10" d="M247.71,81.29a5.06,5.06,0,0,0-.88-.42L154.42,46.62a6.32,6.32,0,0,0-6,1.13l-3.21-1.86a6.42,6.42,0,0,1,6-1.13L243.62,79a4.88,4.88,0,0,1,.86.42Z"/><path class="cls-3" d="M147.33,48.88,44,199.82a17.8,17.8,0,0,0-2.67,8.61v10L251.25,97.24v-10a7.29,7.29,0,0,0-4.43-6.36L154.43,46.63A6.36,6.36,0,0,0,147.33,48.88Z"/><path class="cls-8" d="M147.33,48.88,44,199.82a17.8,17.8,0,0,0-2.67,8.61v10L251.25,97.24v-10a7.29,7.29,0,0,0-4.43-6.36L154.43,46.63A6.36,6.36,0,0,0,147.33,48.88Z"/><polygon class="cls-3" points="44.4 216.62 69.75 201.72 95.15 186.92 146.02 157.43 197 128.13 222.53 113.55 248.1 99.05 222.75 113.94 197.35 128.75 146.48 158.23 95.5 187.53 69.98 202.11 44.4 216.62"/><path class="cls-3" d="M260.32,106.09h0c-.19-1.13-.79-1.45-1.56-.91a4.36,4.36,0,0,0-1,1l-.44.61L171,238.08l-12.89,18a7.34,7.34,0,0,1-7.1,2.66l-11.13-2.64L54.9,224.78a4.43,4.43,0,0,0-1.73-.06,3.08,3.08,0,0,0-.65.21l3.21-1.86,81.44,29.85,10.72,3.83a7.32,7.32,0,0,0,7.1-2.66l12.89-17.94,86.76-131.87a3.45,3.45,0,0,1,1-.9l-7.51-4.33,3.15-1.81,5.19,3A9,9,0,0,1,260.32,106.09Z"/><path class="cls-3" d="M255.07,264a2,2,0,0,1-.22.32l-87.49-27.74a15,15,0,0,0-18.9,5.82l-93.53,139-3.46,2,0,0a2.84,2.84,0,0,1-2.68.3L145,240.44a15.11,15.11,0,0,1,18.92-5.84Z"/><path class="cls-9" d="M256.44,100.23l-5.19-3-3.15,1.81,7.51,4.33h0a3.5,3.5,0,0,0-1,.9L168,235.93l-.44.64.58.18,3,1,86.1-130.91.44-.61a4.78,4.78,0,0,1,1-1c.77-.53,1.37-.22,1.56.91h0A9,9,0,0,0,256.44,100.23Z"/><path class="cls-3" d="M56.63,227.3,38.11,216.6V376a8.76,8.76,0,0,0,4,6.84l4.45,2.57a8.77,8.77,0,0,0,7.89,0l2.23-1.29Z"/><path class="cls-6" d="M56.63,227.3,38.11,216.6V376a8.76,8.76,0,0,0,4,6.84l4.45,2.57a8.77,8.77,0,0,0,7.89,0l2.23-1.29Z"/><path class="cls-3" d="M260.4,107.08V262a8,8,0,0,1-1.23,4,8.59,8.59,0,0,1-2.31,2.6l-.16.08a1.84,1.84,0,0,1-.25.17l-202,116.63a2.8,2.8,0,0,1-2.72.33,2.39,2.39,0,0,1-1.18-1.88,5.27,5.27,0,0,1,0-.71V228.28a3.44,3.44,0,0,1,4.44-3.5l84.95,31.28L151,258.7a7.34,7.34,0,0,0,7.1-2.66l12.89-18L257.3,106.83l.44-.61C259.2,104.19,260.4,104.56,260.4,107.08Z"/><path class="cls-10" d="M260.4,107.08V262a8,8,0,0,1-1.23,4,8.59,8.59,0,0,1-2.31,2.6l-.16.08a1.84,1.84,0,0,1-.25.17l-202,116.63a2.8,2.8,0,0,1-2.72.33,2.39,2.39,0,0,1-1.18-1.88,5.27,5.27,0,0,1,0-.71V228.28a3.44,3.44,0,0,1,4.44-3.5l84.95,31.28L151,258.7a7.34,7.34,0,0,0,7.1-2.66l12.89-18L257.3,106.83l.44-.61C259.2,104.19,260.4,104.56,260.4,107.08Z"/><path class="cls-3" d="M254.72,264.52l-87.14-27.95a15.35,15.35,0,0,0-19.13,5.83l-3.46-2c4-6.36,11-8.72,19.12-6.11Z"/><path class="cls-11" d="M254.72,264.52l-87.14-27.95a15.35,15.35,0,0,0-19.13,5.83l-3.46-2c4-6.36,11-8.72,19.12-6.11Z"/><path class="cls-12" d="M256.45,268.79a2.63,2.63,0,0,0,.26-.16l.15-.09a8.67,8.67,0,0,0,2.31-2.59,8,8,0,0,0,1.22-3.93L171,238.08l59.88,45.49Z"/><path class="cls-3" d="M259.17,266a8.67,8.67,0,0,1-2.31,2.59l-.15.09L54.41,385.43l0,0a2.8,2.8,0,0,1-2.69.3l96.75-143.39a15.2,15.2,0,0,1,19-5.83Z"/><path class="cls-10" d="M259.17,266a8.67,8.67,0,0,1-2.31,2.59h0L54.58,385.35l-.2.1a2.8,2.8,0,0,1-2.69.3l96.75-143.39a15.2,15.2,0,0,1,19-5.83Z"/><path class="cls-6" d="M38.84,202.27l3.21,1.86a15.92,15.92,0,0,0-.74,4.31v10l-3.21-1.86v-10A15.91,15.91,0,0,1,38.84,202.27Z"/><polygon class="cls-3" points="55.73 223.07 52.52 224.93 49.28 223.05 41.3 218.46 44.4 216.62 55.73 223.07"/><path class="cls-9" d="M55.87,223.14,44.4,216.62l-3.1,1.84,8,4.59,3.24,1.88,0,0a3.25,3.25,0,0,1,.6-.2,4.5,4.5,0,0,1,1.74.07l6.45,2.38,74.18,27.31,1.13-1.73Z"/><path class="cls-3" d="M148.42,242.39,51.69,385.75a2.73,2.73,0,0,1-1.23-2.6v-2.57L145,240.44a.05.05,0,0,1,0-.05Z"/><path class="cls-6" d="M148.42,242.39,51.69,385.75a2.73,2.73,0,0,1-1.23-2.6v-2.57L145,240.44a.05.05,0,0,1,0-.05Z"/></g></g><g id="Letter"><g id="Letter-2" data-name="Letter"><g id="Sheet"><path class="cls-13" d="M359.39,292.25v4.82L171.73,405.41l-2.09-1.2A83.65,83.65,0,0,1,127.93,332V108.34L315.58,0l4.18,2.41V223.62A79.27,79.27,0,0,0,359.39,292.25Z"/><path class="cls-1" d="M171.73,400.06A79,79,0,0,1,132.57,332V111L319.3,3.21V223.62a80,80,0,0,0,39.17,68.63Z"/><path class="cls-14" d="M318.84,4V223.62a80.39,80.39,0,0,0,38.72,68.62L171.73,399.52A78.56,78.56,0,0,1,133,332V111.28L318.84,4m.92-1.6L132.11,110.75V332a79.27,79.27,0,0,0,39.62,68.63L359.39,292.25a79.27,79.27,0,0,1-39.63-68.63V2.41Z"/><path class="cls-14" d="M132.11,332V110.75l-4.18-2.41V332a83.65,83.65,0,0,0,41.71,72.25l2.09,1.2v-4.82A79.27,79.27,0,0,1,132.11,332Z"/><polygon class="cls-4" points="171.73 400.59 171.73 405.41 359.39 297.07 359.39 292.25 171.73 400.59"/></g><path class="cls-15" d="M200.81,144.25a.17.17,0,0,1,.23,0,.38.38,0,0,1,.1.3v1.34a.92.92,0,0,1-.1.42.63.63,0,0,1-.23.29l-5.38,3.1a.18.18,0,0,1-.24,0,.46.46,0,0,1-.09-.31V137.18a1,1,0,0,1,.09-.41.65.65,0,0,1,.24-.29l1-.58a.19.19,0,0,1,.24,0,.43.43,0,0,1,.09.3v10.37Z"/><path class="cls-15" d="M208.05,140.07a.18.18,0,0,1,.23,0,.38.38,0,0,1,.1.3v1.34a.92.92,0,0,1-.1.42.58.58,0,0,1-.23.29l-5.4,3.11a.18.18,0,0,1-.23,0,.41.41,0,0,1-.1-.31V133a.92.92,0,0,1,.1-.42.55.55,0,0,1,.23-.28l5.3-3.06a.17.17,0,0,1,.23,0,.38.38,0,0,1,.1.3v1.34a.92.92,0,0,1-.1.42.55.55,0,0,1-.23.28l-4,2.3v3l3.7-2.13a.17.17,0,0,1,.23,0,.38.38,0,0,1,.1.3v1.34a.92.92,0,0,1-.1.42.55.55,0,0,1-.23.28l-3.7,2.14v3.14Z"/><path class="cls-15" d="M215.63,124.81a.18.18,0,0,1,.23,0,.39.39,0,0,1,.1.3v1.35a.88.88,0,0,1-.1.41.58.58,0,0,1-.23.29l-2.21,1.28v10.37a.91.91,0,0,1-.1.41.64.64,0,0,1-.23.29l-1,.57a.18.18,0,0,1-.23,0,.41.41,0,0,1-.1-.31V129.41l-2.21,1.28a.18.18,0,0,1-.24,0,.41.41,0,0,1-.09-.3V129a1.06,1.06,0,0,1,.09-.42.62.62,0,0,1,.24-.28Z"/><path class="cls-15" d="M222.92,120.61a.18.18,0,0,1,.23,0,.41.41,0,0,1,.1.31v1.34a.92.92,0,0,1-.1.42.6.6,0,0,1-.23.28l-2.21,1.28v10.37a1,1,0,0,1-.1.41.6.6,0,0,1-.24.29l-1,.57a.17.17,0,0,1-.23,0,.39.39,0,0,1-.1-.3V125.21l-2.21,1.27a.18.18,0,0,1-.24,0,.46.46,0,0,1-.1-.31v-1.34a1,1,0,0,1,.1-.41.6.6,0,0,1,.24-.29Z"/><path class="cls-15" d="M230.21,127.28a.17.17,0,0,1,.23,0,.38.38,0,0,1,.1.3v1.34a.92.92,0,0,1-.1.42.61.61,0,0,1-.23.28l-5.4,3.12a.17.17,0,0,1-.23,0,.38.38,0,0,1-.1-.3V120.22a.92.92,0,0,1,.1-.42.63.63,0,0,1,.23-.29l5.3-3.05a.17.17,0,0,1,.23,0,.41.41,0,0,1,.1.31v1.34a.86.86,0,0,1-.1.41.58.58,0,0,1-.23.29l-4,2.29v3l3.7-2.13a.17.17,0,0,1,.23,0,.41.41,0,0,1,.1.31v1.34a.86.86,0,0,1-.1.41.58.58,0,0,1-.23.29l-3.7,2.14v3.14Z"/><path class="cls-15" d="M235.56,113.31c1-.59,1.81-.68,2.34-.25a3.21,3.21,0,0,1,.8,2.58,8.08,8.08,0,0,1-.41,2.59,6.58,6.58,0,0,1-1.21,2.15l1.69,3.69a.46.46,0,0,1,0,.19.81.81,0,0,1-.08.34.5.5,0,0,1-.19.23l-1,.61q-.24.14-.36,0a.67.67,0,0,1-.16-.24l-1.62-3.48-1.63,1v4.4a.92.92,0,0,1-.1.42.63.63,0,0,1-.23.29l-1,.57a.17.17,0,0,1-.23,0,.38.38,0,0,1-.1-.3V115.84a.92.92,0,0,1,.1-.42.61.61,0,0,1,.23-.28Zm-1.84,7,1.78-1a3.35,3.35,0,0,0,1.12-1,3,3,0,0,0,.42-1.68c0-.71-.14-1.1-.42-1.18a1.54,1.54,0,0,0-1.12.29l-1.78,1Z"/><path class="cls-15" d="M242.8,114.06a12.91,12.91,0,0,1,.27-2.14,9,9,0,0,1,.67-2,7.58,7.58,0,0,1,1.1-1.73,5.91,5.91,0,0,1,1.58-1.32,3.1,3.1,0,0,1,1.56-.5,1.52,1.52,0,0,1,1.1.46,2.85,2.85,0,0,1,.68,1.23,8.13,8.13,0,0,1,.27,1.85c0,.24,0,.5,0,.79v1.8c0,.29,0,.56,0,.8a13,13,0,0,1-.26,2.15,10.09,10.09,0,0,1-.67,2,7.66,7.66,0,0,1-1.12,1.73,6,6,0,0,1-1.56,1.31,3.36,3.36,0,0,1-1.58.51,1.55,1.55,0,0,1-1.1-.45,2.72,2.72,0,0,1-.67-1.24,8.3,8.3,0,0,1-.27-1.85c0-.23,0-.49,0-.78v-1.8C242.79,114.58,242.79,114.31,242.8,114.06Zm5.57-3.11a2.4,2.4,0,0,0-.57-1.78c-.35-.3-.81-.28-1.38,0a3.5,3.5,0,0,0-1.39,1.54,5.81,5.81,0,0,0-.57,2.44c0,.49,0,1,0,1.61s0,1.12,0,1.59a2.37,2.37,0,0,0,.57,1.77c.35.29.81.27,1.39-.06a3.54,3.54,0,0,0,1.38-1.54,5.72,5.72,0,0,0,.57-2.43c0-.49,0-1,0-1.61S248.39,111.42,248.37,111Z"/><path class="cls-15" d="M257.23,100.8a.18.18,0,0,1,.23,0,.41.41,0,0,1,.1.31v1.34a.92.92,0,0,1-.1.42.55.55,0,0,1-.23.28l-3.92,2.27v3.67L257,107a.18.18,0,0,1,.24,0,.43.43,0,0,1,.1.3v1.35a1,1,0,0,1-.1.41.65.65,0,0,1-.24.29l-3.67,2.12v4.33a.92.92,0,0,1-.1.42.63.63,0,0,1-.23.29l-1,.57a.18.18,0,0,1-.23,0,.41.41,0,0,1-.1-.31V104.53a.92.92,0,0,1,.1-.42.55.55,0,0,1,.23-.28Z"/><path class="cls-15" d="M173.8,172.7c1-.59,1.81-.67,2.34-.25a3.25,3.25,0,0,1,.8,2.59,8.12,8.12,0,0,1-.41,2.59,6.38,6.38,0,0,1-1.22,2.14l1.7,3.7a.41.41,0,0,1,0,.19.8.8,0,0,1-.08.33.54.54,0,0,1-.19.24l-1.05.6q-.24.15-.36,0a.72.72,0,0,1-.17-.23l-1.6-3.48-1.64.94v4.41a.86.86,0,0,1-.1.41.54.54,0,0,1-.23.29l-1,.58a.18.18,0,0,1-.23,0,.38.38,0,0,1-.1-.3V175.23a.91.91,0,0,1,.1-.41.64.64,0,0,1,.23-.29Zm-1.84,7,1.78-1a3.27,3.27,0,0,0,1.12-1,2.94,2.94,0,0,0,.42-1.68c0-.7-.14-1.1-.42-1.18a1.59,1.59,0,0,0-1.12.29l-1.78,1Z"/><path class="cls-15" d="M184.26,177.54a.19.19,0,0,1,.24,0,.41.41,0,0,1,.09.3v1.35a1,1,0,0,1-.09.41.65.65,0,0,1-.24.29L178.87,183a.19.19,0,0,1-.24,0,.46.46,0,0,1-.1-.31V170.48a1.07,1.07,0,0,1,.1-.42.62.62,0,0,1,.24-.28l5.29-3.06a.18.18,0,0,1,.24,0,.41.41,0,0,1,.1.3v1.34a1.07,1.07,0,0,1-.1.42.62.62,0,0,1-.24.28l-4,2.3v3l3.7-2.14a.18.18,0,0,1,.24,0,.41.41,0,0,1,.1.3v1.34a1.07,1.07,0,0,1-.1.42.62.62,0,0,1-.24.28l-3.7,2.14v3.14Z"/><path class="cls-15" d="M191.33,171.63a1,1,0,0,1,.13-.45.69.69,0,0,1,.22-.25l1-.58a.19.19,0,0,1,.24,0,.34.34,0,0,1,.09.31,9,9,0,0,1-.25,1.7,7.85,7.85,0,0,1-.66,1.78,8.13,8.13,0,0,1-1.12,1.67,6.32,6.32,0,0,1-1.63,1.34,3.06,3.06,0,0,1-1.5.48,1.67,1.67,0,0,1-1.11-.44A2.87,2.87,0,0,1,186,176a7.59,7.59,0,0,1-.3-1.93c0-.47,0-1,0-1.57s0-1.12,0-1.61a12.27,12.27,0,0,1,.3-2.27,10,10,0,0,1,.7-2.06,8.18,8.18,0,0,1,1.11-1.72,5.44,5.44,0,0,1,1.5-1.25A3.3,3.3,0,0,1,191,163a1.67,1.67,0,0,1,1.12.38,2.11,2.11,0,0,1,.66,1,5.41,5.41,0,0,1,.25,1.4.76.76,0,0,1-.09.42.72.72,0,0,1-.24.29l-1,.57a.21.21,0,0,1-.23,0,.33.33,0,0,1-.13-.29,2.08,2.08,0,0,0-.18-.64,1,1,0,0,0-.37-.43.91.91,0,0,0-.59-.12,2.16,2.16,0,0,0-.83.3,3.17,3.17,0,0,0-.84.71,4.87,4.87,0,0,0-.59.95,5.45,5.45,0,0,0-.37,1.12,6.26,6.26,0,0,0-.15,1.21c0,.49,0,1,0,1.6s0,1.11,0,1.57a3.88,3.88,0,0,0,.15,1,1.61,1.61,0,0,0,.37.69.87.87,0,0,0,.59.26,1.55,1.55,0,0,0,.84-.26,3.18,3.18,0,0,0,.83-.66,3.86,3.86,0,0,0,.6-.81,4.1,4.1,0,0,0,.38-.86A4.54,4.54,0,0,0,191.33,171.63Z"/><path class="cls-15" d="M194.16,165.89a12,12,0,0,1,.26-2.15,9,9,0,0,1,.67-2A7.56,7.56,0,0,1,196.2,160a5.69,5.69,0,0,1,1.57-1.31,3.08,3.08,0,0,1,1.56-.51,1.52,1.52,0,0,1,1.1.46,2.79,2.79,0,0,1,.68,1.24,7.08,7.08,0,0,1,.27,1.85c0,.23,0,.49,0,.78s0,.59,0,.9,0,.61,0,.9,0,.56,0,.8a12,12,0,0,1-.26,2.15,9.39,9.39,0,0,1-.67,2,8,8,0,0,1-1.11,1.73,6.15,6.15,0,0,1-1.57,1.3,3.14,3.14,0,0,1-1.57.51,1.56,1.56,0,0,1-1.11-.45,2.67,2.67,0,0,1-.67-1.24,7.7,7.7,0,0,1-.26-1.84c0-.24,0-.5,0-.79s0-.58,0-.89,0-.61,0-.91S194.15,166.13,194.16,165.89Zm5.56-3.12a2.42,2.42,0,0,0-.57-1.78c-.35-.3-.81-.28-1.38,0a3.45,3.45,0,0,0-1.38,1.55,6,6,0,0,0-.58,2.44c0,.48,0,1,0,1.61s0,1.11,0,1.58a2.41,2.41,0,0,0,.58,1.77q.51.44,1.38-.06a3.57,3.57,0,0,0,1.38-1.53,5.76,5.76,0,0,0,.57-2.43q0-.74,0-1.62C199.75,163.77,199.74,163.24,199.72,162.77Z"/><path class="cls-15" d="M207,160.27l2.34-7.59.17-.4a.82.82,0,0,1,.36-.42l.83-.48a.18.18,0,0,1,.24,0,.41.41,0,0,1,.09.3v12.22a1.06,1.06,0,0,1-.09.42.62.62,0,0,1-.24.28l-1,.58a.18.18,0,0,1-.24,0,.41.41,0,0,1-.09-.3v-7.4l-1.6,5.18a3.27,3.27,0,0,1-.17.41.79.79,0,0,1-.29.33l-.64.37a.24.24,0,0,1-.28,0,1,1,0,0,1-.17-.21l-1.6-3.34v7.4a.86.86,0,0,1-.1.41.58.58,0,0,1-.23.29l-1,.57a.18.18,0,0,1-.24,0,.41.41,0,0,1-.1-.3V156.35a1.07,1.07,0,0,1,.1-.41.6.6,0,0,1,.24-.29l.83-.48q.24-.15.36,0l.17.2Z"/><path class="cls-15" d="M217,154.51l2.34-7.59c0-.09.09-.22.17-.4a.78.78,0,0,1,.36-.42l.83-.48a.18.18,0,0,1,.24,0,.41.41,0,0,1,.09.3v12.22a1.06,1.06,0,0,1-.09.42.62.62,0,0,1-.24.28l-1,.58a.19.19,0,0,1-.24,0,.41.41,0,0,1-.09-.3v-7.4l-1.6,5.18a4,4,0,0,1-.17.41.79.79,0,0,1-.29.33l-.64.36a.23.23,0,0,1-.28,0,.87.87,0,0,1-.17-.22l-1.6-3.33v7.4a.86.86,0,0,1-.1.41.58.58,0,0,1-.23.29l-1,.57a.17.17,0,0,1-.23,0,.44.44,0,0,1-.1-.31V150.59a1,1,0,0,1,.1-.41.64.64,0,0,1,.23-.29l.84-.48q.24-.15.36,0l.17.2Z"/><path class="cls-15" d="M228.69,151.89a.18.18,0,0,1,.23,0,.38.38,0,0,1,.1.3v1.35a.91.91,0,0,1-.1.41.58.58,0,0,1-.23.29l-5.4,3.11a.18.18,0,0,1-.23,0,.41.41,0,0,1-.1-.31V144.83a.92.92,0,0,1,.1-.42.67.67,0,0,1,.23-.28l5.3-3.06a.17.17,0,0,1,.23,0,.38.38,0,0,1,.1.3v1.34a.92.92,0,0,1-.1.42.55.55,0,0,1-.23.28l-4,2.3v3l3.7-2.13a.17.17,0,0,1,.23,0,.38.38,0,0,1,.1.3v1.34a.92.92,0,0,1-.1.42.63.63,0,0,1-.23.29l-3.7,2.13v3.14Z"/><path class="cls-15" d="M236.12,150c-.14.08-.24.08-.32,0l-.16-.17-3.44-5.89v7.8a.86.86,0,0,1-.1.41.58.58,0,0,1-.23.29l-1,.57a.18.18,0,0,1-.24,0,.43.43,0,0,1-.1-.3V140.45a1,1,0,0,1,.1-.41.6.6,0,0,1,.24-.29l.86-.5c.14-.08.24-.08.32,0l.16.17,3.44,5.89v-7.8a1,1,0,0,1,.09-.41.65.65,0,0,1,.24-.29l1-.57a.18.18,0,0,1,.24,0,.41.41,0,0,1,.09.3v12.23a1,1,0,0,1-.09.41.65.65,0,0,1-.24.29Z"/><path class="cls-15" d="M242.6,133a3.45,3.45,0,0,1,1.58-.54,1.52,1.52,0,0,1,1.12.4,2.77,2.77,0,0,1,.69,1.25,9,9,0,0,1,.28,2c0,.92,0,1.85,0,2.8a14.28,14.28,0,0,1-.28,2.33,9.42,9.42,0,0,1-.69,2,7.06,7.06,0,0,1-1.1,1.68,5.9,5.9,0,0,1-1.54,1.26l-3.1,1.79a.17.17,0,0,1-.23,0,.41.41,0,0,1-.1-.3V135.44a1.07,1.07,0,0,1,.1-.42.7.7,0,0,1,.23-.29Zm2,4.06a4.46,4.46,0,0,0-.16-1,1.53,1.53,0,0,0-.38-.69.88.88,0,0,0-.63-.24,2,2,0,0,0-.91.31l-1.65,1v8.52l1.71-1a3,3,0,0,0,.87-.72,4.32,4.32,0,0,0,.62-.95,5,5,0,0,0,.37-1.13,7.15,7.15,0,0,0,.16-1.22C244.65,138.89,244.65,138,244.62,137Z"/><path class="cls-15" d="M251.74,127.7c.13-.07.23-.08.3,0a1,1,0,0,1,.17.39l3,10.22a.41.41,0,0,1,0,.12,1.06,1.06,0,0,1-.09.42.62.62,0,0,1-.24.28l-.88.52c-.17.09-.28.1-.35,0a.59.59,0,0,1-.13-.23l-.53-1.8-3.88,2.25-.53,2.4a1.85,1.85,0,0,1-.14.39.74.74,0,0,1-.34.36l-.89.51a.17.17,0,0,1-.23,0,.38.38,0,0,1-.1-.3s0-.09,0-.14l3-13.7a2.24,2.24,0,0,1,.17-.58.72.72,0,0,1,.29-.33Zm.68,7.92L251.07,131l-1.35,6.17Z"/><path class="cls-15" d="M261.21,122.24a.17.17,0,0,1,.23,0,.41.41,0,0,1,.1.3v1.34a1.07,1.07,0,0,1-.1.42.61.61,0,0,1-.23.28L259,125.88v10.37a1.06,1.06,0,0,1-.09.42.62.62,0,0,1-.24.28l-1,.58a.19.19,0,0,1-.24,0,.41.41,0,0,1-.09-.3V126.84l-2.22,1.28a.18.18,0,0,1-.23,0,.38.38,0,0,1-.1-.3v-1.35a.88.88,0,0,1,.1-.41.58.58,0,0,1,.23-.29Z"/><path class="cls-15" d="M263.1,134.39a.17.17,0,0,1-.23,0,.38.38,0,0,1-.1-.3V121.85a.92.92,0,0,1,.1-.42.55.55,0,0,1,.23-.28l1-.58a.19.19,0,0,1,.24,0,.41.41,0,0,1,.1.3v12.22a1.07,1.07,0,0,1-.1.42.72.72,0,0,1-.24.29Z"/><path class="cls-15" d="M266.05,124.38a12.14,12.14,0,0,1,.26-2.15,9.49,9.49,0,0,1,.67-2,7.91,7.91,0,0,1,1.11-1.74,5.86,5.86,0,0,1,1.57-1.31,3,3,0,0,1,1.56-.5,1.55,1.55,0,0,1,1.11.45,2.88,2.88,0,0,1,.67,1.24,7.15,7.15,0,0,1,.27,1.85c0,.24,0,.5,0,.78s0,.59,0,.9,0,.61,0,.9,0,.56,0,.81a12.14,12.14,0,0,1-.26,2.15,9.49,9.49,0,0,1-.67,2,7.62,7.62,0,0,1-1.11,1.73,6,6,0,0,1-1.57,1.3,3.14,3.14,0,0,1-1.57.51,1.57,1.57,0,0,1-1.11-.45,2.76,2.76,0,0,1-.67-1.24,7.62,7.62,0,0,1-.26-1.84c0-.24,0-.5,0-.79s0-.58,0-.89,0-.61,0-.9S266,124.63,266.05,124.38Zm5.56-3.12a2.42,2.42,0,0,0-.57-1.78,1.14,1.14,0,0,0-1.38,0,3.63,3.63,0,0,0-1.38,1.55,5.81,5.81,0,0,0-.57,2.44c0,.49,0,1,0,1.61s0,1.12,0,1.59a2.37,2.37,0,0,0,.57,1.77q.53.44,1.38-.06a3.6,3.6,0,0,0,1.38-1.54,5.72,5.72,0,0,0,.57-2.43c0-.49,0-1,0-1.61S271.63,121.73,271.61,121.26Z"/><path class="cls-15" d="M280.48,124.36c-.14.08-.25.08-.32,0a1.11,1.11,0,0,1-.16-.17l-3.44-5.89v7.8a1.07,1.07,0,0,1-.1.42.62.62,0,0,1-.24.28l-1,.58a.18.18,0,0,1-.24,0,.41.41,0,0,1-.09-.3V114.85a1.06,1.06,0,0,1,.09-.42.72.72,0,0,1,.24-.29l.86-.49c.14-.08.24-.09.32,0l.16.18,3.44,5.88v-7.8a.91.91,0,0,1,.1-.41.58.58,0,0,1,.23-.29l1-.57a.18.18,0,0,1,.23,0,.46.46,0,0,1,.1.31v12.22a1.07,1.07,0,0,1-.1.42.61.61,0,0,1-.23.28Z"/><g id="Text"><path class="cls-14" d="M261.29,60.82,306.07,35c1.11-.64,2-.19,2,1a4.27,4.27,0,0,1-2,3.32L261.29,65.15c-1.11.64-2,.19-2-1A4.28,4.28,0,0,1,261.29,60.82Z"/><path class="cls-14" d="M261.29,78.15l44.78-25.86c1.11-.64,2-.18,2,1a4.29,4.29,0,0,1-2,3.33L261.29,82.48c-1.11.64-2,.19-2-1A4.3,4.3,0,0,1,261.29,78.15Z"/><path class="cls-14" d="M278.05,59.81l28-16.19c1.11-.63,2-.18,2,1a4.29,4.29,0,0,1-2,3.32l-28,16.18c-1.11.64-2,.18-2-1A4.25,4.25,0,0,1,278.05,59.81Z"/></g><g id="Text-2" data-name="Text"><path class="cls-14" d="M154.2,215.21,300.57,130.7c1.1-.63,2-.18,2,1a4.31,4.31,0,0,1-2,3.32L154.2,219.54c-1.1.64-2,.19-2-1A4.3,4.3,0,0,1,154.2,215.21Z"/><path class="cls-14" d="M154.2,223.88l146.37-84.51c1.1-.64,2-.18,2,1a4.31,4.31,0,0,1-2,3.33L154.2,228.21c-1.1.64-2,.19-2-1A4.28,4.28,0,0,1,154.2,223.88Z"/><path class="cls-14" d="M154.2,232.54,300.57,148c1.1-.64,2-.19,2,1a4.3,4.3,0,0,1-2,3.32L154.2,236.88c-1.1.64-2,.18-2-1A4.31,4.31,0,0,1,154.2,232.54Z"/><path class="cls-14" d="M154.2,241.21l146.37-84.5c1.1-.64,2-.19,2,1a4.31,4.31,0,0,1-2,3.32L154.2,245.54c-1.1.64-2,.19-2-1A4.31,4.31,0,0,1,154.2,241.21Z"/><path class="cls-14" d="M303.13,259.25,160,341.9a1.45,1.45,0,0,1-2.19-.83l0-.13a2.41,2.41,0,0,1,1.06-2.69l143.17-82.66a1.42,1.42,0,0,1,2.15.84l0,.14A2.36,2.36,0,0,1,303.13,259.25Z"/><path class="cls-14" d="M306,266.26,162.8,348.92a1.63,1.63,0,0,1-2.36-.76l0-.08a2.15,2.15,0,0,1,.89-2.62l143.18-82.67a1.59,1.59,0,0,1,2.31.79l0,.07A2.09,2.09,0,0,1,306,266.26Z"/><path class="cls-15" d="M154.2,302a.52.52,0,0,1-.25-.07.51.51,0,0,1-.26-.44V284.55a.5.5,0,0,1,.26-.44l14.54-8.4a.52.52,0,0,1,.51,0,.5.5,0,0,1,.25.44v16.91a.52.52,0,0,1-.25.44l-14.54,8.4A.59.59,0,0,1,154.2,302Zm.51-17.13v15.73l13.52-7.8V277Z"/><path class="cls-14" d="M175.73,273.27v1.16c0,.64.44.89,1,.58L226,246.58a2.2,2.2,0,0,0,1-1.72v-1.17c0-.64-.44-.89-1-.58l-49.25,28.44A2.17,2.17,0,0,0,175.73,273.27Z"/><path class="cls-14" d="M175.73,280.63v1.17c0,.63.44.89,1,.57l122-70.44a2.2,2.2,0,0,0,1-1.72V209c0-.63-.44-.89-1-.57l-122,70.44A2.2,2.2,0,0,0,175.73,280.63Z"/><path class="cls-14" d="M175.73,287.64v1.17c0,.63.44.89,1,.57l122-70.44a2.2,2.2,0,0,0,1-1.72v-1.17c0-.63-.44-.89-1-.57l-122,70.44A2.2,2.2,0,0,0,175.73,287.64Z"/><polygon class="cls-3" points="161.29 294.06 157.91 290.81 159.04 288.41 160.97 290.26 169.3 272.62 170.76 274.02 161.29 294.06"/><path class="cls-15" d="M154.2,328a.52.52,0,0,1-.25-.07.51.51,0,0,1-.26-.44V310.55a.51.51,0,0,1,.26-.44l14.54-8.4a.52.52,0,0,1,.51,0,.5.5,0,0,1,.25.44v16.91a.54.54,0,0,1-.25.45l-14.54,8.39A.59.59,0,0,1,154.2,328Zm.51-17.13v15.73l13.52-7.8V303Z"/><path class="cls-14" d="M175.73,299.27v1.17c0,.63.44.89,1,.57L226,272.58a2.2,2.2,0,0,0,1-1.72v-1.17c0-.64-.44-.89-1-.58l-49.25,28.44A2.17,2.17,0,0,0,175.73,299.27Z"/><path class="cls-14" d="M175.73,306.63v1.17c0,.63.44.89,1,.57l122-70.44a2.17,2.17,0,0,0,1-1.72V235c0-.63-.44-.89-1-.57l-122,70.44A2.2,2.2,0,0,0,175.73,306.63Z"/><path class="cls-14" d="M175.73,313.64v1.17c0,.63.44.89,1,.57l122-70.44a2.2,2.2,0,0,0,1-1.72v-1.17c0-.63-.44-.89-1-.57l-122,70.44A2.2,2.2,0,0,0,175.73,313.64Z"/><polygon class="cls-3" points="161.29 320.06 157.91 316.81 159.04 314.41 160.97 316.26 169.3 298.62 170.76 300.02 161.29 320.06"/><path class="cls-15" d="M154.2,276a.52.52,0,0,1-.25-.07.51.51,0,0,1-.26-.45v-16.9a.51.51,0,0,1,.26-.45l14.54-8.39a.52.52,0,0,1,.51,0,.5.5,0,0,1,.25.44v16.91a.52.52,0,0,1-.25.44l-14.54,8.4A.59.59,0,0,1,154.2,276Zm.51-17.13v15.73l13.52-7.8V251Z"/><path class="cls-14" d="M175.73,247.27v1.16c0,.64.44.89,1,.58L226,220.57a2.17,2.17,0,0,0,1-1.72v-1.17c0-.63-.44-.89-1-.57l-49.25,28.43A2.2,2.2,0,0,0,175.73,247.27Z"/><path class="cls-14" d="M175.73,254.63v1.17c0,.63.44.89,1,.57l122-70.44a2.2,2.2,0,0,0,1-1.72V183c0-.64-.44-.89-1-.57l-122,70.44A2.2,2.2,0,0,0,175.73,254.63Z"/><path class="cls-14" d="M175.73,261.64v1.17c0,.63.44.89,1,.57l122-70.44a2.2,2.2,0,0,0,1-1.72v-1.17c0-.64-.44-.89-1-.58l-122,70.45A2.17,2.17,0,0,0,175.73,261.64Z"/><polygon class="cls-3" points="161.29 268.06 157.91 264.81 159.04 262.41 160.97 264.26 169.3 246.62 170.76 248.02 161.29 268.06"/></g><g id="Sign"><path class="cls-15" d="M249.69,321.21a23.27,23.27,0,0,0,8.24-6.22c1.86-2.31,3.74-5.17,4-8.19a4,4,0,0,0-.64-2.83,2,2,0,0,0-2.55-.29,8.18,8.18,0,0,0-3.14,3.75,14.28,14.28,0,0,0-1.57,6.21,15.35,15.35,0,0,0,1.12,5.83,5.17,5.17,0,0,0,2.71,3.1,6.55,6.55,0,0,0,8.2-2.82A19.23,19.23,0,0,0,268,308.7c-.23-1.23-1.14-2.65-2.59-2a2.59,2.59,0,0,0-1.17,1.35,13.7,13.7,0,0,0-.91,2.78c-.7,3.12-.34,8.17,3.5,9.08a4,4,0,0,0,4-1.88,9.06,9.06,0,0,0,1.52-5.4,9.57,9.57,0,0,0-.66-3c-.23-.6-.91-.2-.71.36.34,1,.25,2,.65,3a5.28,5.28,0,0,0,.78,1.39c.64.8,2,1.42,2.88.58.71-.68.61-1.9.48-2.78a11.64,11.64,0,0,0-.69-2.54l-.56.53a4.08,4.08,0,0,0,2,1.65,1.35,1.35,0,0,0,1.8-1.48h-.69c.3,1.22,1.92.44,2.66.13a2.26,2.26,0,0,0,1.35-3.09l-.31.66a2.62,2.62,0,0,0,2.69-1.35,3.28,3.28,0,0,0,.12-2.64,4.31,4.31,0,0,0-2.18-2.32c-.93-.4-1.85-.24-2.07.83a6.31,6.31,0,0,0,1.27,5.42,4.27,4.27,0,0,0,2.62,1.7,2.92,2.92,0,0,0,2.65-1.6,5.53,5.53,0,0,0,.69-3.22,13,13,0,0,0-.44-2.85,4.27,4.27,0,0,0-1.62-2.33c-.66-.46-1.83-.84-2.32.06s.47,1.86,1,2.49a23.83,23.83,0,0,0,2.7,2.52c1,.84,2.08,1.66,3,2.58s2,2,1.73,3.26a3.46,3.46,0,0,1-2.39,2.25,5,5,0,0,1-2.12.31,2.14,2.14,0,0,1-.35-.06c-.29-.1-.33-.11-.18-.37a3.4,3.4,0,0,1,.59-.66,20.66,20.66,0,0,1,7.44-4.51c.46-.17.23-1.18-.21-1a24.13,24.13,0,0,0-5.87,3.06,16.23,16.23,0,0,0-2.16,1.9c-.54.57-1,1.42-.42,2.14a2.59,2.59,0,0,0,2.42.52,5.63,5.63,0,0,0,2.71-1.16,3.38,3.38,0,0,0,.87-4.3c-1-2-3-3.34-4.66-4.71a27,27,0,0,1-2.45-2.21c-.36-.38-.64-.82-1-1.2-.14-.17-.15-.16.08-.28a1.09,1.09,0,0,1,.93.09c1.71.82,1.94,3.11,2,4.8a4,4,0,0,1-1.12,3,2,2,0,0,1-1.79.57,3.42,3.42,0,0,1-1.4-.86,4.92,4.92,0,0,1-1.66-2.76,5.34,5.34,0,0,1-.07-1.44c.05-.6.09-1.3.85-1.22a3.06,3.06,0,0,1,2.42,2.33,2,2,0,0,1-2.32,2.27c-.34,0-.4.42-.3.66.37.88-.26,1.46-1,1.77a8.8,8.8,0,0,1-1,.35,3.78,3.78,0,0,1-.46.1,2.58,2.58,0,0,0-.29,0c-.23.09-.12-.3,0,.22-.11-.47-.75-.62-.69,0,.08.92-1.12.68-1.61.36a4.45,4.45,0,0,1-1-1c-.4-.5-.73.12-.57.54a10,10,0,0,1,.5,1.7,3,3,0,0,1-.07,2.17c-.58.81-1.76.09-2.16-.53-.72-1.11-.56-2.4-1-3.61L271,310a7.75,7.75,0,0,1,0,5.47,5.38,5.38,0,0,1-2.48,3.14,3.27,3.27,0,0,1-4.18-1.88,8.57,8.57,0,0,1-.45-4.46,12.63,12.63,0,0,1,.73-2.89,3.62,3.62,0,0,1,.74-1.38,1.09,1.09,0,0,1,1.55-.08,2.78,2.78,0,0,1,.42,1.5,18.19,18.19,0,0,1-.22,4.66,12.58,12.58,0,0,1-1.68,5.06,6,6,0,0,1-7.12,2.63,4.25,4.25,0,0,1-2.58-2.64,14.32,14.32,0,0,1-1.08-5,13.22,13.22,0,0,1,1.23-5.71,9,9,0,0,1,2.65-3.67c.64-.45,1.66-.89,2.33-.28a2.68,2.68,0,0,1,.62,2.08c-.12,2.78-1.83,5.42-3.43,7.6a23.17,23.17,0,0,1-5.74,5.3c-.86.59-1.73,1.15-2.62,1.69,0,0,0,.08,0,.07Z"/><path class="cls-15" d="M292.06,304.37c1.33-1.37,2.95-3,2.94-5.07a3,3,0,0,0-.86-2.24,1.47,1.47,0,0,0-2.13.57,3.76,3.76,0,0,0,.39,4.72c1.37,1.21,3.63.58,4.69-.72a4.49,4.49,0,0,0,.92-2.48,6.88,6.88,0,0,0,0-3.16c-.18-.53-.72-.26-.62.23a3.4,3.4,0,0,0,1.12,2.13,2.34,2.34,0,0,0,3-.15,3.06,3.06,0,0,0,1-2.48,5.2,5.2,0,0,0-.78-2.2l-.39.49c.87,1,1.88,1.82,3.11.75a3,3,0,0,0,.87-1.59,10.21,10.21,0,0,0,.47-2.45c.07-3.07-1.83-6-4-8-.54-.48-1.74-1.54-2.17-.35a4.36,4.36,0,0,0,.24,2.64c.23.75.49,1.48.78,2.2a24.87,24.87,0,0,0,5.71,8.33,2.14,2.14,0,0,0,2.13.82,2,2,0,0,0,1.35-1.48,9.4,9.4,0,0,0,.05-2.25c0-1.15,0-2.29,0-3.43l-.54.36c.88.82,1.72,1.71,2.65,2.47a1.21,1.21,0,0,0,1.79-.1,1.4,1.4,0,0,0,.25-.91c0-.3-.19-.57.15-.75s1.11.23,1.58.25a1.75,1.75,0,0,0,1.08-.33c.75-.54.56-1.2.48-2s.85-1,1.44-1.19c1.12-.37,2.64-.51,3-1.81.1-.37-.36-.91-.5-.39-.1.34-1.08.6-1.37.7-.56.19-1.13.35-1.69.55a3,3,0,0,0-1.33.8,1.36,1.36,0,0,0-.32.86c0,.39.25.9.12,1.25-.38,1-1.72.19-2.39.22a1.08,1.08,0,0,0-1.06,1.07c0,.23.11.52.06.73-.13.57-.79.3-1.07.09a31.53,31.53,0,0,1-2.54-2.37c-.28-.26-.55.06-.54.36.06,1.38,0,2.76.07,4.13a2.72,2.72,0,0,1-.17,1.57,1.28,1.28,0,0,1-1.86.37,16,16,0,0,1-2.82-3,23.13,23.13,0,0,1-2.13-3.29,23.72,23.72,0,0,1-1.47-3.44,4.84,4.84,0,0,1-.45-2.26c.12-.5.64,0,.87.2a11.71,11.71,0,0,1,3.64,5.1,7.25,7.25,0,0,1-.07,4.49,1.81,1.81,0,0,1-1.44,1.49c-.66.06-1.15-.53-1.54-1s-.52.23-.39.49a5.86,5.86,0,0,1,.7,1.42,2.17,2.17,0,0,1-3.06,2.28,2.11,2.11,0,0,1-.88-1.53l-.63.24a6,6,0,0,1-.08,2.53,3.55,3.55,0,0,1-.79,2c-1,1.13-3.42,1.71-4.22.08a2.6,2.6,0,0,1,.32-2.73c.32-.38.9-.7,1.32-.25a2,2,0,0,1,.4,1.23,4.54,4.54,0,0,1-.84,2.32,21.4,21.4,0,0,1-1.68,2.32c-.13.16,0,.73.22.5Z"/></g><g id="Photo"><ellipse class="cls-15" cx="167.34" cy="125.89" rx="23.88" ry="13.79" transform="translate(-25.36 207.86) rotate(-60)"/><g id="Top"><path class="cls-3" d="M167.34,145.39a33,33,0,0,0,10.37-10.13,23.6,23.6,0,0,0-4.3-.69,17.35,17.35,0,0,0-6.87.74,26.21,26.21,0,0,0-7.88,4.67,11.2,11.2,0,0,0-4.4,5.81C157.36,148.36,162.07,148.44,167.34,145.39Z"/><path class="cls-16" d="M167.34,145.39a33,33,0,0,0,10.37-10.13,23.6,23.6,0,0,0-4.3-.69,17.35,17.35,0,0,0-6.87.74,26.21,26.21,0,0,0-7.88,4.67,11.2,11.2,0,0,0-4.4,5.81C157.36,148.36,162.07,148.44,167.34,145.39Z"/><g id="Head"><path class="cls-17" d="M176.57,118.1a2.85,2.85,0,0,0,.41-.72,2.08,2.08,0,0,0-.18-2,5.5,5.5,0,0,0,.77-1,1.72,1.72,0,0,0,.25-1.15c-.13-.65-.79-.91-1.38-1.08a3.45,3.45,0,0,0,1.1-1.06,1.84,1.84,0,0,0,.33-1.47,10.79,10.79,0,0,1-3.58.46c-1.59-.06-3.12-.38-4.74-.29a13.32,13.32,0,0,0-4.89,1.24c-3,1.45-5.19,3.71-5.2,6.35-1.41.63-2.72,4.32-1,7.66,1.76,3.51,4.42,6,4.68,8,1.29-1.54,2.57-3.08,3.86-4.61l4.33-5.17,2-2.4.87-1a3.62,3.62,0,0,1,1.37-.94A3,3,0,0,0,176.57,118.1Z"/><path class="cls-18" d="M177.05,127.93c-.41,2-1.39,3.67-3,4.32a13.9,13.9,0,0,1-2.63.6v2.34c.74.58,2.37,2.17.08,3.49-3.07,1.77-6.78.24-8.58-1.32l-.52-7.43a2.36,2.36,0,0,1-2.72.21,3.63,3.63,0,0,1-1.36-4.54,2.35,2.35,0,0,1,3.38-1.55c.86.6.87,1.57,1.24,1.78s1-.28,1.19-1.13a4.83,4.83,0,0,0,0-2.18,6.71,6.71,0,0,0,1.57-1.84,3.64,3.64,0,0,0,.31-2.85c2.21-2.26,8-3.86,9.52-3,.94,1.43,1.46,4.9,1.7,7A19.5,19.5,0,0,1,177.05,127.93Z"/><path class="cls-19" d="M171.38,132.85c-1.85.3-5.6.2-6.63-.68a7,7,0,0,1-1.56-3s.27,2.8,1.09,3.89,2.78,1.2,4,1.25a27.46,27.46,0,0,0,3.14-.16Z"/><path class="cls-17" d="M169.73,122.61a1,1,0,0,1-.71,1,.64.64,0,0,1-.78-.66,1,1,0,0,1,.7-1A.66.66,0,0,1,169.73,122.61Z"/><path class="cls-17" d="M168.81,120.29l-1.46,1.42a1.14,1.14,0,0,1,.19-1.44A.82.82,0,0,1,168.81,120.29Z"/><path class="cls-17" d="M175.7,119.07,174,118.6a1,1,0,0,1,1.17-.75A.91.91,0,0,1,175.7,119.07Z"/><path class="cls-17" d="M175.49,121a1,1,0,0,1-.71,1,.65.65,0,0,1-.78-.66,1,1,0,0,1,.7-1A.65.65,0,0,1,175.49,121Z"/><polygon class="cls-19" points="171.19 121.02 172.43 126.22 174.96 124.52 171.19 121.02"/><path class="cls-19" d="M170.88,127.91l1.87-.07a1.17,1.17,0,0,1-1,1.09A.87.87,0,0,1,170.88,127.91Z"/></g></g></g></g></g><g id="Speech_bubble_2" data-name="Speech bubble 2"><g id="Speech_Bubble" data-name="Speech Bubble"><g id="Speech_Bubble-2" data-name="Speech Bubble"><path class="cls-3" d="M385.76,80.9l3-5.64-2.42-7V64l7.38,4.26v4.26l-3.17,5.5a.45.45,0,0,1-.22.19h0Z"/><path class="cls-20" d="M385.76,80.9l3-5.64-2.42-7V64l7.38,4.26v4.26l-3.17,5.5a.45.45,0,0,1-.22.19h0Z"/><path class="cls-3" d="M372.52,32.75a4.88,4.88,0,0,1,2.21-3.83l1.8-1a4.85,4.85,0,0,1,4.42,0l22.44,12.93a4.87,4.87,0,0,1,2.22,3.83V75a4.88,4.88,0,0,1-2.22,3.83l-1.8,1a4.91,4.91,0,0,1-4.42,0l-8.08-4.65-3.17,5.48a.47.47,0,0,1-.85-.08L381.72,71l-7-4a4.88,4.88,0,0,1-2.21-3.83Z"/><path class="cls-20" d="M405.61,75a4.88,4.88,0,0,1-2.22,3.83l-1.8,1a4.94,4.94,0,0,1-4,.18c1,.39,1.83-.2,1.83-1.46V48.23a4.57,4.57,0,0,0-.65-2.18L405,42.46a4.5,4.5,0,0,1,.65,2.18Z"/><path class="cls-21" d="M372.59,32.12c.26-.94,1.11-1.24,2.14-.65L397.17,44.4a4.36,4.36,0,0,1,1.56,1.65L405,42.46a4.44,4.44,0,0,0-1.56-1.65L381,27.88a4.94,4.94,0,0,0-4.43,0l-1.8,1A4.87,4.87,0,0,0,372.59,32.12Z"/></g><g id="Check"><path class="cls-1" d="M382.81,65.35l-.27,0A2,2,0,0,1,381,64.2l-4-8.47a2,2,0,0,1,3.62-1.7l2.67,5.68L392.49,49a2,2,0,0,1,3,2.61l-11.19,13A2,2,0,0,1,382.81,65.35Z"/></g></g></g><g id="Speech_bubble_1" data-name="Speech bubble 1"><g id="Like_Bubble" data-name="Like Bubble"><g id="Speech_Bubble-3" data-name="Speech Bubble"><path class="cls-17" d="M83,138.19,67.82,147l6,13.59a1.37,1.37,0,0,0,.58.65l5.23,3a1.4,1.4,0,0,0,2-.82l6.56-22.22Z"/><path class="cls-17" d="M104.5,45.2,41.64,81.49A3.19,3.19,0,0,0,40.19,84v77.24a3.17,3.17,0,0,0,1.45,2.49l5.17,2.89a3.22,3.22,0,0,0,2.9,0l62.86-36.29a3.21,3.21,0,0,0,1.44-2.5V50.56a3.14,3.14,0,0,0-1.45-2.48l-5.17-2.9A3.23,3.23,0,0,0,104.5,45.2Z"/><path class="cls-15" d="M114,50.3c-.11-.72-.7-1-1.42-.57L49.71,86a3,3,0,0,0-1,1.08l-8-4.59a2.88,2.88,0,0,1,1-1l62.86-36.3a3.23,3.23,0,0,1,2.89,0l5.17,2.9A3.15,3.15,0,0,1,114,50.3Z"/><path class="cls-22" d="M112.57,49.73,49.71,86a3.19,3.19,0,0,0-1.45,2.5v77.25c0,.92.65,1.29,1.45.83l24.44-14.11,4.95,11.12a1.39,1.39,0,0,0,2.61-.17L87.16,145l25.41-14.67a3.21,3.21,0,0,0,1.44-2.5V50.56C114,49.64,113.36,49.27,112.57,49.73Z"/></g><path class="cls-3" d="M67.92,107.68l-7.11,4.07a2.26,2.26,0,0,0-1,1.78l0,29.55c0,.65.46.92,1,.59l7.08-4.09a2.25,2.25,0,0,0,1-1.78V108.28C69,107.62,68.49,107.35,67.92,107.68Zm31.89-6a8.9,8.9,0,0,0,3.09-6.23c0-3.4-2.52-2.64-2.52-2.64a9.32,9.32,0,0,0,2-5.46,3,3,0,0,0-1.33-2.74,2.49,2.49,0,0,0-2.45.33L86,92.29a23.07,23.07,0,0,0,.43-7.8,15.87,15.87,0,0,0-1.26-4.37,2.61,2.61,0,0,0-1.24-1.36c-2.19-1.07-5.63,1.43-5.63,2.45,0,1.28.54,7.94,0,9.84s-6.3,15-6.3,15l0,27.41,21-12.15c2.76-1.59,4.68-5,4.66-7.28a7.81,7.81,0,0,0-.52-3c1.76-1,3.54-4.75,3.54-6.32C100.64,102.34,99.81,101.7,99.81,101.7Z"/><path class="cls-11" d="M67.92,107.68l-7.11,4.07a2.26,2.26,0,0,0-1,1.78l0,29.55c0,.65.46.92,1,.59l7.08-4.09a2.25,2.25,0,0,0,1-1.78V108.28C69,107.62,68.49,107.35,67.92,107.68Zm31.89-6a8.9,8.9,0,0,0,3.09-6.23c0-3.4-2.52-2.64-2.52-2.64a9.32,9.32,0,0,0,2-5.46,3,3,0,0,0-1.33-2.74,2.49,2.49,0,0,0-2.45.33L86,92.29a23.07,23.07,0,0,0,.43-7.8,15.87,15.87,0,0,0-1.26-4.37,2.61,2.61,0,0,0-1.24-1.36c-2.19-1.07-5.63,1.43-5.63,2.45,0,1.28.54,7.94,0,9.84s-6.3,15-6.3,15l0,27.41,21-12.15c2.76-1.59,4.68-5,4.66-7.28a7.81,7.81,0,0,0-.52-3c1.76-1,3.54-4.75,3.54-6.32C100.64,102.34,99.81,101.7,99.81,101.7Z"/></g></g><g id="Character"><g id="Character-2" data-name="Character"><g id="Bottom"><path class="cls-22" d="M419.08,356.53c.34,2.12,1,4.59,1.56,8.94s-.42,4.51,2.2,15.43c1.57,6.56,1.21,9.15-2.89,14.56-4.39,5.8-8.83,4.51-11.6-2.08-2.37-5.63-2.17-8.22-2.06-14s.08-7.47-.09-12.06c-.15-4,.25-6.8.06-9.9Z"/><path class="cls-23" d="M420.07,372.39c-.68-5.62-.75-11.42-1-15.21-.48-8.5,1.58-25.23.63-38l-21.45-2.62c.62,5,6.1,27.6,8,41.22,0,0,.47,18.45,1.49,26.58a1.56,1.56,0,0,0,2.16,1.26,14.09,14.09,0,0,1,9.74-.43,1.55,1.55,0,0,0,2.11-1.44C421.78,380.74,420.58,376.61,420.07,372.39Z"/><path class="cls-23" d="M361.22,319.65c.08,17.66-.1,33.29-.73,37.87s-.89,6.13-2.06,9.34-3.14,7.47-4.9,9.54c0,0-5,5.38-3.92,5.94s11.69,1.66,16.42.24,5.24-5.44,6.85-12.77,3-18,3-18a4.91,4.91,0,0,1-.49-1.24c-.63-2.11,1.3-7.61,1.79-12.93Z"/><path class="cls-17" d="M380.58,362.72c-.31,1.71-1.78,3.64-2.44,6.31a47.19,47.19,0,0,0-1.38,9.26l-.24,4.36-1.18-.06s.3-5.52.44-7.94,0-4.21-1.16-4.53C374.62,370.12,374.85,362.4,380.58,362.72Z"/><path class="cls-22" d="M375.69,350.78c.77,2,3.34,4.87,4.44,6.8a7.16,7.16,0,0,1,.9,3.32,3.49,3.49,0,0,1-1,2.6,38.24,38.24,0,0,0-3.68,4.07c-1.45,1.94-4.16,6.47-4.91,9.67s-1.19,6-3.94,7.6c-2.14,1.24-10.93,3-15.38,3.25-6.08.39-7.65-2.53-5.38-4.87s6.13-6.32,6.83-6.82a11,11,0,0,1,5.65.79c3.4,1.46,4.48,3.44,8.05,1.65,3.24-1.61,4.53-7.59,4.25-16.19C371.17,352.88,375.69,350.78,375.69,350.78Z"/><path class="cls-22" d="M405.43,194.81c.39,2.21.84,4.29,1.63,5.4,4.84,6.79,9.76,15,10.58,27.62a556.67,556.67,0,0,1,.28,59.75c.21,2.69,2.24,9.21,2.53,24.54.22,12.21-.59,31.2-.59,31.2s-8.78,4.24-16.38,1.32c-3-11.67-8-39.71-10.9-53.06-3.1-14.06-4.89-24.89-4.89-24.89l-3,23a70.86,70.86,0,0,1-.21,15.87c-1,8.15-7.6,36.9-7.6,36.9s-9.73,2.95-16.27-1.63c0,0-.56-40.68-.57-49.66s-1.91-66.75,3.74-90.2a51.83,51.83,0,0,0,.36-5.45C370.56,200.9,396.84,200.53,405.43,194.81Z"/><path class="cls-15" d="M420,339.1c-3.34,3-13.54,3.78-17.53,1.64l1.21,6.35s2.63,1.8,8.43,1.31,7.65-2.81,7.65-2.81Z"/><path class="cls-15" d="M377.88,338.47c-3.46,1.14-13.73.54-17.49-1.8l.16,5.45s2.11,2,7.9,2.66,8.31-1,8.31-1Z"/><path class="cls-17" d="M387.69,266.69l-5.15-36a19,19,0,0,1-15.2-7.32s-.25,7.52,12.12,11l5.72,30.4-.47,25Z"/><path class="cls-17" d="M363.87,200.58s6.23,4.73,20.92,4.12,21.83-5.25,21.73-5.5h0a20.57,20.57,0,0,1-1-3.83c0-.22-.08-.41-.1-.55-8.59,5.72-34.87,6.09-41.27.75,0,0-.08,3.51-.29,5Z"/><path class="cls-17" d="M395.51,200.26c-1.69,3.52-4.2,10.88-4.39,15.94a17.53,17.53,0,0,0,7.57,1.69s1-8.86-.61-16.43Z"/><path class="cls-17" d="M399.81,198.33c2.6,2.9,7.08,9.27,8.67,14.07a17.37,17.37,0,0,1-6.8,3.74s-3.44-8.22-4-15.94Z"/></g><g id="Top-2" data-name="Top"><g id="Arm"><path class="cls-23" d="M366.63,151.21c-6.4,4.27-21.37,14.64-25.82,17.93,0,0-15.09-7.75-20.68-11.1-2.46-1.47-3-2.36-3.34-3.45a20.75,20.75,0,0,0-1.58-4.22c-.82-1.53-1.27-2-2.25-4s-2-5.9-1.86-7.73c-.56-.8-2.63-.62-3.31,1.62a12.57,12.57,0,0,0,.07,5.7c.19,1.23.52,2.52.17,2.76s-2.21-.48-4-.71-3.45-.83-5.34,0a2.33,2.33,0,0,0-1.29,3.23,3,3,0,0,0,1.17,1.07,2.52,2.52,0,0,0-1.82.78,2.72,2.72,0,0,0,.31,3.43,1.54,1.54,0,0,0-1.36,1.5c-.09,1.18.16,2.31,1.36,2.65,0,0-.93.32-.93.89a2.74,2.74,0,0,0,1.16,2.45,9,9,0,0,0,3.39.44s.22.4,1.38.86c.41.16,1.38.55,3,1.06a16.57,16.57,0,0,0,4.25.86c1.41.11,2.21-.18,6.33,3,2.65,2.08,13,9.75,18.52,13.38,8.38,5.53,9.63,4.08,17.86-.66s20.17-11.79,20.17-11.79l7.37-25S374.11,146.22,366.63,151.21Z"/><path class="cls-24" d="M302.33,149.13a4.62,4.62,0,0,1,.73.52,2.88,2.88,0,0,1,.59.7l-.07,0a5.79,5.79,0,0,1,3.55,1.57,3.12,3.12,0,0,1,.58.85,1.51,1.51,0,0,1,.07,1.09,1.09,1.09,0,0,1-.33.5,1,1,0,0,1-.59.16c-.35,0-.65-.06-1-.07-.62,0-1.27,0-1.92,0A6.73,6.73,0,0,1,302,154a15.38,15.38,0,0,1-3.47-1.72,12.56,12.56,0,0,0,1.76.78c.6.23,1.19.47,1.8.64A7.92,7.92,0,0,0,304,154c.63,0,1.27-.05,1.93,0,.33,0,.66.05.95.05s.41-.07.53-.37a1.63,1.63,0,0,0-.54-1.53,5.94,5.94,0,0,0-3.3-1.65h-.05l0-.05a2.53,2.53,0,0,0-.49-.7A5.34,5.34,0,0,0,302.33,149.13Z"/><path class="cls-24" d="M305.62,154.18a1.32,1.32,0,0,1,1.33.9,1.54,1.54,0,0,1-.5,1.62,5.51,5.51,0,0,1-3,1.64,4.63,4.63,0,0,1-1.71-.24c-.54-.15-1.06-.31-1.59-.49-1.05-.35-2.1-.71-3.13-1.11,1.09.22,2.16.5,3.23.78a11.08,11.08,0,0,0,3.16.63,4.21,4.21,0,0,0,1.48-.51,7.71,7.71,0,0,0,1.32-.93,1.33,1.33,0,0,0,.52-1.34A1.26,1.26,0,0,0,305.62,154.18Z"/><path class="cls-24" d="M304.1,158a1.81,1.81,0,0,1,1.47.37,1,1,0,0,1,.32.76,2.23,2.23,0,0,1-.19.79,3.09,3.09,0,0,1-1.2,1,3.59,3.59,0,0,1-1.48.58,5.67,5.67,0,0,1-1.52-.32c-.47-.11-1-.15-1.46-.22-1-.1-2-.19-3-.32,1-.05,2-.05,3,0a9.93,9.93,0,0,1,1.52.16,5.13,5.13,0,0,0,1.41.27,3.09,3.09,0,0,0,1.3-.48,3.37,3.37,0,0,0,1.11-.85,2.24,2.24,0,0,0,.2-.65.72.72,0,0,0-.19-.6A1.86,1.86,0,0,0,304.1,158Z"/><path class="cls-24" d="M303.45,161.21a.8.8,0,0,1,.34.55,1.51,1.51,0,0,1-.11.66,5.57,5.57,0,0,1-.72,1.05,6.29,6.29,0,0,1-.47.43,1.68,1.68,0,0,1-.59.31,5.21,5.21,0,0,1-1.23.22l1.1-.53a2.15,2.15,0,0,0,.46-.3,5.6,5.6,0,0,0,.41-.43,8.83,8.83,0,0,0,.74-.9A1,1,0,0,0,303.45,161.21Z"/><path class="cls-24" d="M307.58,153.75a7,7,0,0,0,4,9,8.18,8.18,0,0,1-3.52-1.82,6.93,6.93,0,0,1-1.94-2.61l-.41.76c-.14-.49-.16-.89-1.35-1.08a8.52,8.52,0,0,0,1.8-1.26c.52-.57,1.3-1.49,0-2.5a3.81,3.81,0,0,0,.92,0A.46.46,0,0,0,307.58,153.75Z"/><path class="cls-3" d="M326.7,161.72c1.53,4.05-.9,11.29-4.83,13.94,0,0,9.8,7.12,14.08,9.81s5.93,3.34,10.25,1.37,27.05-15.05,27.05-15.05l7.51-26.41s-1.11-.29-4.73.6-5.83,2.21-14.69,8.19-20.53,14.22-20.53,14.22Z"/><path class="cls-25" d="M340.81,168.39a12.59,12.59,0,0,1,6.77,6.54s-.62-5.35-5.16-7.67Z"/></g><path class="cls-1" d="M392.56,142.09,406,146.27c2.31.79,11,6.11,8,19.25-1,4.34-2.38,10.44-3.62,16.53-.95,4.66,2.53,13.62,5.35,27.89,0,0-11.54,9.17-34.46,6.58-17.49-2-19.38-8.52-19.38-8.52.48-16.28,1.92-22.57,1.89-28.75a14.89,14.89,0,0,1-2.66-8.65c-.12-5.81,1.41-8.93,6.61-15.51a110.86,110.86,0,0,1,9.53-10.6Z"/><path class="cls-3" d="M367.69,162.33c-4.05,9.22-1.32,61.77-1.68,57.83,0,0-7.53-2.92-8.23-5.43,0-9.46,1.74-28.47,1.85-35,.13-7.47.05-12.88,2.46-17.47s11.55-15.85,15.16-17.79C373.52,147.73,369.22,156.81,367.69,162.33Z"/><g class="cls-26"><path d="M367.69,162.33c-4.05,9.22-1.32,61.77-1.68,57.83,0,0-7.53-2.92-8.23-5.43,0-9.46,1.74-28.47,1.85-35,.13-7.47.05-12.88,2.46-17.47s11.55-15.85,15.16-17.79C373.52,147.73,369.22,156.81,367.69,162.33Z"/></g><path class="cls-17" d="M382.41,145c-2.54,1.75-13.94,9.58-16.2,24.82,0-6.72,2.53-15,4.93-18.86,2.93-4.75,7.74-7.9,11.18-9.91Z"/><path class="cls-3" d="M397.7,142.25a13.21,13.21,0,0,1,0,3.06c-.12,2.86-4.63,24.45-4.71,34.8a337.16,337.16,0,0,0,2.5,41.66s16.69,1.52,22.84-6.79a117.61,117.61,0,0,1-5.65-21.74c-1.23-7.47,3.74-25.74,2.46-36.56-.54-4.52-.58-7.55-4-8.62a51.18,51.18,0,0,1-6.91-3.07Z"/><g class="cls-26"><path d="M397.7,142.25a13.21,13.21,0,0,1,0,3.06c-.12,2.86-4.63,24.45-4.71,34.8a337.16,337.16,0,0,0,2.5,41.66s16.69,1.52,22.84-6.79a117.61,117.61,0,0,1-5.65-21.74c-1.23-7.47,3.74-25.74,2.46-36.56-.54-4.52-.58-7.55-4-8.62a51.18,51.18,0,0,1-6.91-3.07Z"/></g><path class="cls-14" d="M369.49,102.86c-4.89.32-9.15,9.53-4.25,17,8.69,13.29,28.73,6.25,28.73,6.25L397.81,137s2.84-3.22,6.45-7.69c6.49-8,5.5-21.75-2.33-23.28C403.09,98.09,377.41,87.27,369.49,102.86Z"/><path class="cls-23" d="M369.79,106.86c-1.15,2.34-3.12,6.68-2.69,19.67.34,10.15,3.87,12.37,7.2,13.67,1.63.63,4.14.62,7.63.24l.09,4.76s-6.33,5.83-4.32,17.54c19.66-8.19,20-18.23,20-18.23l.32-15.73c.64,1,3.9,2.35,6.34-.78,2.88-3.68,2.24-8.07-.32-9.68s-5.69-.09-6.86,2.91c-2.76,1.15-6.42-1.71-6.24-12.38-3.37-1.77-9.93.73-12,.49C375.71,109,373.05,105.12,369.79,106.86Z"/><path class="cls-14" d="M369.79,106.86c2.84-.91,4.19,4.46,8.25,8.2a15.16,15.16,0,0,0,15.87,2.81c0-.49,2.1-9.64-5.87-13.86S371.63,101.56,369.79,106.86Z"/><path class="cls-3" d="M402.79,126.6a1.45,1.45,0,0,1-1.24,1.64A1.47,1.47,0,0,1,399.9,127a1.46,1.46,0,0,1,2.89-.41Z"/><path class="cls-24" d="M381.93,140.44c8.54-1.84,13.33-5.3,14.2-8.76,0,0-.54,4.52-2.94,6.51C389.83,141,382,142.8,382,142.8Z"/><path class="cls-18" d="M377.41,131.51l5.95-2.19a3,3,0,0,1-1.75,4A3.33,3.33,0,0,1,377.41,131.51Z"/><path class="cls-24" d="M380.25,133.53a3.06,3.06,0,0,0,3.33-2.73A3.67,3.67,0,0,0,380.25,133.53Z"/><ellipse class="cls-17" cx="383.71" cy="120.71" rx="1.73" ry="1.72"/><path class="cls-17" d="M373.25,120.23a1.73,1.73,0,1,1-1.73-1.72A1.72,1.72,0,0,1,373.25,120.23Z"/><polygon class="cls-24" points="378.87 117.48 377.94 129.04 372.44 126.86 378.87 117.48"/><path class="cls-15" d="M368.76,117.37l4-1.37a2,2,0,0,0-2.6-1.32A2.18,2.18,0,0,0,368.76,117.37Z"/><path class="cls-15" d="M386.48,117.46l-3.9-1.68a2.05,2.05,0,0,1,2.73-1.14A2.21,2.21,0,0,1,386.48,117.46Z"/><path class="cls-17" d="M397.77,139.28c1.28-.07,1.62.73,3.31,2.65a25,25,0,0,0,3.18,3.06c-1.56,9.5-9,21.35-11.17,32.51-.1-9,2.32-21.45,4.61-35.25Z"/><path class="cls-24" d="M446.86,193.53c6.26,1.64,8.52.48,9.71,0a11,11,0,0,0,4.37-3.32c1.75-2,1.87-2.93,2.5-3,1.27-.14,1.82,1.74,1.38,3.52-.78,3.15-1.86,4.11-1.86,4.11l.69,14.56c-1.31,1.49-4.44,2.42-8.88,1.48-3.08-.66-4.53-2.25-9.46-3.64C444.32,201.9,446.86,193.53,446.86,193.53Z"/><path class="cls-3" d="M411.69,148.26c6.95,2.51,10.13,4.49,13.14,12.5,3.32,8.83,8.46,25.17,8.46,25.17l16.17,8c-2.29,2-4.79,9.35-2.79,13.91,0,0-7.79-2.25-15.18-4.56-10.33-3.22-11.46-3.07-14-8.57-6.14-13.43-9.17-21-9.17-21S402.19,153.3,411.69,148.26Z"/></g><path class="cls-27" d="M438.84,361.41s0-.08,0-.13L437.57,103.7s0,0,0,0v-.06a.91.91,0,0,0,0-.17,3.92,3.92,0,0,1,.19-1,4.38,4.38,0,0,1,.44-1,7.93,7.93,0,0,1,3-2.83c4.86-2.84,12.77-2.88,17.65-.08a7,7,0,0,1,3.5,3.87,3.9,3.9,0,0,1,.18,1.21l1.26,255.31v2.44h0c0,1.82-1.2,3.63-3.6,5.06-4.88,2.84-12.8,2.88-17.69.09C440.1,365.1,438.85,363.25,438.84,361.41Z"/><path class="cls-15" d="M449.4,392h0l-.14-6.29h0a1,1,0,0,1,.59-.87,3.21,3.21,0,0,1,2.91,0,1,1,0,0,1,.61.84h0l.16,6.27h0a2.16,2.16,0,0,1-.28,1,2.07,2.07,0,0,1-3.86-.93Z"/><path class="cls-17" d="M449.46,392.4h0c0-.12,0-.25-.05-.37s0,0,0,0c.76,1.09,3.34,1.22,4.11.07a.48.48,0,0,1,0,.12s0,.12,0,.12a1.68,1.68,0,0,1-.24.63,2.07,2.07,0,0,1-2.82.77A2,2,0,0,1,449.46,392.4Z"/><path class="cls-14" d="M446.38,381.26a11.11,11.11,0,0,0,10.09-.05,4,4,0,0,0,1.95-2.16l5-15.9a7.51,7.51,0,0,1-3.21,3.24c-4.87,2.85-12.79,2.89-17.68.1a7.47,7.47,0,0,1-3.3-3.37L444.35,379a1.15,1.15,0,0,0,.11.31A4.1,4.1,0,0,0,446.38,381.26Z"/><path class="cls-28" d="M445,374a13.82,13.82,0,0,0,12.51-.06c1.71-1,2.57-2.29,2.55-3.58s-.83-2.63-2.58-3.63a13.76,13.76,0,0,0-12.51,0c-1.73,1-2.6,2.32-2.58,3.64S443.3,373.06,445,374Z"/><path class="cls-14" d="M446.38,381.26a11.11,11.11,0,0,0,10.09-.05,4,4,0,0,0,1.95-2.16l5-15.9a7.51,7.51,0,0,1-3.21,3.24c-4.87,2.85-12.79,2.89-17.68.1a7.47,7.47,0,0,1-3.3-3.37L444.35,379a1.15,1.15,0,0,0,.11.31A4.1,4.1,0,0,0,446.38,381.26Z"/><path class="cls-3" d="M447.36,386h0l-4.69-14.44a2.91,2.91,0,0,1-.12-.39c-.42-1.55.4-3.18,2.46-4.39a13.82,13.82,0,0,1,12.48-.06c2,1.14,2.84,2.7,2.54,4.2,0,0,0,.06,0,.09l-.13.4-4.59,14.63h0a2.31,2.31,0,0,1-1.1,1.23,6.28,6.28,0,0,1-5.68,0A2.21,2.21,0,0,1,447.36,386Z"/><path class="cls-25" d="M447.36,386h0l-4.69-14.44a2.91,2.91,0,0,1-.12-.39c-.42-1.55.4-3.18,2.46-4.39a13.82,13.82,0,0,1,12.48-.06c2,1.14,2.84,2.7,2.54,4.2,0,0,0,.06,0,.09l-.13.4-4.59,14.63h0a2.31,2.31,0,0,1-1.1,1.23,6.28,6.28,0,0,1-5.68,0A2.21,2.21,0,0,1,447.36,386Z"/><path class="cls-3" d="M445,374a13.82,13.82,0,0,0,12.51-.06c1.71-1,2.57-2.29,2.55-3.58s-.83-2.63-2.58-3.63a13.76,13.76,0,0,0-12.51,0c-1.73,1-2.6,2.32-2.58,3.64S443.3,373.06,445,374Z"/><path class="cls-3" d="M445,374a13.82,13.82,0,0,0,12.51-.06c1.71-1,2.57-2.29,2.55-3.58s-.83-2.63-2.58-3.63a13.76,13.76,0,0,0-12.51,0c-1.73,1-2.6,2.32-2.58,3.64S443.3,373.06,445,374Z"/><path class="cls-29" d="M442.41,370.45a3.94,3.94,0,0,1,1.85-3.14,20.41,20.41,0,0,0,14,0,3.88,3.88,0,0,1,1.78,3.1c0,1.29-.84,2.57-2.55,3.58A13.82,13.82,0,0,1,445,374C443.3,373.06,442.42,371.76,442.41,370.45Z"/><path class="cls-3" d="M448.49,387.34a6.28,6.28,0,0,0,5.68,0,2.28,2.28,0,0,0,1.09-1.23h0L457.5,379a3.9,3.9,0,0,1-1.64,1.64,10.06,10.06,0,0,1-9.1.06,3.81,3.81,0,0,1-1.7-1.74l2.29,7.08h0A2.25,2.25,0,0,0,448.49,387.34Z"/><path class="cls-1" d="M445.88,130.13a2.18,2.18,0,0,1,1.29-1.81,6.83,6.83,0,0,1,6.24,0,2.13,2.13,0,0,1,1.3,1.8h0l.17,38.11a2.3,2.3,0,0,0-1.28-1.57,7,7,0,0,0-6.28,0,2.26,2.26,0,0,0-1.27,1.63Z"/><path class="cls-14" d="M447.18,131.93a6.92,6.92,0,0,0,6.25,0,2.18,2.18,0,0,0,1.27-1.79,2.14,2.14,0,0,0-1.29-1.81,6.83,6.83,0,0,0-6.24,0,1.91,1.91,0,0,0,0,3.61Z"/><path class="cls-3" d="M438.88,115.08h0v-.27l0-11a2,2,0,0,1,0-.35v-.08h0c.11-1.57,1.18-3.13,3.25-4.34A17.58,17.58,0,0,1,458,99c2.21,1.26,3.31,2.93,3.31,4.6h0l0,11.14v.17h0c0,1.61-1.14,3.22-3.27,4.47a17.56,17.56,0,0,1-15.88.07C440.08,118.25,439,116.68,438.88,115.08Z"/><path class="cls-29" d="M438.88,115.08h0v-.27l0-11a2,2,0,0,1,0-.35v-.08h0c.11-1.57,1.18-3.13,3.25-4.34A17.58,17.58,0,0,1,458,99c2.21,1.26,3.31,2.93,3.31,4.6h0l0,11.14v.17h0c0,1.61-1.14,3.22-3.27,4.47a17.56,17.56,0,0,1-15.88.07C440.08,118.25,439,116.68,438.88,115.08Z"/><path class="cls-15" d="M447,370.51l-.08-15.88-1-186a.06.06,0,0,1,0-.06v-.34a2.28,2.28,0,0,1,1.27-1.64,7,7,0,0,1,6.28,0,2.3,2.3,0,0,1,1.28,1.57,0,0,0,0,1,0,0v.44l.95,186,.08,15.9a2.18,2.18,0,0,1-1.27,1.79,6.81,6.81,0,0,1-4.59.61,5.82,5.82,0,0,1-.63-.14,5.32,5.32,0,0,1-1-.44A2.2,2.2,0,0,1,447,370.51Z"/><path class="cls-17" d="M447.23,170.19a6.92,6.92,0,0,0,6.25,0,2.16,2.16,0,0,0,1.27-1.79,2.13,2.13,0,0,0-1.29-1.81,6.86,6.86,0,0,0-6.24,0,1.91,1.91,0,0,0,0,3.61Z"/><path class="cls-17" d="M447,370.51l0-2.4a21.41,21.41,0,0,0,8.84-.05v2.42a2.18,2.18,0,0,1-1.27,1.79,6.81,6.81,0,0,1-4.59.61,5.35,5.35,0,0,1-1.66-.58A2.2,2.2,0,0,1,447,370.51Z"/><path class="cls-14" d="M441.26,108.81c4.88,2.79,12.79,2.75,17.67-.09,2.41-1.42,3.62-3.24,3.6-5.06s-1.17-3.71-3.65-5.13c-4.87-2.82-12.78-2.78-17.66.06-2.45,1.44-3.68,3.28-3.65,5.14S438.83,107.42,441.26,108.81Z"/><path class="cls-3" d="M441.26,107.57c4.88,2.79,12.8,2.75,17.67-.09,2.41-1.43,3.63-3.24,3.6-5.06V99.9a.76.76,0,0,1,0-.14c0-.13,0-.25,0-.39a4,4,0,0,0-.1-.5c0-.11-.06-.21-.1-.32a.07.07,0,0,0,0-.06c0-.09-.07-.2-.13-.31a5.12,5.12,0,0,0-.78-1.28c-.09-.12-.19-.23-.29-.34a.83.83,0,0,0-.15-.17,4,4,0,0,0-.3-.28,9,9,0,0,0-1.78-1.29c-4.89-2.79-12.79-2.76-17.65.07a8.06,8.06,0,0,0-3,2.84v0a3.58,3.58,0,0,0-.24.48l-.18.49a2,2,0,0,0-.08.31l0,.19c0,.12,0,.25-.05.38v.08c0,.13,0,.26,0,.38v2.13a1,1,0,0,0,0,.29C437.58,104.34,438.83,106.18,441.26,107.57Z"/><path class="cls-21" d="M441.27,105.11c4.88,2.79,12.8,2.75,17.68-.09,2.4-1.42,3.62-3.24,3.59-5.06s-1.17-3.71-3.65-5.13c-4.86-2.81-12.78-2.77-17.66.07-2.44,1.43-3.67,3.27-3.64,5.13S438.84,103.72,441.27,105.11Z"/><path class="cls-23" d="M463,194.84c.87.87,1.75,1.71,2.56,2.64a4.13,4.13,0,0,1,1.19,2.2c.1,1.06-.56,2.09-.42,3.14.11.82.71,1.57.6,2.4-.06.42-.3.81-.33,1.24a3.51,3.51,0,0,0,.25,1.18,5.79,5.79,0,0,1-.25,3.58,16.34,16.34,0,0,1-1.76,3.2,4.71,4.71,0,0,1-1.42,1.67l-2.15,1.2a3.8,3.8,0,0,1-1,.44,1.35,1.35,0,0,1-1.06-.13,1.32,1.32,0,0,1-.54-1,3.39,3.39,0,0,1,.1-1.14,1.54,1.54,0,0,1-1.06-1.47,4.59,4.59,0,0,1,.45-1.88l.77-1.92a.25.25,0,0,0,0-.19.29.29,0,0,0-.18-.1,1.38,1.38,0,0,1-.87-1.25,3.75,3.75,0,0,1,.36-1.57,12,12,0,0,1,1.27-2.44,35.74,35.74,0,0,0,2.11-3.9c.46-.88.92-1.76,1.37-2.65Z"/></g></g></g></svg>