<svg xmlns="http://www.w3.org/2000/svg" viewBox="0 0 470.42 435.43"><defs><style>.cls-1{fill:#f0f0f0;}.cls-2{fill:#e0e0e0;}.cls-3{fill:#fafafa;}.cls-10,.cls-13,.cls-18,.cls-19,.cls-23,.cls-4{fill:#fff;}.cls-5{fill:#ebebeb;}.cls-6{fill:#263238;}.cls-7{fill:#455a64;}.cls-8{fill:#37474f;}.cls-9{fill:#27debf;}.cls-10{opacity:0.45;}.cls-11{opacity:0.35;}.cls-12{opacity:0.15;}.cls-13{opacity:0.65;}.cls-14{opacity:0.1;}.cls-15{opacity:0.5;}.cls-16,.cls-23,.cls-27{opacity:0.4;}.cls-17,.cls-19{opacity:0.2;}.cls-18,.cls-20{opacity:0.3;}.cls-21{fill:#e6e6e6;}.cls-22{opacity:0.05;}.cls-24,.cls-25{fill:none;stroke-linecap:round;}.cls-24{stroke:#e0e0e0;stroke-linejoin:round;stroke-width:2px;}.cls-25{stroke:#27debf;stroke-miterlimit:10;stroke-width:4px;}.cls-26{fill:#f28f8f;}.cls-28{fill:#ffa8a7;}</style></defs><g id="Layer_2" data-name="Layer 2"><g id="Floor"><ellipse id="Floor-2" data-name="Floor" class="cls-1" cx="235.21" cy="301.92" rx="235.21" ry="133.5"/></g><g id="Shadows"><path id="Shadow" class="cls-2" d="M341.49,278.92l-32.74-18.87a1.27,1.27,0,0,1,0-2.4l41.78-24.14a4.56,4.56,0,0,1,4.16,0l32.74,18.86a1.27,1.27,0,0,1,0,2.4l-41.78,24.15A4.62,4.62,0,0,1,341.49,278.92Z"/><ellipse id="Shadow-2" data-name="Shadow" class="cls-2" cx="410.72" cy="308.65" rx="50.47" ry="34.31"/><path id="Shadow-3" data-name="Shadow" class="cls-2" d="M86.37,366.14l-79.68-46a1.26,1.26,0,0,1,0-2.38L131.5,245.69a4.6,4.6,0,0,1,4.12,0l79.69,46a1.26,1.26,0,0,1,0,2.38L90.5,366.14A4.55,4.55,0,0,1,86.37,366.14Z"/><path id="Shadow-4" data-name="Shadow" class="cls-2" d="M96.88,358.83l18.42,10.64a5.51,5.51,0,0,0,5,0L349.48,237.15c1.38-.79,1.38-2.08,0-2.88l-18.57-10.72a5.51,5.51,0,0,0-5,0L96.88,356C95.5,356.75,95.5,358,96.88,358.83Z"/></g><g id="Gears"><g id="Gears-2" data-name="Gears"><path class="cls-2" d="M80.8,30.59h0a.83.83,0,0,0-.85.07L78.2,31.8l-.39,1a2,2,0,0,0,.48,1.9,8.36,8.36,0,0,1,.8,1,1.21,1.21,0,0,0,1.64.35l4.09-2.62a.8.8,0,0,1,.83-.08ZM74.51,45.21c-.58-3.23-2.69-4.84-5.43-4.62a7.66,7.66,0,0,1,.57,1.89c.9,5.11-2.43,12.36-7.43,16.19A10.16,10.16,0,0,1,57,61c1.64,3.43,5.79,3.76,10.11.45C72.09,57.57,75.41,50.32,74.51,45.21Zm.09-21.85h0a1,1,0,0,0-.33-.13l-3.08-.68a1.69,1.69,0,0,0-1.74.79l-2.9,5.38a2.56,2.56,0,0,1-.65.72h0a2.76,2.76,0,0,1-.49.32l.9,2.93a1.07,1.07,0,0,0,1.46.65,14.91,14.91,0,0,1,1.9-.61,3.19,3.19,0,0,0,1.1-.56,2.43,2.43,0,0,0,.65-.72l2.89-5.38a1.72,1.72,0,0,1,1.75-.79l3.09.68a.89.89,0,0,1,.3.11Zm-8.68,52a.88.88,0,0,1-.3-.45l-1-3.37a1,1,0,0,0-1.45-.65,13.47,13.47,0,0,1-1.9.61,2.51,2.51,0,0,0-.6.24l.14.44a.9.9,0,0,0,.39.52h0ZM60,26.08a.69.69,0,0,0-.34-.09.91.91,0,0,0-.57.22l-4.62,3.53a.9.9,0,0,0-.18.16.81.81,0,0,0-.12.14,2.66,2.66,0,0,0-.4.7l-.06.18h0a1.91,1.91,0,0,0-.12.72l.27,4.28A3.34,3.34,0,0,1,53.16,38c-.76.88-1.47,1.81-2.14,2.76a2.33,2.33,0,0,1-1,.76,1.52,1.52,0,0,1-.4.12,1.38,1.38,0,0,1-.2,0,1.1,1.1,0,0,1-.26,0l-3-.15H46.1a1,1,0,0,0-.24,0,.79.79,0,0,0-.22,0h0l-.24.1a1.9,1.9,0,0,0-.43.26,1.66,1.66,0,0,0-.47.59l-2.79,6.08a1.15,1.15,0,0,0,.47,1.47L45.44,52a1.39,1.39,0,0,1,.08.83,25.27,25.27,0,0,0-.52,2.9,3.57,3.57,0,0,1-1,2l0,0-4.05,3.61a1.37,1.37,0,0,0-.2.22l0,0a.82.82,0,0,0-.16.25,2.28,2.28,0,0,0-.31,1.46L40,67.63a.81.81,0,0,0,.35.59l4.84,2.71a.82.82,0,0,1-.34-.57L44.09,66a2,2,0,0,1,0-.83,2.37,2.37,0,0,1,.64-1.14l4-3.62,0,0a3.61,3.61,0,0,0,1-2,27.64,27.64,0,0,1,.52-2.9,1.44,1.44,0,0,0-.82-1.61l-2.4-1a1.16,1.16,0,0,1-.63-1.55l2.79-6.08a1.69,1.69,0,0,1,.48-.59A1.92,1.92,0,0,1,51,44.26l3,.15a2,2,0,0,0,.86-.17,2.41,2.41,0,0,0,1-.76c.67-.95,1.39-1.88,2.14-2.76a3.28,3.28,0,0,0,.72-2.07l-.28-4.27a2,2,0,0,1,.12-.74,2.42,2.42,0,0,1,.76-1.17L64,28.93a.81.81,0,0,1,.91-.12ZM53.08,71.46a1.93,1.93,0,0,0-.48-1.89,8.31,8.31,0,0,1-.8-1,1.21,1.21,0,0,0-1.64-.36l-2.33,1.5-1.7,4.46a1,1,0,0,0,.41,1.22h0l4.88,2.74A1,1,0,0,1,51,77Z"/><path class="cls-3" d="M48.81,60.43l-4,3.62a2.37,2.37,0,0,0-.64,1.14l-4.84-2.73a2.41,2.41,0,0,1,.24-.63.82.82,0,0,1,.16-.25l0,0a1.37,1.37,0,0,1,.2-.22L44,57.71Z"/><path class="cls-3" d="M54.86,44.24a2,2,0,0,1-.86.17l-3-.15a1.92,1.92,0,0,0-1.23.44L44.94,42a1.9,1.9,0,0,1,.43-.26l.24-.1h0a.79.79,0,0,1,.22,0,1,1,0,0,1,.24,0h.07l3,.15a1.1,1.1,0,0,0,.26,0l.2,0A3,3,0,0,0,50,41.5h0Z"/><path class="cls-3" d="M85.65,33.31a.81.81,0,0,0-.83.1L80.73,36a1.2,1.2,0,0,1-1.64-.36,8.2,8.2,0,0,0-.8-.95,1.93,1.93,0,0,1-.48-1.89l.39-1L80,30.68a.79.79,0,0,1,.85-.08h0Z"/><path class="cls-3" d="M79.44,26.08a.89.89,0,0,0-.3-.11l-3.09-.68a1.72,1.72,0,0,0-1.75.79l-2.89,5.38a2.43,2.43,0,0,1-.65.72L65.9,29.45a2.56,2.56,0,0,0,.65-.72l2.9-5.38a1.69,1.69,0,0,1,1.74-.79l3.08.68a1,1,0,0,1,.33.13h0Z"/><path class="cls-3" d="M64.87,28.81a.81.81,0,0,0-.91.12l-4.62,3.54a2.42,2.42,0,0,0-.76,1.17l-4.86-2.72.06-.18a2.66,2.66,0,0,1,.4-.7.81.81,0,0,1,.12-.14.9.9,0,0,1,.18-.16l4.62-3.53a.91.91,0,0,1,.57-.22.69.69,0,0,1,.34.09Z"/><path class="cls-1" d="M86.81,38.26,86,33.92a.74.74,0,0,0-1.22-.51L80.73,36a1.2,1.2,0,0,1-1.64-.36,8.2,8.2,0,0,0-.8-.95,1.93,1.93,0,0,1-.48-1.89l2.09-5.49A1,1,0,0,0,79.14,26l-3.09-.67a1.67,1.67,0,0,0-1.74.78l-2.9,5.38a3,3,0,0,1-1.75,1.28,13.9,13.9,0,0,0-1.9.61,1.06,1.06,0,0,1-1.45-.65l-1-3.37a.78.78,0,0,0-1.3-.4l-4.62,3.54a2.46,2.46,0,0,0-.87,1.9l.27,4.28A3.34,3.34,0,0,1,58,40.72c-.75.88-1.47,1.8-2.14,2.76a2.41,2.41,0,0,1-1.88.93l-3-.15a1.91,1.91,0,0,0-1.7,1l-2.79,6.09a1.13,1.13,0,0,0,.62,1.54l2.39,1a1.43,1.43,0,0,1,.83,1.61,28.11,28.11,0,0,0-.52,2.9,3.49,3.49,0,0,1-1,2l-4.09,3.67a2.34,2.34,0,0,0-.68,2l.76,4.34a.74.74,0,0,0,1.22.51l4.09-2.61a1.2,1.2,0,0,1,1.64.36,8.09,8.09,0,0,0,.8.94,2,2,0,0,1,.48,1.9L51,77a1,1,0,0,0,.77,1.36l3.08.67a1.68,1.68,0,0,0,1.74-.79l2.9-5.37a3,3,0,0,1,1.75-1.28,15.44,15.44,0,0,0,1.9-.61,1.06,1.06,0,0,1,1.46.65l1,3.36a.77.77,0,0,0,1.3.4l4.62-3.53a2.46,2.46,0,0,0,.87-1.91l-.27-4.27a3.34,3.34,0,0,1,.72-2.07A33.86,33.86,0,0,0,75,60.8a2.41,2.41,0,0,1,1.88-.93l3,.14a1.89,1.89,0,0,0,1.7-1l2.8-6.09a1.14,1.14,0,0,0-.63-1.54l-2.39-1a1.43,1.43,0,0,1-.83-1.61,28.11,28.11,0,0,0,.52-2.9,3.55,3.55,0,0,1,1-2l4.09-3.66A2.39,2.39,0,0,0,86.81,38.26ZM67.08,61.4c-5,3.83-9.79,2.79-10.7-2.33s2.42-12.36,7.43-16.19,9.79-2.79,10.7,2.33S72.09,57.57,67.08,61.4Z"/><path class="cls-2" d="M86.67,99.81h0a.93.93,0,0,0-1,.08l-2,1.3-.45,1.18a2.23,2.23,0,0,0,.55,2.19,9.92,9.92,0,0,1,.92,1.1,1.4,1.4,0,0,0,1.9.41l4.73-3a.93.93,0,0,1,1-.1ZM79.39,116.7c-.67-3.73-3.1-5.59-6.27-5.33a9.07,9.07,0,0,1,.65,2.18c1,5.91-2.8,14.29-8.58,18.72a11.87,11.87,0,0,1-6.07,2.63c1.9,4,6.7,4.34,11.69.52C76.59,131,80.43,122.61,79.39,116.7Zm.1-25.26h0a1.35,1.35,0,0,0-.37-.14l-3.56-.78a1.93,1.93,0,0,0-2,.91l-3.36,6.21a2.72,2.72,0,0,1-.74.83h0a2.92,2.92,0,0,1-.57.37l1,3.4a1.24,1.24,0,0,0,1.69.74,16.77,16.77,0,0,1,2.19-.7,3.71,3.71,0,0,0,1.27-.64,2.83,2.83,0,0,0,.76-.84l3.34-6.22a2,2,0,0,1,2-.91l3.57.78a1.91,1.91,0,0,1,.36.13Zm-10,60.17a1,1,0,0,1-.34-.53l-1.21-3.89a1.21,1.21,0,0,0-1.68-.75,16.3,16.3,0,0,1-2.19.7,3.33,3.33,0,0,0-.69.28l.15.5a1,1,0,0,0,.46.6h0Zm-6.83-57a.91.91,0,0,0-.4-.1,1,1,0,0,0-.65.25l-5.34,4.08A1.24,1.24,0,0,0,56,99a1,1,0,0,0-.14.15,3.3,3.3,0,0,0-.47.82l-.06.2h0a2.15,2.15,0,0,0-.14.84l.31,4.94a3.82,3.82,0,0,1-.83,2.4c-.87,1-1.7,2.09-2.47,3.19a2.67,2.67,0,0,1-1.18.88,2.79,2.79,0,0,1-.47.14l-.22,0a1.08,1.08,0,0,1-.31,0l-3.43-.16h-.08l-.28,0a1,1,0,0,0-.25.06h0a1,1,0,0,0-.28.11,2.29,2.29,0,0,0-.5.3,2,2,0,0,0-.55.68l-3.22,7a1.32,1.32,0,0,0,.54,1.69l3.81,2.13a1.7,1.7,0,0,1,.09,1,28.77,28.77,0,0,0-.6,3.35,4.15,4.15,0,0,1-1.15,2.28l-.06.05-4.68,4.18a1.31,1.31,0,0,0-.22.25l0,0a1.17,1.17,0,0,0-.19.3,2.58,2.58,0,0,0-.35,1.68l.89,5a1,1,0,0,0,.42.69l5.59,3.13a1,1,0,0,1-.39-.66l-.89-5a2.26,2.26,0,0,1,.06-1,2.65,2.65,0,0,1,.74-1.31l4.67-4.19.05,0A4.2,4.2,0,0,0,50.9,132a29.32,29.32,0,0,1,.6-3.36,1.67,1.67,0,0,0-1-1.86l-2.78-1.15a1.33,1.33,0,0,1-.72-1.78l3.23-7a1.86,1.86,0,0,1,.55-.68,2.17,2.17,0,0,1,1.42-.5l3.44.16a2.23,2.23,0,0,0,1-.19,2.69,2.69,0,0,0,1.17-.88c.78-1.1,1.61-2.17,2.48-3.19a3.8,3.8,0,0,0,.83-2.39l-.32-4.94a2.18,2.18,0,0,1,.13-.85,2.85,2.85,0,0,1,.89-1.36l5.34-4.08a.91.91,0,0,1,1-.14Zm-8,52.46a2.27,2.27,0,0,0-.56-2.19,8.93,8.93,0,0,1-.92-1.1,1.39,1.39,0,0,0-1.89-.42l-2.7,1.73-2,5.16a1.13,1.13,0,0,0,.47,1.41h0l5.64,3.17a1.13,1.13,0,0,1-.48-1.42Z"/><path class="cls-3" d="M49.69,134.3,45,138.49a2.65,2.65,0,0,0-.74,1.31l-5.61-3.15a3.79,3.79,0,0,1,.28-.73,1.17,1.17,0,0,1,.19-.3l0,0a1.31,1.31,0,0,1,.22-.25l4.68-4.18Z"/><path class="cls-3" d="M56.68,115.58a2.23,2.23,0,0,1-1,.19l-3.44-.16a2.17,2.17,0,0,0-1.42.5L45.21,113a2.29,2.29,0,0,1,.5-.3,1,1,0,0,1,.28-.11h0a1,1,0,0,1,.25-.06l.28,0h.08l3.43.16a1.08,1.08,0,0,0,.31,0l.22,0c.15,0,.3-.1.45-.15h0Z"/><path class="cls-3" d="M92.27,103a.91.91,0,0,0-1,.11l-4.73,3a1.4,1.4,0,0,1-1.9-.42,8.25,8.25,0,0,0-.92-1.1,2.24,2.24,0,0,1-.55-2.19l.45-1.18,2-1.3a1,1,0,0,1,1-.09h0Z"/><path class="cls-3" d="M85.1,94.59a1.91,1.91,0,0,0-.36-.13l-3.57-.78a2,2,0,0,0-2,.91l-3.34,6.22a2.83,2.83,0,0,1-.76.84l-5.61-3.17a2.72,2.72,0,0,0,.74-.83l3.36-6.21a1.93,1.93,0,0,1,2-.91l3.56.78a1.35,1.35,0,0,1,.37.14h0Z"/><path class="cls-3" d="M68.25,97.75a.91.91,0,0,0-1,.14L61.86,102a2.85,2.85,0,0,0-.89,1.36l-5.61-3.15.06-.2a3.3,3.3,0,0,1,.47-.82A1,1,0,0,1,56,99a1.24,1.24,0,0,1,.21-.19l5.34-4.08a1,1,0,0,1,.65-.25.91.91,0,0,1,.4.1Z"/><path class="cls-1" d="M93.6,108.67l-.88-5a.85.85,0,0,0-1.41-.59l-4.73,3a1.4,1.4,0,0,1-1.9-.42,8.93,8.93,0,0,0-.92-1.1,2.23,2.23,0,0,1-.55-2.19L85.62,96a1.16,1.16,0,0,0-.88-1.58l-3.56-.77a1.93,1.93,0,0,0-2,.91l-3.35,6.21a3.57,3.57,0,0,1-2,1.48,16.77,16.77,0,0,0-2.19.7,1.22,1.22,0,0,1-1.68-.75L68.7,98.35a.89.89,0,0,0-1.5-.46L61.86,102a2.92,2.92,0,0,0-1,2.21l.32,4.94a3.82,3.82,0,0,1-.83,2.39c-.87,1-1.7,2.09-2.48,3.19a2.78,2.78,0,0,1-2.17,1.08l-3.43-.17a2.2,2.2,0,0,0-2,1.18l-3.23,7a1.33,1.33,0,0,0,.72,1.78l2.77,1.15a1.66,1.66,0,0,1,1,1.86,28.94,28.94,0,0,0-.6,3.36,4.2,4.2,0,0,1-1.16,2.28L45,138.49a2.77,2.77,0,0,0-.79,2.27l.89,5a.85.85,0,0,0,1.41.59l4.72-3a1.4,1.4,0,0,1,1.9.42,9.92,9.92,0,0,0,.92,1.1,2.24,2.24,0,0,1,.56,2.19l-2.41,6.34a1.15,1.15,0,0,0,.88,1.58l3.56.77a1.94,1.94,0,0,0,2-.91L62,148.62a3.54,3.54,0,0,1,2-1.48,16.3,16.3,0,0,0,2.19-.7,1.22,1.22,0,0,1,1.69.75l1.2,3.89a.9.9,0,0,0,1.51.46L76,147.46a2.88,2.88,0,0,0,1-2.21l-.32-4.94a3.88,3.88,0,0,1,.83-2.39A40.06,40.06,0,0,0,80,134.73a2.79,2.79,0,0,1,2.17-1.08l3.44.17a2.21,2.21,0,0,0,2-1.18l3.22-7a1.31,1.31,0,0,0-.72-1.78l-2.77-1.15a1.66,1.66,0,0,1-1-1.86,31.16,31.16,0,0,0,.59-3.36,4.17,4.17,0,0,1,1.16-2.28l4.73-4.23A2.71,2.71,0,0,0,93.6,108.67ZM70.81,135.42c-5.79,4.43-11.33,3.22-12.37-2.69S61.23,118.43,67,114s11.32-3.22,12.37,2.69S76.59,131,70.81,135.42Z"/><path class="cls-2" d="M112.39,88.68a2.17,2.17,0,0,0-.12-2,18.18,18.18,0,0,1-1.85-4,1,1,0,0,0-1.38-.61L107,83a10.89,10.89,0,0,0,.66,1.16,2.17,2.17,0,0,1,.12,2l-5.51,10.83a1.21,1.21,0,0,0,.48,1.58l4.54,2.54a1.22,1.22,0,0,1-.45-1.56Zm24.5-75.34a.65.65,0,0,0-.29-.06.9.9,0,0,0-.46.12l-9.29,5.23-.14.09a.49.49,0,0,0-.14.11l-.13.12a1.68,1.68,0,0,0-.24.29,2.13,2.13,0,0,0-.46,1.08l-.94,10.06a3.25,3.25,0,0,1-1,1.88,55.57,55.57,0,0,0-5.17,5.33,1.8,1.8,0,0,1-1.82.5l-6-2a.94.94,0,0,0-.47-.06h-.18l-.18,0a1.41,1.41,0,0,0-.52.26.43.43,0,0,0-.1.09.84.84,0,0,0-.22.27l-6.84,11.51a1.44,1.44,0,0,0,.3,1.72l4.79,4a1.69,1.69,0,0,1,.46,1.79,52.69,52.69,0,0,0-2.15,7,3.29,3.29,0,0,1-.52,1.07,1.06,1.06,0,0,1-.17.2l-.15.18a3.25,3.25,0,0,1-.35.31l-8.49,5.81-.16.12-.14.15a2.39,2.39,0,0,0-.65,1.51V82.52a.74.74,0,0,0,.33.67l4.58,2.57a.75.75,0,0,1-.33-.68V74.64a2.26,2.26,0,0,1,.37-1.16,2.05,2.05,0,0,1,.57-.63L109.15,67a3.09,3.09,0,0,0,.67-.68,3.34,3.34,0,0,0,.52-1.08,55.19,55.19,0,0,1,2.15-7,1.68,1.68,0,0,0-.46-1.79l-4.79-4a1.28,1.28,0,0,1-.45-.87,1.23,1.23,0,0,1,.15-.84l6.84-11.52a1.44,1.44,0,0,1,1.13-.67,1.38,1.38,0,0,1,.54.06l6,2a1.83,1.83,0,0,0,1.83-.51,54.18,54.18,0,0,1,5.16-5.32,3.28,3.28,0,0,0,1-1.88l.94-10.06a2.07,2.07,0,0,1,.17-.61,2.4,2.4,0,0,1,.94-1.09L140.71,16a.84.84,0,0,1,.71-.09Zm-6.29,89.59a.83.83,0,0,1-.31-.6l-.9-8.78a1,1,0,0,0-1.25-.85,19.13,19.13,0,0,1-3.1.41l.68,6.66a.74.74,0,0,0,.36.61h0Zm14.57-63c1.33,1.79,2,4.53,2,8.11,0,9.74-7,21.59-15.71,26.47-3.38,1.9-6.26,2.53-8.52,2,2.81,3.19,7.63,3.62,13.09.55,8.68-4.88,15.71-16.72,15.71-26.47C151.77,44.67,149.16,40.89,145.17,39.94Zm9-28.08a1.27,1.27,0,0,0-1.65.38l-6.88,10a1.13,1.13,0,0,1-.1.13l-.16.16a.22.22,0,0,1-.09.07l-.09.08a2.49,2.49,0,0,1-1.36.44,12.42,12.42,0,0,0-1.36,0l.22,2.13a1,1,0,0,0,1.24.85,19.1,19.1,0,0,1,4.48-.44,2.41,2.41,0,0,0,1.35-.44,1.51,1.51,0,0,0,.44-.43l6.88-10.06a1.25,1.25,0,0,1,1.62-.38Zm13.3,18.68-.15-.05a.9.9,0,0,0-.57.07l-6.26,2.74c.15.29.29.57.42.88s.23.52.33.79a.32.32,0,0,1,.06.15,8.64,8.64,0,0,1,.31.85,1.66,1.66,0,0,1,.06.16,1,1,0,0,0,.25.42.48.48,0,0,0,.11.09l.08.06a.56.56,0,0,0,.24.1.13.13,0,0,0,.08,0,.9.9,0,0,0,.4,0h0l.18-.06,8.27-3.63a.78.78,0,0,1,.61,0l.12,0Z"/><path class="cls-3" d="M158.75,14.42a1.25,1.25,0,0,0-1.62.38l-6.88,10.06a1.51,1.51,0,0,1-.44.43l-4.57-2.56h0a.94.94,0,0,0,.19-.14l.16-.16a1.13,1.13,0,0,0,.1-.13l6.88-10a1.27,1.27,0,0,1,1.65-.38Z"/><path class="cls-3" d="M109.82,66.36a3.09,3.09,0,0,1-.67.68l-8.49,5.81a2.05,2.05,0,0,0-.57.63l-4.56-2.56a2.36,2.36,0,0,1,.26-.36l.14-.15.16-.12,8.49-5.81a3.25,3.25,0,0,0,.35-.31l.15-.18c.06-.06.1-.13.16-.2h0Z"/><path class="cls-3" d="M114.91,38.56a1.44,1.44,0,0,0-1.13.67l-6.84,11.52a1.23,1.23,0,0,0-.15.84L102.22,49a1.31,1.31,0,0,1,.15-.84l6.84-11.51a.84.84,0,0,1,.22-.27.43.43,0,0,1,.1-.09,1.41,1.41,0,0,1,.52-.26l.18,0h.18Z"/><path class="cls-3" d="M141.42,15.88a.84.84,0,0,0-.71.09l-9.29,5.22a2.4,2.4,0,0,0-.94,1.09l-4.56-2.56a2.31,2.31,0,0,1,.28-.48,1.68,1.68,0,0,1,.24-.29l.13-.12a.49.49,0,0,1,.14-.11l.14-.09,9.29-5.23a.9.9,0,0,1,.46-.12.65.65,0,0,1,.29.06Z"/><path class="cls-3" d="M167.51,30.54l4.58,2.57-.12,0a.78.78,0,0,0-.61,0l-8.27,3.63a1,1,0,0,1-1.13-.2,1,1,0,0,1-.25-.42,1.66,1.66,0,0,0-.06-.16,8.64,8.64,0,0,0-.31-.85.32.32,0,0,0-.06-.15c-.1-.27-.21-.54-.33-.79s-.27-.59-.42-.88l6.26-2.74a.9.9,0,0,1,.57-.07l.15.06Z"/><rect class="cls-3" x="172.09" y="33.11" width="0.01" height="0.01"/><path class="cls-1" d="M172.42,44.23V33.78a.69.69,0,0,0-1.06-.66l-8.27,3.63a1,1,0,0,1-1.38-.62,17.43,17.43,0,0,0-1.85-4,2.19,2.19,0,0,1-.12-2l5.51-10.82a1.18,1.18,0,0,0-.49-1.57l-6-3.37a1.28,1.28,0,0,0-1.65.38l-6.87,10.06a2.34,2.34,0,0,1-1.8.87,19.1,19.1,0,0,0-4.48.44,1,1,0,0,1-1.24-.85l-.91-8.79a.69.69,0,0,0-1.12-.56l-9.29,5.23a2.41,2.41,0,0,0-1.11,1.68L129.38,33a3.36,3.36,0,0,1-1,1.88,54.18,54.18,0,0,0-5.16,5.32,1.81,1.81,0,0,1-1.83.5l-6-2a1.46,1.46,0,0,0-1.67.6l-6.84,11.52a1.41,1.41,0,0,0,.3,1.72l4.79,4a1.68,1.68,0,0,1,.46,1.79,55.19,55.19,0,0,0-2.15,7A3.34,3.34,0,0,1,109.15,67l-8.49,5.82a2.41,2.41,0,0,0-1,1.77V85.08a.7.7,0,0,0,1.06.67l8.28-3.63a1,1,0,0,1,1.37.62,17.43,17.43,0,0,0,1.85,4,2.17,2.17,0,0,1,.12,2L106.88,99.5a1.2,1.2,0,0,0,.49,1.58l6,3.36a1.29,1.29,0,0,0,1.65-.37L121.87,94a2.31,2.31,0,0,1,1.8-.87,19.65,19.65,0,0,0,4.48-.44,1,1,0,0,1,1.24.85l.91,8.79a.69.69,0,0,0,1.12.55l9.29-5.22A2.43,2.43,0,0,0,141.82,96l.93-10.06a3.32,3.32,0,0,1,1-1.88,55.32,55.32,0,0,0,5.16-5.32,1.83,1.83,0,0,1,1.83-.51l6,2a1.46,1.46,0,0,0,1.67-.6l6.84-11.52a1.41,1.41,0,0,0-.3-1.72l-4.79-4a1.69,1.69,0,0,1-.46-1.8,54.21,54.21,0,0,0,2.15-7A3.31,3.31,0,0,1,163,51.83L171.47,46A2.43,2.43,0,0,0,172.42,44.23ZM136.07,77.08c-8.68,4.87-15.71.92-15.71-8.82s7-21.6,15.71-26.48,15.7-.92,15.7,8.83S144.74,72.21,136.07,77.08Z"/></g></g><g id="Books"><g id="Books-2" data-name="Books"><g id="Book"><polygon points="18.79 315.49 87.4 354.61 200.75 289.56 132.14 251.38 18.79 315.49"/><path class="cls-4" d="M88.18,351.63,22,313.65q2.59-7.35-.36-17.16L87.4,334.07S88.66,338.21,88.18,351.63Z"/><path class="cls-5" d="M87.4,334.07,21.64,296.49a34.86,34.86,0,0,1,1.21,5.64l65.28,37.69A31.57,31.57,0,0,0,87.4,334.07Z"/><path class="cls-6" d="M84,328.71a13.94,13.94,0,0,1,6.36,10.94v12.79c0,4-2.85,5.67-6.36,3.65L18.8,318.66v-3.17l64.36,36.7c2.1,1.21,3.81.23,3.81-2.19l-.06-11.85a8.37,8.37,0,0,0-3.82-6.57L18.8,294.87v-3.6Z"/><path class="cls-7" d="M18.8,291.28l113.35-64.11,65.21,36.49a14,14,0,0,1,6.36,10.95V287.4c0,2-.71,3.43-1.87,4.09L88.52,356.54c1.15-.67,1.86-2.08,1.86-4.09v-12.8A14,14,0,0,0,84,328.7Z"/><path class="cls-8" d="M88.53,333.42a12.88,12.88,0,0,1,1.86,6.23v12.8c0,2-.71,3.42-1.86,4.09l113.34-65.05c1.16-.66,1.86-2.08,1.87-4.09V274.61a12.88,12.88,0,0,0-1.86-6.23Z"/></g><g id="Book-2" data-name="Book"><polygon class="cls-9" points="18.61 283.06 87.64 322.53 192.72 262.22 123.7 223.68 18.61 283.06"/><polygon class="cls-10" points="18.61 283.06 87.64 322.53 192.72 262.22 123.7 223.68 18.61 283.06"/><polygon class="cls-11" points="18.61 283.06 87.64 322.53 192.72 262.22 123.7 223.68 18.61 283.06"/><path class="cls-4" d="M88.37,319.77,21.59,281.35q2.4-6.83-.34-15.91l66.39,38.05S88.81,307.33,88.37,319.77Z"/><path class="cls-5" d="M87.64,303.49,21.25,265.44a34.86,34.86,0,0,1,1.21,5.64l65.87,38A31.57,31.57,0,0,0,87.64,303.49Z"/><path class="cls-9" d="M84.51,298.52a12.91,12.91,0,0,1,5.9,10.15v11.85c0,3.74-2.64,5.26-5.9,3.39L18.62,286v-2.94L83.7,320.29c2,1.12,3.53.21,3.53-2l-.06-11a7.75,7.75,0,0,0-3.54-6.09l-65-37.25V260.6Z"/><path class="cls-10" d="M84.51,298.52a12.91,12.91,0,0,1,5.9,10.15v11.85c0,3.74-2.64,5.26-5.9,3.39L18.62,286v-2.94L83.7,320.29c2,1.12,3.53.21,3.53-2l-.06-11a7.75,7.75,0,0,0-3.54-6.09l-65-37.25V260.6Z"/><path class="cls-12" d="M84.51,298.52a12.91,12.91,0,0,1,5.9,10.15v11.85c0,3.74-2.64,5.26-5.9,3.39L18.62,286v-2.94L83.7,320.29c2,1.12,3.53.21,3.53-2l-.06-11a7.75,7.75,0,0,0-3.54-6.09l-65-37.25V260.6Z"/><path class="cls-9" d="M18.62,260.61,123.7,201.24l65.89,37a13,13,0,0,1,5.9,10.15v11.86c0,1.86-.66,3.18-1.73,3.79L88.67,324.32c1.08-.62,1.73-1.93,1.73-3.79V308.66a13,13,0,0,0-5.89-10.15Z"/><path class="cls-13" d="M18.62,260.61,123.7,201.24l65.89,37a13,13,0,0,1,5.9,10.15v11.86c0,1.86-.66,3.18-1.73,3.79L88.67,324.32c1.08-.62,1.73-1.93,1.73-3.79V308.66a13,13,0,0,0-5.89-10.15Z"/><path class="cls-9" d="M88.69,302.89a12,12,0,0,1,1.72,5.77v11.87c0,1.86-.65,3.17-1.73,3.79L193.76,264c1.07-.61,1.72-1.93,1.73-3.79V248.36a12,12,0,0,0-1.73-5.77Z"/><path class="cls-10" d="M88.69,302.89a12,12,0,0,1,1.72,5.77v11.87c0,1.86-.65,3.17-1.73,3.79L193.76,264c1.07-.61,1.72-1.93,1.73-3.79V248.36a12,12,0,0,0-1.73-5.77Z"/></g><path class="cls-14" d="M81.42,296.74v25.39l-4.54,2.48L18.8,291.27l4.5-2.57L18.62,286v-2.94l3-1.71c1.73-4.92,1.36-10.35-.33-15.91l-2.63-1.51V260.6Z"/><g id="Book-3" data-name="Book"><polygon class="cls-9" points="6.66 255.43 76.33 295.47 181.41 235.16 111.75 196.06 6.66 255.43"/><polygon class="cls-15" points="6.66 255.43 76.33 295.47 181.41 235.16 111.75 196.06 6.66 255.43"/><path class="cls-4" d="M77.05,292.71l-67.41-39c1.6-4.54,1.48-8.92-.34-15l67,38.61S77.49,280.27,77.05,292.71Z"/><path class="cls-5" d="M76.33,277.36l-67-38.61a34.63,34.63,0,0,1,1.21,5.64L77,282.78A28.16,28.16,0,0,0,76.33,277.36Z"/><path class="cls-9" d="M73.2,272.39a12.93,12.93,0,0,1,5.89,10.15v10.92c0,3.74-2.64,5.25-5.89,3.38L6.67,258.37v-2.94l65.72,37.8c2,1.12,3.54.21,3.54-2l-.06-10.06a7.78,7.78,0,0,0-3.54-6.09L6.67,237.24v-3.33Z"/><path class="cls-16" d="M73.2,272.39a12.93,12.93,0,0,1,5.89,10.15v10.92c0,3.74-2.64,5.25-5.89,3.38L6.67,258.37v-2.94l65.72,37.8c2,1.12,3.54.21,3.54-2l-.06-10.06a7.78,7.78,0,0,0-3.54-6.09L6.67,237.24v-3.33Z"/><path class="cls-9" d="M6.67,233.92l105.08-60.31,66.52,38.47a13,13,0,0,1,5.9,10.15v10.93c0,1.86-.65,3.17-1.73,3.79L77.36,297.25c1.07-.61,1.72-1.92,1.73-3.78V282.53a13,13,0,0,0-5.9-10.15Z"/><path class="cls-17" d="M6.67,233.92l105.08-60.31,66.52,38.47a13,13,0,0,1,5.9,10.15v10.93c0,1.86-.65,3.17-1.73,3.79L77.36,297.25c1.07-.61,1.72-1.92,1.73-3.78V282.53a13,13,0,0,0-5.9-10.15Z"/><path class="cls-9" d="M77.37,276.76a11.88,11.88,0,0,1,1.73,5.77v10.94c0,1.86-.66,3.17-1.73,3.78L182.44,237c1.08-.62,1.73-1.93,1.73-3.79V222.23a11.88,11.88,0,0,0-1.73-5.77Z"/><path class="cls-11" d="M77.37,276.76a11.88,11.88,0,0,1,1.73,5.77v10.94c0,1.86-.66,3.17-1.73,3.78L182.44,237c1.08-.62,1.73-1.93,1.73-3.79V222.23a11.88,11.88,0,0,0-1.73-5.77Z"/></g><path class="cls-14" d="M203.72,275.08h0v-.47a10.58,10.58,0,0,0-.28-2.33h0a14.18,14.18,0,0,0-6.08-8.62l-2.26-1.27a5.61,5.61,0,0,0,.39-2.17V248.36a13,13,0,0,0-5.9-10.15L183.9,235a5.88,5.88,0,0,0,.27-1.86V222.23c0-.23,0-.47,0-.71s-.07-.6-.13-.9a10,10,0,0,0-.3-1.29l0,0c-.07-.23-.15-.47-.23-.7l0,0a13,13,0,0,0-1-2.1h0l-82.33,47.23v20.49L79.85,295.83l1.57.91,9.69-5.64,9,5.2v21.42l-7.8,4.51h0l-3.56,2-.07,0c-1.07.62-2.54.53-4.17-.4l-3.09-1.78-1.37.75,5,2.91a4.37,4.37,0,0,0,4.42,0l4.52-2.6,6.14,3.54v23.15l101.75-58.39a3.17,3.17,0,0,0,.78-.64,5.12,5.12,0,0,0,1.09-3.45Z"/></g></g><g id="Apple"><g id="Apple-2" data-name="Apple"><path class="cls-14" d="M39.39,246.82c9.21,7.14,26.87,8.75,39.46,3.61s15.26-15.1,6-22.25-26.94-8.75-39.46-3.6S30.18,239.69,39.39,246.82Z"/><path class="cls-9" d="M51.79,188.78c-5.24.3-14.34,1-20,12.67-6.46,13.29,0,29.82,9.91,36.8,12.46,8.76,32,9.29,43.48-1.19,12.72-11.58,13.65-33.54,5-43.14s-22-6.88-25.51-5.4C59.4,190.73,55.86,188.55,51.79,188.78Z"/><path class="cls-18" d="M46.36,193.44c-3.38-.29-8.28,2.7-10.85,7.3-3.18,5.71-3.58,13.77-2.59,19.63,2,11.83,13.43,18,14.54,17s-7.2-8.74-2.63-20.5C49.47,205,51.89,193.91,46.36,193.44Z"/><path class="cls-19" d="M43.75,195.35c-3.44,1.16-7.42,6.65-8.46,10.54s-.53,6.54,0,7c1,.82,7.93-6,10.2-9.07C48.71,199.48,49.29,193.47,43.75,195.35Z"/><path class="cls-9" d="M57.23,198.9c-1.84-1.46-3.56-2.2-4.48,0s4,5.66,9.39,4.08,7.29-5.11,7.17-6.9c0,0-2.44,3.87-6.08,4.32A9.09,9.09,0,0,1,57.23,198.9Z"/><path class="cls-14" d="M57.23,198.9c-1.84-1.46-3.56-2.2-4.48,0s4,5.66,9.39,4.08,7.29-5.11,7.17-6.9c0,0-2.44,3.87-6.08,4.32A9.09,9.09,0,0,1,57.23,198.9Z"/><path class="cls-8" d="M62.14,201.6a50.93,50.93,0,0,0-2.44-14.81c-2.46-6.93-6.79-11.79-8-12.32a14.56,14.56,0,0,0-5.93-.9c-2.78,0-6.09,1.91-5.18,3s4.91,1.87,9.77,6.41,9.5,13.36,9.51,18.64A2.16,2.16,0,0,0,62.14,201.6Z"/><path class="cls-7" d="M51.54,174.38l-.27-.11h0a16.42,16.42,0,0,0-5.43-.69c-2.05,0-4.39,1.06-5.11,2-.19.4.42.94,2.91,1.29a15.4,15.4,0,0,0,7.3-.68C52,175.8,52.41,174.85,51.54,174.38Z"/><path class="cls-14" d="M58.52,192.85c-2.19-6.26-8.82-11.47-13.36-13.78h0A27.62,27.62,0,0,1,50.4,183c4.86,4.54,9.5,13.36,9.51,18.64a2.16,2.16,0,0,0,2.23,0s0-1.9-.29-4.64C61.71,199.51,60.54,198.61,58.52,192.85Z"/><path class="cls-9" d="M60.82,190.69A13,13,0,0,0,72.93,186c3.83-5,1.33-11.58,1.33-11.58a12.16,12.16,0,0,0-10.66,3.34C60.19,181.14,59.73,187.78,60.82,190.69Z"/><path class="cls-20" d="M60.82,190.69A13,13,0,0,0,72.93,186c3.83-5,1.33-11.58,1.33-11.58a12.16,12.16,0,0,0-10.66,3.34C60.19,181.14,59.73,187.78,60.82,190.69Z"/><path class="cls-14" d="M74.26,174.37a12.16,12.16,0,0,0-10.66,3.34c-3.41,3.43-3.87,10.07-2.78,13C63.94,181,74.26,174.37,74.26,174.37Z"/><path class="cls-9" d="M70.06,175.28a10.87,10.87,0,0,0-8.89,10.18,21.91,21.91,0,0,1,3.44-6A18.24,18.24,0,0,1,70.06,175.28Z"/></g></g><g id="Schedule"><g id="Schedule-2" data-name="Schedule"><polygon class="cls-21" points="343.75 6.75 109.4 142.06 109.4 326.56 109.43 359.72 107.36 358.52 104.11 356.65 104.11 139.01 338.46 3.69 342.49 6.02 343.75 6.75"/><polygon class="cls-1" points="343.75 6.75 343.75 191.26 117.32 321.98 112.04 325.03 110.73 325.79 109.43 326.53 109.4 326.56 109.4 142.06 343.75 6.75"/><polygon class="cls-1" points="338.46 3.7 343.75 6.75 109.4 142.05 104.11 139 338.46 3.7"/><polygon class="cls-9" points="345.65 5.68 343.75 6.79 109.4 142.08 108.66 142.51 108.66 359.27 107.36 358.52 107.36 141.76 108.13 141.33 342.49 6.02 344.36 4.94 345.65 5.68"/><polygon class="cls-14" points="345.65 5.68 343.75 6.79 109.4 142.08 108.66 142.51 108.66 359.27 107.36 358.52 107.36 141.76 108.13 141.33 342.49 6.02 344.36 4.94 345.65 5.68"/><path class="cls-9" d="M343.75,6.79,109.4,142.08v0l-.74.42V359.27l.77.45,236.22-136V5.68Z"/><path class="cls-22" d="M343.75,6.79,109.4,142.08v0l-.74.42V359.27l.77.45,236.22-136V5.68Z"/><polygon class="cls-9" points="344.36 4.94 345.65 5.69 108.66 142.52 107.36 141.77 344.36 4.94"/><polygon class="cls-23" points="344.36 4.94 345.65 5.69 108.66 142.52 107.36 141.77 344.36 4.94"/><polygon class="cls-9" points="347.72 6.88 345.65 8.07 343.75 9.17 279.2 46.44 110.73 143.7 110.73 360.47 109.43 359.72 109.43 142.96 343.75 7.69 345.65 6.59 346.43 6.13 347.72 6.88"/><polygon class="cls-14" points="347.72 6.88 345.65 8.07 343.75 9.17 279.2 46.44 110.73 143.7 110.73 360.47 109.43 359.72 109.43 142.96 343.75 7.69 345.65 6.59 346.43 6.13 347.72 6.88"/><path class="cls-9" d="M345.65,8.07l-1.9,1.1L279.2,46.44,110.73,143.72V360.47l1.31.76,5.15-3.12L347.72,225V6.88Z"/><polygon class="cls-9" points="346.43 6.14 347.72 6.88 110.73 143.71 109.44 142.97 346.43 6.14"/><polygon class="cls-23" points="346.43 6.14 347.72 6.88 110.73 143.71 109.44 142.97 346.43 6.14"/><polygon class="cls-21" points="351.69 11.34 347.72 13.63 345.65 14.82 343.75 15.91 117.32 146.63 117.33 364.28 112.04 361.23 112.04 143.58 343.75 9.81 345.65 8.71 346.39 8.28 347.72 9.05 351.69 11.34"/><polygon class="cls-1" points="346.39 8.28 351.68 11.33 117.33 146.63 112.04 143.58 346.39 8.28"/><polygon class="cls-3" points="117.33 146.63 117.33 364.28 351.68 228.98 351.68 11.33 117.33 146.63"/><g id="Notebook"><path class="cls-8" d="M141.37,139.77c1.52-.88,2.76-.17,2.76,1.59a6.11,6.11,0,0,1-2.76,4.79c-1.53.88-2.76.17-2.76-1.59A6.09,6.09,0,0,1,141.37,139.77Z"/><path class="cls-9" d="M133.59,117.73c-3-1.74-5.89-2-8.11-.7s-3.45,3.9-3.45,7.38a17.49,17.49,0,0,0,.48,3.92l1.85-1.07a14.9,14.9,0,0,1-.29-2.85c0-2.72.86-4.72,2.43-5.62s3.72-.65,6.07.71c5.25,3,9.52,10.42,9.52,16.49a8.55,8.55,0,0,1-.77,3.81,4.38,4.38,0,0,1-1.65,1.8l-.17.09a6,6,0,0,0-.87,2.4,6,6,0,0,0,2.06-.72,6.52,6.52,0,0,0,2.86-3.62,11.2,11.2,0,0,0,.59-3.76C144.14,129.28,139.41,121.08,133.59,117.73Z"/><path class="cls-8" d="M154.79,132c1.52-.88,2.76-.17,2.76,1.6a6.11,6.11,0,0,1-2.76,4.78c-1.53.88-2.76.17-2.76-1.59A6.1,6.1,0,0,1,154.79,132Z"/><path class="cls-9" d="M147,110c-3-1.73-5.89-2-8.11-.7s-3.45,3.9-3.45,7.38a17.43,17.43,0,0,0,.48,3.92l1.85-1.07a14.07,14.07,0,0,1-.29-2.85c0-2.72.86-4.71,2.43-5.62s3.72-.65,6.07.71c5.25,3,9.52,10.43,9.52,16.49a8.39,8.39,0,0,1-.77,3.81,4.54,4.54,0,0,1-1.65,1.81l-.17.08a6,6,0,0,0-.87,2.4,5.82,5.82,0,0,0,2.06-.72A6.49,6.49,0,0,0,157,132a11.46,11.46,0,0,0,.58-3.76C157.55,121.53,152.83,113.33,147,110Z"/><path class="cls-8" d="M128,147.51c1.53-.88,2.76-.17,2.76,1.59a6.09,6.09,0,0,1-2.76,4.79c-1.52.88-2.76.17-2.76-1.6A6.11,6.11,0,0,1,128,147.51Z"/><path class="cls-9" d="M120.18,125.47c-3-1.74-5.89-2-8.12-.7s-3.45,3.9-3.45,7.38a16.81,16.81,0,0,0,.49,3.91l1.84-1.06a14.9,14.9,0,0,1-.29-2.85c0-2.72.87-4.72,2.43-5.62s3.72-.65,6.08.71c5.25,3,9.52,10.42,9.52,16.49a8.41,8.41,0,0,1-.78,3.81,4.25,4.25,0,0,1-1.65,1.8,1.29,1.29,0,0,1-.16.09,5.87,5.87,0,0,0-.87,2.4,6,6,0,0,0,2-.72,6.51,6.51,0,0,0,2.86-3.62,11.2,11.2,0,0,0,.59-3.76C130.72,137,126,128.82,120.18,125.47Z"/><path class="cls-8" d="M168.21,124.27c1.52-.88,2.76-.16,2.76,1.6a6.11,6.11,0,0,1-2.76,4.78c-1.53.89-2.76.17-2.76-1.59A6.12,6.12,0,0,1,168.21,124.27Z"/><path class="cls-9" d="M160.43,102.23c-3-1.73-5.89-2-8.11-.7s-3.45,3.91-3.45,7.38a17.36,17.36,0,0,0,.48,3.92l1.84-1.07a14.72,14.72,0,0,1-.28-2.85c0-2.72.86-4.71,2.43-5.62s3.72-.65,6.07.71c5.25,3,9.52,10.43,9.52,16.5a8.37,8.37,0,0,1-.77,3.8,4.41,4.41,0,0,1-1.65,1.81l-.17.09a5.91,5.91,0,0,0-.87,2.4,6.24,6.24,0,0,0,2.06-.72,6.59,6.59,0,0,0,2.86-3.63,11.4,11.4,0,0,0,.58-3.75C171,113.78,166.25,105.59,160.43,102.23Z"/><path class="cls-8" d="M181.63,116.53c1.52-.89,2.76-.17,2.76,1.59a6.13,6.13,0,0,1-2.76,4.79c-1.53.88-2.76.16-2.76-1.6A6.08,6.08,0,0,1,181.63,116.53Z"/><path class="cls-9" d="M173.85,94.48c-3-1.73-5.89-2-8.11-.7s-3.45,3.91-3.45,7.38a17.36,17.36,0,0,0,.48,3.92l1.84-1.07a14.72,14.72,0,0,1-.28-2.85c0-2.72.86-4.71,2.43-5.61s3.72-.66,6.07.7c5.25,3,9.52,10.43,9.52,16.5a8.45,8.45,0,0,1-.77,3.81,4.4,4.4,0,0,1-1.66,1.8l-.16.09a6,6,0,0,0-.87,2.4,6.24,6.24,0,0,0,2.06-.72,6.59,6.59,0,0,0,2.86-3.63,11.4,11.4,0,0,0,.58-3.75C184.39,106,179.67,97.84,173.85,94.48Z"/><path class="cls-8" d="M195.05,108.78c1.52-.88,2.76-.17,2.76,1.59a6.13,6.13,0,0,1-2.76,4.79c-1.53.88-2.77.17-2.77-1.6A6.1,6.1,0,0,1,195.05,108.78Z"/><path class="cls-9" d="M187.27,86.74c-3-1.74-5.89-2-8.11-.7s-3.45,3.9-3.45,7.38a17.34,17.34,0,0,0,.48,3.91L178,96.27a14.87,14.87,0,0,1-.28-2.85c0-2.72.86-4.72,2.43-5.62s3.72-.66,6.07.71c5.25,3,9.52,10.42,9.52,16.49a8.42,8.42,0,0,1-.77,3.81,4.4,4.4,0,0,1-1.66,1.8l-.16.09a6,6,0,0,0-.87,2.4,6.11,6.11,0,0,0,2.05-.72,6.52,6.52,0,0,0,2.87-3.63,11.4,11.4,0,0,0,.58-3.75C197.81,98.29,193.09,90.09,187.27,86.74Z"/><path class="cls-8" d="M208.47,101c1.52-.88,2.76-.17,2.76,1.59a6.11,6.11,0,0,1-2.76,4.79c-1.53.88-2.77.17-2.77-1.59A6.1,6.1,0,0,1,208.47,101Z"/><path class="cls-9" d="M200.69,79c-3-1.74-5.89-2-8.11-.7s-3.45,3.9-3.45,7.38a17.49,17.49,0,0,0,.48,3.92l1.84-1.07a14.87,14.87,0,0,1-.28-2.85c0-2.72.86-4.72,2.43-5.62s3.72-.65,6.07.71c5.25,3,9.52,10.42,9.52,16.49a8.42,8.42,0,0,1-.77,3.81,4.46,4.46,0,0,1-1.66,1.8,1.29,1.29,0,0,1-.16.09,6,6,0,0,0-.87,2.4,5.9,5.9,0,0,0,2.05-.72,6.54,6.54,0,0,0,2.87-3.62,11.46,11.46,0,0,0,.58-3.76C211.23,90.54,206.51,82.34,200.69,79Z"/><path class="cls-8" d="M221.89,93.28c1.52-.88,2.76-.17,2.76,1.6a6.11,6.11,0,0,1-2.76,4.78c-1.53.88-2.77.17-2.77-1.59A6.11,6.11,0,0,1,221.89,93.28Z"/><path class="cls-9" d="M214.11,71.24c-3-1.73-5.89-2-8.12-.7s-3.44,3.9-3.44,7.38a17.49,17.49,0,0,0,.48,3.92l1.84-1.07a14.87,14.87,0,0,1-.28-2.85c0-2.72.86-4.71,2.42-5.62s3.73-.65,6.08.71c5.25,3,9.52,10.43,9.52,16.49a8.52,8.52,0,0,1-.77,3.81,4.46,4.46,0,0,1-1.66,1.8.65.65,0,0,1-.16.09,6,6,0,0,0-.87,2.4,5.7,5.7,0,0,0,2-.72,6.54,6.54,0,0,0,2.87-3.62,11.46,11.46,0,0,0,.58-3.76C224.65,82.79,219.92,74.59,214.11,71.24Z"/><path class="cls-8" d="M235.3,85.53c1.53-.88,2.77-.17,2.77,1.6a6.1,6.1,0,0,1-2.77,4.78c-1.52.88-2.76.17-2.76-1.59A6.15,6.15,0,0,1,235.3,85.53Z"/><path class="cls-9" d="M227.53,63.49c-3-1.73-5.89-2-8.12-.7S216,66.7,216,70.17a17.36,17.36,0,0,0,.48,3.92L218.29,73a14.72,14.72,0,0,1-.28-2.85c0-2.72.86-4.71,2.42-5.62s3.72-.65,6.08.71c5.25,3,9.52,10.43,9.52,16.5a8.54,8.54,0,0,1-.77,3.8,4.36,4.36,0,0,1-1.66,1.81l-.16.09a5.91,5.91,0,0,0-.87,2.4,6.11,6.11,0,0,0,2.05-.72,6.56,6.56,0,0,0,2.87-3.63,11.4,11.4,0,0,0,.58-3.75C238.07,75,233.34,66.85,227.53,63.49Z"/><path class="cls-8" d="M248.72,77.78c1.53-.88,2.77-.16,2.77,1.6a6.13,6.13,0,0,1-2.77,4.79c-1.52.88-2.76.16-2.76-1.6A6.15,6.15,0,0,1,248.72,77.78Z"/><path class="cls-9" d="M241,55.74c-3-1.73-5.89-2-8.12-.7s-3.45,3.91-3.45,7.38a16.83,16.83,0,0,0,.49,3.92l1.84-1.07a14.72,14.72,0,0,1-.28-2.85c0-2.72.86-4.71,2.42-5.61s3.72-.66,6.08.7c5.25,3,9.52,10.43,9.52,16.5a8.44,8.44,0,0,1-.78,3.81,4.37,4.37,0,0,1-1.65,1.8l-.16.09a6,6,0,0,0-.87,2.4,6.11,6.11,0,0,0,2-.72,6.56,6.56,0,0,0,2.87-3.63,11.4,11.4,0,0,0,.58-3.75C251.49,67.29,246.76,59.1,241,55.74Z"/><path class="cls-8" d="M262.14,70c1.53-.89,2.77-.17,2.77,1.59a6.11,6.11,0,0,1-2.77,4.79c-1.52.88-2.76.16-2.76-1.6A6.11,6.11,0,0,1,262.14,70Z"/><path class="cls-9" d="M254.37,48c-3-1.74-5.89-2-8.12-.7s-3.45,3.9-3.45,7.38a16.81,16.81,0,0,0,.49,3.91l1.84-1.06a14.9,14.9,0,0,1-.29-2.85c0-2.73.87-4.72,2.43-5.62s3.72-.66,6.08.7c5.25,3,9.52,10.43,9.52,16.5a8.41,8.41,0,0,1-.78,3.81,4.37,4.37,0,0,1-1.65,1.8l-.16.09a6,6,0,0,0-.87,2.4,6.11,6.11,0,0,0,2-.72A6.52,6.52,0,0,0,264.33,70a11.4,11.4,0,0,0,.58-3.75C264.91,59.55,260.18,51.35,254.37,48Z"/><path class="cls-8" d="M275.56,62.29c1.53-.88,2.76-.17,2.76,1.59a6.09,6.09,0,0,1-2.76,4.79c-1.52.88-2.76.17-2.76-1.59A6.11,6.11,0,0,1,275.56,62.29Z"/><path class="cls-9" d="M267.79,40.25c-3-1.74-5.89-2-8.12-.7s-3.45,3.9-3.45,7.38a17,17,0,0,0,.49,3.92l1.84-1.07a14.9,14.9,0,0,1-.29-2.85c0-2.72.87-4.72,2.43-5.62s3.72-.65,6.08.71c5.25,3,9.52,10.42,9.52,16.49a8.41,8.41,0,0,1-.78,3.81,4.25,4.25,0,0,1-1.65,1.8,1.29,1.29,0,0,1-.16.09,5.87,5.87,0,0,0-.87,2.4,6,6,0,0,0,2.05-.72,6.51,6.51,0,0,0,2.86-3.62,11.2,11.2,0,0,0,.59-3.76C278.33,51.8,273.6,43.6,267.79,40.25Z"/><path class="cls-8" d="M289,54.54c1.52-.88,2.76-.16,2.76,1.6A6.15,6.15,0,0,1,289,60.93c-1.53.88-2.76.16-2.76-1.6A6.12,6.12,0,0,1,289,54.54Z"/><path class="cls-9" d="M281.19,32.5c-3-1.73-5.89-2-8.11-.7s-3.45,3.91-3.45,7.38a17.36,17.36,0,0,0,.48,3.92L272,42a14.72,14.72,0,0,1-.28-2.85c0-2.72.86-4.71,2.43-5.62s3.72-.65,6.07.71c5.25,3,9.52,10.43,9.52,16.5a8.45,8.45,0,0,1-.77,3.81,4.44,4.44,0,0,1-1.65,1.8l-.17.09a5.91,5.91,0,0,0-.87,2.4,6.24,6.24,0,0,0,2.06-.72,6.59,6.59,0,0,0,2.86-3.63,11.4,11.4,0,0,0,.58-3.75C291.73,44.05,287,35.86,281.19,32.5Z"/><path class="cls-8" d="M302.39,46.8c1.52-.89,2.76-.17,2.76,1.59a6.13,6.13,0,0,1-2.76,4.79c-1.53.88-2.76.16-2.76-1.6A6.08,6.08,0,0,1,302.39,46.8Z"/><path class="cls-9" d="M294.61,24.76c-3-1.74-5.89-2-8.11-.71s-3.45,3.91-3.45,7.38a17.36,17.36,0,0,0,.48,3.92l1.84-1.07a14.72,14.72,0,0,1-.28-2.85c0-2.72.86-4.71,2.43-5.61s3.72-.66,6.07.7c5.25,3,9.52,10.43,9.52,16.5a8.58,8.58,0,0,1-.77,3.81,4.33,4.33,0,0,1-1.66,1.8l-.16.09a6,6,0,0,0-.87,2.4,6.24,6.24,0,0,0,2.06-.72,6.59,6.59,0,0,0,2.86-3.63,11.14,11.14,0,0,0,.58-3.75C305.15,36.3,300.43,28.11,294.61,24.76Z"/><path class="cls-8" d="M315.81,39.05c1.52-.88,2.76-.17,2.76,1.59a6.11,6.11,0,0,1-2.76,4.79c-1.53.88-2.77.17-2.77-1.6A6.1,6.1,0,0,1,315.81,39.05Z"/><path class="cls-9" d="M308,17c-3-1.74-5.89-2-8.11-.7s-3.45,3.9-3.45,7.38A17.34,17.34,0,0,0,297,27.6l1.84-1.06a14.87,14.87,0,0,1-.28-2.85c0-2.72.86-4.72,2.43-5.62s3.72-.65,6.07.71c5.25,3,9.52,10.42,9.52,16.49a8.42,8.42,0,0,1-.77,3.81,4.4,4.4,0,0,1-1.66,1.8l-.16.09a6,6,0,0,0-.87,2.4,5.9,5.9,0,0,0,2.05-.72A6.52,6.52,0,0,0,318,39a11.4,11.4,0,0,0,.58-3.75C318.57,28.56,313.85,20.36,308,17Z"/><path class="cls-8" d="M329.23,31.3c1.52-.88,2.76-.17,2.76,1.59a6.11,6.11,0,0,1-2.76,4.79c-1.53.88-2.77.17-2.77-1.59A6.1,6.1,0,0,1,329.23,31.3Z"/><path class="cls-9" d="M321.45,9.26c-3-1.74-5.89-2-8.11-.7s-3.45,3.9-3.45,7.38a17.49,17.49,0,0,0,.48,3.92l1.84-1.07a14.87,14.87,0,0,1-.28-2.85c0-2.72.86-4.72,2.43-5.62s3.72-.65,6.07.71c5.25,3,9.52,10.42,9.52,16.49a8.42,8.42,0,0,1-.77,3.81,4.46,4.46,0,0,1-1.66,1.8,1.29,1.29,0,0,1-.16.09,6,6,0,0,0-.87,2.4,5.9,5.9,0,0,0,2.05-.72,6.54,6.54,0,0,0,2.87-3.62,11.46,11.46,0,0,0,.58-3.76C332,20.81,327.27,12.61,321.45,9.26Z"/><path class="cls-8" d="M342.65,23.55c1.52-.88,2.76-.17,2.76,1.6a6.11,6.11,0,0,1-2.76,4.78c-1.53.88-2.77.17-2.77-1.59A6.11,6.11,0,0,1,342.65,23.55Z"/><path class="cls-9" d="M334.87,1.51c-3-1.73-5.89-2-8.12-.7s-3.44,3.9-3.44,7.38a17.36,17.36,0,0,0,.48,3.92L325.63,11a14.79,14.79,0,0,1-.28-2.85c0-2.72.86-4.71,2.42-5.62s3.73-.65,6.08.71c5.25,3,9.52,10.43,9.52,16.49a8.55,8.55,0,0,1-.77,3.81,4.42,4.42,0,0,1-1.66,1.81l-.16.08a6,6,0,0,0-.87,2.4,5.9,5.9,0,0,0,2-.72,6.5,6.5,0,0,0,2.87-3.62,11.46,11.46,0,0,0,.58-3.76C345.41,13.06,340.68,4.86,334.87,1.51Z"/><path class="cls-16" d="M334.87,1.51c-3-1.73-5.89-2-8.12-.7s-3.44,3.9-3.44,7.38a15.52,15.52,0,0,0,.23,2.51,17.33,17.33,0,0,0-2.09-1.44c-3-1.74-5.89-2-8.11-.7s-3.45,3.9-3.45,7.38a15.52,15.52,0,0,0,.23,2.51A17.33,17.33,0,0,0,308,17c-3-1.74-5.89-2-8.11-.7s-3.45,3.9-3.45,7.38a15.62,15.62,0,0,0,.23,2.51,16.25,16.25,0,0,0-2.09-1.44c-3-1.74-5.89-2-8.11-.71s-3.45,3.91-3.45,7.38a15.64,15.64,0,0,0,.23,2.52,16.66,16.66,0,0,0-2.09-1.45c-3-1.73-5.89-2-8.11-.7s-3.45,3.91-3.45,7.38a16.68,16.68,0,0,0,.22,2.5,16.2,16.2,0,0,0-2.06-1.43c-3-1.74-5.89-2-8.12-.7s-3.45,3.9-3.45,7.38a16.85,16.85,0,0,0,.23,2.51A15.5,15.5,0,0,0,254.37,48c-3-1.74-5.89-2-8.12-.7s-3.45,3.9-3.45,7.38a16.85,16.85,0,0,0,.23,2.51A16.57,16.57,0,0,0,241,55.74c-3-1.73-5.89-2-8.12-.7s-3.44,3.91-3.44,7.38a16.94,16.94,0,0,0,.22,2.52,15.58,15.58,0,0,0-2.08-1.45c-3-1.73-5.89-2-8.12-.7S216,66.7,216,70.17a16.7,16.7,0,0,0,.22,2.51,16.48,16.48,0,0,0-2.08-1.44c-3-1.73-5.89-2-8.12-.7s-3.44,3.9-3.44,7.38a16.7,16.7,0,0,0,.22,2.51A16.48,16.48,0,0,0,200.69,79c-3-1.74-5.89-2-8.12-.7s-3.44,3.9-3.44,7.38a15.52,15.52,0,0,0,.23,2.51,16.25,16.25,0,0,0-2.09-1.44c-3-1.74-5.89-2-8.11-.7s-3.45,3.9-3.45,7.38a15.62,15.62,0,0,0,.23,2.51,17.43,17.43,0,0,0-2.09-1.45c-3-1.73-5.89-2-8.11-.7s-3.45,3.91-3.45,7.38a15.64,15.64,0,0,0,.23,2.52,15.67,15.67,0,0,0-2.09-1.45c-3-1.73-5.89-2-8.11-.7s-3.45,3.91-3.45,7.38a15.52,15.52,0,0,0,.23,2.51A16.57,16.57,0,0,0,147,110c-3-1.73-5.89-2-8.11-.7s-3.45,3.9-3.45,7.38a15.52,15.52,0,0,0,.23,2.51,16.57,16.57,0,0,0-2.09-1.44c-3-1.74-5.89-2-8.11-.7s-3.45,3.9-3.45,7.38a16.28,16.28,0,0,0,.21,2.48,16.84,16.84,0,0,0-2.06-1.42c-3-1.74-5.89-2-8.12-.7s-3.45,3.9-3.45,7.38a16.81,16.81,0,0,0,.49,3.91l1.84-1.06a14.9,14.9,0,0,1-.29-2.85c0-2.72.87-4.72,2.43-5.62s3.72-.65,6.08.71c5.25,3,9.52,10.42,9.52,16.49a8.41,8.41,0,0,1-.78,3.81,4.25,4.25,0,0,1-1.65,1.8,1.29,1.29,0,0,1-.16.09,5.87,5.87,0,0,0-.87,2.4,6,6,0,0,0,2-.72,6.51,6.51,0,0,0,2.86-3.62,11.2,11.2,0,0,0,.59-3.76c0-5.44-3.11-11.86-7.38-15.88l1-.59a14.9,14.9,0,0,1-.29-2.85c0-2.72.86-4.72,2.43-5.62s3.72-.65,6.07.71c5.25,3,9.52,10.42,9.52,16.49a8.55,8.55,0,0,1-.77,3.81,4.38,4.38,0,0,1-1.65,1.8l-.17.09a6,6,0,0,0-.87,2.4,6,6,0,0,0,2.06-.72,6.52,6.52,0,0,0,2.86-3.62,11.2,11.2,0,0,0,.59-3.76c0-5.44-3.12-11.86-7.39-15.88l1-.6a14.07,14.07,0,0,1-.29-2.85c0-2.72.86-4.71,2.43-5.62s3.72-.65,6.07.71c5.25,3,9.52,10.43,9.52,16.49a8.39,8.39,0,0,1-.77,3.81,4.54,4.54,0,0,1-1.65,1.81l-.17.08a6,6,0,0,0-.87,2.4,5.82,5.82,0,0,0,2.06-.72A6.49,6.49,0,0,0,157,132a11.46,11.46,0,0,0,.58-3.76c0-5.44-3.11-11.86-7.38-15.88l1-.6a14.72,14.72,0,0,1-.28-2.85c0-2.72.86-4.71,2.43-5.62s3.72-.65,6.07.71c5.25,3,9.52,10.43,9.52,16.5a8.37,8.37,0,0,1-.77,3.8,4.41,4.41,0,0,1-1.65,1.81l-.17.09a5.91,5.91,0,0,0-.87,2.4,6.24,6.24,0,0,0,2.06-.72,6.59,6.59,0,0,0,2.86-3.63,11.4,11.4,0,0,0,.58-3.75c0-5.45-3.11-11.87-7.38-15.89l1-.6a14.72,14.72,0,0,1-.28-2.85c0-2.72.86-4.71,2.43-5.61s3.72-.66,6.07.7c5.25,3,9.52,10.43,9.52,16.5a8.45,8.45,0,0,1-.77,3.81,4.4,4.4,0,0,1-1.66,1.8l-.16.09a6,6,0,0,0-.87,2.4,6.11,6.11,0,0,0,2.05-.72,6.56,6.56,0,0,0,2.87-3.63,11.4,11.4,0,0,0,.58-3.75c0-5.45-3.11-11.87-7.38-15.89l1-.59a14.87,14.87,0,0,1-.28-2.85c0-2.72.86-4.72,2.43-5.62s3.72-.66,6.07.71c5.25,3,9.52,10.42,9.52,16.49a8.42,8.42,0,0,1-.77,3.81,4.4,4.4,0,0,1-1.66,1.8l-.16.09a6,6,0,0,0-.87,2.4,6.11,6.11,0,0,0,2.05-.72,6.52,6.52,0,0,0,2.87-3.63,11.4,11.4,0,0,0,.58-3.75c0-5.45-3.11-11.87-7.39-15.89l1-.59a14.87,14.87,0,0,1-.28-2.85c0-2.72.86-4.72,2.43-5.62s3.72-.65,6.07.71c5.25,3,9.52,10.42,9.52,16.49a8.42,8.42,0,0,1-.77,3.81,4.46,4.46,0,0,1-1.66,1.8,1.29,1.29,0,0,1-.16.09,6,6,0,0,0-.87,2.4,5.9,5.9,0,0,0,2.05-.72,6.54,6.54,0,0,0,2.87-3.62,11.46,11.46,0,0,0,.58-3.76c0-5.44-3.11-11.86-7.39-15.88l1-.6a14.87,14.87,0,0,1-.28-2.85c0-2.72.86-4.71,2.42-5.62s3.73-.65,6.08.71c5.25,3,9.52,10.43,9.52,16.49a8.52,8.52,0,0,1-.77,3.81,4.46,4.46,0,0,1-1.66,1.8.65.65,0,0,1-.16.09,6,6,0,0,0-.87,2.4,5.7,5.7,0,0,0,2-.72,6.54,6.54,0,0,0,2.87-3.62,11.46,11.46,0,0,0,.58-3.76c0-5.44-3.11-11.86-7.39-15.88l1-.6a14.72,14.72,0,0,1-.28-2.85c0-2.72.86-4.71,2.42-5.62s3.72-.65,6.08.71c5.25,3,9.52,10.43,9.52,16.5a8.54,8.54,0,0,1-.77,3.8,4.36,4.36,0,0,1-1.66,1.81l-.16.08a6,6,0,0,0-.87,2.41,6.11,6.11,0,0,0,2.05-.72,6.56,6.56,0,0,0,2.87-3.63,11.4,11.4,0,0,0,.58-3.75c0-5.45-3.11-11.87-7.39-15.89l1-.6a14.72,14.72,0,0,1-.28-2.85c0-2.72.86-4.71,2.42-5.61s3.72-.66,6.08.7c5.25,3,9.52,10.43,9.52,16.5a8.44,8.44,0,0,1-.78,3.81,4.37,4.37,0,0,1-1.65,1.8l-.16.09a6,6,0,0,0-.87,2.4,6.11,6.11,0,0,0,2-.72,6.56,6.56,0,0,0,2.87-3.63,11.4,11.4,0,0,0,.58-3.75c0-5.45-3.11-11.87-7.39-15.89l1-.59a14.9,14.9,0,0,1-.29-2.85c0-2.73.87-4.72,2.43-5.62s3.72-.66,6.08.7c5.25,3,9.52,10.43,9.52,16.5a8.41,8.41,0,0,1-.78,3.81,4.37,4.37,0,0,1-1.65,1.8l-.16.09a6,6,0,0,0-.87,2.4,6.11,6.11,0,0,0,2-.72A6.52,6.52,0,0,0,264.33,70a11.4,11.4,0,0,0,.58-3.75c0-5.45-3.11-11.87-7.39-15.89l1-.59a14.9,14.9,0,0,1-.29-2.85c0-2.72.87-4.72,2.43-5.62s3.72-.65,6.08.71c5.25,3,9.52,10.42,9.52,16.49a8.41,8.41,0,0,1-.78,3.81,4.25,4.25,0,0,1-1.65,1.8,1.29,1.29,0,0,1-.16.09,6,6,0,0,0-.87,2.4,6,6,0,0,0,2.05-.72,6.51,6.51,0,0,0,2.86-3.62,11.2,11.2,0,0,0,.59-3.76c0-5.45-3.11-11.87-7.39-15.89l1-.59a14.72,14.72,0,0,1-.28-2.85c0-2.72.86-4.71,2.43-5.62s3.72-.65,6.07.71c5.25,3,9.52,10.43,9.52,16.5a8.45,8.45,0,0,1-.77,3.81,4.44,4.44,0,0,1-1.65,1.8l-.17.09a5.91,5.91,0,0,0-.87,2.4,6.24,6.24,0,0,0,2.06-.72,6.59,6.59,0,0,0,2.86-3.63,11.4,11.4,0,0,0,.58-3.75c0-5.45-3.11-11.87-7.38-15.89l1-.6a14.72,14.72,0,0,1-.28-2.85c0-2.72.86-4.71,2.43-5.61s3.72-.66,6.07.7c5.25,3,9.52,10.43,9.52,16.5a8.58,8.58,0,0,1-.77,3.81,4.33,4.33,0,0,1-1.66,1.8l-.16.09a6,6,0,0,0-.87,2.4,6.24,6.24,0,0,0,2.06-.72,6.59,6.59,0,0,0,2.86-3.63,11.14,11.14,0,0,0,.58-3.75c0-5.45-3.11-11.87-7.39-15.89l1-.59a14.87,14.87,0,0,1-.28-2.85c0-2.72.86-4.72,2.43-5.62s3.72-.65,6.07.71c5.25,3,9.52,10.42,9.52,16.49a8.42,8.42,0,0,1-.77,3.81,4.4,4.4,0,0,1-1.66,1.8l-.16.09a6,6,0,0,0-.87,2.4,5.9,5.9,0,0,0,2.05-.72A6.52,6.52,0,0,0,318,39a11.4,11.4,0,0,0,.58-3.75c0-5.45-3.11-11.87-7.39-15.89l1-.59a14.87,14.87,0,0,1-.28-2.85c0-2.72.86-4.72,2.43-5.62s3.72-.65,6.07.71c5.25,3,9.52,10.42,9.52,16.49a8.42,8.42,0,0,1-.77,3.81,4.46,4.46,0,0,1-1.66,1.8,1.29,1.29,0,0,1-.16.09,6,6,0,0,0-.87,2.4,5.9,5.9,0,0,0,2.05-.72,6.54,6.54,0,0,0,2.87-3.62,11.46,11.46,0,0,0,.58-3.76c0-5.44-3.11-11.86-7.39-15.88l1-.6a14.79,14.79,0,0,1-.28-2.85c0-2.72.86-4.71,2.42-5.62s3.73-.65,6.08.71c5.25,3,9.52,10.43,9.52,16.49a8.55,8.55,0,0,1-.77,3.81,4.42,4.42,0,0,1-1.66,1.81l-.16.08a6,6,0,0,0-.87,2.4,5.9,5.9,0,0,0,2-.72,6.5,6.5,0,0,0,2.87-3.62,11.46,11.46,0,0,0,.58-3.76C345.41,13.06,340.68,4.86,334.87,1.51Z"/></g><path class="cls-9" d="M147.07,164.1l16.76-9.74c1.24-.71,2.25-.2,2.26,1.14a4.79,4.79,0,0,1-2.23,3.73L147.07,169c-1.24.72-2.25.21-2.25-1.13A4.82,4.82,0,0,1,147.07,164.1Z"/><path class="cls-9" d="M175.73,147.55l16.76-9.73c1.24-.72,2.25-.21,2.26,1.14a4.74,4.74,0,0,1-2.24,3.72l-16.78,9.73c-1.24.71-2.25.21-2.25-1.13A4.83,4.83,0,0,1,175.73,147.55Z"/><path class="cls-9" d="M204.39,131l16.76-9.74c1.24-.71,2.25-.2,2.26,1.14a4.82,4.82,0,0,1-2.24,3.73l-16.78,9.72c-1.24.72-2.25.21-2.25-1.13A4.8,4.8,0,0,1,204.39,131Z"/><path class="cls-9" d="M233,114.46l16.77-9.73c1.24-.72,2.25-.21,2.26,1.13a4.79,4.79,0,0,1-2.24,3.73l-16.78,9.73c-1.25.71-2.25.21-2.25-1.13A4.82,4.82,0,0,1,233,114.46Z"/><path class="cls-9" d="M261.7,97.92l16.76-9.74c1.25-.71,2.26-.2,2.26,1.14a4.79,4.79,0,0,1-2.23,3.73l-16.79,9.72c-1.24.72-2.24.21-2.24-1.13A4.79,4.79,0,0,1,261.7,97.92Z"/><path class="cls-9" d="M290.36,81.37l16.76-9.73c1.24-.72,2.26-.21,2.26,1.13a4.75,4.75,0,0,1-2.23,3.73l-16.79,9.73c-1.24.71-2.25.2-2.25-1.13A4.83,4.83,0,0,1,290.36,81.37Z"/><path class="cls-9" d="M319,64.83l16.76-9.74c1.24-.71,2.25-.21,2.26,1.14A4.79,4.79,0,0,1,335.81,60L319,69.68c-1.24.72-2.25.21-2.25-1.13A4.8,4.8,0,0,1,319,64.83Z"/><path class="cls-2" d="M340.08,77.83l-.22,139.55L145,330V190.43l195-112.6m2-3.47L143,189.28V333.46L341.85,218.54l.24-144.18Z"/><line class="cls-24" x1="171.45" y1="316.08" x2="171.48" y2="173.82"/><line class="cls-24" x1="199.91" y1="157.41" x2="199.85" y2="299.66"/><line class="cls-24" x1="228.35" y1="140.99" x2="228.25" y2="283.24"/><line class="cls-24" x1="256.78" y1="124.57" x2="256.65" y2="266.83"/><line class="cls-24" x1="285.22" y1="108.15" x2="285.05" y2="250.41"/><line class="cls-24" x1="313.66" y1="91.74" x2="313.45" y2="233.99"/><line class="cls-24" x1="144.21" y1="224.62" x2="341.08" y2="110.96"/><line class="cls-24" x1="144.21" y1="260.67" x2="341.08" y2="147"/><line class="cls-24" x1="144.21" y1="296.71" x2="341.08" y2="183.05"/><g id="Note"><g id="Note-2" data-name="Note"><polygon class="cls-14" points="287.68 110.29 287.68 145.9 317.18 128.87 317.18 93.27 287.68 110.29"/><path class="cls-9" d="M324.55,126.89s-1.44,2.43-6.59,5.4l-26,15-3.12-30.94,29.49-17L320,117.23C320.28,120.15,320.7,124.4,324.55,126.89Z"/><polygon class="cls-9" points="318.36 99.32 288.87 116.35 288.87 110.88 318.36 93.85 318.36 99.32"/><polygon class="cls-14" points="318.36 99.32 288.87 116.35 288.87 110.88 318.36 93.85 318.36 99.32"/></g><path class="cls-7" d="M315.43,114.5a18.49,18.49,0,0,0-.68-2.45c0-.09-.06-.18-.1-.27a2.37,2.37,0,0,0-.42-2.65c-.12-.11-.42-.23-.51,0a3.64,3.64,0,0,0,.18,2.33A9.2,9.2,0,0,1,313,113a11,11,0,0,1-1,1.32c-.46.49-1.15,1.2-1.88,1.22a.88.88,0,0,1-.88-.69c.22-.31.43-.64.62-1a7,7,0,0,0,1-2.36.9.9,0,0,0-1.13-1.07c-.82.19-1.1,1.26-1.26,2a4.6,4.6,0,0,0,0,2.15,5.65,5.65,0,0,1-.63.81,1.66,1.66,0,0,1-.3.24c0-.1,0-.23,0-.27,0-.24-.36-.61-.61-.41-.65.51-.78,1.33-1.18,2a1.53,1.53,0,0,1-.34.42c-.18.16-.2.17-.27,0a5.4,5.4,0,0,0-.41-1c-.12-.2-.52-.4-.69-.13a4.72,4.72,0,0,0-.54,1.27,1,1,0,0,0-1.48,0,8.67,8.67,0,0,0-1.31,1.86c-.11.19-.21.38-.33.55l-.12.15a.32.32,0,0,1,0-.13,10.35,10.35,0,0,1,0-1.67h0s0-.06,0-.09c0-.4-.86-.63-.87-.17,0,.07,0,.14,0,.21a5,5,0,0,1-2.29,3.63c-.36.27-1.28.93-1.78.69s-.36-1-.34-1.36a8.4,8.4,0,0,1,1-3.49,3.49,3.49,0,0,1,1.15-1.32,1.34,1.34,0,0,1,1.06-.2c.47.16.42.7.3,1.1,0,.16.21.51.33.28.72-1.33-.47-2.51-1.85-2s-2,1.86-2.38,3.07-.86,2.69-.33,3.85c.63,1.4,2.26.82,3.24.17a7.11,7.11,0,0,0,2.12-2.21,1.74,1.74,0,0,0,.18.22c.65.65,1.23.05,1.58-.55a9.36,9.36,0,0,1,1.32-2c.06-.07.15-.12.21-.19s0,0,0,0a2.34,2.34,0,0,1,.08.52,10.68,10.68,0,0,1,0,1.13c0,.36.7.65.82.21a22.33,22.33,0,0,1,.6-2.41c.26.55.59,1.06,1.28.77s.91-1.36,1.33-2.08a.66.66,0,0,0,1,.25,2.45,2.45,0,0,0,.76-.71l.08-.12a1.76,1.76,0,0,0,1.82.8,4.71,4.71,0,0,0,2.43-1.82,11.05,11.05,0,0,0,1.23-1.8s0,.07,0,.11a13.5,13.5,0,0,1,.53,2.75q0,.36,0,.75a2.56,2.56,0,0,0-2.88.94c-.61.76-.81,2.23.29,2.69.9.37,1.94-.4,2.53-1C315.9,117.71,315.74,115.91,315.43,114.5Zm-6.15-2.07a3.51,3.51,0,0,1,.32-.87,1,1,0,0,1,.21-.29c.08-.06.33-.16.31-.17s-.1.44-.14.56a4.93,4.93,0,0,1-.24.64,11.17,11.17,0,0,1-.64,1.24A6.1,6.1,0,0,1,309.28,112.43Zm4,6.54c-.44.24-.89.43-.94-.21-.08-1.06,1.44-2.36,2.46-1.83a2.38,2.38,0,0,1-.39,1A3.47,3.47,0,0,1,313.3,119Z"/><path class="cls-7" d="M297.4,127.25a15.34,15.34,0,0,1-1.2,2.68c-.42.63-1.18,1.13-1.28,1.93,0,.11.13.39.27.26a10,10,0,0,0,1.85-2l0-.09c-.16.9-.34,1.79-.43,2.69s-.21,1.85-.33,2.77-.11,1.84-.29,2.72c-.1.45.72.76.86.27a8.57,8.57,0,0,0,.13-1.34c.05-.5.11-1,.17-1.49.12-.92.23-1.85.33-2.77a49.21,49.21,0,0,0,.67-5.42C298.2,127.08,297.58,126.86,297.4,127.25Z"/><path class="cls-7" d="M304,127.27a1.91,1.91,0,0,0-.74-.75,1.2,1.2,0,0,0-1.11-.15.19.19,0,0,0-.1-.08c-1-.27-1.62.58-2.07,1.33a13.82,13.82,0,0,0-1,2.33c-.53,1.38-1,3.74.46,4.74s2.83.1,3.65-1a7.79,7.79,0,0,0,1.37-4.22A4.12,4.12,0,0,0,304,127.27Zm-1.47,5.45c-.46.79-1.36,1.83-2.4,1.48-.6-.2-.73-.94-.75-1.49a5.89,5.89,0,0,1,.34-2.12,19.58,19.58,0,0,1,.86-2.12c.28-.59.78-1.62,1.53-1.68a.21.21,0,0,0,.08.06,5.25,5.25,0,0,1,.69.31,1.22,1.22,0,0,1,.31.39,3.33,3.33,0,0,1,.3,1.53A7.5,7.5,0,0,1,302.55,132.72Z"/><path class="cls-7" d="M319.4,127.07a24.16,24.16,0,0,1-.87-2.52,4.36,4.36,0,0,0-1.17-2.08c-.16-.12-.5-.23-.63,0a7.86,7.86,0,0,0-1,2.88,4.12,4.12,0,0,0-.48-.54.47.47,0,0,0-.58,0,1.61,1.61,0,0,0-.39.53,2.81,2.81,0,0,0-.83-1.14.46.46,0,0,0-.59,0c-1,1-.74,2.84-1,4.1a1.5,1.5,0,0,1-.28.76c-.21.18-.27,0-.4-.22a4.08,4.08,0,0,1-.5-1.46c0-.16,0-.32,0-.48v0h0a.31.31,0,0,0,0-.1c0-.4-.9-.55-.89-.08a4.68,4.68,0,0,1-.67,3c-.27.42-1.36,2-1.83,1.05-.34-.68.18-1.61.55-2.17a4.08,4.08,0,0,1,1.69-1.63v0c.19-.11,0-.47-.19-.46-1.07,0-2,1.19-2.46,2s-.88,2.1,0,2.9c1,1,2.17,0,2.82-.84a6.08,6.08,0,0,0,.84-1.49l0,.07c.36.58,1.13,1.07,1.74.51s.57-1.57.65-2.27a6.72,6.72,0,0,1,.4-2.28,5.24,5.24,0,0,1,.68,2.17c0,.35.76.61.83.15a5.36,5.36,0,0,1,.29-1.69,8.57,8.57,0,0,1,.68,1.12c.15.29.85.49.79,0a6.13,6.13,0,0,1,.68-3.4,6.46,6.46,0,0,1,.67,1.62,19.33,19.33,0,0,0,.75,2.14C318.84,127.48,319.61,127.53,319.4,127.07Z"/><path class="cls-8" d="M284.5,112.43a7.73,7.73,0,0,1,3.51-6.05,2.42,2.42,0,0,1,2.55-.2h0l1.59,1-.64,1.13s0,.08,0,.13a7.73,7.73,0,0,1-3.51,6.05h0l-.73,1.29-1.73-1,0,0-.06,0h0A2.45,2.45,0,0,1,284.5,112.43Z"/><path class="cls-7" d="M293.24,109.4a7.73,7.73,0,0,1-3.51,6c-1.94,1.12-3.51.22-3.51-2a7.73,7.73,0,0,1,3.51-6C291.67,106.29,293.24,107.18,293.24,109.4Z"/></g><g id="Note-3" data-name="Note"><g id="Note-4" data-name="Note"><polygon class="cls-14" points="204.26 232.15 204.26 267.75 233.75 250.72 233.75 215.12 204.26 232.15"/><path class="cls-9" d="M241.12,248.74s-1.43,2.43-6.58,5.41l-26,15-3.11-30.94,29.49-17,1.65,17.91C236.85,242,237.28,246.25,241.12,248.74Z"/><polygon class="cls-9" points="234.94 221.17 205.45 238.2 205.44 232.73 234.94 215.71 234.94 221.17"/><polygon class="cls-14" points="234.94 221.17 205.45 238.2 205.44 232.73 234.94 215.71 234.94 221.17"/></g><path class="cls-7" d="M231.36,240.7l.27-.06c.42-.07.12-.67-.22-.64-.09,0-.19,0-.29,0-.09-.22-.17-.44-.25-.65a16.41,16.41,0,0,0-2.88-5c-.19-.2-.66-.27-.67.11a16.9,16.9,0,0,1-.73,4l0,0a5.79,5.79,0,0,0-.3-1.26c-.12-.3-.73-.56-.77-.07a2.46,2.46,0,0,0,.25,1.36,19.27,19.27,0,0,1-.54,5.78c-.24.78-.68,1.91-1.69,1.53h0c0-.25.09-.49.14-.7.41-2.06,1.16-5.55-1.44-6.5a.27.27,0,0,0-.35.1,7.81,7.81,0,0,0-.52,3.71,5.09,5.09,0,0,0,1.29,3.63,1.66,1.66,0,0,1-.58.91c-.78.54-1.8-.75-2.18-1.27-.13-.17-.45-.37-.65-.18-.85.77-.9,2.05-.84,3.26a.45.45,0,0,0-.48-.1,1.72,1.72,0,0,0-1,1.65c-.45-.81-1.07-1.36-1.95-.78a2.28,2.28,0,0,0-1,1.28,4.56,4.56,0,0,0-1.11-2.56,1.6,1.6,0,0,0-2.21,0,4.16,4.16,0,0,0-.87,2.67,4.45,4.45,0,0,0,.13,1.5c.05.15.12.41.31.44s.27-.15.21-.33c-.29-.91.18-4.61,1.75-4,.83.34.94,2.05,1.06,2.8.23,1.43.55,2.85.8,4.27.07.44.85.63.86.08,0-1.61-.76-3.67.22-5.12.12-.18.43-.59.68-.5s.39.51.48.7c.29.62.45,1.29.76,1.89.17.33.83.51.84,0,0-.82-.51-2.37.13-3.08a7.44,7.44,0,0,1,.42.79c.15.32.84.53.82,0,0-1.15-.39-2.91.29-4,.64.71,1.5,1.5,2.45,1.36.7-.09,1.05-.66,1.27-1.3a1.76,1.76,0,0,0,2.26-.74,9.34,9.34,0,0,0,1-4.16,22.85,22.85,0,0,0,.06-2.37,2.4,2.4,0,0,0,.4.06.28.28,0,0,0,.27-.2,17.82,17.82,0,0,0,.77-3.59,16.71,16.71,0,0,1,2,3.77l.36.91a3,3,0,0,0-2.16,2.55,3.19,3.19,0,0,0,1.92,2.82c1.3.47,1.84-.94,1.79-2A10.83,10.83,0,0,0,231.36,240.7ZM222,242.91a7.13,7.13,0,0,1,.35-3.51c1.45.91.81,3.68.56,5-.05.25-.09.56-.14.88A5.22,5.22,0,0,1,222,242.91Zm8.61,2c-.53.14-1-.59-1.27-1-.74-1.27.17-2.46,1.33-3a10.18,10.18,0,0,1,.51,2.35C231.23,243.78,231.25,244.77,230.63,244.94Z"/><path class="cls-7" d="M232.56,233.46a18.52,18.52,0,0,0-1.29-2.92c-.26-.49-.53-1-.77-1.49s-.41-.94-.66-1.39c-.14-.24-.75-.42-.73,0a5.36,5.36,0,0,0,.39,1.54c.2.52.42,1,.64,1.53a27.14,27.14,0,0,1,1.18,2.85c.15.48.21,1.21.88,1.16S232.71,233.92,232.56,233.46Z"/><path class="cls-7" d="M233.77,236.91l0,0,.06,0Z"/><path class="cls-7" d="M234.43,237.82a1.53,1.53,0,0,0-.07-.29.47.47,0,0,1-.06-.09s0,0,0,0a.49.49,0,0,0-.26-.32,1.07,1.07,0,0,0-.22-.15l-.14-.08a.36.36,0,0,0-.32,0,.16.16,0,0,0-.11.07.3.3,0,0,0-.05.16,1,1,0,0,0,0,.17.7.7,0,0,0-.08.2,1,1,0,0,0-.05.24.74.74,0,0,0,0,.21.67.67,0,0,0,.31.41,1.54,1.54,0,0,0,.56.18.5.5,0,0,0,.34-.06l.09-.07a.37.37,0,0,0,.07-.2A.92.92,0,0,0,234.43,237.82Z"/><path class="cls-8" d="M201.08,234.28a7.7,7.7,0,0,1,3.51-6,2.43,2.43,0,0,1,2.54-.21h0l1.59.94-.64,1.14s0,.08,0,.12a7.73,7.73,0,0,1-3.51,6.05h0l-.73,1.28-1.73-1h0l-.06,0h0A2.47,2.47,0,0,1,201.08,234.28Z"/><path class="cls-7" d="M209.81,231.25a7.72,7.72,0,0,1-3.5,6.05c-1.94,1.12-3.51.23-3.51-2a7.71,7.71,0,0,1,3.5-6C208.24,228.14,209.81,229,209.81,231.25Z"/></g><path class="cls-9" d="M270.48,199.32l53.45-30.86c3.56-2.05,6.45-.69,6.45,3s-2.89,8.43-6.45,10.48l-53.45,30.86c-3.56,2.06-6.45.7-6.45-3S266.92,201.38,270.48,199.32Z"/><line class="cls-25" x1="177.46" y1="285.66" x2="194.49" y2="295.49"/><line class="cls-25" x1="193.27" y1="276.76" x2="178.2" y2="304.02"/><path class="cls-26" d="M284.51,235.36a5.52,5.52,0,0,0-1.6-3.68A7.14,7.14,0,0,0,279,230a12.24,12.24,0,0,0-6.34,1,17,17,0,0,0-4.63,3.17c-.62.56-1.24,1.11-1.9,1.62-.35.27.16.83.5.62,1.5-.88,2.83-2,4.28-2.92a13.18,13.18,0,0,1,5.28-2c2.55-.37,5.93.34,6.63,3.2a10.72,10.72,0,0,1-.17,4.33,18.43,18.43,0,0,1-1.34,4.23,20.08,20.08,0,0,1-5.35,7,16.07,16.07,0,0,1-6.87,3.82,10.37,10.37,0,0,1-6.55-.6,5.44,5.44,0,0,1-2.23-1.94,6.7,6.7,0,0,1-.82-3.54,17.85,17.85,0,0,1,2.15-8.61,24.49,24.49,0,0,1,13.61-11.61c.79-.27,1.61-.5,2.42-.7a.53.53,0,0,0-.2-1,19.91,19.91,0,0,0-9.43,3.87,26.33,26.33,0,0,0-7.14,7.69,19.89,19.89,0,0,0-3,9.4c-.14,2.79.37,5.58,2.81,7.27a10.88,10.88,0,0,0,7.29,1.53,15.8,15.8,0,0,0,7.65-3.4,22.68,22.68,0,0,0,6.47-7.44A18.69,18.69,0,0,0,284.51,235.36Z"/><path class="cls-26" d="M158.22,189l2.05,4.37a.33.33,0,0,0,.44.17l4.6-1.76c.48-.19.67.49.33,1.14l-3.33,6.25a1.36,1.36,0,0,0-.17.78l.79,5.66c.08.59-.42,1.36-.85,1.31l-4.12-.51a.66.66,0,0,0-.54.32l-4.11,5.25c-.43.55-.94.36-.85-.33l.78-6.56a.63.63,0,0,0-.17-.59l-3.32-2.4c-.35-.26-.16-1.15.32-1.52l4.6-3.55a1.44,1.44,0,0,0,.44-.68l2.06-6.74C157.38,188.86,158,188.5,158.22,189Z"/><path class="cls-7" d="M204.29,162.9l15.61-9c.66-.38,1.2-.11,1.2.61a2.57,2.57,0,0,1-1.2,2l-15.61,9c-.67.38-1.2.11-1.2-.61A2.54,2.54,0,0,1,204.29,162.9Z"/><path class="cls-7" d="M204.29,169.31l10.76-6.22c.67-.38,1.21-.11,1.21.61a2.55,2.55,0,0,1-1.21,2l-10.76,6.22c-.67.39-1.2.11-1.2-.6A2.57,2.57,0,0,1,204.29,169.31Z"/><path class="cls-7" d="M260.13,162.2l15.61-9c.67-.39,1.2-.11,1.2.6a2.57,2.57,0,0,1-1.2,2l-15.61,9c-.66.39-1.2.11-1.2-.6A2.6,2.6,0,0,1,260.13,162.2Z"/><path class="cls-7" d="M260.13,168.62l10.77-6.22c.66-.38,1.2-.11,1.2.61a2.58,2.58,0,0,1-1.2,2l-10.77,6.22c-.66.38-1.2.11-1.2-.61A2.57,2.57,0,0,1,260.13,168.62Z"/><path class="cls-7" d="M149.59,262.07l15.62-9c.66-.38,1.2-.11,1.2.61a2.6,2.6,0,0,1-1.2,2l-15.62,9c-.66.38-1.2.11-1.2-.61A2.58,2.58,0,0,1,149.59,262.07Z"/><path class="cls-7" d="M149.59,268.49l10.77-6.22c.66-.39,1.2-.11,1.2.6a2.6,2.6,0,0,1-1.2,2l-10.77,6.22c-.66.38-1.2.11-1.2-.61A2.57,2.57,0,0,1,149.59,268.49Z"/><path class="cls-7" d="M289.4,217.45l15.61-9c.67-.38,1.21-.11,1.21.61a2.59,2.59,0,0,1-1.21,2l-15.61,9c-.66.38-1.2.11-1.2-.61A2.58,2.58,0,0,1,289.4,217.45Z"/><path class="cls-7" d="M289.4,223.87l10.77-6.22c.66-.39,1.2-.11,1.2.6a2.6,2.6,0,0,1-1.2,2l-10.77,6.22c-.66.38-1.2.11-1.2-.61A2.57,2.57,0,0,1,289.4,223.87Z"/><polygon class="cls-9" points="199.91 192.62 221.1 180.23 199.78 215.12 199.91 192.62"/><polygon class="cls-20" points="199.91 192.62 221.1 180.23 199.78 215.12 199.91 192.62"/><path class="cls-9" d="M123.87,205,137,197.38c.69-.41,1.26-.12,1.27.63a2.71,2.71,0,0,1-1.26,2.1l-13.15,7.6c-.69.41-1.26.12-1.26-.63A2.72,2.72,0,0,1,123.87,205Z"/><path class="cls-9" d="M123.87,210.78l9.69-5.61c.7-.41,1.26-.12,1.27.63a2.69,2.69,0,0,1-1.26,2.1l-9.7,5.6c-.69.4-1.26.12-1.26-.63A2.7,2.7,0,0,1,123.87,210.78Z"/><path class="cls-9" d="M123.87,241,137,233.37c.69-.4,1.26-.12,1.27.64A2.69,2.69,0,0,1,137,236.1l-13.15,7.61c-.69.4-1.26.11-1.26-.64A2.72,2.72,0,0,1,123.87,241Z"/><path class="cls-9" d="M123.87,246.77l9.69-5.61c.7-.4,1.26-.12,1.27.64a2.69,2.69,0,0,1-1.26,2.09l-9.7,5.61c-.69.4-1.26.11-1.26-.64A2.72,2.72,0,0,1,123.87,246.77Z"/><path class="cls-9" d="M123.87,277,137,269.42c.69-.4,1.26-.11,1.27.64a2.71,2.71,0,0,1-1.26,2.1l-13.15,7.6c-.69.41-1.26.12-1.26-.63A2.72,2.72,0,0,1,123.87,277Z"/><path class="cls-9" d="M123.87,282.83l9.69-5.61c.7-.41,1.26-.12,1.27.63a2.71,2.71,0,0,1-1.26,2.1l-9.7,5.6c-.69.4-1.26.12-1.26-.63A2.7,2.7,0,0,1,123.87,282.83Z"/><path class="cls-9" d="M123.87,313,137,305.39c.69-.4,1.26-.11,1.27.64a2.67,2.67,0,0,1-1.26,2.09l-13.15,7.61c-.69.4-1.26.12-1.26-.63A2.72,2.72,0,0,1,123.87,313Z"/><path class="cls-9" d="M123.87,318.8l9.69-5.62c.7-.4,1.26-.11,1.27.64a2.71,2.71,0,0,1-1.26,2.1l-9.7,5.6c-.69.4-1.26.12-1.26-.63A2.7,2.7,0,0,1,123.87,318.8Z"/><g class="cls-27"><path d="M123.87,210.78l9.69-5.61c.7-.41,1.26-.12,1.27.63a2.69,2.69,0,0,1-1.26,2.1l-9.7,5.6c-.69.4-1.26.12-1.26-.63A2.7,2.7,0,0,1,123.87,210.78Z"/><path d="M123.87,246.77l9.69-5.61c.7-.4,1.26-.12,1.27.64a2.69,2.69,0,0,1-1.26,2.09l-9.7,5.61c-.69.4-1.26.11-1.26-.64A2.72,2.72,0,0,1,123.87,246.77Z"/><path d="M123.87,282.83l9.69-5.61c.7-.41,1.26-.12,1.27.63a2.71,2.71,0,0,1-1.26,2.1l-9.7,5.6c-.69.4-1.26.12-1.26-.63A2.7,2.7,0,0,1,123.87,282.83Z"/><path d="M123.87,318.8l9.69-5.62c.7-.4,1.26-.11,1.27.64a2.71,2.71,0,0,1-1.26,2.1l-9.7,5.6c-.69.4-1.26.12-1.26-.63A2.7,2.7,0,0,1,123.87,318.8Z"/></g><path class="cls-14" d="M351.68,185a89.35,89.35,0,0,0-8.41,4.54c-17.45,11.23-30.77,37.13-29.76,57.85.05,1.19.16,2.34.31,3.44L351.68,229Z"/></g></g><g id="Clock"><g id="Clock-2" data-name="Clock"><path class="cls-8" d="M374.24,195.93h0l-.05,0h0l-8.65-5h0l-.07,0h0c-5.45-2.76-12.73-2-20.57,3.1-15.76,10.15-27.79,33.54-26.88,52.25.45,9.33,4,15.73,9.47,18.55h0l0,0h0l8.66,5h0l.06,0h0c5.45,2.77,12.74,2,20.59-3.09,15.75-10.15,27.78-33.54,26.87-52.25C383.26,205.15,379.67,198.75,374.24,195.93Z"/><path class="cls-6" d="M335.79,269.57l-8.25-4.8h0l-.06,0c-5.42-2.83-9-9.23-9.46-18.55-.4-8.34,1.77-17.61,5.69-26.22l8.65,5c-3.92,8.6-6.09,17.87-5.68,26.22C327.11,260.34,330.55,266.66,335.79,269.57Z"/><path class="cls-7" d="M356.84,266.73c15.75-10.15,27.78-33.54,26.87-52.25S369.3,188.82,353.55,199s-27.79,33.54-26.88,52.25S341.09,276.87,356.84,266.73Z"/><path class="cls-3" d="M343.64,265.42c-9.29.45-10.8-10-11-14.5-.8-16.5,10.26-38,24.15-46.95a21,21,0,0,1,10-3.7c9.29-.45,10.8,10,11,14.5.8,16.5-10.26,38-24.15,47a20.92,20.92,0,0,1-10,3.7Z"/><path class="cls-8" d="M357,235.94a.87.87,0,0,1-.32-.06,1,1,0,0,1-.69-.95V211.05a1,1,0,0,1,2,0V232l11.13-14.3a1,1,0,1,1,1.6,1.24l-12.95,16.63A1,1,0,0,1,357,235.94Z"/><path class="cls-9" d="M351.31,253.57h-.14a.44.44,0,0,1-.29-.53l5.61-18.89a.42.42,0,0,1,.81.24l-5.6,18.89A.42.42,0,0,1,351.31,253.57Z"/><path class="cls-9" d="M356.69,230.15c1.86-1.19,3.45-.37,3.55,1.83a7.62,7.62,0,0,1-3.16,6.14c-1.85,1.2-3.44.38-3.55-1.82A7.68,7.68,0,0,1,356.69,230.15Z"/></g></g><g id="Pencil"><g id="Pencil-2" data-name="Pencil"><path id="Shadow-5" data-name="Shadow" class="cls-2" d="M144.4,392c-5.93,3,9,13.57,16.46,9.5l129.78-76L306.22,309a1,1,0,0,0-1.05-1.7l-30.06,9.17Z"/><path class="cls-28" d="M276.3,305,304,299.53a.86.86,0,0,1,.81,1.41L286,322.18Z"/><path class="cls-6" d="M304.76,300.94a.86.86,0,0,0-.81-1.41l-5.4,1.06h0a4.74,4.74,0,0,1,2.24,4.41l0,.48Z"/><path class="cls-9" d="M182.9,381.31l2.26-1.3,2.73-1.55L286,322.18a12.54,12.54,0,0,0-.77-9.17c-2-4.39-5.77-7.85-8.92-8.05L178.26,361.2l-5.22,3C176.53,362.44,186.37,379.51,182.9,381.31Z"/><path class="cls-5" d="M191.52,376.4l5-2.91c1.49-.79.64-4.45-1.11-8.24-2.3-5-6.84-9.91-8.82-8.86l-3.72,2.14-1.32.78c2-1,6.52,3.83,8.83,8.86,1.66,3.63,2.51,7.17,1.24,8.12h0A.36.36,0,0,1,191.52,376.4Z"/><path class="cls-9" d="M192.78,375.66c3.46-1.84-6.46-18.92-9.93-17.09l-5.06,2.9c3.47-1.84,13.39,15.25,9.92,17.08Z"/><path class="cls-5" d="M182.9,381.31l5-2.85c3.42-1.78-6-18.35-9.63-17.26a.69.69,0,0,0-.21.08l-5,2.91C176.53,362.44,186.37,379.51,182.9,381.31Z"/><path class="cls-12" d="M304.89,300l-.94-.48-20.06,11L180.15,370c-.2-.31-.36-.33-.49-.11,3,4.59,5.18,10.38,3.24,11.39l2.26-1.3,2.73-1.55L286,322.18h0l18.76-21.24A.85.85,0,0,0,304.89,300Z"/><path class="cls-26" d="M161.7,393.44l21.2-12.13c1.48-.77.66-4.4-1.05-8.16-2.29-5-6.81-10-8.81-9h0l-21.26,12.17c-4.23,2.44-.34,11.61,4.37,15.71C157.88,393.63,159.84,394.31,161.7,393.44Z"/><path class="cls-14" d="M163,386.86c-1.22-4.77-5.09-9.46-8.65-10.46a3.44,3.44,0,0,0-3.17.43c-3.19,3,.52,11.37,5,15.25,1.71,1.52,3.63,2.2,5.46,1.4C163.18,392.55,163.79,390.1,163,386.86Z"/></g></g><g id="Character"><g id="Character-2" data-name="Character"><path class="cls-6" d="M440.69,296.59c.66.27.8,1.54.84,4.07,0,1.91.37,5.25-1.88,5.86s-5.52.2-6.91-1.63c-1.74-2.28-2.9-4.29-5.39-7.08-2.16-2.43-4.51-4.7-5.32-8.05-.74-3,0-4.33,2-5.16,2.85-1.14,7.21,2.9,9.41,3.57C435.36,288.74,440,296.33,440.69,296.59Z"/><path class="cls-28" d="M440.74,294.26l-.07,3.1s-3.27,2.4-7.83,0c-.13-.3-.71-4.45-.71-4.45Z"/><path class="cls-6" d="M415.21,313.88a51,51,0,0,1,1.25,5.07c.34,1.89.82,5,.13,6.42s-3.27,2.25-7.23,2.13c-2.57-.08-6.61,1.57-9.38,3s-8.77,2-11.76,1.59c-3.51-.49-7.12-2.62-7.66-4.09s.25-3,8.65-6.33c.07,0,11.64-3.51,15.76-7.86Z"/><path class="cls-28" d="M415.28,310.53s-.06,2.3-.08,3.61-1.61,3.23-5.62,3c-2.82-.16-4.77-1-4.61-3.29l.08-3.34Z"/><path class="cls-7" d="M443.68,253.21A84.39,84.39,0,0,0,440.39,237s1.42-13.9,2.25-27.08c.89-14.24,1.72-21.57-1.08-42.13,0,0-43.66-3.92-44.85,12.53s.5,58.45.88,65.7,1.49,13.68,2.72,25.45c1.22,11.61,4.74,39,4.74,39a10.87,10.87,0,0,0,10.23,0s4-32.87,3.83-41.23a71.08,71.08,0,0,0-2.76-18.3s1.18-13.56,2.22-25.36,2-17.45,2.27-22.59l1-.47s.55,20.41.93,27.66,1.38,14.21,3.17,27.7c1.55,11.71,6.41,36.5,6.41,36.5,5.19,3,8.39-.18,8.39-.18S444.87,263.36,443.68,253.21Z"/><path class="cls-8" d="M420.84,203.05s11.28-5.24,17-10.08c0,0-5.35,7.19-12.23,10.28,0,0-3,25.26-3,24.76l-.83-25Z"/><polygon class="cls-28" points="413.02 109.13 414.72 124.21 428.96 123.49 427.38 105.9 413.02 109.13"/><path class="cls-7" d="M434.33,114.91c5.29-.25,8,.55,10.37,5.12s3.31,18.23,4.14,25.27,1,12-1.87,12.73-14.18,1-14.18,1Z"/><path class="cls-9" d="M443.27,122.72c-.77-4.22-6.31-8.65-11.51-7.81-1.2.2-2.38.39-3.52.6-.62,2.53-7.57,4.12-14.21,2.55-2,.53-8.59,1.76-10.25,2.32-4.77,1.58-6.74,6.28-7.49,21.83,0,0,.39,35.24.2,42.26,11.78,5,24.14,5.1,31,3.76,14.29-2.78,16.14-8.65,16.14-8.65l-2.13-16.11S445,132.26,443.27,122.72Z"/><path class="cls-17" d="M443.27,122.72c-.77-4.22-6.31-8.65-11.51-7.81-1.2.2-2.38.39-3.52.6-.62,2.53-7.57,4.12-14.21,2.55-2,.53-8.59,1.76-10.25,2.32-4.77,1.58-6.74,6.28-7.49,21.83,0,0,.39,35.24.2,42.26,11.78,5,24.14,5.1,31,3.76,14.29-2.78,16.14-8.65,16.14-8.65l-2.13-16.11S445,132.26,443.27,122.72Z"/><path class="cls-7" d="M413.58,114.1l.11,1a21.1,21.1,0,0,0,8.74,0c4.63-1,5.56-2.33,5.56-2.33l-.1-1.08s1.15-.42,1.76,1.35a21.6,21.6,0,0,1,.67,2.16s.53,3.24-4.91,4.89a16.83,16.83,0,0,1-13.54-1.48l-2.13.45s1.85-4.25,2.4-5.12a1.41,1.41,0,0,1,1.34-.73Z"/><g id="Device_2" data-name="Device 2"><path class="cls-9" d="M353.18,141.57l-.43-.23a1.87,1.87,0,0,1-.81-.82L343,115.44a.5.5,0,0,1,.28-.65l11.82-6.56a1.63,1.63,0,0,1,1.09.17l.43.23a1.87,1.87,0,0,1,.81.82l8.93,25.09a.5.5,0,0,1-.29.64l-11.82,6.56A1.65,1.65,0,0,1,353.18,141.57Z"/><path class="cls-17" d="M353.18,141.57l-.43-.23a1.87,1.87,0,0,1-.81-.82L343,115.44a.5.5,0,0,1,.28-.65l11.82-6.56a1.63,1.63,0,0,1,1.09.17l.43.23a1.87,1.87,0,0,1,.81.82l8.93,25.09a.5.5,0,0,1-.29.64l-11.82,6.56A1.65,1.65,0,0,1,353.18,141.57Z"/><path class="cls-9" d="M354.19,141.77a1.9,1.9,0,0,1-1-.2l-.43-.23a1.87,1.87,0,0,1-.81-.82L343,115.43a.5.5,0,0,1,0-.38l1.7.89a.46.46,0,0,0,0,.38l8.92,25.09A.56.56,0,0,0,354.19,141.77Z"/><path class="cls-16" d="M354.19,141.77a1.9,1.9,0,0,1-1-.2l-.43-.23a1.87,1.87,0,0,1-.81-.82L343,115.43a.5.5,0,0,1,0-.38l1.7.89a.46.46,0,0,0,0,.38l8.92,25.09A.56.56,0,0,0,354.19,141.77Z"/><path class="cls-9" d="M344.71,116.32l8.93,25.09a.5.5,0,0,0,.63.33l11.82-6.56a.5.5,0,0,0,.29-.64l-8.93-25.09a.51.51,0,0,0-.63-.33L345,115.68A.49.49,0,0,0,344.71,116.32Z"/><path class="cls-20" d="M344.71,116.32l8.93,25.09a.5.5,0,0,0,.63.33l11.82-6.56a.5.5,0,0,0,.29-.64l-8.93-25.09a.51.51,0,0,0-.63-.33L345,115.68A.49.49,0,0,0,344.71,116.32Z"/><path class="cls-4" d="M346.37,117.76l10.52-5.88a.44.44,0,0,1,.54.29l7.18,20.22a.41.41,0,0,1-.24.55l-10.48,6a.43.43,0,0,1-.54-.28l-7.23-20.36A.43.43,0,0,1,346.37,117.76Z"/><path class="cls-6" d="M350.63,113.18a.33.33,0,0,1,.45.14.33.33,0,0,1-.11.46.34.34,0,0,1-.45-.14A.33.33,0,0,1,350.63,113.18Z"/><path class="cls-6" d="M350.16,114.56c.58-.3,1.6-.89,2.16-1.21a.21.21,0,0,1,.28.07.2.2,0,0,1-.08.27l-2.17,1.21a.21.21,0,0,1-.28-.07A.2.2,0,0,1,350.16,114.56Z"/><path class="cls-6" d="M349.61,114.87a.19.19,0,0,1,.25.08.17.17,0,0,1-.06.25.2.2,0,0,1-.26-.07A.19.19,0,0,1,349.61,114.87Z"/><path class="cls-6" d="M359.88,136.48a.67.67,0,0,1,.84.44.65.65,0,0,1-.38.86.68.68,0,0,1-.85-.44A.67.67,0,0,1,359.88,136.48Z"/><path class="cls-9" d="M353.54,117.78l1.71,2.26a.2.2,0,0,0,.25.08l2.11-.91c.23-.09.42.26.34.59l-.79,3.23a.63.63,0,0,0,0,.41l1.24,2.92c.13.31,0,.71-.24.68l-2.2-.26a.25.25,0,0,0-.24.16l-1.35,2.72c-.14.28-.43.18-.48-.18l-.57-3.39a.4.4,0,0,0-.18-.3l-2.07-1.24a.58.58,0,0,1-.06-.79l1.85-1.83a.5.5,0,0,0,.13-.35l.06-3.49C353.09,117.73,353.36,117.54,353.54,117.78Z"/></g><path class="cls-28" d="M403.78,120.38c-6.52.56-9.29,1.75-14.19,10.57-5.3,9.57-15.51,26.9-16.8,29.09-1.8,3-2.14,7.67-.59,10.46,1.45,2.61,6.06,3.81,11.28-2.09,6.2-7,17.76-24.14,17.76-24.14S411.05,131.33,403.78,120.38Z"/><path class="cls-28" d="M374.9,172.51c-5-.6-16.66-16.43-20-21.6a37,37,0,0,0-10.1-10.67,7,7,0,0,1-2-2,5.17,5.17,0,0,1-.57-2.51,23.07,23.07,0,0,0-.05-3.43,7.79,7.79,0,0,1-.31-2c.06-.66.39-1.26.51-1.9a12,12,0,0,0-.09-2.39,3,3,0,0,1,.31-1.55,6.39,6.39,0,0,1,1.06-1.21,14.6,14.6,0,0,1,1.66-1.19l1.73,4.72,1.65,4.52c.63.59,1.69,1.74,2.39.56a2.64,2.64,0,0,0,.28-1c.11-1.15,0-2.33.22-3.47a4.37,4.37,0,0,1,.87-2c.29-.36,1.18-1.19,1.67-.76a.92.92,0,0,1,.26.52c.12.54-.06,1,0,1.58s.33,1.34.46,2a28.41,28.41,0,0,1,.48,4.12c0,1,0,2,.15,3.05a6.87,6.87,0,0,0,1.22,3.3c1.29,1.86,18.7,18.54,18.7,18.54Z"/><path class="cls-7" d="M405,120c-3.94-.1-8.69.53-12.36,5.3s-18.38,30.74-18.38,30.74l-8.26-7.4a14.33,14.33,0,0,0-6.34,9,89.11,89.11,0,0,0,7.47,10.14c3.49,3.83,7.38,6.48,10.57,5.31s6.45-3.71,13.32-13.27S405.41,139,405.41,139,410.14,128,405,120Z"/><path class="cls-26" d="M403,90.68s-3.56,5.39-3.15,5.92,3,1,3,1Z"/><path class="cls-6" d="M404.66,94.15a4.24,4.24,0,1,1,4.23-4.24A4.24,4.24,0,0,1,404.66,94.15Zm0-7.53A3.3,3.3,0,1,0,408,89.91,3.29,3.29,0,0,0,404.66,86.62Z"/><path class="cls-28" d="M412.86,75.77c-7.19,1.51-9.26,4.67-9.94,16.1-.71,11.93.51,15.69,2.08,17.29,1.06,1.09,6.94,1.28,9.91.47,3.71-1,12.1-4,16-10,4.62-7.06,5.84-16.64.88-20.56C424.87,73.53,415.79,75.15,412.86,75.77Z"/><path class="cls-26" d="M413.12,110l-.34-2.2a14.13,14.13,0,0,1-7.37,1.67C406.78,110.11,410.36,110.3,413.12,110Z"/><polygon class="cls-6" points="400.82 89.03 413.61 90.68 413.09 91.58 400.82 89.99 400.82 89.03"/><path class="cls-6" d="M402.48,80.5a5,5,0,0,0,.55,3.18,5.12,5.12,0,0,0,4.81,2.54c-.32,0,.92,1.61,1,1.7a2.53,2.53,0,0,0,1.88.72c.26,1.61.14,3.28,1.92,4,0,0,1.14-4.41,4.86-3.86s4.24,5.33,1.89,8.23-4.53,1.8-4.56,1.79c.22.11.29,1.52.37,1.78a12.2,12.2,0,0,0,.95,2.41,11.56,11.56,0,0,0,3.37,4,9.78,9.78,0,0,0,4.08,1.92c1.34.22,2.92-.39,4.28-.57a75.33,75.33,0,0,0,8.62-15.08,20.72,20.72,0,0,0,2.06-7.54c0-2.13-.06-4.42-1.36-6.22a6.94,6.94,0,0,0-4.67-2.77,7.45,7.45,0,0,0-4-5.51,13.83,13.83,0,0,0-6.87-1.36c-2.36.07-4.69.48-7,.72a76.38,76.38,0,0,1-14.58-.31.81.81,0,0,0-.51.06.8.8,0,0,0-.29.52c-.75,3.25.75,6.61,4.13,7.41A4.75,4.75,0,0,0,402.48,80.5Z"/><path class="cls-6" d="M412.59,95.2l.14-5a2.5,2.5,0,0,0-.14,5Z"/></g></g></g></svg>